<?xml version="1.0" encoding="UTF-8" standalone="no"?>
<!DOCTYPE svg PUBLIC "-//W3C//DTD SVG 1.1//EN" "http://www.w3.org/Graphics/SVG/1.1/DTD/svg11.dtd">
<svg width="100%" height="100%" viewBox="0 0 1527 1116" version="1.1" xmlns="http://www.w3.org/2000/svg" xmlns:xlink="http://www.w3.org/1999/xlink" xml:space="preserve" xmlns:serif="http://www.serif.com/" style="fill-rule:evenodd;clip-rule:evenodd;stroke-linejoin:round;stroke-miterlimit:2;">
    <g transform="matrix(0.1,0,0,-0.1,0,1116)">
        <path d="M3127,8921C3078,8705 3050,8451 3050,8222L3050,8063L2623,8064C2228,8065 2181,8063 2015,8041C1848,8020 1807,8010 1822,7994C1826,7991 1915,8001 2022,8016C2208,8042 2233,8044 2725,8047C3018,8050 3239,8055 3244,8061C3250,8066 3219,8070 3163,8070L3072,8070L3066,8113C3051,8213 3094,8677 3136,8865C3163,8989 3163,8990 3151,8990C3146,8990 3135,8959 3127,8921Z" style="fill:rgb(238,238,238);fill-rule:nonzero;"/>
        <path d="M2391,8954C2334,8947 2264,8936 2236,8930C2208,8924 2123,8915 2048,8909C1972,8904 1847,8896 1770,8890C1693,8885 1625,8878 1620,8875C1592,8858 1632,8855 1772,8867C2000,8885 2025,8883 1915,8855C1866,8842 1804,8831 1778,8831C1724,8830 1714,8816 1760,8807C1797,8799 1841,8807 2040,8859C2191,8897 2202,8899 2460,8910C2606,8917 2807,8924 2908,8927C3008,8930 3090,8937 3090,8941C3090,8952 3026,8952 2760,8940C2642,8935 2498,8929 2440,8927L2335,8923L2410,8936C2451,8943 2513,8949 2548,8949C2582,8950 2610,8954 2610,8960C2610,8973 2520,8971 2391,8954Z" style="fill:rgb(238,238,238);fill-rule:nonzero;"/>
        <path d="M3027,8757C3015,8605 3000,8236 3004,8190C3006,8166 3012,8144 3018,8142C3024,8140 3030,8228 3033,8367C3037,8492 3043,8650 3046,8718C3054,8858 3037,8891 3027,8757Z" style="fill:rgb(238,238,238);fill-rule:nonzero;"/>
        <path d="M1688,8783C1681,8765 1676,8625 1672,8404C1667,8056 1668,8052 1689,8031C1700,8020 1712,8010 1713,8010C1715,8010 1720,8139 1724,8298C1729,8456 1733,8606 1734,8632C1734,8658 1731,8680 1725,8680C1719,8680 1712,8637 1709,8583C1704,8499 1703,8505 1705,8625C1706,8702 1710,8775 1715,8788C1726,8821 1702,8816 1688,8783ZM1697,8368C1695,8350 1693,8364 1693,8400C1693,8436 1695,8450 1697,8433C1699,8415 1699,8385 1697,8368Z" style="fill:rgb(238,238,238);fill-rule:nonzero;"/>
        <path d="M2328,8780C2214,8762 2107,8690 2065,8603C2042,8554 2039,8538 2045,8493L2051,8440L2005,8440C1948,8440 1954,8425 2015,8416C2048,8411 2060,8404 2060,8392C2060,8335 2125,8222 2146,8243C2150,8247 2148,8256 2142,8262C2124,8280 2127,8290 2151,8290C2167,8290 2170,8286 2165,8270C2157,8245 2176,8244 2203,8267C2221,8284 2222,8284 2232,8266C2237,8256 2263,8235 2288,8219L2334,8190L2267,8190C2191,8190 2146,8205 2111,8243C2098,8258 2083,8267 2078,8264C2060,8253 2111,8202 2162,8180C2207,8161 2226,8158 2300,8163C2418,8170 2542,8224 2636,8310C2703,8371 2753,8517 2735,8599C2723,8654 2686,8685 2577,8733C2462,8783 2412,8792 2328,8780ZM2543,8691C2579,8667 2590,8653 2588,8637C2586,8624 2590,8615 2599,8615C2637,8615 2642,8470 2605,8392C2559,8293 2443,8195 2395,8214C2377,8220 2375,8261 2391,8277C2397,8283 2400,8294 2398,8300C2391,8322 2360,8281 2360,8249C2360,8232 2355,8220 2347,8220C2330,8220 2240,8279 2240,8290C2240,8303 2308,8358 2350,8380C2374,8392 2387,8405 2384,8414C2379,8428 2391,8450 2472,8573C2555,8698 2534,8712 2409,8614C2363,8577 2311,8541 2294,8533C2251,8512 2250,8459 2291,8419L2320,8391L2277,8365C2253,8351 2231,8340 2228,8340C2225,8340 2229,8367 2237,8400C2250,8460 2248,8486 2229,8475C2224,8471 2220,8461 2220,8450C2220,8440 2210,8401 2199,8364C2178,8299 2177,8296 2166,8321C2160,8335 2145,8359 2133,8374C2120,8390 2110,8411 2110,8421C2110,8430 2105,8440 2098,8442C2079,8449 2109,8538 2143,8577C2159,8596 2170,8614 2166,8617C2153,8631 2125,8603 2098,8550C2068,8492 2059,8510 2085,8574C2109,8630 2219,8703 2299,8716C2340,8722 2340,8722 2340,8691C2340,8674 2345,8660 2350,8660C2356,8660 2360,8669 2360,8679C2360,8726 2370,8732 2434,8728C2483,8725 2505,8718 2543,8691ZM2610,8690C2618,8685 2621,8678 2617,8674C2613,8670 2602,8674 2593,8683C2575,8701 2585,8706 2610,8690ZM2695,8629C2716,8590 2714,8510 2690,8443C2655,8342 2617,8328 2646,8426C2663,8487 2660,8566 2638,8614C2630,8633 2630,8643 2639,8654C2655,8674 2677,8664 2695,8629ZM2454,8598C2395,8501 2394,8499 2376,8519C2360,8537 2361,8539 2402,8574C2446,8610 2467,8620 2454,8598ZM2355,8470C2355,8441 2351,8434 2333,8432C2309,8428 2304,8443 2316,8488C2326,8525 2355,8512 2355,8470ZM2123,8319C2116,8292 2102,8307 2094,8350L2089,8385L2108,8363C2120,8349 2126,8332 2123,8319Z" style="fill:rgb(238,238,238);fill-rule:nonzero;"/>
        <path d="M2200,8616C2200,8590 2215,8573 2224,8588C2231,8600 2220,8640 2209,8640C2204,8640 2200,8629 2200,8616Z" style="fill:rgb(238,238,238);fill-rule:nonzero;"/>
        <path d="M2540,8516C2540,8504 2549,8500 2575,8500C2594,8500 2610,8505 2610,8510C2610,8516 2604,8520 2598,8520C2591,8520 2575,8523 2563,8526C2546,8531 2540,8528 2540,8516Z" style="fill:rgb(238,238,238);fill-rule:nonzero;"/>
        <path d="M3555,8029C3538,8003 3722,7867 3938,7746C4032,7693 4062,7683 4046,7708C4043,7713 3992,7744 3933,7778C3873,7811 3779,7870 3722,7910C3638,7968 3620,7985 3625,8001C3630,8015 3625,8022 3605,8030C3572,8043 3563,8043 3555,8029Z" style="fill:rgb(238,238,238);fill-rule:nonzero;"/>
        <path d="M2238,8009C2190,8004 2026,7983 1873,7961C1720,7939 1558,7918 1513,7914C1435,7908 1399,7898 1411,7885C1415,7882 1486,7888 1571,7899C1655,7911 1726,7918 1728,7915C1736,7907 1598,7770 1503,7691C1425,7627 1310,7527 1105,7347C1083,7328 1068,7309 1072,7305C1076,7300 1086,7303 1094,7309C1107,7320 1108,7316 1102,7283C1093,7228 1094,7195 1105,7192C1111,7191 1118,7220 1123,7257C1127,7293 1133,7326 1135,7329C1151,7344 1486,7381 1655,7385C1760,7388 1915,7392 2000,7395C2085,7397 2205,7400 2265,7402C2352,7404 2336,7405 2187,7410L1999,7415L2060,7500C2093,7547 2128,7591 2137,7597C2158,7613 2145,7628 2122,7614C2113,7608 2079,7568 2048,7524L1991,7445L1878,7433C1816,7426 1691,7416 1600,7410C1509,7404 1372,7391 1295,7381C1218,7371 1154,7363 1154,7364C1153,7364 1219,7422 1301,7492C1393,7571 1455,7618 1464,7614C1472,7611 1492,7616 1509,7624C1536,7638 1539,7638 1534,7625C1530,7615 1534,7610 1544,7610C1553,7610 1560,7615 1560,7621C1560,7626 1577,7638 1597,7647C1626,7659 1638,7660 1653,7650C1668,7641 1674,7642 1683,7654C1693,7667 1739,7671 1958,7677C2103,7682 2224,7683 2226,7681C2228,7679 2223,7668 2213,7658C2184,7626 2208,7626 2245,7659L2281,7690L2704,7690L2630,7623C2511,7516 2480,7483 2480,7466C2480,7457 2485,7450 2490,7450C2496,7450 2500,7454 2500,7458C2500,7462 2554,7517 2620,7579L2740,7692L2801,7695C2834,7697 2860,7695 2858,7690C2855,7682 2779,7621 2614,7496C2553,7450 2491,7397 2475,7379C2437,7334 2462,7328 2503,7372C2521,7391 2562,7426 2595,7450C2628,7474 2691,7523 2735,7560C2779,7596 2857,7657 2909,7695C2961,7733 2998,7766 2992,7768C2985,7770 2961,7758 2938,7741C2900,7713 2889,7710 2826,7710L2755,7710L2873,7827C2994,7947 3027,7993 2940,7920L2891,7879L2693,7886C2584,7890 2500,7895 2505,7896C2511,7898 2569,7906 2634,7915C2745,7929 2770,7935 2759,7944C2757,7946 2706,7941 2646,7934C2586,7926 2534,7923 2531,7926C2528,7929 2543,7946 2564,7964C2585,7982 2601,8002 2599,8009C2596,8018 2573,8003 2534,7967L2474,7912L2388,7908C2340,7906 2299,7908 2296,7911C2293,7914 2312,7936 2339,7958C2383,7995 2394,8000 2439,8000C2466,8000 2492,8005 2495,8010C2502,8022 2367,8021 2238,8009ZM2291,7949C2251,7911 2232,7900 2216,7904C2204,7907 2177,7910 2155,7910C2123,7911 2118,7913 2133,7921C2142,7926 2150,7935 2150,7940C2150,7956 2127,7951 2100,7930C2072,7908 1982,7902 1963,7921C1955,7929 1946,7929 1932,7921C1909,7909 1760,7906 1760,7918C1760,7922 1817,7934 1888,7944C2125,7979 2275,7998 2310,7999L2345,7999L2291,7949ZM1740,7844C1710,7824 1653,7777 1613,7740C1573,7702 1526,7664 1508,7655L1475,7639L1505,7661C1522,7674 1580,7728 1635,7782C1716,7861 1741,7880 1765,7880C1793,7880 1792,7878 1740,7844ZM1857,7863C1843,7848 1740,7807 1740,7815C1740,7817 1756,7827 1776,7839C1795,7851 1808,7865 1805,7870C1801,7876 1814,7880 1837,7880C1872,7880 1873,7879 1857,7863ZM1975,7870C1930,7859 1898,7859 1905,7870C1908,7876 1932,7879 1958,7879C2000,7878 2002,7877 1975,7870ZM2194,7860C2181,7847 2012,7834 2023,7846C2030,7854 2071,7859 2185,7868C2198,7869 2201,7867 2194,7860ZM2365,7860C2319,7848 2228,7848 2235,7860C2238,7866 2276,7869 2318,7869C2375,7868 2387,7866 2365,7860ZM2817,7864L2868,7857L2793,7784L2718,7710L2515,7712L2311,7715L2372,7769L2432,7823L2579,7808C2659,7800 2729,7796 2733,7800C2738,7804 2695,7813 2638,7820C2581,7826 2515,7835 2490,7840C2451,7847 2449,7848 2478,7849C2495,7849 2510,7855 2510,7860C2510,7871 2732,7874 2817,7864ZM1958,7834C1955,7831 1926,7823 1895,7815C1863,7808 1843,7807 1848,7812C1859,7823 1911,7837 1944,7839C1955,7840 1961,7837 1958,7834ZM2380,7816C2380,7799 2274,7716 2243,7709C2228,7705 2179,7702 2135,7702L2055,7701L2085,7726C2167,7795 2184,7805 2249,7816C2330,7830 2380,7830 2380,7816ZM1720,7785C1715,7771 1713,7755 1715,7748C1724,7723 1685,7694 1632,7683L1579,7673L1652,7741C1692,7778 1726,7809 1727,7810C1728,7810 1725,7799 1720,7785ZM1780,7785C1755,7758 1736,7752 1742,7773C1746,7783 1786,7809 1799,7810C1802,7810 1793,7799 1780,7785ZM1889,7764C1848,7720 1817,7703 1765,7696L1715,7689L1761,7735C1802,7777 1810,7781 1829,7771C1846,7761 1854,7762 1866,7775C1874,7783 1889,7790 1897,7790C1910,7790 1908,7784 1889,7764ZM2120,7786C2120,7784 2096,7764 2067,7741C2014,7701 2012,7700 1934,7700L1855,7701L1898,7740C1944,7781 1938,7779 2088,7788C2105,7789 2120,7788 2120,7786ZM1963,7413C1956,7411 1944,7411 1938,7413C1931,7416 1936,7418 1950,7418C1964,7418 1969,7416 1963,7413Z" style="fill:rgb(238,238,238);fill-rule:nonzero;"/>
        <path d="M3012,7968C3007,7961 3001,7937 3000,7915C2997,7860 2999,7850 3009,7850C3016,7850 3033,7971 3026,7978C3024,7979 3018,7975 3012,7968Z" style="fill:rgb(238,238,238);fill-rule:nonzero;"/>
        <path d="M8925,7764C8903,7762 8815,7756 8730,7750C8645,7744 8512,7732 8434,7723C8303,7708 8278,7708 8074,7723C7954,7733 7762,7740 7648,7740C7511,7740 7440,7744 7438,7751C7436,7758 7426,7758 7410,7752C7396,7747 7321,7739 7243,7735C7152,7730 7094,7723 7083,7715C7059,7697 7071,7687 7102,7699C7115,7704 7173,7711 7231,7715C7315,7721 7333,7720 7323,7709C7316,7702 7263,7692 7194,7686C7120,7679 7075,7671 7073,7663C7070,7654 7087,7653 7139,7657C7178,7660 7210,7660 7210,7657C7210,7654 7176,7633 7134,7610L7058,7568L7004,7597C6974,7612 6950,7628 6950,7631C6950,7640 7024,7690 7038,7690C7045,7690 7050,7697 7050,7705C7050,7730 7027,7722 6967,7679C6935,7657 6910,7644 6910,7649C6910,7655 6901,7660 6890,7660C6867,7660 6863,7642 6885,7634C6908,7625 6763,7495 6656,7428C6553,7364 6500,7316 6517,7299C6524,7292 6532,7296 6543,7313C6557,7335 6659,7410 6675,7410C6678,7410 6678,7401 6675,7390C6665,7357 6682,7367 6727,7419C6751,7447 6802,7487 6847,7513C6965,7582 6973,7585 7005,7567L7033,7553L6940,7504C6888,7478 6826,7436 6801,7412C6768,7379 6743,7365 6711,7359C6687,7354 6661,7345 6654,7339C6634,7323 6647,7308 6670,7320C6696,7334 6855,7350 6968,7350C7043,7350 7060,7347 7060,7335C7060,7327 7064,7320 7069,7320C7074,7320 7083,7327 7090,7335C7100,7347 7130,7350 7239,7350L7375,7349L7348,7325C7332,7312 7320,7296 7320,7290C7320,7275 6608,7288 6598,7304C6581,7329 6570,7281 6570,7180C6570,7122 6577,6927 6585,6745C6593,6564 6604,5994 6609,5480C6620,4529 6625,4332 6641,4295C6647,4282 6649,4293 6645,4330C6637,4411 6621,5417 6621,5855C6621,6064 6613,6446 6604,6704C6591,7058 6590,7175 6598,7178C6605,7180 6610,7201 6610,7224L6610,7266L6858,7263C6994,7262 7296,7258 7530,7255C7912,7251 8066,7245 8240,7224C8307,7217 8301,7228 8233,7239L8185,7246L8220,7265C8239,7276 8279,7287 8309,7290C8362,7295 8389,7315 8353,7322C8337,7325 8354,7335 8483,7398C8498,7405 8478,7167 8458,7105C8447,7067 8436,6989 8430,6895C8424,6813 8415,6689 8409,6620C8398,6490 8401,6367 8426,6018C8434,5904 8440,5715 8440,5598L8439,5385L8420,5409C8409,5422 8400,5445 8400,5461C8400,5492 8386,5500 8376,5474C8369,5455 8400,5381 8423,5361C8438,5349 8440,5321 8440,5134C8440,5016 8436,4920 8432,4920C8427,4920 8413,4931 8400,4945C8374,4972 8360,4977 8360,4958C8360,4951 8378,4929 8400,4910L8440,4875L8441,4593C8441,4438 8439,4306 8435,4300C8424,4282 8406,4115 8413,4096C8425,4065 8440,4090 8440,4142C8440,4170 8442,4191 8444,4189C8448,4185 8455,4112 8465,3970C8476,3804 8503,3730 8536,3775C8548,3790 8549,3823 8544,3940C8537,4085 8537,4085 8565,4140C8617,4242 8660,4296 8660,4258C8660,4251 8635,4207 8605,4161C8575,4115 8550,4073 8550,4069C8550,4064 8559,4060 8569,4060C8580,4060 8618,4093 8658,4135C8726,4208 8750,4224 8750,4197C8750,4185 8692,4098 8630,4018C8600,3980 8624,3971 8662,4006C8679,4022 8710,4057 8731,4083C8765,4125 8770,4129 8770,4108C8770,4081 8686,3910 8668,3899C8661,3894 8645,3893 8632,3897C8605,3903 8578,3884 8582,3860C8584,3851 8579,3836 8571,3826C8543,3792 8572,3798 8630,3839C8663,3862 8698,3880 8707,3878C8719,3876 8724,3881 8723,3891C8718,3920 8935,4061 8961,4045C8967,4041 8997,4053 9028,4072C9059,4091 9100,4112 9118,4120C9135,4127 9150,4136 9150,4141C9150,4154 9134,4152 9093,4135C9047,4115 9048,4115 9056,4155C9061,4182 9059,4191 9046,4196C9028,4203 9023,4260 9041,4260C9049,4260 9050,4307 9046,4423C9037,4666 9044,5759 9055,5840C9058,5859 9057,5930 9054,5998C9049,6092 9044,6120 9034,6120C9023,6120 9020,6155 9020,6306L9020,6492L9055,6471C9104,6442 9107,6461 9058,6500L9017,6533L9024,6629C9028,6681 9036,6727 9041,6731C9049,6735 9048,6745 9040,6761C9030,6778 9029,6827 9034,6955C9040,7099 9043,7127 9058,7139C9070,7149 9072,7154 9063,7157C9046,7163 9047,7248 9069,7490C9078,7597 9084,7695 9082,7708C9076,7737 9056,7731 9052,7699C9049,7678 9034,7669 8940,7633C8880,7609 8827,7590 8823,7590C8818,7590 8765,7612 8705,7638C8622,7674 8594,7691 8592,7706C8589,7725 8597,7727 8757,7738C8849,7745 8944,7750 8968,7750C8991,7750 9010,7755 9010,7760C9010,7766 9000,7769 8988,7768C8975,7767 8947,7765 8925,7764ZM7568,7696C7571,7682 7568,7679 7555,7684C7546,7687 7493,7690 7437,7690C7343,7691 7337,7692 7360,7705C7378,7715 7411,7719 7475,7717C7554,7715 7565,7713 7568,7696ZM8150,7701L8205,7694L8155,7684C8128,7679 7999,7675 7870,7676C7637,7677 7590,7683 7590,7712C7590,7724 8047,7716 8150,7701ZM8560,7701C8560,7675 8574,7666 8686,7619C8740,7597 8787,7576 8789,7574C8797,7566 8541,7450 8527,7456C8519,7459 8510,7454 8507,7445C8503,7437 8447,7404 8382,7371C8268,7315 8261,7313 8160,7306C8104,7303 8055,7301 8053,7304C8048,7309 8186,7390 8201,7390C8208,7390 8228,7378 8247,7364C8293,7329 8304,7344 8260,7381C8220,7415 8214,7409 8337,7472L8419,7515L8450,7496C8488,7474 8504,7484 8472,7510L8449,7529L8495,7555C8560,7594 8551,7607 8484,7571L8427,7540L8347,7588C8238,7652 8221,7683 8293,7684C8310,7684 8368,7682 8420,7678L8515,7672L8445,7684C8380,7696 8377,7697 8410,7703C8528,7725 8560,7724 8560,7701ZM8222,7660C8217,7640 8240,7621 8323,7572L8403,7527L8309,7479C8257,7453 8210,7431 8203,7431C8196,7430 8170,7444 8145,7462L8099,7494L8175,7533C8217,7553 8248,7575 8245,7580C8242,7586 8213,7577 8179,7559C8076,7508 8076,7508 8031,7541C8008,7557 7990,7574 7990,7578C7990,7582 8008,7596 8030,7610C8067,7633 8081,7650 8063,7650C8058,7650 8037,7639 8015,7625C7971,7598 7955,7595 7937,7610C7930,7616 7916,7627 7905,7634C7888,7646 7896,7649 7975,7654C8025,7658 8097,7664 8135,7669C8215,7678 8226,7677 8222,7660ZM7610,7654C7626,7638 7435,7547 7403,7555C7370,7563 7375,7578 7415,7597C7434,7606 7450,7617 7450,7622C7450,7635 7432,7631 7393,7610C7346,7585 7344,7585 7280,7613C7220,7640 7224,7650 7300,7661C7373,7671 7598,7666 7610,7654ZM7834,7646C7853,7638 7870,7627 7874,7622C7880,7613 7781,7560 7759,7560C7747,7560 7670,7630 7670,7640C7670,7662 7787,7666 7834,7646ZM9050,7598C9050,7539 9029,7207 9024,7202C9023,7200 8996,7217 8966,7239C8917,7275 8910,7285 8910,7314C8910,7333 8921,7363 8935,7385C8963,7425 8962,7442 8934,7419C8918,7406 8917,7408 8924,7445C8928,7467 8934,7495 8937,7508C8940,7520 8938,7530 8932,7530C8921,7530 8915,7508 8904,7425C8896,7362 8865,7314 8844,7331C8834,7339 8832,7353 8836,7376C8843,7413 8828,7422 8811,7393C8802,7376 8800,7376 8786,7395C8778,7406 8770,7418 8770,7422C8770,7427 8792,7445 8820,7462C8847,7480 8870,7502 8870,7511C8870,7521 8905,7551 8950,7581C8994,7611 9030,7638 9030,7642C9030,7647 9035,7650 9040,7650C9046,7650 9050,7626 9050,7598ZM7265,7590C7276,7590 7292,7586 7300,7580C7311,7573 7298,7564 7245,7540C7172,7507 7148,7507 7110,7538L7087,7557L7140,7587C7188,7615 7195,7616 7219,7604C7233,7596 7254,7590 7265,7590ZM7692,7581L7734,7542L7662,7506C7623,7486 7584,7470 7575,7470C7558,7470 7450,7521 7450,7530C7450,7539 7613,7619 7633,7619C7643,7620 7670,7603 7692,7581ZM6944,7602C6947,7597 6928,7584 6902,7571L6855,7549L6888,7580C6921,7611 6935,7616 6944,7602ZM8826,7524C8762,7477 8712,7434 8715,7429C8720,7422 8529,7287 8524,7293C8523,7294 8525,7324 8529,7360L8535,7424L8615,7464C8742,7526 8924,7610 8933,7610C8938,7610 8890,7571 8826,7524ZM7930,7580C7930,7575 7904,7557 7872,7541C7822,7516 7812,7514 7796,7525C7780,7538 7782,7541 7827,7564C7876,7589 7930,7598 7930,7580ZM8001,7533C8022,7517 8040,7503 8039,7500C8039,7491 7766,7370 7748,7370C7738,7370 7730,7366 7730,7360C7730,7349 7664,7348 7636,7359C7620,7365 7625,7371 7666,7397C7787,7473 7811,7484 7831,7472C7860,7454 7877,7457 7857,7477C7842,7493 7844,7496 7893,7526C7922,7544 7949,7559 7953,7559C7958,7560 7979,7548 8001,7533ZM7364,7544C7391,7534 7383,7524 7319,7490C7265,7461 7256,7459 7229,7470C7213,7477 7200,7485 7200,7489C7200,7498 7310,7548 7332,7549C7341,7550 7355,7547 7364,7544ZM7094,7519C7114,7507 7128,7495 7125,7491C7123,7487 7082,7468 7034,7450C6980,7429 6942,7408 6933,7393C6920,7373 6909,7370 6859,7370C6826,7370 6800,7374 6800,7379C6800,7395 6860,7436 6960,7489C7012,7517 7056,7540 7057,7540C7058,7540 7075,7531 7094,7519ZM7790,7500C7790,7497 7758,7478 7720,7457C7654,7422 7648,7420 7623,7434L7596,7448L7675,7488C7739,7520 7758,7525 7772,7516C7782,7510 7790,7503 7790,7500ZM7485,7483C7515,7468 7540,7453 7540,7450C7540,7447 7508,7428 7470,7408L7401,7370L7278,7370C7188,7370 7159,7373 7167,7381C7183,7397 7402,7509 7417,7510C7424,7510 7454,7498 7485,7483ZM8122,7449C8148,7432 8170,7414 8170,7410C8170,7406 8137,7383 8098,7360C8058,7336 8007,7304 7985,7289L7944,7262L7805,7271C7728,7275 7591,7279 7500,7280L7335,7281L7374,7315C7408,7346 7420,7350 7466,7350C7504,7350 7522,7346 7528,7334C7536,7320 7541,7320 7559,7330C7581,7341 7753,7333 7913,7313C7941,7310 7960,7311 7960,7317C7960,7323 7919,7331 7869,7335C7818,7339 7781,7345 7786,7350C7797,7361 8052,7480 8064,7480C8069,7480 8095,7466 8122,7449ZM7199,7456C7223,7443 7222,7442 7158,7406C7101,7375 7084,7370 7027,7370C6935,7370 6940,7387 7048,7431C7145,7472 7165,7475 7199,7456ZM7606,7416C7625,7401 7625,7401 7605,7386C7575,7362 7543,7357 7497,7367L7455,7376L7505,7403C7563,7433 7579,7435 7606,7416ZM8755,7294C8738,7263 8713,7224 8698,7207L8672,7175L8648,7198C8615,7228 8603,7213 8634,7181C8659,7155 8659,7155 8640,7130C8624,7109 8618,7107 8603,7116C8576,7134 8583,7175 8629,7272C8659,7333 8680,7364 8703,7379L8735,7399L8760,7374L8785,7350L8755,7294ZM8591,7245C8574,7207 8557,7174 8551,7172C8531,7165 8540,7141 8570,7113L8600,7087L8574,7053C8560,7035 8552,7015 8555,7010C8558,7005 8555,6991 8547,6980C8534,6961 8532,6965 8526,7021C8523,7055 8520,7123 8520,7172L8520,7260L8567,7290C8593,7306 8615,7318 8617,7317C8618,7315 8607,7283 8591,7245ZM8829,7307C8837,7297 8833,7288 8810,7272C8777,7247 8770,7245 8770,7260C8770,7274 8800,7320 8810,7320C8814,7320 8823,7314 8829,7307ZM8900,7310C8900,7305 8895,7300 8889,7300C8884,7300 8882,7305 8885,7310C8888,7316 8893,7320 8896,7320C8898,7320 8900,7316 8900,7310ZM8210,7284C8210,7272 8138,7250 8098,7250C8022,7250 8021,7267 8096,7275C8134,7278 8170,7283 8175,7285C8191,7291 8210,7290 8210,7284ZM8884,7264C8895,7254 8900,7230 8900,7195C8900,7145 8897,7139 8858,7101C8810,7055 8807,7054 8790,7075C8779,7088 8785,7107 8821,7185C8845,7237 8866,7280 8867,7280C8868,7280 8876,7273 8884,7264ZM8971,7204L9020,7168L9020,7109C9020,7068 9016,7051 9008,7053C9000,7054 8993,7035 8989,7002C8985,6973 8980,6947 8978,6945C8976,6943 8964,6950 8950,6960C8925,6979 8925,6980 8943,7011C8961,7044 8958,7063 8935,7054C8915,7046 8905,7076 8918,7105C8925,7120 8926,7131 8920,7135C8909,7142 8906,7240 8916,7240C8920,7240 8944,7224 8971,7204ZM8796,7198C8758,7108 8749,7097 8735,7120C8730,7128 8797,7230 8807,7230C8809,7230 8804,7215 8796,7198ZM8734,7175C8725,7161 8716,7150 8713,7150C8708,7150 8718,7168 8733,7188C8750,7210 8751,7201 8734,7175ZM8671,7097L8648,7075L8665,7103C8675,7118 8685,7128 8688,7125C8691,7122 8683,7109 8671,7097ZM8735,7090C8738,7085 8734,7069 8725,7056C8707,7029 8680,7031 8680,7059C8680,7091 8720,7114 8735,7090ZM8510,6989C8510,6945 8505,6900 8499,6889C8491,6873 8492,6864 8506,6849C8519,6834 8522,6819 8517,6773C8514,6741 8505,6699 8496,6680L8481,6645L8480,6720C8480,6858 8493,7079 8502,7074C8506,7071 8510,7033 8510,6989ZM8900,7050C8900,7030 8875,7012 8864,7023C8857,7029 8882,7070 8892,7070C8897,7070 8900,7061 8900,7050ZM8788,7047C8804,7028 8766,6980 8749,6997C8739,7007 8739,7015 8748,7035C8761,7063 8772,7066 8788,7047ZM8679,7016C8689,7004 8677,6980 8618,6891C8578,6831 8542,6781 8538,6781C8533,6780 8530,6802 8530,6828C8530,6869 8537,6886 8571,6936C8640,7035 8654,7046 8679,7016ZM8467,6923C8465,6907 8463,6920 8463,6950C8463,6980 8465,6993 8467,6978C8469,6962 8469,6938 8467,6923ZM8860,6993C8860,6988 8851,6974 8841,6961C8819,6932 8805,6948 8826,6978C8841,6999 8860,7008 8860,6993ZM8732,6943C8726,6933 8712,6916 8700,6905L8678,6885L8701,6933C8714,6960 8728,6976 8733,6971C8738,6966 8738,6954 8732,6943ZM8908,6910C8910,6882 8909,6880 8890,6890C8867,6902 8866,6905 8881,6931C8894,6957 8905,6949 8908,6910ZM8975,6902C8972,6894 8970,6877 8970,6864C8970,6838 8963,6835 8940,6850C8928,6858 8927,6863 8938,6880C8954,6906 8953,6913 8935,6906C8924,6902 8920,6907 8920,6925C8920,6949 8920,6949 8950,6932C8967,6922 8978,6909 8975,6902ZM8749,6893C8711,6829 8680,6801 8680,6831C8680,6844 8762,6942 8768,6936C8770,6933 8762,6914 8749,6893ZM8640,6853C8607,6793 8570,6747 8562,6755C8559,6758 8581,6796 8610,6840C8640,6883 8666,6917 8668,6915C8670,6913 8658,6885 8640,6853ZM8794,6893C8738,6806 8727,6790 8723,6794C8716,6801 8791,6920 8803,6920C8808,6920 8804,6908 8794,6893ZM8879,6867C8887,6857 8877,6838 8837,6787C8809,6751 8781,6725 8776,6730C8767,6739 8845,6880 8859,6880C8864,6880 8873,6874 8879,6867ZM8783,6810C8768,6783 8754,6764 8752,6769C8749,6778 8798,6860 8807,6860C8809,6860 8799,6838 8783,6810ZM8449,6646C8440,6638 8439,6648 8444,6690C8447,6720 8451,6763 8452,6785C8453,6807 8456,6787 8457,6741C8460,6685 8457,6653 8449,6646ZM8956,6805C8964,6784 8951,6700 8939,6700C8934,6700 8930,6727 8930,6760C8930,6817 8943,6839 8956,6805ZM8674,6801C8680,6792 8612,6700 8599,6700C8584,6700 8589,6714 8620,6763C8649,6809 8663,6819 8674,6801ZM8904,6669C8882,6645 8868,6645 8846,6669C8824,6693 8830,6713 8873,6771L8905,6815L8913,6752C8921,6698 8919,6686 8904,6669ZM8700,6760C8700,6747 8639,6678 8632,6684C8628,6689 8688,6770 8696,6770C8698,6770 8700,6766 8700,6760ZM9000,6697C9000,6654 8995,6627 8984,6614C8970,6596 8969,6598 8975,6635C8979,6657 8982,6684 8982,6695C8982,6723 8989,6760 8995,6760C8998,6760 9000,6732 9000,6697ZM8710,6685C8690,6653 8660,6637 8660,6660C8660,6676 8724,6743 8728,6731C8730,6725 8722,6704 8710,6685ZM8770,6699C8770,6694 8759,6672 8744,6652C8719,6615 8719,6615 8726,6645C8730,6662 8737,6683 8742,6693C8752,6712 8770,6716 8770,6699ZM8553,6670C8550,6658 8545,6651 8542,6654C8537,6660 8547,6690 8554,6690C8556,6690 8556,6681 8553,6670ZM8831,6591C8818,6573 8804,6563 8795,6567C8776,6574 8776,6579 8796,6625L8811,6663L8832,6642L8853,6622L8831,6591ZM8509,6558C8496,6511 8494,6513 8487,6582C8485,6608 8486,6627 8491,6625C8495,6622 8502,6625 8507,6632C8521,6654 8522,6606 8509,6558ZM8660,6620C8660,6615 8649,6599 8637,6583C8624,6568 8597,6531 8577,6501L8540,6448L8540,6509C8540,6552 8544,6570 8553,6570C8560,6570 8581,6585 8599,6604C8629,6635 8660,6643 8660,6620ZM8920,6630C8920,6625 8916,6620 8910,6620C8905,6620 8900,6625 8900,6630C8900,6636 8905,6640 8910,6640C8916,6640 8920,6636 8920,6630ZM8893,6592C8896,6588 8887,6572 8874,6555C8857,6533 8848,6528 8839,6537C8831,6545 8832,6555 8846,6574C8865,6599 8885,6607 8893,6592ZM8649,6451C8603,6384 8562,6330 8558,6330C8544,6330 8549,6354 8571,6389C8596,6431 8723,6581 8728,6575C8730,6573 8694,6517 8649,6451ZM8859,6363C8765,6181 8760,6174 8732,6189C8720,6196 8710,6204 8710,6209C8710,6226 8830,6450 8872,6511L8915,6574L8924,6540C8933,6509 8928,6495 8859,6363ZM8777,6519C8771,6509 8764,6504 8762,6510C8756,6527 8769,6552 8780,6545C8786,6541 8785,6532 8777,6519ZM8720,6468C8699,6412 8589,6277 8582,6299C8578,6310 8731,6533 8737,6526C8739,6524 8731,6498 8720,6468ZM9000,6475C9000,6455 8994,6440 8985,6436C8964,6428 8956,6452 8964,6496C8970,6525 8974,6529 8986,6520C8994,6513 9000,6493 9000,6475ZM8517,6405C8515,6342 8511,6287 8508,6284C8495,6271 8489,6422 8500,6470C8507,6497 8514,6520 8517,6520C8519,6520 8519,6468 8517,6405ZM8834,6512C8837,6507 8830,6491 8819,6474C8806,6453 8800,6450 8800,6463C8800,6472 8795,6480 8790,6480C8784,6480 8785,6488 8792,6500C8805,6521 8825,6526 8834,6512ZM8447,6383C8445,6367 8443,6380 8443,6410C8443,6440 8445,6453 8447,6438C8449,6422 8449,6398 8447,6383ZM8740,6409C8733,6398 8726,6391 8723,6394C8720,6397 8723,6406 8730,6415C8748,6436 8753,6434 8740,6409ZM8939,6249C8944,6153 8945,6071 8941,6067C8936,6063 8913,6074 8888,6093C8863,6112 8833,6131 8821,6135C8793,6144 8794,6149 8834,6208C8857,6242 8866,6266 8863,6283C8858,6306 8916,6438 8926,6428C8928,6425 8934,6345 8939,6249ZM8736,6336C8716,6287 8673,6227 8667,6237C8662,6245 8737,6370 8746,6370C8749,6370 8744,6355 8736,6336ZM8655,6291C8647,6274 8636,6260 8631,6260C8611,6260 8613,6275 8638,6306C8669,6345 8679,6336 8655,6291ZM8447,6198C8445,6180 8443,6194 8443,6230C8443,6266 8445,6280 8447,6263C8449,6245 8449,6215 8447,6198ZM8611,6240C8624,6233 8630,6219 8630,6196C8630,6145 8611,6136 8570,6170L8535,6198L8559,6224C8587,6254 8585,6253 8611,6240ZM8529,6075C8530,6020 8527,6000 8520,6010C8515,6018 8511,6063 8511,6110C8511,6167 8514,6188 8520,6175C8525,6164 8529,6119 8529,6075ZM8739,6153C8748,6148 8697,6090 8683,6090C8671,6090 8669,6097 8674,6122C8683,6167 8699,6183 8719,6168C8728,6161 8737,6155 8739,6153ZM8479,6030C8478,5957 8475,5924 8470,5940C8458,5977 8458,6179 8470,6160C8475,6152 8479,6093 8479,6030ZM8650,6140C8644,6128 8636,6120 8633,6123C8631,6126 8634,6137 8641,6149C8658,6175 8665,6168 8650,6140ZM8590,6121C8590,6118 8579,6097 8565,6075L8541,6035L8540,6098L8540,6160L8565,6144C8579,6135 8590,6125 8590,6121ZM8808,6111C8819,6104 8817,6095 8798,6066C8786,6047 8771,6030 8767,6030C8751,6030 8749,6060 8765,6089C8782,6122 8787,6125 8808,6111ZM8625,6083C8621,6073 8615,6046 8613,6023C8607,5978 8592,5969 8569,5996C8558,6009 8560,6019 8580,6056C8604,6098 8641,6120 8625,6083ZM8670,6057C8669,6041 8642,6005 8635,6012C8626,6020 8651,6080 8661,6074C8666,6071 8670,6063 8670,6057ZM8880,6065C8891,6052 8888,6045 8859,6020C8821,5988 8814,5985 8805,6000C8797,6014 8838,6080 8855,6080C8862,6080 8873,6073 8880,6065ZM8948,5960L8951,5897L8928,5912C8911,5924 8906,5936 8908,5956C8911,5984 8911,5984 8891,5966C8862,5940 8865,5955 8896,5996C8911,6015 8928,6029 8934,6027C8940,6025 8946,5995 8948,5960ZM8750,5999C8750,5986 8699,5918 8693,5924C8686,5931 8733,6019 8742,6014C8746,6011 8750,6004 8750,5999ZM8660,5981C8655,5970 8645,5958 8639,5954C8633,5951 8636,5959 8645,5974C8665,6004 8675,6009 8660,5981ZM8568,5943C8558,5931 8555,5931 8548,5944C8535,5967 8548,5984 8566,5969C8577,5960 8578,5954 8568,5943ZM8803,5974C8810,5967 8753,5880 8741,5880C8721,5880 8723,5896 8751,5936C8780,5979 8790,5986 8803,5974ZM8527,5908C8524,5901 8522,5906 8522,5920C8522,5934 8524,5939 8527,5933C8529,5926 8529,5914 8527,5908ZM8611,5913C8606,5903 8594,5886 8585,5875C8569,5856 8568,5856 8582,5880C8608,5926 8611,5930 8616,5930C8619,5930 8616,5922 8611,5913ZM8799,5890C8787,5868 8774,5852 8772,5855C8767,5859 8809,5930 8816,5930C8819,5930 8811,5912 8799,5890ZM8835,5875C8804,5823 8789,5820 8816,5872C8836,5912 8851,5932 8857,5926C8860,5924 8850,5901 8835,5875ZM8624,5851C8601,5807 8580,5786 8580,5805C8580,5816 8612,5875 8628,5893C8655,5923 8653,5903 8624,5851ZM8918,5890C8930,5878 8940,5866 8940,5862C8940,5858 8925,5837 8907,5816C8876,5781 8872,5779 8852,5791C8826,5807 8825,5812 8846,5853C8878,5916 8886,5920 8918,5890ZM8720,5849C8720,5833 8656,5760 8643,5760C8622,5760 8628,5774 8666,5823C8699,5865 8720,5875 8720,5849ZM8477,5803C8474,5793 8472,5801 8472,5820C8472,5839 8474,5847 8477,5838C8479,5828 8479,5812 8477,5803ZM8760,5824C8760,5807 8706,5730 8694,5730C8672,5730 8677,5749 8711,5791C8738,5826 8760,5840 8760,5824ZM8773,5745C8763,5720 8749,5700 8743,5700C8724,5700 8727,5717 8757,5767C8789,5822 8799,5808 8773,5745ZM8960,5775C8960,5766 8951,5760 8939,5760C8921,5760 8920,5762 8930,5775C8937,5783 8946,5790 8951,5790C8956,5790 8960,5783 8960,5775ZM8834,5774C8854,5766 8845,5750 8820,5750C8807,5750 8803,5755 8806,5765C8813,5782 8813,5782 8834,5774ZM8624,5741C8630,5732 8560,5646 8553,5654C8547,5660 8602,5750 8612,5750C8616,5750 8621,5746 8624,5741ZM8830,5726C8830,5723 8826,5718 8820,5715C8815,5712 8810,5714 8810,5719C8810,5725 8815,5730 8820,5730C8826,5730 8830,5728 8830,5726ZM8940,5699C8940,5683 8906,5620 8897,5620C8890,5620 8851,5638 8842,5645C8840,5647 8850,5666 8865,5688C8889,5725 8894,5728 8916,5718C8929,5712 8940,5703 8940,5699ZM8675,5710C8681,5700 8562,5501 8550,5500C8547,5500 8547,5525 8550,5554C8554,5602 8561,5616 8603,5664C8652,5721 8664,5728 8675,5710ZM8795,5690C8798,5685 8796,5680 8791,5680C8785,5680 8780,5685 8780,5690C8780,5696 8782,5700 8784,5700C8787,5700 8792,5696 8795,5690ZM8724,5602C8700,5537 8669,5495 8606,5440C8572,5409 8550,5402 8550,5420C8550,5441 8619,5567 8664,5628C8705,5683 8712,5689 8729,5678C8748,5666 8748,5665 8724,5602ZM8957,5594C8955,5591 8946,5592 8937,5596C8922,5601 8922,5605 8938,5633L8955,5665L8958,5632C8960,5613 8959,5596 8957,5594ZM8745,5520C8682,5400 8659,5371 8690,5450C8711,5503 8789,5634 8796,5627C8798,5625 8775,5577 8745,5520ZM8861,5605C8895,5587 8893,5581 8832,5496C8812,5469 8779,5420 8758,5388C8724,5336 8718,5331 8700,5340C8689,5346 8680,5352 8680,5353C8680,5355 8709,5407 8745,5470C8781,5532 8812,5592 8816,5602C8823,5624 8823,5624 8861,5605ZM8527,5463C8525,5442 8523,5459 8523,5500C8523,5541 8525,5558 8527,5538C8529,5517 8529,5483 8527,5463ZM8960,5469C8964,5393 8962,5368 8948,5340C8938,5321 8922,5284 8911,5258C8890,5206 8873,5199 8845,5229C8828,5248 8830,5252 8889,5336C8945,5417 8954,5440 8929,5440C8914,5440 8832,5361 8809,5323C8772,5264 8777,5294 8819,5384C8861,5474 8928,5571 8945,5566C8951,5565 8957,5521 8960,5469ZM8653,5422C8642,5407 8627,5395 8619,5395C8611,5395 8605,5388 8605,5380C8605,5365 8554,5280 8545,5280C8542,5280 8540,5303 8540,5330C8540,5371 8543,5380 8558,5380C8567,5380 8595,5398 8620,5419C8670,5462 8684,5464 8653,5422ZM8527,5358C8524,5351 8522,5356 8522,5370C8522,5384 8524,5389 8527,5383C8529,5376 8529,5364 8527,5358ZM8838,5306C8825,5287 8814,5273 8812,5275C8807,5279 8849,5340 8856,5340C8858,5340 8850,5325 8838,5306ZM8690,5315C8700,5303 8696,5293 8670,5260C8637,5219 8626,5213 8615,5230C8608,5242 8656,5330 8669,5330C8674,5330 8683,5323 8690,5315ZM8961,5283C8953,5268 8951,5268 8950,5281C8950,5298 8960,5313 8968,5306C8970,5303 8967,5293 8961,5283ZM8610,5292C8610,5281 8588,5260 8578,5260C8573,5260 8574,5269 8580,5280C8591,5300 8610,5308 8610,5292ZM8725,5217C8711,5183 8690,5167 8690,5190C8690,5205 8734,5271 8738,5261C8739,5257 8734,5237 8725,5217ZM8564,5213C8555,5181 8555,5126 8564,5090C8568,5072 8564,5058 8550,5040L8529,5015L8535,5110C8542,5217 8547,5240 8562,5240C8568,5240 8569,5230 8564,5213ZM8781,5213C8766,5184 8741,5154 8740,5163C8740,5173 8779,5230 8786,5230C8789,5230 8786,5222 8781,5213ZM8860,5181C8859,5178 8846,5160 8830,5141C8805,5112 8798,5109 8785,5120C8765,5136 8766,5142 8791,5184C8811,5218 8812,5219 8836,5204C8849,5195 8860,5185 8860,5181ZM8967,5154C8960,5146 8930,5162 8930,5173C8930,5179 8938,5192 8948,5203C8965,5222 8965,5222 8968,5190C8970,5173 8969,5156 8967,5154ZM8610,5201C8610,5189 8590,5176 8583,5183C8576,5190 8589,5210 8601,5210C8606,5210 8610,5206 8610,5201ZM8469,4950C8469,4917 8466,4900 8461,4908C8457,4915 8453,4980 8453,5053C8453,5185 8453,5185 8460,5095C8465,5046 8468,4980 8469,4950ZM8618,5145C8605,5126 8592,5110 8589,5110C8578,5110 8568,5144 8578,5148C8583,5149 8596,5157 8606,5165C8637,5189 8641,5182 8618,5145ZM8690,5151C8690,5135 8628,5060 8619,5066C8604,5075 8609,5092 8636,5131C8652,5154 8667,5167 8676,5163C8684,5160 8690,5155 8690,5151ZM8941,5129C8972,5107 8977,5083 8958,5047C8951,5035 8944,5024 8943,5022C8940,5016 8870,5065 8870,5073C8870,5085 8901,5150 8907,5150C8910,5150 8925,5141 8941,5129ZM8695,5080C8659,5028 8651,5036 8685,5090C8700,5113 8714,5129 8717,5126C8720,5123 8710,5102 8695,5080ZM8778,5097C8787,5087 8781,5071 8754,5031C8719,4979 8705,4973 8687,5001C8680,5012 8687,5029 8711,5063C8745,5112 8760,5119 8778,5097ZM8782,5004C8762,4967 8744,4944 8742,4953C8739,4966 8805,5070 8815,5070C8817,5070 8802,5040 8782,5004ZM8600,5038C8600,5023 8549,4957 8543,4964C8540,4966 8548,4987 8561,5009C8583,5049 8600,5062 8600,5038ZM8891,5027C8906,5016 8902,5008 8858,4960C8830,4930 8810,4912 8813,4920C8837,4995 8856,5040 8865,5040C8870,5040 8882,5034 8891,5027ZM8804,4957C8790,4915 8770,4894 8770,4920C8770,4935 8811,5013 8816,5008C8818,5005 8813,4982 8804,4957ZM8915,4914C8902,4872 8890,4836 8887,4834C8885,4831 8872,4838 8859,4849C8838,4866 8837,4870 8849,4893C8868,4928 8920,4990 8930,4990C8935,4990 8928,4956 8915,4914ZM8680,4965C8695,4947 8690,4940 8621,4868C8573,4817 8560,4810 8560,4836C8560,4860 8644,4980 8660,4980C8664,4980 8673,4973 8680,4965ZM8979,4853C8980,4807 8977,4770 8973,4770C8968,4770 8953,4780 8938,4793L8910,4815L8930,4880C8961,4978 8961,4978 8970,4955C8975,4944 8979,4898 8979,4853ZM8558,4910C8543,4884 8534,4876 8532,4886C8529,4899 8565,4950 8577,4950C8579,4950 8570,4932 8558,4910ZM8730,4919C8730,4912 8667,4811 8644,4782C8639,4775 8600,4791 8600,4800C8600,4812 8710,4930 8721,4930C8726,4930 8730,4925 8730,4919ZM8770,4874C8770,4848 8710,4740 8696,4740C8660,4740 8663,4766 8707,4833C8748,4895 8770,4910 8770,4874ZM8469,4798C8468,4730 8463,4737 8458,4813C8456,4839 8458,4860 8462,4860C8467,4860 8469,4832 8469,4798ZM8865,4810C8869,4804 8863,4792 8852,4782C8841,4773 8819,4746 8803,4723C8782,4693 8770,4684 8759,4690C8748,4697 8749,4707 8769,4747C8809,4830 8818,4842 8840,4830C8850,4824 8862,4815 8865,4810ZM8967,4738C8973,4731 8980,4683 8983,4632C8988,4525 8992,4526 8898,4592C8832,4639 8832,4637 8875,4734L8900,4791L8929,4771C8944,4760 8961,4745 8967,4738ZM8605,4766C8623,4753 8623,4751 8593,4704C8576,4677 8555,4642 8547,4625C8531,4595 8531,4596 8530,4676C8530,4750 8532,4758 8553,4768C8582,4782 8583,4782 8605,4766ZM8678,4712C8680,4705 8652,4669 8616,4632C8553,4568 8550,4567 8565,4602C8595,4675 8634,4731 8654,4728C8665,4726 8675,4719 8678,4712ZM8479,4573C8478,4502 8475,4420 8470,4390C8465,4351 8462,4388 8461,4518C8461,4633 8464,4700 8470,4700C8476,4700 8480,4651 8479,4573ZM8743,4631C8697,4561 8692,4556 8676,4569C8663,4580 8666,4588 8697,4631C8725,4671 8735,4678 8746,4669C8758,4659 8758,4653 8743,4631ZM8602,4541L8545,4452L8542,4493C8540,4521 8543,4536 8552,4539C8559,4541 8583,4562 8605,4585C8627,4608 8648,4628 8652,4629C8656,4629 8633,4590 8602,4541ZM8507,4578C8504,4571 8502,4576 8502,4590C8502,4604 8504,4609 8507,4603C8509,4596 8509,4584 8507,4578ZM8880,4578C8907,4560 8930,4541 8930,4535C8929,4519 8851,4440 8835,4440C8809,4440 8809,4459 8835,4509C8864,4567 8865,4570 8846,4570C8838,4570 8818,4553 8801,4533L8770,4495L8786,4535C8806,4585 8819,4610 8825,4610C8828,4610 8853,4595 8880,4578ZM8738,4565C8732,4551 8723,4540 8718,4540C8713,4540 8717,4551 8726,4565C8735,4579 8744,4590 8746,4590C8748,4590 8744,4579 8738,4565ZM8761,4533C8749,4513 8747,4519 8756,4545C8760,4554 8765,4559 8767,4556C8770,4554 8767,4543 8761,4533ZM8665,4540C8671,4531 8567,4390 8554,4390C8548,4390 8587,4466 8618,4512C8643,4551 8654,4557 8665,4540ZM8675,4457C8661,4434 8627,4384 8599,4346C8550,4276 8550,4276 8550,4311C8551,4338 8565,4362 8623,4432C8697,4520 8723,4533 8675,4457ZM8934,4465C8925,4451 8916,4440 8913,4440C8908,4440 8918,4458 8933,4478C8950,4500 8951,4491 8934,4465ZM8999,4435C9000,4421 8988,4410 8958,4398C8935,4388 8915,4382 8912,4385C8910,4387 8925,4412 8946,4441C8978,4486 8985,4490 8991,4474C8995,4464 8999,4446 8999,4435ZM8690,4395C8649,4325 8630,4304 8630,4332C8630,4348 8721,4483 8727,4476C8730,4473 8713,4437 8690,4395ZM8816,4417C8821,4403 8732,4260 8718,4260C8704,4260 8711,4277 8755,4357C8795,4430 8806,4441 8816,4417ZM8729,4359C8699,4303 8677,4280 8664,4292C8660,4297 8750,4420 8758,4420C8760,4420 8747,4393 8729,4359ZM8810,4301C8792,4262 8771,4230 8764,4230C8756,4230 8750,4235 8750,4241C8750,4255 8832,4381 8838,4375C8840,4373 8827,4339 8810,4301ZM9000,4353C9000,4333 8997,4329 8989,4337C8982,4344 8980,4356 8983,4364C8993,4388 9000,4383 9000,4353ZM8900,4357C8900,4355 8888,4343 8873,4329C8849,4307 8849,4316 8873,4348C8881,4359 8900,4365 8900,4357ZM8923,4328C8886,4267 8825,4189 8822,4198C8817,4213 8837,4247 8879,4298C8911,4337 8942,4357 8923,4328ZM8981,4310C8998,4301 9000,4288 9000,4204L9000,4109L8894,4059C8833,4031 8776,3996 8758,3977C8730,3947 8731,3950 8774,4035C8838,4162 8828,4154 8894,4125C8960,4096 8960,4096 8960,4113C8960,4120 8943,4132 8923,4139C8851,4165 8847,4171 8877,4216C8916,4275 8950,4320 8956,4320C8959,4320 8970,4315 8981,4310ZM8620,4298C8619,4291 8603,4267 8584,4245L8549,4205L8575,4258C8599,4307 8620,4326 8620,4298ZM8527,4228C8524,4220 8521,4223 8521,4234C8520,4245 8523,4251 8526,4247C8529,4244 8530,4235 8527,4228ZM8700,4227C8700,4220 8677,4189 8650,4159L8599,4105L8642,4172C8684,4238 8700,4253 8700,4227ZM8541,4143C8533,4128 8531,4128 8530,4141C8530,4158 8540,4173 8548,4166C8550,4163 8547,4153 8541,4143ZM8518,3875C8518,3818 8515,3804 8510,3825C8506,3842 8502,3902 8503,3960C8503,4050 8504,4057 8510,4010C8515,3980 8518,3919 8518,3875Z" style="fill:rgb(238,238,238);fill-rule:nonzero;"/>
        <path d="M2020,7643C1966,7633 1837,7601 1832,7595C1815,7578 1851,7579 1935,7598C1987,7610 2057,7623 2090,7627C2123,7630 2150,7637 2150,7641C2150,7650 2066,7651 2020,7643Z" style="fill:rgb(238,238,238);fill-rule:nonzero;"/>
        <path d="M1740,7515C1712,7479 1682,7450 1674,7450C1666,7450 1660,7446 1660,7440C1660,7413 1703,7435 1742,7483C1809,7562 1812,7568 1801,7574C1796,7577 1768,7551 1740,7515Z" style="fill:rgb(238,238,238);fill-rule:nonzero;"/>
        <path d="M4260,7540C4260,7504 4466,7340 4511,7340C4541,7340 4528,7353 4456,7395C4393,7431 4290,7522 4290,7541C4290,7546 4283,7550 4275,7550C4267,7550 4260,7545 4260,7540Z" style="fill:rgb(238,238,238);fill-rule:nonzero;"/>
        <path d="M1810,7369C1690,7359 1512,7328 1395,7298C1351,7286 1276,7274 1227,7271C1177,7267 1141,7261 1142,7255C1148,7235 1285,7246 1415,7278C1631,7330 1846,7360 2011,7360C2057,7360 2090,7364 2090,7370C2090,7382 1963,7381 1810,7369Z" style="fill:rgb(238,238,238);fill-rule:nonzero;"/>
        <path d="M4806,7201C4790,7177 5111,6951 5198,6925C5245,6911 5217,6941 5153,6974C5077,7012 4888,7143 4851,7184C4825,7212 4815,7216 4806,7201Z" style="fill:rgb(238,238,238);fill-rule:nonzero;"/>
        <path d="M13244,7030C13165,7010 12942,6921 12825,6864C12679,6793 12623,6717 12649,6629C12657,6603 12659,6568 12654,6532C12648,6486 12645,6480 12639,6500C12635,6514 12632,6544 12631,6568C12630,6591 12626,6610 12622,6610C12617,6610 12615,6493 12617,6350C12620,6207 12618,6090 12613,6090C12600,6090 12605,5293 12619,5243C12632,5196 12656,5182 12646,5228C12632,5287 12627,5460 12639,5460C12645,5460 12650,5448 12650,5433C12650,5417 12659,5356 12669,5297C12686,5196 12690,5186 12726,5149C12747,5128 12760,5110 12754,5110C12749,5110 12706,5132 12660,5159C12613,5186 12571,5205 12567,5203C12549,5193 12597,5159 12706,5105C12789,5063 12824,5051 12833,5058C12842,5066 12867,5062 12920,5044C13008,5015 13206,4970 13244,4970C13287,4970 13265,4987 13213,4995C13130,5007 12941,5059 12867,5090C12759,5135 12702,5193 12710,5249C12711,5257 12707,5266 12701,5270C12689,5277 12670,5373 12670,5423C12670,5448 12672,5450 12690,5440C12705,5432 12710,5419 12710,5387C12710,5334 12736,5210 12750,5196C12757,5189 12760,5192 12760,5203C12760,5212 12767,5220 12775,5220C12797,5220 12810,5261 12810,5327C12810,5375 12812,5382 12828,5376C12837,5373 12910,5348 12989,5320C13194,5249 13292,5230 13495,5223C13594,5220 13668,5213 13672,5207C13676,5200 13690,5202 13712,5212C13730,5221 13765,5231 13789,5235C13813,5239 13864,5253 13902,5266C13939,5278 13970,5288 13970,5287C13970,5286 13929,5243 13880,5193C13821,5132 13790,5092 13790,5078C13790,5059 13767,5043 13664,4986C13542,4919 13535,4917 13443,4908C13343,4899 13315,4904 13203,4949C13138,4974 13121,4958 13182,4929L13225,4909L13170,4916C13140,4919 13084,4922 13045,4922C12911,4920 12735,4974 12723,5021C12717,5044 12702,5046 12693,5025C12673,4972 12833,4904 13020,4885C13056,4882 13134,4872 13194,4863C13326,4844 13633,4850 13772,4875C13869,4892 13956,4923 13952,4939C13951,4945 13959,4950 13969,4950C13993,4950 14007,4969 13990,4980C13977,4988 13999,5000 14028,5000C14037,5000 14068,5011 14097,5024C14140,5044 14153,5057 14174,5097C14187,5124 14206,5152 14214,5159C14223,5167 14230,5178 14230,5184C14230,5190 14225,5188 14220,5180C14212,5167 14210,5167 14210,5182C14210,5191 14214,5200 14219,5202C14228,5205 14220,5739 14204,6192C14198,6363 14200,6393 14213,6414C14227,6435 14227,6439 14215,6444C14197,6451 14193,6606 14211,6612C14225,6617 14184,6745 14156,6783C14109,6846 13970,6916 13804,6960C13761,6971 13717,6985 13708,6990C13677,7007 13644,7005 13135,6945L13095,6941L13135,6955C13157,6962 13192,6969 13213,6969C13249,6970 13267,6989 13233,6991C13201,6992 13272,7018 13328,7025C13356,7029 13380,7036 13380,7041C13380,7055 13321,7050 13244,7030ZM13692,6959C13812,6940 13910,6911 13998,6869C14096,6822 14165,6758 14154,6726C14150,6714 14145,6675 14143,6637L14138,6570L14092,6543C13907,6434 13524,6340 13268,6340C13150,6340 13105,6352 13183,6364C13270,6377 13630,6464 13630,6472C13630,6477 13620,6478 13608,6475C13454,6439 13202,6388 13152,6383C13096,6378 13087,6379 13069,6399C13058,6411 13044,6443 13037,6470C13022,6535 13005,6535 13013,6470C13016,6443 13018,6420 13016,6420C13008,6420 12869,6470 12849,6480C12836,6487 12804,6506 12778,6523C12735,6552 12730,6559 12730,6593C12730,6619 12726,6630 12715,6630C12707,6630 12700,6624 12699,6618C12699,6610 12696,6611 12693,6620C12689,6628 12680,6640 12672,6646C12649,6663 12673,6732 12716,6770C12736,6787 12754,6800 12756,6798C12758,6796 12753,6776 12745,6755C12729,6709 12726,6660 12739,6660C12751,6660 12760,6686 12760,6721C12760,6767 12825,6830 12917,6872C12996,6909 13060,6918 13510,6963C13583,6971 13622,6970 13692,6959ZM12830,6466C12855,6453 12914,6430 12963,6415C13072,6382 13078,6365 12976,6374C12878,6383 12813,6403 12762,6440C12728,6464 12720,6476 12720,6501L12720,6532L12753,6511C12770,6499 12805,6479 12830,6466ZM14120,6498C14120,6468 14113,6461 14057,6428C14023,6408 13941,6348 13875,6295C13809,6242 13725,6180 13688,6157C13623,6117 13607,6100 13632,6100C13646,6100 13727,6150 13800,6205C13881,6265 13888,6268 13858,6228C13842,6208 13830,6187 13830,6181C13830,6162 13847,6169 13863,6193C13905,6258 14085,6430 14111,6430C14116,6430 14120,6413 14120,6392C14120,6357 14114,6348 14068,6309C14039,6285 13985,6237 13948,6202L13881,6138L13743,6109C13662,6092 13573,6080 13528,6080C13448,6080 13405,6061 13482,6059C13515,6059 13520,6057 13505,6050C13477,6038 13243,6038 13179,6050C13149,6056 13073,6070 13010,6081C12859,6107 12811,6123 12761,6166L12720,6202L12720,6317C12720,6380 12723,6430 12728,6428C12849,6366 12909,6350 13017,6350C13055,6350 13093,6344 13110,6335C13126,6327 13165,6317 13197,6314C13325,6301 13679,6359 13865,6424C13920,6443 13974,6462 13985,6465C13996,6469 13975,6452 13938,6426C13901,6401 13866,6380 13860,6380C13845,6380 13607,6261 13591,6245C13572,6226 13586,6212 13608,6228C13660,6265 13716,6287 13731,6277C13743,6269 13766,6280 13834,6326C13883,6358 13961,6410 14009,6441C14056,6471 14096,6504 14098,6513C14104,6543 14120,6531 14120,6498ZM12687,6268C12685,6255 12683,6265 12683,6290C12683,6315 12685,6325 12687,6313C12689,6300 12689,6280 12687,6268ZM14131,6242C14128,6232 14125,6231 14120,6240C14111,6255 14040,6232 14040,6215C14040,6202 13970,6166 13962,6175C13955,6182 13966,6193 14055,6269L14125,6328L14130,6292C14133,6272 14134,6249 14131,6242ZM14132,6188C14126,6182 14117,6180 14113,6184C14109,6188 14112,6195 14120,6200C14139,6212 14147,6203 14132,6188ZM12679,6098C12701,5929 12703,5871 12691,5856C12683,5846 12682,5840 12690,5835C12700,5829 12705,5770 12694,5770C12691,5770 12680,5775 12669,5780C12651,5790 12650,5803 12650,5995C12650,6108 12654,6200 12658,6200C12663,6200 12672,6154 12679,6098ZM14030,6157C14030,6154 13884,6025 13753,5911C13675,5845 13652,5806 13722,5862C13746,5880 13828,5950 13905,6018C14021,6120 14050,6140 14077,6140C14094,6140 14112,6145 14115,6150C14131,6175 14140,6155 14140,6096C14140,6040 14137,6030 14120,6025C14109,6022 14096,6022 14090,6025C14077,6033 13975,5954 13865,5849L13774,5763L13665,5752C13604,5745 13497,5735 13426,5730C13356,5724 13295,5718 13291,5716C13283,5711 12979,5771 12871,5799C12734,5835 12744,5825 12737,5931C12729,6041 12728,6150 12735,6150C12738,6150 12758,6137 12781,6121C12807,6102 12848,6085 12893,6076C13114,6029 13196,6017 13326,6013C13461,6008 13473,6009 13576,6038C13696,6071 13809,6094 13817,6087C13820,6083 13713,5992 13671,5963C13669,5961 13670,5957 13673,5953C13681,5946 13751,5993 13829,6059C13886,6109 14030,6178 14030,6157ZM14177,6113C14174,6103 14172,6109 14172,6125C14172,6142 14174,6149 14177,6143C14179,6136 14179,6122 14177,6113ZM14078,5978C14087,5969 14093,5969 14102,5978C14109,5985 14120,5990 14127,5990C14159,5990 14133,5955 14040,5877C13960,5808 13932,5791 13898,5785C13874,5782 13846,5776 13835,5773C13820,5769 13823,5776 13850,5805C13888,5846 14052,5989 14061,5990C14064,5990 14071,5985 14078,5978ZM14140,5861L14140,5802L14073,5749C14035,5720 13947,5640 13875,5570C13657,5359 13659,5360 13595,5360C13565,5360 13454,5369 13348,5379C13242,5390 13085,5404 13000,5411C12810,5425 12800,5428 12800,5474C12800,5494 12791,5555 12780,5611C12769,5668 12762,5715 12763,5716C12765,5718 12806,5713 12854,5705C12972,5686 13222,5671 13455,5669C13581,5668 13635,5664 13615,5658C13546,5639 13362,5610 13303,5610C13268,5610 13240,5606 13240,5600C13240,5583 13370,5589 13495,5610C13575,5624 13617,5627 13625,5620C13633,5613 13642,5616 13654,5629C13673,5650 13740,5670 13790,5670L13822,5670L13776,5616C13733,5567 13719,5539 13738,5541C13742,5541 13771,5572 13803,5610C13856,5673 13864,5679 13910,5685C13938,5689 13960,5696 13960,5702C13960,5708 13945,5710 13923,5706C13896,5702 13918,5716 14001,5756L14117,5812L14118,5851C14120,5893 14107,5902 14090,5870C14084,5859 14065,5843 14047,5835C14020,5822 14024,5828 14070,5869C14100,5897 14128,5920 14133,5920C14137,5920 14140,5893 14140,5861ZM12877,5769C12922,5758 13007,5741 13066,5730C13125,5719 13176,5707 13179,5704C13195,5687 12804,5732 12768,5751C12758,5756 12750,5770 12750,5782C12750,5798 12754,5801 12773,5796C12785,5792 12832,5780 12877,5769ZM14083,5610C13938,5473 13871,5422 13818,5406C13699,5372 13698,5368 13857,5523C13939,5603 14035,5692 14071,5721L14135,5772L14138,5719L14141,5665L14083,5610ZM13891,5746C13879,5732 13755,5690 13728,5690C13697,5691 13778,5736 13829,5746C13905,5762 13904,5762 13891,5746ZM12694,5742C12696,5738 12702,5675 12706,5602C12712,5492 12710,5470 12699,5470C12664,5471 12660,5487 12653,5618C12647,5747 12647,5750 12668,5750C12679,5750 12691,5746 12694,5742ZM13699,5704C13666,5679 13663,5679 13545,5686C13418,5693 13384,5699 13466,5701C13493,5701 13556,5708 13605,5715C13739,5734 13739,5734 13699,5704ZM12765,5584C12785,5472 12784,5450 12760,5450C12741,5450 12740,5457 12740,5562C12740,5623 12743,5671 12746,5668C12749,5665 12758,5627 12765,5584ZM14135,5492C14132,5488 14126,5491 14121,5498C14116,5507 14094,5502 14036,5480C13993,5463 13956,5451 13953,5453C13951,5455 13991,5495 14042,5541L14135,5624L14138,5561C14140,5526 14138,5495 14135,5492ZM14180,5266C14168,5254 14167,5339 14178,5496L14185,5605L14188,5441C14189,5338 14187,5273 14180,5266ZM14140,5441C14140,5419 14033,5320 14009,5320C14000,5320 13973,5313 13949,5304C13899,5286 13757,5250 13753,5253C13752,5255 13779,5284 13813,5318C13871,5376 13883,5383 13990,5419C14124,5465 14140,5467 14140,5441ZM12788,5396C12794,5367 12779,5250 12770,5250C12757,5250 12750,5276 12743,5352C12737,5421 12737,5422 12761,5418C12775,5416 12786,5407 12788,5396ZM13298,5362C13394,5352 13459,5341 13458,5335C13456,5329 13390,5324 13288,5324C13197,5323 13117,5320 13112,5316C13107,5313 13067,5324 13024,5340C12937,5372 12936,5378 13020,5355C13085,5338 13100,5337 13100,5350C13100,5355 13085,5364 13068,5369C13037,5378 13037,5378 13085,5378C13113,5378 13208,5371 13298,5362ZM14140,5316L14140,5251L14084,5231C14053,5219 13985,5183 13933,5150C13880,5117 13835,5092 13832,5094C13823,5103 13900,5187 13976,5251C14019,5286 14069,5330 14089,5347C14109,5365 14128,5380 14133,5380C14137,5380 14140,5351 14140,5316ZM13764,5300C13736,5273 13700,5248 13684,5244C13625,5229 13194,5273 13171,5296C13168,5299 13203,5298 13250,5295C13361,5286 13579,5304 13705,5333C13760,5346 13807,5354 13810,5352C13813,5350 13792,5327 13764,5300ZM14024,5110C13933,5020 13933,5020 13881,5020C13853,5020 13830,5016 13830,5010C13830,5005 13842,5000 13857,5000C13902,5000 13870,4982 13790,4962C13631,4922 13614,4925 13709,4978C13771,5011 13785,5016 13775,5001C13772,4996 13774,4989 13779,4986C13784,4982 13797,4995 13809,5013C13822,5034 13869,5071 13942,5117C14004,5156 14062,5190 14070,5193C14116,5210 14106,5191 14024,5110ZM13930,4945C13930,4938 13889,4922 13852,4914L13825,4908L13855,4928C13883,4947 13930,4957 13930,4945ZM13721,4909C13707,4904 13669,4897 13636,4895L13575,4891L13635,4904C13668,4912 13706,4918 13720,4918L13745,4919L13721,4909Z" style="fill:rgb(238,238,238);fill-rule:nonzero;"/>
        <path d="M5750,6663C5750,6632 5874,6528 5968,6481C6011,6459 6043,6462 6006,6484C5911,6541 5839,6593 5808,6628C5773,6666 5750,6681 5750,6663Z" style="fill:rgb(238,238,238);fill-rule:nonzero;"/>
        <path d="M3087,6513C3045,6316 3027,6137 3026,5913L3025,5710L2613,5710C2312,5710 2166,5706 2068,5695C1879,5673 1790,5659 1790,5649C1790,5635 1832,5638 2044,5665C2225,5688 2273,5690 2639,5690C3023,5690 3220,5696 3220,5709C3220,5712 3179,5714 3129,5712L3037,5709L3043,5922C3049,6143 3074,6370 3110,6531C3122,6584 3127,6627 3122,6632C3117,6637 3102,6586 3087,6513Z" style="fill:rgb(238,238,238);fill-rule:nonzero;"/>
        <path d="M2465,6609C2405,6605 2317,6594 2270,6585C2183,6569 1761,6531 1658,6530C1609,6530 1579,6518 1592,6505C1597,6500 1866,6517 1925,6526C1951,6530 1962,6529 1955,6522C1940,6508 1802,6477 1753,6477C1724,6477 1710,6472 1710,6463C1710,6439 1796,6449 1977,6496C2149,6540 2162,6542 2360,6550C2756,6567 3045,6581 3055,6586C3065,6590 2698,6584 2480,6575C2344,6570 2360,6584 2503,6595C2545,6599 2580,6606 2580,6611C2580,6616 2579,6619 2578,6619C2576,6618 2526,6613 2465,6609Z" style="fill:rgb(238,238,238);fill-rule:nonzero;"/>
        <path d="M2300,6471C2249,6455 2186,6417 2139,6373C2112,6348 2090,6333 2090,6339C2090,6346 2084,6350 2078,6347C2071,6345 2066,6332 2068,6319C2070,6302 2064,6292 2048,6285C2012,6269 1983,6196 1970,6091C1964,6039 1962,5984 1965,5969C1973,5933 2026,5888 2155,5807C2229,5761 2278,5747 2336,5756C2400,5765 2390,5780 2320,5780C2257,5780 2252,5784 2274,5812C2285,5827 2292,5828 2326,5818C2414,5794 2520,5824 2601,5897C2707,5993 2732,6171 2663,6342C2648,6380 2630,6393 2630,6365C2630,6356 2615,6366 2594,6389C2540,6449 2470,6480 2391,6479C2354,6479 2314,6475 2300,6471ZM2504,6425C2552,6402 2598,6350 2620,6294L2638,6244L2547,6247C2497,6248 2443,6255 2427,6261C2362,6288 2214,6231 2194,6171C2182,6134 2178,6137 2135,6217L2107,6269L2135,6302C2193,6372 2259,6412 2355,6433C2400,6443 2474,6439 2504,6425ZM2405,6230C2402,6225 2390,6220 2380,6220C2370,6220 2358,6225 2355,6230C2351,6236 2362,6240 2380,6240C2398,6240 2409,6236 2405,6230ZM2146,6138C2199,6031 2207,6020 2228,6020C2237,6020 2254,6010 2266,5999C2279,5987 2302,5975 2319,5971L2349,5965L2314,5917C2295,5891 2272,5866 2264,5863C2237,5853 2140,5881 2140,5899C2140,5908 2135,5922 2130,5930C2121,5943 2119,5943 2111,5931C2104,5920 2097,5924 2081,5951C2044,6011 2036,6057 2049,6140C2059,6206 2070,6229 2092,6230C2096,6230 2120,6188 2146,6138ZM2029,6188C2024,6170 2020,6133 2020,6105C2019,6064 2017,6058 2009,6074C1997,6094 2003,6169 2020,6200C2036,6230 2040,6224 2029,6188ZM2617,6209C2641,6201 2650,6190 2660,6155C2681,6082 2659,6037 2578,5987C2539,5963 2543,5947 2585,5952C2626,5957 2628,5951 2598,5923C2527,5859 2439,5827 2375,5841C2352,5846 2350,5848 2367,5849C2400,5851 2496,5889 2510,5905C2527,5925 2518,5924 2432,5894C2392,5880 2352,5870 2344,5872C2326,5876 2395,5964 2437,5990C2476,6014 2494,6064 2488,6141C2484,6197 2485,6200 2504,6194C2539,6182 2594,6170 2613,6170C2648,6170 2629,6188 2578,6202C2532,6216 2529,6218 2556,6219C2573,6219 2601,6215 2617,6209ZM2461,6148C2470,6099 2463,6057 2446,6063C2440,6065 2434,6085 2434,6108C2433,6131 2429,6161 2426,6174C2423,6187 2423,6200 2427,6204C2439,6215 2452,6193 2461,6148ZM2234,6158C2224,6140 2215,6130 2213,6137C2208,6152 2228,6190 2241,6190C2246,6190 2243,6175 2234,6158ZM2400,6171C2405,6160 2410,6143 2410,6133C2410,6119 2405,6121 2385,6145C2372,6162 2361,6178 2360,6183C2360,6198 2390,6189 2400,6171ZM2346,6152C2364,6141 2380,6103 2380,6075C2380,6053 2376,6049 2358,6052C2345,6054 2336,6061 2338,6068C2339,6075 2324,6088 2305,6097C2273,6112 2260,6137 2277,6153C2286,6162 2332,6162 2346,6152ZM1997,5988C1995,5975 1993,5983 1993,6005C1992,6027 1994,6037 1997,6028C1999,6018 1999,6000 1997,5988ZM2380,6010C2380,6005 2363,6001 2343,6001L2305,6003L2340,6010C2359,6014 2376,6018 2378,6019C2379,6019 2380,6016 2380,6010ZM2074,5900C2065,5892 2030,5944 2030,5965C2030,5979 2037,5974 2054,5945C2068,5923 2076,5903 2074,5900ZM2250,5831C2250,5826 2247,5815 2244,5806C2239,5792 2235,5792 2209,5806C2193,5814 2182,5825 2185,5830C2193,5843 2250,5843 2250,5831Z" style="fill:rgb(238,238,238);fill-rule:nonzero;"/>
        <path d="M2992,6308C2977,6094 2976,5780 2990,5780C2996,5780 3000,5834 3000,5923C3000,6001 3004,6124 3009,6195C3025,6408 3026,6473 3014,6477C3007,6479 3000,6422 2992,6308Z" style="fill:rgb(238,238,238);fill-rule:nonzero;"/>
        <path d="M1659,6423C1652,6406 1646,6254 1643,6038C1637,5710 1638,5680 1654,5680C1663,5680 1670,5673 1670,5665C1670,5657 1675,5650 1680,5650C1686,5650 1690,5714 1690,5823C1690,5917 1695,6069 1701,6158C1711,6309 1709,6343 1694,6328C1691,6325 1685,6275 1680,6219C1672,6116 1672,6117 1674,6265C1676,6348 1680,6423 1684,6433C1689,6443 1688,6450 1681,6450C1675,6450 1665,6438 1659,6423ZM1667,5978C1665,5965 1663,5975 1663,6000C1663,6025 1665,6035 1667,6023C1669,6010 1669,5990 1667,5978Z" style="fill:rgb(238,238,238);fill-rule:nonzero;"/>
        <path d="M10839,5856C10837,5854 10519,5846 10133,5839C9695,5831 9430,5822 9430,5816C9430,5805 10178,5814 10705,5831C10892,5837 11178,5840 11340,5837C11622,5832 11732,5823 12080,5780C12303,5753 12400,5746 12400,5758C12400,5763 12361,5771 12313,5774C12264,5778 12132,5792 12018,5806C11644,5850 11489,5860 11159,5860C10985,5860 10841,5858 10839,5856Z" style="fill:rgb(238,238,238);fill-rule:nonzero;"/>
        <path d="M9706,5710C9442,5702 9382,5695 9402,5675C9410,5667 9416,5667 9635,5681C9743,5687 10128,5693 10530,5694C11169,5695 11265,5693 11553,5673C11728,5660 11917,5651 11973,5651L12075,5653L11945,5662C11874,5666 11687,5680 11530,5692C11288,5710 11150,5714 10620,5716C10276,5717 9865,5714 9706,5710Z" style="fill:rgb(238,238,238);fill-rule:nonzero;"/>
        <path d="M2130,5644C2067,5636 1925,5617 1815,5600C1705,5584 1566,5566 1506,5560C1445,5555 1392,5546 1386,5540C1372,5526 1416,5527 1559,5546C1626,5554 1685,5560 1691,5558C1706,5553 1557,5403 1430,5297C1137,5051 987,4911 1059,4950C1080,4961 1081,4960 1074,4923C1062,4866 1064,4837 1078,4833C1086,4830 1090,4839 1090,4862C1090,4893 1105,4968 1112,4975C1113,4977 1201,4990 1305,5004C1522,5033 1660,5039 2058,5040C2244,5040 2339,5043 2335,5050C2331,5056 2260,5060 2154,5060C2058,5060 1980,5063 1980,5066C1980,5076 2088,5226 2105,5240C2113,5247 2120,5264 2120,5277C2120,5302 2119,5302 2063,5296C1985,5287 1817,5250 1806,5239C1785,5220 1812,5220 1896,5240C1945,5251 2012,5264 2044,5267C2103,5273 2103,5273 2083,5253C2069,5239 1978,5115 1965,5093C1962,5088 1771,5069 1625,5060C1543,5055 1399,5041 1307,5029C1214,5018 1137,5010 1135,5012C1133,5014 1198,5073 1280,5143C1362,5212 1432,5265 1435,5260C1439,5254 1452,5256 1470,5265C1503,5282 1511,5283 1509,5273C1505,5250 1513,5251 1541,5274C1572,5301 1630,5310 1630,5288C1630,5282 1638,5284 1649,5294C1666,5309 1703,5313 1917,5320C2053,5325 2174,5329 2184,5330C2202,5330 2202,5329 2187,5312C2152,5273 2180,5267 2220,5305C2245,5329 2249,5330 2460,5336L2675,5342L2563,5233C2465,5139 2434,5100 2456,5100C2459,5100 2520,5154 2590,5221L2718,5341L2779,5338L2841,5335L2778,5288C2540,5111 2430,5017 2430,4993C2430,4972 2446,4978 2464,5005C2473,5019 2515,5056 2558,5087C2600,5118 2673,5175 2720,5214C2767,5253 2842,5312 2888,5344C2960,5396 2984,5420 2964,5420C2961,5420 2939,5406 2914,5388C2876,5361 2862,5357 2805,5356C2769,5355 2740,5359 2740,5363C2740,5368 2791,5421 2853,5480L2965,5589L2968,5539C2971,5484 2990,5471 2990,5524C2990,5543 2994,5570 3000,5584C3006,5602 3006,5611 2998,5616C2991,5620 2984,5618 2982,5612C2980,5605 2971,5600 2962,5600C2953,5600 2928,5582 2905,5561L2865,5522L2665,5528C2555,5530 2474,5536 2485,5540C2496,5544 2556,5553 2618,5560C2679,5567 2730,5577 2730,5581C2730,5592 2728,5592 2603,5577C2546,5570 2500,5567 2500,5572C2500,5576 2518,5594 2540,5611C2562,5629 2580,5647 2580,5652C2580,5672 2552,5656 2503,5608L2450,5556L2353,5553L2255,5549L2310,5599C2360,5645 2370,5649 2420,5653C2450,5655 2423,5657 2360,5657C2297,5657 2193,5652 2130,5644ZM2265,5595C2217,5552 2213,5550 2150,5551C2094,5551 2087,5552 2103,5564C2140,5592 2119,5602 2076,5576C2044,5557 2017,5550 1980,5550C1948,5550 1931,5554 1935,5560C1938,5566 1932,5570 1921,5570C1910,5570 1898,5566 1895,5560C1892,5555 1853,5550 1810,5550C1767,5550 1728,5555 1725,5560C1722,5566 1727,5570 1737,5570C1747,5571 1856,5586 1980,5605C2104,5623 2230,5639 2260,5639L2315,5639L2265,5595ZM1832,5507C1819,5494 1788,5479 1762,5473C1726,5465 1719,5465 1733,5474C1775,5499 1785,5509 1778,5516C1764,5529 1699,5486 1609,5405C1561,5361 1506,5316 1488,5306C1458,5289 1458,5290 1495,5321C1517,5339 1576,5394 1625,5442L1715,5530L1853,5530L1832,5507ZM1980,5521C1966,5517 1935,5510 1911,5506C1872,5500 1868,5501 1880,5515C1889,5525 1909,5530 1949,5529C1990,5529 1998,5526 1980,5521ZM2840,5506C2840,5504 2808,5471 2769,5433L2697,5363L2492,5356C2380,5352 2286,5351 2284,5353C2282,5355 2309,5382 2343,5412L2406,5468L2536,5454C2692,5438 2720,5437 2701,5449C2693,5454 2626,5464 2552,5471C2446,5481 2423,5486 2448,5492C2465,5497 2481,5504 2484,5508C2488,5515 2840,5513 2840,5506ZM2165,5501C2153,5490 1972,5475 1983,5486C1993,5496 2062,5507 2125,5509C2153,5509 2170,5506 2165,5501ZM2310,5499C2245,5488 2198,5488 2205,5500C2208,5506 2244,5509 2283,5509C2352,5508 2353,5507 2310,5499ZM1936,5481C1933,5477 1904,5467 1871,5461C1839,5455 1807,5443 1800,5436C1781,5412 1807,5406 1846,5425C1866,5434 1884,5440 1886,5437C1888,5435 1866,5412 1836,5386C1790,5347 1775,5340 1740,5340C1717,5340 1700,5344 1702,5349C1704,5353 1731,5381 1763,5410C1807,5450 1834,5466 1873,5476C1938,5492 1942,5492 1936,5481ZM2300,5410L2235,5350L2136,5350C2079,5350 2040,5354 2046,5359C2148,5452 2187,5468 2310,5469L2365,5469L2300,5410ZM1695,5433C1686,5416 1684,5402 1690,5395C1706,5375 1651,5333 1600,5326L1555,5320L1630,5390C1671,5429 1706,5460 1707,5460C1708,5460 1703,5448 1695,5433ZM1745,5426C1729,5413 1713,5404 1710,5407C1703,5413 1749,5450 1764,5450C1770,5450 1762,5439 1745,5426ZM2060,5403C1992,5345 1979,5340 1900,5340L1825,5340L1865,5380C1904,5418 1908,5419 1995,5428C2045,5432 2087,5435 2089,5433C2091,5432 2078,5418 2060,5403Z" style="fill:rgb(238,238,238);fill-rule:nonzero;"/>
        <path d="M4508,5554C4450,5536 4443,5515 4498,5524C4594,5542 4725,5542 4803,5525C4873,5510 4903,5510 4888,5525C4885,5528 4846,5540 4801,5550C4704,5574 4576,5575 4508,5554Z" style="fill:rgb(238,238,238);fill-rule:nonzero;"/>
        <path d="M5288,5563C5210,5559 5187,5546 5236,5534C5250,5530 5331,5533 5415,5540C5562,5552 5621,5548 5684,5524C5697,5519 5701,5521 5698,5530C5687,5565 5567,5575 5288,5563Z" style="fill:rgb(238,238,238);fill-rule:nonzero;"/>
        <path d="M3675,5530C3671,5524 3670,5516 3673,5513C3692,5495 4070,5480 4070,5498C4070,5502 3989,5511 3890,5518C3792,5525 3704,5533 3696,5536C3688,5539 3679,5536 3675,5530Z" style="fill:rgb(238,238,238);fill-rule:nonzero;"/>
        <path d="M5973,5517C5962,5500 5984,5496 6076,5497C6163,5498 6191,5503 6179,5514C6171,5522 5978,5525 5973,5517Z" style="fill:rgb(238,238,238);fill-rule:nonzero;"/>
        <path d="M1733,5186C1716,5168 1697,5144 1689,5133C1681,5122 1665,5108 1653,5101C1625,5087 1623,5070 1649,5070C1660,5070 1686,5092 1711,5123C1735,5151 1760,5182 1768,5192C1795,5224 1762,5220 1733,5186Z" style="fill:rgb(238,238,238);fill-rule:nonzero;"/>
        <path d="M1770,5013C1690,5007 1477,4969 1375,4943C1320,4929 1238,4916 1193,4913C1147,4910 1110,4903 1110,4899C1110,4880 1247,4891 1369,4920C1564,4966 1716,4989 1893,5000C1981,5006 2056,5013 2059,5015C2064,5020 1843,5019 1770,5013Z" style="fill:rgb(238,238,238);fill-rule:nonzero;"/>
        <path d="M6261,4522C6202,4488 6174,4460 6198,4460C6209,4460 6338,4534 6354,4550C6378,4574 6321,4557 6261,4522Z" style="fill:rgb(238,238,238);fill-rule:nonzero;"/>
        <path d="M6530,4435C6530,4432 6540,4416 6551,4400C6570,4375 6572,4363 6567,4293C6550,4091 6547,3980 6558,3980C6574,3980 6578,4018 6586,4212C6592,4368 6590,4393 6576,4415C6562,4437 6530,4450 6530,4435Z" style="fill:rgb(238,238,238);fill-rule:nonzero;"/>
        <path d="M5730,4209C5689,4182 5636,4152 5613,4143C5570,4125 5562,4116 5579,4106C5598,4094 5809,4219 5818,4248C5824,4268 5809,4261 5730,4209Z" style="fill:rgb(238,238,238);fill-rule:nonzero;"/>
        <path d="M2335,4125C2286,4118 2198,4106 2140,4097C2082,4089 1945,4077 1835,4070C1725,4064 1618,4056 1597,4052C1553,4044 1544,4024 1586,4027C1810,4045 1922,4051 1926,4047C1934,4040 1803,4010 1733,4003C1668,3997 1653,3987 1694,3976C1724,3969 1794,3982 1984,4030C2129,4067 2146,4069 2395,4080C2538,4086 2736,4094 2835,4097C2936,4100 3019,4107 3025,4112C3032,4119 2983,4121 2875,4116C2558,4104 2324,4101 2375,4110C2403,4114 2453,4119 2488,4119C2522,4120 2550,4124 2550,4130C2550,4143 2447,4141 2335,4125Z" style="fill:rgb(238,238,238);fill-rule:nonzero;"/>
        <path d="M2966,3923C2962,3874 2957,3810 2954,3780C2950,3739 2951,3728 2960,3736C2983,3759 3002,4010 2981,4010C2976,4010 2969,3971 2966,3923Z" style="fill:rgb(238,238,238);fill-rule:nonzero;"/>
        <path d="M1628,3958C1612,3929 1602,3194 1618,3204C1623,3207 1630,3200 1633,3188C1647,3137 1653,3191 1655,3382C1656,3494 1661,3647 1665,3723C1671,3824 1670,3860 1662,3860C1654,3860 1650,3835 1649,3788C1648,3748 1644,3684 1640,3645C1636,3605 1635,3650 1638,3750C1641,3846 1647,3935 1651,3948C1662,3977 1662,3980 1650,3980C1645,3980 1635,3970 1628,3958Z" style="fill:rgb(238,238,238);fill-rule:nonzero;"/>
        <path d="M4775,3849C4640,3787 4598,3760 4636,3760C4647,3760 4660,3764 4666,3768C4671,3773 4730,3801 4798,3830C4865,3860 4920,3890 4920,3897C4920,3915 4921,3915 4775,3849Z" style="fill:rgb(238,238,238);fill-rule:nonzero;"/>
        <path d="M1890,3867C1890,3865 1904,3835 1921,3802C1947,3749 1955,3740 1979,3740C2007,3740 2047,3706 2069,3663C2087,3627 2083,3610 2055,3610C2011,3610 1899,3558 1858,3519C1827,3490 1819,3476 1822,3453C1824,3436 1832,3424 1842,3422C1884,3414 2189,3581 2190,3612C2190,3628 2057,3770 1999,3815C1954,3850 1890,3880 1890,3867ZM2150,3620C2150,3614 2141,3610 2130,3610C2117,3610 2110,3617 2110,3630C2110,3648 2113,3649 2130,3640C2141,3634 2150,3625 2150,3620ZM2060,3576C2060,3567 1986,3530 1940,3516C1873,3496 1886,3515 1964,3551C2019,3576 2060,3587 2060,3576Z" style="fill:rgb(238,238,238);fill-rule:nonzero;"/>
        <path d="M6610,3842C6610,3828 6607,3828 6795,3830C6878,3830 7046,3826 7170,3820C7398,3808 8398,3816 8385,3829C8381,3832 8117,3835 7797,3835C7477,3835 7079,3839 6913,3844C6685,3851 6610,3850 6610,3842Z" style="fill:rgb(238,238,238);fill-rule:nonzero;"/>
        <path d="M4185,3601C4094,3560 3873,3435 3758,3359C3690,3314 3615,3269 3591,3258C3560,3245 3550,3236 3557,3229C3573,3213 3645,3248 3755,3324C3861,3398 3987,3472 4138,3550C4194,3579 4240,3607 4240,3611C4240,3623 4232,3622 4185,3601Z" style="fill:rgb(238,238,238);fill-rule:nonzero;"/>
        <path d="M2941,3368C2940,3337 2945,3308 2950,3305C2962,3298 2962,3363 2950,3400C2944,3419 2942,3412 2941,3368Z" style="fill:rgb(238,238,238);fill-rule:nonzero;"/>
        <path d="M2990,3241C2990,3235 2827,3232 2573,3233C2184,3235 2141,3233 1958,3211C1803,3192 1760,3183 1760,3172C1760,3156 1752,3155 2010,3191C2142,3209 2228,3213 2583,3217C2929,3221 3000,3225 3000,3236C3000,3244 2998,3250 2995,3250C2992,3250 2990,3246 2990,3241Z" style="fill:rgb(238,238,238);fill-rule:nonzero;"/>
        <path d="M2195,3178C2141,3174 1970,3152 1815,3130C1661,3108 1498,3087 1453,3084C1374,3077 1339,3068 1352,3055C1357,3050 1549,3070 1633,3085C1648,3087 1660,3085 1660,3080C1660,3064 1550,2951 1466,2883C1422,2846 1346,2782 1299,2740C1252,2699 1168,2625 1112,2577C1017,2495 987,2459 1026,2474C1040,2479 1041,2473 1035,2420C1031,2382 1032,2360 1038,2360C1049,2360 1055,2381 1065,2453C1073,2508 1056,2501 1270,2531C1424,2552 1521,2556 2025,2564C2168,2567 2292,2570 2300,2571C2308,2573 2230,2577 2127,2580L1939,2585L2000,2672C2033,2720 2067,2763 2075,2767C2084,2773 2087,2784 2083,2799C2077,2822 2074,2822 2011,2817C1946,2811 1783,2776 1772,2765C1755,2748 1791,2749 1877,2768C1931,2780 1998,2792 2025,2796L2075,2802L2044,2769C2026,2750 1993,2708 1970,2675L1929,2615L1817,2603C1755,2596 1633,2586 1545,2581C1399,2572 1180,2548 1122,2534C1109,2532 1100,2533 1102,2539C1110,2561 1391,2789 1404,2784C1412,2781 1432,2786 1449,2794C1476,2808 1479,2808 1474,2795C1466,2774 1480,2776 1505,2800C1530,2823 1590,2838 1590,2821C1590,2806 1617,2807 1622,2823C1627,2837 1791,2848 2025,2849C2131,2849 2170,2846 2158,2839C2140,2829 2133,2800 2148,2800C2153,2800 2169,2814 2185,2830L2214,2860L2424,2860L2635,2859L2528,2756C2468,2700 2420,2646 2420,2637C2420,2628 2421,2620 2423,2620C2424,2620 2481,2674 2550,2740L2675,2860L2740,2859C2804,2859 2805,2859 2780,2842C2766,2833 2721,2798 2680,2764C2639,2731 2571,2679 2529,2648C2442,2583 2380,2518 2400,2512C2407,2509 2422,2519 2432,2533C2443,2547 2483,2583 2523,2611C2563,2640 2631,2693 2675,2730C2719,2767 2797,2828 2849,2865C2901,2903 2938,2936 2932,2938C2925,2940 2901,2928 2878,2911C2841,2883 2829,2880 2766,2880L2695,2880L2810,2995C2873,3058 2927,3110 2931,3110C2934,3110 2936,3091 2936,3069C2934,3000 2957,3011 2962,3082C2968,3150 2964,3165 2949,3137C2943,3128 2935,3122 2931,3125C2926,3127 2901,3111 2876,3089L2829,3048L2644,3055C2542,3059 2460,3064 2462,3065C2464,3067 2516,3075 2578,3083C2641,3092 2694,3101 2697,3104C2707,3113 2639,3111 2555,3099C2513,3093 2475,3092 2472,3095C2468,3099 2482,3115 2503,3132C2523,3148 2540,3166 2540,3171C2540,3192 2513,3177 2465,3131L2415,3082L2323,3075C2272,3071 2230,3072 2230,3076C2230,3081 2252,3104 2279,3128C2323,3165 2334,3170 2379,3170C2407,3170 2430,3175 2430,3180C2430,3192 2339,3191 2195,3178ZM2231,3120C2179,3072 2174,3070 2118,3070C2057,3070 2049,3075 2077,3096C2109,3119 2081,3124 2042,3102C1998,3078 1913,3070 1901,3089C1895,3099 1887,3099 1873,3092C1863,3086 1830,3081 1800,3080C1619,3074 1669,3092 1945,3129C2317,3181 2298,3181 2231,3120ZM1677,3013C1646,2992 1597,2952 1568,2925C1511,2870 1447,2820 1436,2820C1432,2820 1455,2842 1487,2869C1519,2896 1574,2948 1610,2984C1660,3035 1681,3050 1703,3050C1730,3050 1729,3048 1677,3013ZM1796,3032C1780,3014 1702,2984 1694,2993C1692,2995 1701,3003 1715,3010C1729,3017 1740,3029 1740,3037C1740,3045 1753,3050 1777,3050C1811,3050 1812,3049 1796,3032ZM1925,3040C1880,3029 1838,3029 1845,3040C1848,3046 1875,3049 1903,3049C1948,3048 1951,3047 1925,3040ZM2295,3030C2266,3018 2167,3018 2175,3030C2178,3036 2211,3040 2248,3039C2295,3039 2309,3036 2295,3030ZM2751,3031L2807,3025L2729,2952L2652,2880L2451,2882L2249,2885L2310,2939L2371,2992L2498,2981C2568,2974 2635,2966 2648,2963C2660,2960 2670,2962 2670,2968C2670,2973 2624,2983 2568,2989C2457,3002 2380,3017 2417,3019C2429,3020 2442,3025 2445,3030C2452,3041 2659,3042 2751,3031ZM2105,3020C2089,3015 2046,3010 2011,3008C1957,3004 1950,3005 1966,3017C1977,3025 2011,3030 2059,3029C2118,3028 2128,3026 2105,3020ZM1896,3003C1885,2992 1780,2972 1780,2981C1780,2985 1799,2993 1823,2998C1876,3010 1905,3012 1896,3003ZM2320,2985C2320,2978 2259,2924 2218,2894C2194,2876 2174,2872 2099,2871C2048,2870 2010,2873 2012,2878C2018,2896 2112,2970 2133,2975C2145,2977 2164,2981 2175,2983C2205,2990 2320,2991 2320,2985ZM1656,2935C1654,2889 1626,2862 1570,2855L1525,2849L1590,2909C1626,2942 1655,2969 1656,2970L1656,2935ZM1710,2950C1697,2939 1685,2932 1682,2935C1674,2943 1701,2970 1718,2970C1729,2970 1727,2965 1710,2950ZM1786,2930C1789,2930 1798,2937 1806,2945C1815,2953 1828,2960 1837,2960C1850,2960 1850,2957 1840,2945C1805,2902 1749,2870 1703,2864L1655,2857L1704,2908C1746,2952 1755,2957 1767,2944C1775,2936 1784,2930 1786,2930ZM2050,2953C2049,2948 2027,2928 2001,2908C1954,2872 1949,2870 1874,2870L1796,2870L1835,2910C1871,2947 1877,2949 1939,2953C1975,2955 2015,2957 2028,2958C2040,2959 2050,2957 2050,2953Z" style="fill:rgb(238,238,238);fill-rule:nonzero;"/>
        <path d="M8141,2934C8098,2885 8094,2875 8109,2865C8114,2862 8127,2873 8136,2890C8146,2906 8158,2920 8162,2920C8171,2920 8167,2909 8095,2745C8024,2582 7950,2368 7950,2324C7950,2286 7979,2260 8020,2260C8071,2260 8168,2326 8227,2401L8260,2443L8260,2407C8260,2341 8315,2319 8367,2364C8382,2377 8392,2392 8388,2396C8383,2400 8372,2396 8362,2387C8352,2377 8331,2370 8315,2370L8287,2370L8293,2450C8296,2494 8295,2530 8291,2530C8287,2530 8265,2501 8242,2466C8151,2327 7991,2239 7982,2322C7978,2358 8034,2523 8127,2743C8201,2921 8215,2969 8194,2977C8188,2979 8164,2960 8141,2934Z" style="fill:rgb(238,238,238);fill-rule:nonzero;"/>
        <path d="M12620,2959C12590,2947 12543,2932 12515,2924C12457,2908 12435,2889 12444,2864C12450,2849 12452,2849 12468,2863C12498,2890 12642,2942 12718,2953C12839,2971 12930,2935 12950,2860C12969,2789 12940,2723 12853,2638C12791,2577 12660,2470 12648,2470C12628,2470 12658,2776 12686,2855C12703,2903 12703,2910 12689,2910C12660,2910 12618,2699 12616,2539L12615,2441L12561,2411C12501,2376 12377,2320 12361,2320C12344,2320 12348,2335 12370,2355C12381,2365 12387,2377 12384,2382C12374,2397 12330,2349 12330,2323C12330,2284 12382,2293 12510,2356C12611,2406 12625,2410 12635,2396C12653,2372 12662,2377 12656,2408C12650,2432 12657,2440 12717,2488C12780,2537 12785,2539 12792,2520C12797,2506 12808,2500 12831,2500C12852,2500 12871,2491 12887,2474C12909,2450 12917,2448 12961,2453C13021,2460 13066,2481 13118,2526C13154,2556 13161,2559 13183,2549C13201,2541 13211,2525 13219,2494C13233,2438 13254,2435 13245,2490L13238,2530L13274,2530C13306,2530 13310,2527 13310,2505C13310,2472 13344,2459 13424,2460C13458,2461 13506,2458 13533,2455C13589,2447 13598,2464 13543,2475C13491,2485 13488,2487 13504,2518C13523,2556 13534,2615 13526,2645C13517,2680 13483,2678 13462,2640C13453,2624 13440,2610 13434,2610C13428,2610 13401,2599 13374,2585C13345,2570 13308,2560 13283,2560C13240,2560 13240,2560 13240,2595C13240,2647 13269,2778 13292,2832C13312,2880 13340,2914 13340,2891C13340,2885 13345,2880 13350,2880C13356,2880 13360,2891 13360,2905C13360,2923 13355,2930 13342,2930C13306,2930 13263,2857 13237,2751C13217,2674 13198,2643 13168,2638C13152,2636 13144,2627 13142,2608C13139,2582 13071,2510 13050,2510C13037,2510 13049,2539 13078,2577C13108,2617 13102,2644 13067,2631C13052,2625 13028,2626 13001,2633C12967,2642 12951,2641 12916,2629L12873,2613L12916,2669C13008,2789 12998,2905 12889,2960C12836,2988 12697,2987 12620,2959ZM13491,2547C13478,2514 13455,2510 13465,2543C13468,2555 13474,2576 13477,2590C13486,2638 13494,2646 13498,2609C13499,2590 13496,2562 13491,2547ZM13206,2572C13202,2569 13195,2571 13188,2578C13180,2586 13180,2593 13191,2606C13204,2622 13205,2622 13208,2601C13210,2588 13209,2576 13206,2572ZM13000,2605C13000,2600 12916,2550 12907,2550C12903,2550 12900,2555 12900,2560C12900,2566 12909,2570 12921,2570C12937,2570 12940,2574 12935,2590C12929,2607 12933,2610 12964,2610C12984,2610 13000,2608 13000,2605ZM13030,2574C13030,2570 13018,2548 13003,2524C12978,2484 12972,2480 12940,2483C12885,2486 12892,2510 12957,2547C13016,2580 13030,2585 13030,2574ZM12873,2551C12868,2532 12836,2517 12825,2528C12819,2534 12859,2569 12872,2570C12875,2570 12876,2561 12873,2551ZM13434,2524C13446,2494 13440,2489 13393,2492C13358,2494 13344,2499 13342,2512C13340,2524 13347,2530 13372,2533C13390,2535 13410,2538 13416,2538C13423,2539 13431,2533 13434,2524Z" style="fill:rgb(238,238,238);fill-rule:nonzero;"/>
        <path d="M13765,2913C13746,2757 13726,2635 13704,2552C13669,2411 13682,2405 13754,2530C13800,2609 13839,2648 13860,2635C13877,2624 13871,2596 13842,2549C13810,2501 13770,2460 13770,2478C13770,2484 13775,2492 13780,2495C13795,2504 13792,2530 13778,2524C13761,2518 13720,2454 13720,2435C13720,2402 13764,2421 13820,2479C13885,2545 13906,2592 13891,2634C13871,2684 13810,2664 13757,2590C13743,2569 13740,2569 13745,2585C13752,2615 13800,2922 13800,2943C13800,2952 13794,2960 13786,2960C13776,2960 13769,2944 13765,2913Z" style="fill:rgb(238,238,238);fill-rule:nonzero;"/>
        <path d="M8622,2883C8613,2866 8588,2723 8574,2613C8571,2584 8565,2560 8561,2560C8557,2560 8543,2571 8530,2585C8506,2610 8480,2618 8480,2600C8480,2588 8510,2557 8545,2534C8569,2518 8571,2513 8565,2469C8557,2412 8567,2337 8582,2342C8588,2344 8593,2381 8594,2425L8595,2505L8630,2503C8649,2501 8680,2498 8698,2495C8730,2489 8730,2488 8730,2435C8730,2329 8800,2307 8891,2385C8920,2410 8947,2430 8950,2430C8954,2430 8962,2400 8968,2364C8980,2289 8989,2276 9041,2249C9098,2220 9233,2223 9329,2256C9338,2259 9340,2264 9334,2269C9329,2274 9297,2272 9260,2264C9160,2242 9039,2260 9014,2302C9009,2309 9001,2346 8996,2385C8986,2449 8983,2455 8960,2458C8942,2460 8920,2448 8885,2417C8858,2393 8825,2370 8814,2366C8780,2355 8760,2383 8760,2441C8760,2489 8761,2490 8791,2490C8826,2490 8827,2513 8792,2518C8765,2522 8765,2532 8789,2603C8818,2687 8876,2769 8932,2803C8979,2832 8992,2850 8968,2850C8947,2850 8896,2815 8856,2774C8813,2729 8755,2618 8745,2559L8738,2518L8685,2524C8596,2534 8597,2533 8605,2614C8611,2682 8635,2831 8647,2878C8653,2904 8635,2908 8622,2883Z" style="fill:rgb(238,238,238);fill-rule:nonzero;"/>
        <path d="M6693,2663C6607,2483 6560,2350 6560,2290C6560,2253 6564,2240 6575,2240C6586,2240 6588,2247 6584,2268C6578,2296 6618,2427 6664,2534L6686,2584L6682,2512C6677,2433 6691,2386 6722,2369C6766,2346 6802,2386 6845,2507L6870,2575L6864,2520C6857,2454 6871,2414 6905,2398C6942,2381 6949,2397 6915,2424L6887,2447L6899,2568C6913,2701 6915,2758 6906,2767C6896,2778 6892,2767 6851,2627C6795,2431 6766,2378 6729,2401C6718,2407 6715,2433 6716,2507C6717,2600 6729,2654 6775,2773C6780,2784 6777,2790 6768,2790C6759,2790 6729,2739 6693,2663Z" style="fill:rgb(238,238,238);fill-rule:nonzero;"/>
        <path d="M1673,2680C1648,2647 1621,2620 1613,2620C1606,2620 1600,2616 1600,2610C1600,2605 1609,2600 1620,2600C1637,2600 1740,2713 1740,2732C1740,2753 1715,2734 1673,2680Z" style="fill:rgb(238,238,238);fill-rule:nonzero;"/>
        <path d="M14029,2652C13991,2605 13950,2520 13950,2489C13950,2429 14011,2424 14049,2482C14070,2514 14074,2517 14087,2504C14104,2488 14156,2485 14165,2500C14169,2506 14158,2513 14141,2516C14124,2520 14108,2530 14105,2541C14101,2552 14094,2560 14089,2560C14084,2560 14080,2580 14080,2605C14080,2638 14075,2652 14061,2659C14047,2667 14039,2665 14029,2652ZM14060,2596C14060,2574 14049,2550 14039,2550C14029,2550 14027,2593 14037,2603C14048,2615 14060,2611 14060,2596ZM14028,2494C14014,2465 13980,2462 13980,2489C13980,2529 13990,2540 14015,2528C14035,2519 14037,2514 14028,2494Z" style="fill:rgb(238,238,238);fill-rule:nonzero;"/>
        <path d="M14260,2637C14260,2623 14276,2598 14301,2575C14347,2530 14366,2492 14350,2476C14343,2469 14340,2473 14340,2489C14340,2503 14335,2510 14328,2508C14309,2501 14312,2459 14332,2447C14354,2433 14380,2454 14380,2486C14380,2514 14387,2515 14414,2495C14425,2487 14444,2480 14457,2480C14470,2480 14480,2476 14480,2470C14480,2452 14539,2430 14589,2430C14660,2430 14661,2447 14590,2452C14501,2458 14495,2471 14558,2526C14601,2564 14610,2577 14610,2605C14610,2641 14588,2662 14560,2652C14528,2642 14489,2594 14478,2553C14467,2506 14450,2499 14412,2526C14400,2534 14387,2539 14382,2537C14378,2535 14355,2555 14331,2582L14287,2630L14344,2631C14421,2633 14423,2633 14428,2648C14431,2657 14410,2660 14346,2660C14263,2660 14260,2659 14260,2637ZM14585,2620C14595,2603 14561,2551 14529,2534L14497,2518L14504,2547C14511,2574 14556,2630 14571,2630C14575,2630 14582,2626 14585,2620Z" style="fill:rgb(238,238,238);fill-rule:nonzero;"/>
        <path d="M8376,2634C8368,2612 8376,2604 8393,2618C8400,2624 8416,2627 8428,2623C8453,2617 8458,2635 8434,2644C8406,2655 8382,2650 8376,2634Z" style="fill:rgb(238,238,238);fill-rule:nonzero;"/>
        <path d="M7095,2549C7049,2508 7033,2452 7054,2408C7063,2391 7070,2364 7070,2348C7070,2301 7086,2280 7123,2280C7182,2280 7240,2362 7248,2456C7252,2516 7251,2520 7222,2549C7181,2590 7142,2590 7095,2549ZM7202,2533C7225,2512 7227,2429 7204,2406C7189,2390 7145,2385 7117,2396C7096,2404 7114,2456 7141,2463C7166,2470 7166,2490 7141,2490C7130,2490 7112,2478 7101,2463C7075,2431 7066,2437 7080,2476C7106,2543 7162,2569 7202,2533ZM7190,2363C7190,2346 7144,2310 7123,2310C7104,2310 7100,2315 7100,2340C7100,2369 7102,2370 7145,2370C7170,2370 7190,2367 7190,2363Z" style="fill:rgb(238,238,238);fill-rule:nonzero;"/>
        <path d="M7737,2548C7709,2526 7688,2463 7701,2439C7726,2391 7617,2339 7585,2384C7578,2393 7569,2419 7566,2442C7558,2493 7545,2510 7515,2510C7479,2510 7443,2474 7394,2389C7352,2316 7322,2285 7334,2328C7361,2425 7365,2500 7341,2486C7332,2480 7325,2442 7314,2338C7309,2290 7310,2279 7324,2274C7347,2265 7366,2284 7407,2357C7474,2477 7522,2513 7536,2453C7550,2389 7563,2359 7580,2350C7604,2337 7656,2337 7681,2350C7697,2359 7702,2357 7709,2337C7750,2230 7845,2317 7845,2463C7845,2519 7842,2534 7826,2546C7802,2563 7759,2564 7737,2548ZM7814,2514C7835,2460 7800,2325 7766,2325C7737,2325 7725,2372 7744,2407C7752,2422 7764,2445 7771,2458C7788,2488 7776,2496 7745,2476C7716,2457 7714,2460 7735,2500C7747,2523 7758,2530 7779,2530C7796,2530 7810,2524 7814,2514Z" style="fill:rgb(238,238,238);fill-rule:nonzero;"/>
        <path d="M1750,2539C1630,2529 1452,2499 1335,2468C1291,2457 1215,2445 1165,2441C1113,2438 1076,2431 1078,2425C1083,2407 1232,2417 1335,2443C1550,2498 1779,2530 1953,2530C1997,2530 2030,2534 2030,2540C2030,2552 1903,2551 1750,2539Z" style="fill:rgb(238,238,238);fill-rule:nonzero;"/>
    </g>
</svg>
