<svg version="1.0" xmlns="http://www.w3.org/2000/svg" width="1527.000000pt" height="1116.000000pt" viewBox="0 0 1527.000000 1116.000000" preserveAspectRatio="xMidYMid meet">
<metadata>Created by potrace 1.16, written by Peter Selinger 2001-2019</metadata>
<g transform="translate(0.000000,1116.000000) scale(0.100000,-0.100000)" fill="#333" stroke="none">
<path d="M3127 8921 c-49 -216 -77 -470 -77 -699 l0 -159 -427 1 c-395 1 -442
-1 -608 -23 -167 -21 -208 -31 -193 -47 4 -3 93 7 200 22 186 26 211 28 703
31 293 3 514 8 519 14 6 5 -25 9 -81 9 l-91 0 -6 43 c-15 100 28 564 70 752
27 124 27 125 15 125 -5 0 -16 -31 -24 -69z"/>
<path d="M2391 8954 c-57 -7 -127 -18 -155 -24 -28 -6 -113 -15 -188 -21 -76
-5 -201 -13 -278 -19 -77 -5 -145 -12 -150 -15 -28 -17 12 -20 152 -8 228 18
253 16 143 -12 -49 -13 -111 -24 -137 -24 -54 -1 -64 -15 -18 -24 37 -8 81 0
280 52 151 38 162 40 420 51 146 7 347 14 448 17 100 3 182 10 182 14 0 11
-64 11 -330 -1 -118 -5 -262 -11 -320 -13 l-105 -4 75 13 c41 7 103 13 138 13
34 1 62 5 62 11 0 13 -90 11 -219 -6z"/>
<path d="M3027 8757 c-12 -152 -27 -521 -23 -567 2 -24 8 -46 14 -48 6 -2 12
86 15 225 4 125 10 283 13 351 8 140 -9 173 -19 39z"/>
<path d="M1688 8783 c-7 -18 -12 -158 -16 -379 -5 -348 -4 -352 17 -373 11
-11 23 -21 24 -21 2 0 7 129 11 288 5 158 9 308 10 334 0 26 -3 48 -9 48 -6 0
-13 -43 -16 -97 -5 -84 -6 -78 -4 42 1 77 5 150 10 163 11 33 -13 28 -27 -5z
m9 -415 c-2 -18 -4 -4 -4 32 0 36 2 50 4 33 2 -18 2 -48 0 -65z"/>
<path d="M2328 8780 c-114 -18 -221 -90 -263 -177 -23 -49 -26 -65 -20 -110
l6 -53 -46 0 c-57 0 -51 -15 10 -24 33 -5 45 -12 45 -24 0 -57 65 -170 86
-149 4 4 2 13 -4 19 -18 18 -15 28 9 28 16 0 19 -4 14 -20 -8 -25 11 -26 38
-3 18 17 19 17 29 -1 5 -10 31 -31 56 -47 l46 -29 -67 0 c-76 0 -121 15 -156
53 -13 15 -28 24 -33 21 -18 -11 33 -62 84 -84 45 -19 64 -22 138 -17 118 7
242 61 336 147 67 61 117 207 99 289 -12 55 -49 86 -158 134 -115 50 -165 59
-249 47z m215 -89 c36 -24 47 -38 45 -54 -2 -13 2 -22 11 -22 38 0 43 -145 6
-223 -46 -99 -162 -197 -210 -178 -18 6 -20 47 -4 63 6 6 9 17 7 23 -7 22 -38
-19 -38 -51 0 -17 -5 -29 -13 -29 -17 0 -107 59 -107 70 0 13 68 68 110 90 24
12 37 25 34 34 -5 14 7 36 88 159 83 125 62 139 -63 41 -46 -37 -98 -73 -115
-81 -43 -21 -44 -74 -3 -114 l29 -28 -43 -26 c-24 -14 -46 -25 -49 -25 -3 0 1
27 9 60 13 60 11 86 -8 75 -5 -4 -9 -14 -9 -25 0 -10 -10 -49 -21 -86 -21 -65
-22 -68 -33 -43 -6 14 -21 38 -33 53 -13 16 -23 37 -23 47 0 9 -5 19 -12 21
-19 7 11 96 45 135 16 19 27 37 23 40 -13 14 -41 -14 -68 -67 -30 -58 -39 -40
-13 24 24 56 134 129 214 142 41 6 41 6 41 -25 0 -17 5 -31 10 -31 6 0 10 9
10 19 0 47 10 53 74 49 49 -3 71 -10 109 -37z m67 -1 c8 -5 11 -12 7 -16 -4
-4 -15 0 -24 9 -18 18 -8 23 17 7z m85 -61 c21 -39 19 -119 -5 -186 -35 -101
-73 -115 -44 -17 17 61 14 140 -8 188 -8 19 -8 29 1 40 16 20 38 10 56 -25z
m-241 -31 c-59 -97 -60 -99 -78 -79 -16 18 -15 20 26 55 44 36 65 46 52 24z
m-99 -128 c0 -29 -4 -36 -22 -38 -24 -4 -29 11 -17 56 10 37 39 24 39 -18z
m-232 -151 c-7 -27 -21 -12 -29 31 l-5 35 19 -22 c12 -14 18 -31 15 -44z"/>
<path d="M2200 8616 c0 -26 15 -43 24 -28 7 12 -4 52 -15 52 -5 0 -9 -11 -9
-24z"/>
<path d="M2540 8516 c0 -12 9 -16 35 -16 19 0 35 5 35 10 0 6 -6 10 -12 10 -7
0 -23 3 -35 6 -17 5 -23 2 -23 -10z"/>
<path d="M3555 8029 c-17 -26 167 -162 383 -283 94 -53 124 -63 108 -38 -3 5
-54 36 -113 70 -60 33 -154 92 -211 132 -84 58 -102 75 -97 91 5 14 0 21 -20
29 -33 13 -42 13 -50 -1z"/>
<path d="M2238 8009 c-48 -5 -212 -26 -365 -48 -153 -22 -315 -43 -360 -47
-78 -6 -114 -16 -102 -29 4 -3 75 3 160 14 84 12 155 19 157 16 8 -8 -130
-145 -225 -224 -78 -64 -193 -164 -398 -344 -22 -19 -37 -38 -33 -42 4 -5 14
-2 22 4 13 11 14 7 8 -26 -9 -55 -8 -88 3 -91 6 -1 13 28 18 65 4 36 10 69 12
72 16 15 351 52 520 56 105 3 260 7 345 10 85 2 205 5 265 7 87 2 71 3 -78 8
l-188 5 61 85 c33 47 68 91 77 97 21 16 8 31 -15 17 -9 -6 -43 -46 -74 -90
l-57 -79 -113 -12 c-62 -7 -187 -17 -278 -23 -91 -6 -228 -19 -305 -29 -77
-10 -141 -18 -141 -17 -1 0 65 58 147 128 92 79 154 126 163 122 8 -3 28 2 45
10 27 14 30 14 25 1 -4 -10 0 -15 10 -15 9 0 16 5 16 11 0 5 17 17 37 26 29
12 41 13 56 3 15 -9 21 -8 30 4 10 13 56 17 275 23 145 5 266 6 268 4 2 -2 -3
-13 -13 -23 -29 -32 -5 -32 32 1 l36 31 211 0 212 0 -74 -67 c-119 -107 -150
-140 -150 -157 0 -9 5 -16 10 -16 6 0 10 4 10 8 0 4 54 59 120 121 l120 113
61 3 c33 2 59 0 57 -5 -3 -8 -79 -69 -244 -194 -61 -46 -123 -99 -139 -117
-38 -45 -13 -51 28 -7 18 19 59 54 92 78 33 24 96 73 140 110 44 36 122 97
174 135 52 38 89 71 83 73 -7 2 -31 -10 -54 -27 -38 -28 -49 -31 -112 -31
l-71 0 118 117 c121 120 154 166 67 93 l-49 -41 -198 7 c-109 4 -193 9 -188
10 6 2 64 10 129 19 111 14 136 20 125 29 -2 2 -53 -3 -113 -10 -60 -8 -112
-11 -115 -8 -3 3 12 20 33 38 21 18 37 38 35 45 -3 9 -26 -6 -65 -42 l-60 -55
-86 -4 c-48 -2 -89 0 -92 3 -3 3 16 25 43 47 44 37 55 42 100 42 27 0 53 5 56
10 7 12 -128 11 -257 -1z m53 -60 c-40 -38 -59 -49 -75 -45 -12 3 -39 6 -61 6
-32 1 -37 3 -22 11 9 5 17 14 17 19 0 16 -23 11 -50 -10 -28 -22 -118 -28
-137 -9 -8 8 -17 8 -31 0 -23 -12 -172 -15 -172 -3 0 4 57 16 128 26 237 35
387 54 422 55 l35 0 -54 -50z m-551 -105 c-30 -20 -87 -67 -127 -104 -40 -38
-87 -76 -105 -85 l-33 -16 30 22 c17 13 75 67 130 121 81 79 106 98 130 98 28
0 27 -2 -25 -36z m117 19 c-14 -15 -117 -56 -117 -48 0 2 16 12 36 24 19 12
32 26 29 31 -4 6 9 10 32 10 35 0 36 -1 20 -17z m118 7 c-45 -11 -77 -11 -70
0 3 6 27 9 53 9 42 -1 44 -2 17 -9z m219 -10 c-13 -13 -182 -26 -171 -14 7 8
48 13 162 22 13 1 16 -1 9 -8z m171 0 c-46 -12 -137 -12 -130 0 3 6 41 9 83 9
57 -1 69 -3 47 -9z m452 4 l51 -7 -75 -73 -75 -74 -203 2 -204 3 61 54 60 54
147 -15 c80 -8 150 -12 154 -8 5 4 -38 13 -95 20 -57 6 -123 15 -148 20 -39 7
-41 8 -12 9 17 0 32 6 32 11 0 11 222 14 307 4z m-859 -30 c-3 -3 -32 -11 -63
-19 -32 -7 -52 -8 -47 -3 11 11 63 25 96 27 11 1 17 -2 14 -5z m422 -18 c0
-17 -106 -100 -137 -107 -15 -4 -64 -7 -108 -7 l-80 -1 30 25 c82 69 99 79
164 90 81 14 131 14 131 0z m-660 -31 c-5 -14 -7 -30 -5 -37 9 -25 -30 -54
-83 -65 l-53 -10 73 68 c40 37 74 68 75 69 1 0 -2 -11 -7 -25z m60 0 c-25 -27
-44 -33 -38 -12 4 10 44 36 57 37 3 0 -6 -11 -19 -25z m109 -21 c-41 -44 -72
-61 -124 -68 l-50 -7 46 46 c41 42 49 46 68 36 17 -10 25 -9 37 4 8 8 23 15
31 15 13 0 11 -6 -8 -26z m231 22 c0 -2 -24 -22 -53 -45 -53 -40 -55 -41 -133
-41 l-79 1 43 39 c46 41 40 39 190 48 17 1 32 0 32 -2z m-157 -373 c-7 -2 -19
-2 -25 0 -7 3 -2 5 12 5 14 0 19 -2 13 -5z"/>
<path d="M3012 7968 c-5 -7 -11 -31 -12 -53 -3 -55 -1 -65 9 -65 7 0 24 121
17 128 -2 1 -8 -3 -14 -10z"/>
<path d="M8925 7764 c-22 -2 -110 -8 -195 -14 -85 -6 -218 -18 -296 -27 -131
-15 -156 -15 -360 0 -120 10 -312 17 -426 17 -137 0 -208 4 -210 11 -2 7 -12
7 -28 1 -14 -5 -89 -13 -167 -17 -91 -5 -149 -12 -160 -20 -24 -18 -12 -28 19
-16 13 5 71 12 129 16 84 6 102 5 92 -6 -7 -7 -60 -17 -129 -23 -74 -7 -119
-15 -121 -23 -3 -9 14 -10 66 -6 39 3 71 3 71 0 0 -3 -34 -24 -76 -47 l-76
-42 -54 29 c-30 15 -54 31 -54 34 0 9 74 59 88 59 7 0 12 7 12 15 0 25 -23 17
-83 -26 -32 -22 -57 -35 -57 -30 0 6 -9 11 -20 11 -23 0 -27 -18 -5 -26 23 -9
-122 -139 -229 -206 -103 -64 -156 -112 -139 -129 7 -7 15 -3 26 14 14 22 116
97 132 97 3 0 3 -9 0 -20 -10 -33 7 -23 52 29 24 28 75 68 120 94 118 69 126
72 158 54 l28 -14 -93 -49 c-52 -26 -114 -68 -139 -92 -33 -33 -58 -47 -90
-53 -24 -5 -50 -14 -57 -20 -20 -16 -7 -31 16 -19 26 14 185 30 298 30 75 0
92 -3 92 -15 0 -8 4 -15 9 -15 5 0 14 7 21 15 10 12 40 15 149 15 l136 -1 -27
-24 c-16 -13 -28 -29 -28 -35 0 -15 -712 -2 -722 14 -17 25 -28 -23 -28 -124
0 -58 7 -253 15 -435 8 -181 19 -751 24 -1265 11 -951 16 -1148 32 -1185 6
-13 8 -2 4 35 -8 81 -24 1087 -24 1525 0 209 -8 591 -17 849 -13 354 -14 471
-6 474 7 2 12 23 12 46 l0 42 248 -3 c136 -1 438 -5 672 -8 382 -4 536 -10
710 -31 67 -7 61 4 -7 15 l-48 7 35 19 c19 11 59 22 89 25 53 5 80 25 44 32
-16 3 1 13 130 76 15 7 -5 -231 -25 -293 -11 -38 -22 -116 -28 -210 -6 -82
-15 -206 -21 -275 -11 -130 -8 -253 17 -602 8 -114 14 -303 14 -420 l-1 -213
-19 24 c-11 13 -20 36 -20 52 0 31 -14 39 -24 13 -7 -19 24 -93 47 -113 15
-12 17 -40 17 -227 0 -118 -4 -214 -8 -214 -5 0 -19 11 -32 25 -26 27 -40 32
-40 13 0 -7 18 -29 40 -48 l40 -35 1 -282 c0 -155 -2 -287 -6 -293 -11 -18
-29 -185 -22 -204 12 -31 27 -6 27 46 0 28 2 49 4 47 4 -4 11 -77 21 -219 11
-166 38 -240 71 -195 12 15 13 48 8 165 -7 145 -7 145 21 200 52 102 95 156
95 118 0 -7 -25 -51 -55 -97 -30 -46 -55 -88 -55 -92 0 -5 9 -9 19 -9 11 0 49
33 89 75 68 73 92 89 92 62 0 -12 -58 -99 -120 -179 -30 -38 -6 -47 32 -12 17
16 48 51 69 77 34 42 39 46 39 25 0 -27 -84 -198 -102 -209 -7 -5 -23 -6 -36
-2 -27 6 -54 -13 -50 -37 2 -9 -3 -24 -11 -34 -28 -34 1 -28 59 13 33 23 68
41 77 39 12 -2 17 3 16 13 -5 29 212 170 238 154 6 -4 36 8 67 27 31 19 72 40
90 48 17 7 32 16 32 21 0 13 -16 11 -57 -6 -46 -20 -45 -20 -37 20 5 27 3 36
-10 41 -18 7 -23 64 -5 64 8 0 9 47 5 163 -9 243 -2 1336 9 1417 3 19 2 90 -1
158 -5 94 -10 122 -20 122 -11 0 -14 35 -14 186 l0 186 35 -21 c49 -29 52 -10
3 29 l-41 33 7 96 c4 52 12 98 17 102 8 4 7 14 -1 30 -10 17 -11 66 -6 194 6
144 9 172 24 184 12 10 14 15 5 18 -17 6 -16 91 6 333 9 107 15 205 13 218 -6
29 -26 23 -30 -9 -3 -21 -18 -30 -112 -66 -60 -24 -113 -43 -117 -43 -5 0 -58
22 -118 48 -83 36 -111 53 -113 68 -3 19 5 21 165 32 92 7 187 12 211 12 23 0
42 5 42 10 0 6 -10 9 -22 8 -13 -1 -41 -3 -63 -4z m-1357 -68 c3 -14 0 -17
-13 -12 -9 3 -62 6 -118 6 -94 1 -100 2 -77 15 18 10 51 14 115 12 79 -2 90
-4 93 -21z m582 5 l55 -7 -50 -10 c-27 -5 -156 -9 -285 -8 -233 1 -280 7 -280
36 0 12 457 4 560 -11z m410 0 c0 -26 14 -35 126 -82 54 -22 101 -43 103 -45
8 -8 -248 -124 -262 -118 -8 3 -17 -2 -20 -11 -4 -8 -60 -41 -125 -74 -114
-56 -121 -58 -222 -65 -56 -3 -105 -5 -107 -2 -5 5 133 86 148 86 7 0 27 -12
46 -26 46 -35 57 -20 13 17 -40 34 -46 28 77 91 l82 43 31 -19 c38 -22 54 -12
22 14 l-23 19 46 26 c65 39 56 52 -11 16 l-57 -31 -80 48 c-109 64 -126 95
-54 96 17 0 75 -2 127 -6 l95 -6 -70 12 c-65 12 -68 13 -35 19 118 22 150 21
150 -2z m-338 -41 c-5 -20 18 -39 101 -88 l80 -45 -94 -48 c-52 -26 -99 -48
-106 -48 -7 -1 -33 13 -58 31 l-46 32 76 39 c42 20 73 42 70 47 -3 6 -32 -3
-66 -21 -103 -51 -103 -51 -148 -18 -23 16 -41 33 -41 37 0 4 18 18 40 32 37
23 51 40 33 40 -5 0 -26 -11 -48 -25 -44 -27 -60 -30 -78 -15 -7 6 -21 17 -32
24 -17 12 -9 15 70 20 50 4 122 10 160 15 80 9 91 8 87 -9z m-612 -6 c16 -16
-175 -107 -207 -99 -33 8 -28 23 12 42 19 9 35 20 35 25 0 13 -18 9 -57 -12
-47 -25 -49 -25 -113 3 -60 27 -56 37 20 48 73 10 298 5 310 -7z m224 -8 c19
-8 36 -19 40 -24 6 -9 -93 -62 -115 -62 -12 0 -89 70 -89 80 0 22 117 26 164
6z m1216 -48 c0 -59 -21 -391 -26 -396 -1 -2 -28 15 -58 37 -49 36 -56 46 -56
75 0 19 11 49 25 71 28 40 27 57 -1 34 -16 -13 -17 -11 -10 26 4 22 10 50 13
63 3 12 1 22 -5 22 -11 0 -17 -22 -28 -105 -8 -63 -39 -111 -60 -94 -10 8 -12
22 -8 45 7 37 -8 46 -25 17 -9 -17 -11 -17 -25 2 -8 11 -16 23 -16 27 0 5 22
23 50 40 27 18 50 40 50 49 0 10 35 40 80 70 44 30 80 57 80 61 0 5 5 8 10 8
6 0 10 -24 10 -52z m-1785 -8 c11 0 27 -4 35 -10 11 -7 -2 -16 -55 -40 -73
-33 -97 -33 -135 -2 l-23 19 53 30 c48 28 55 29 79 17 14 -8 35 -14 46 -14z
m427 -9 l42 -39 -72 -36 c-39 -20 -78 -36 -87 -36 -17 0 -125 51 -125 60 0 9
163 89 183 89 10 1 37 -16 59 -38z m-748 21 c3 -5 -16 -18 -42 -31 l-47 -22
33 31 c33 31 47 36 56 22z m1882 -78 c-64 -47 -114 -90 -111 -95 5 -7 -186
-142 -191 -136 -1 1 1 31 5 67 l6 64 80 40 c127 62 309 146 318 146 5 0 -43
-39 -107 -86z m-896 56 c0 -5 -26 -23 -58 -39 -50 -25 -60 -27 -76 -16 -16 13
-14 16 31 39 49 25 103 34 103 16z m71 -47 c21 -16 39 -30 38 -33 0 -9 -273
-130 -291 -130 -10 0 -18 -4 -18 -10 0 -11 -66 -12 -94 -1 -16 6 -11 12 30 38
121 76 145 87 165 75 29 -18 46 -15 26 5 -15 16 -13 19 36 49 29 18 56 33 60
33 5 1 26 -11 48 -26z m-637 11 c27 -10 19 -20 -45 -54 -54 -29 -63 -31 -90
-20 -16 7 -29 15 -29 19 0 9 110 59 132 60 9 1 23 -2 32 -5z m-270 -25 c20
-12 34 -24 31 -28 -2 -4 -43 -23 -91 -41 -54 -21 -92 -42 -101 -57 -13 -20
-24 -23 -74 -23 -33 0 -59 4 -59 9 0 16 60 57 160 110 52 28 96 51 97 51 1 0
18 -9 37 -21z m696 -19 c0 -3 -32 -22 -70 -43 -66 -35 -72 -37 -97 -23 l-27
14 79 40 c64 32 83 37 97 28 10 -6 18 -13 18 -16z m-305 -17 c30 -15 55 -30
55 -33 0 -3 -32 -22 -70 -42 l-69 -38 -123 0 c-90 0 -119 3 -111 11 16 16 235
128 250 129 7 0 37 -12 68 -27z m637 -34 c26 -17 48 -35 48 -39 0 -4 -33 -27
-72 -50 -40 -24 -91 -56 -113 -71 l-41 -27 -139 9 c-77 4 -214 8 -305 9 l-165
1 39 34 c34 31 46 35 92 35 38 0 56 -4 62 -16 8 -14 13 -14 31 -4 22 11 194 3
354 -17 28 -3 47 -2 47 4 0 6 -41 14 -91 18 -51 4 -88 10 -83 15 11 11 266
130 278 130 5 0 31 -14 58 -31z m-923 7 c24 -13 23 -14 -41 -50 -57 -31 -74
-36 -131 -36 -92 0 -87 17 21 61 97 41 117 44 151 25z m407 -40 c19 -15 19
-15 -1 -30 -30 -24 -62 -29 -108 -19 l-42 9 50 27 c58 30 74 32 101 13z m1149
-122 c-17 -31 -42 -70 -57 -87 l-26 -32 -24 23 c-33 30 -45 15 -14 -17 25 -26
25 -26 6 -51 -16 -21 -22 -23 -37 -14 -27 18 -20 59 26 156 30 61 51 92 74
107 l32 20 25 -25 25 -24 -30 -56z m-164 -49 c-17 -38 -34 -71 -40 -73 -20 -7
-11 -31 19 -59 l30 -26 -26 -34 c-14 -18 -22 -38 -19 -43 3 -5 0 -19 -8 -30
-13 -19 -15 -15 -21 41 -3 34 -6 102 -6 151 l0 88 47 30 c26 16 48 28 50 27 1
-2 -10 -34 -26 -72z m238 62 c8 -10 4 -19 -19 -35 -33 -25 -40 -27 -40 -12 0
14 30 60 40 60 4 0 13 -6 19 -13z m71 3 c0 -5 -5 -10 -11 -10 -5 0 -7 5 -4 10
3 6 8 10 11 10 2 0 4 -4 4 -10z m-690 -26 c0 -12 -72 -34 -112 -34 -76 0 -77
17 -2 25 38 3 74 8 79 10 16 6 35 5 35 -1z m674 -20 c11 -10 16 -34 16 -69 0
-50 -3 -56 -42 -94 -48 -46 -51 -47 -68 -26 -11 13 -5 32 31 110 24 52 45 95
46 95 1 0 9 -7 17 -16z m87 -60 l49 -36 0 -59 c0 -41 -4 -58 -12 -56 -8 1 -15
-18 -19 -51 -4 -29 -9 -55 -11 -57 -2 -2 -14 5 -28 15 -25 19 -25 20 -7 51 18
33 15 52 -8 43 -20 -8 -30 22 -17 51 7 15 8 26 2 30 -11 7 -14 105 -4 105 4 0
28 -16 55 -36z m-175 -6 c-38 -90 -47 -101 -61 -78 -5 8 62 110 72 110 2 0 -3
-15 -11 -32z m-62 -23 c-9 -14 -18 -25 -21 -25 -5 0 5 18 20 38 17 22 18 13 1
-13z m-63 -78 l-23 -22 17 28 c10 15 20 25 23 22 3 -3 -5 -16 -17 -28z m64 -7
c3 -5 -1 -21 -10 -34 -18 -27 -45 -25 -45 3 0 32 40 55 55 31z m-225 -101 c0
-44 -5 -89 -11 -100 -8 -16 -7 -25 7 -40 13 -15 16 -30 11 -76 -3 -32 -12 -74
-21 -93 l-15 -35 -1 75 c0 138 13 359 22 354 4 -3 8 -41 8 -85z m390 61 c0
-20 -25 -38 -36 -27 -7 6 18 47 28 47 5 0 8 -9 8 -20z m-112 -3 c16 -19 -22
-67 -39 -50 -10 10 -10 18 -1 38 13 28 24 31 40 12z m-109 -31 c10 -12 -2 -36
-61 -125 -40 -60 -76 -110 -80 -110 -5 -1 -8 21 -8 47 0 41 7 58 41 108 69 99
83 110 108 80z m-212 -93 c-2 -16 -4 -3 -4 27 0 30 2 43 4 28 2 -16 2 -40 0
-55z m393 70 c0 -5 -9 -19 -19 -32 -22 -29 -36 -13 -15 17 15 21 34 30 34 15z
m-128 -50 c-6 -10 -20 -27 -32 -38 l-22 -20 23 48 c13 27 27 43 32 38 5 -5 5
-17 -1 -28z m176 -33 c2 -28 1 -30 -18 -20 -23 12 -24 15 -9 41 13 26 24 18
27 -21z m67 -8 c-3 -8 -5 -25 -5 -38 0 -26 -7 -29 -30 -14 -12 8 -13 13 -2 30
16 26 15 33 -3 26 -11 -4 -15 1 -15 19 0 24 0 24 30 7 17 -10 28 -23 25 -30z
m-226 -9 c-38 -64 -69 -92 -69 -62 0 13 82 111 88 105 2 -3 -6 -22 -19 -43z
m-109 -40 c-33 -60 -70 -106 -78 -98 -3 3 19 41 48 85 30 43 56 77 58 75 2 -2
-10 -30 -28 -62z m154 40 c-56 -87 -67 -103 -71 -99 -7 7 68 126 80 126 5 0 1
-12 -9 -27z m85 -26 c8 -10 -2 -29 -42 -80 -28 -36 -56 -62 -61 -57 -9 9 69
150 83 150 5 0 14 -6 20 -13z m-96 -57 c-15 -27 -29 -46 -31 -41 -3 9 46 91
55 91 2 0 -8 -22 -24 -50z m-334 -164 c-9 -8 -10 2 -5 44 3 30 7 73 8 95 1 22
4 2 5 -44 3 -56 0 -88 -8 -95z m507 159 c8 -21 -5 -105 -17 -105 -5 0 -9 27
-9 60 0 57 13 79 26 45z m-282 -4 c6 -9 -62 -101 -75 -101 -15 0 -10 14 21 63
29 46 43 56 54 38z m230 -132 c-22 -24 -36 -24 -58 0 -22 24 -16 44 27 102
l32 44 8 -63 c8 -54 6 -66 -9 -83z m-204 91 c0 -13 -61 -82 -68 -76 -4 5 56
86 64 86 2 0 4 -4 4 -10z m300 -63 c0 -43 -5 -70 -16 -83 -14 -18 -15 -16 -9
21 4 22 7 49 7 60 0 28 7 65 13 65 3 0 5 -28 5 -63z m-290 -12 c-20 -32 -50
-48 -50 -25 0 16 64 83 68 71 2 -6 -6 -27 -18 -46z m60 14 c0 -5 -11 -27 -26
-47 -25 -37 -25 -37 -18 -7 4 17 11 38 16 48 10 19 28 23 28 6z m-217 -29 c-3
-12 -8 -19 -11 -16 -5 6 5 36 12 36 2 0 2 -9 -1 -20z m278 -79 c-13 -18 -27
-28 -36 -24 -19 7 -19 12 1 58 l15 38 21 -21 21 -20 -22 -31z m-322 -33 c-13
-47 -15 -45 -22 24 -2 26 -1 45 4 43 4 -3 11 0 16 7 14 22 15 -26 2 -74z m151
62 c0 -5 -11 -21 -23 -37 -13 -15 -40 -52 -60 -82 l-37 -53 0 61 c0 43 4 61
13 61 7 0 28 15 46 34 30 31 61 39 61 16z m260 10 c0 -5 -4 -10 -10 -10 -5 0
-10 5 -10 10 0 6 5 10 10 10 6 0 10 -4 10 -10z m-27 -38 c3 -4 -6 -20 -19 -37
-17 -22 -26 -27 -35 -18 -8 8 -7 18 7 37 19 25 39 33 47 18z m-244 -141 c-46
-67 -87 -121 -91 -121 -14 0 -9 24 13 59 25 42 152 192 157 186 2 -2 -34 -58
-79 -124z m210 -88 c-94 -182 -99 -189 -127 -174 -12 7 -22 15 -22 20 0 17
120 241 162 302 l43 63 9 -34 c9 -31 4 -45 -65 -177z m-82 156 c-6 -10 -13
-15 -15 -9 -6 17 7 42 18 35 6 -4 5 -13 -3 -26z m-57 -51 c-21 -56 -131 -191
-138 -169 -4 11 149 234 155 227 2 -2 -6 -28 -17 -58z m280 7 c0 -20 -6 -35
-15 -39 -21 -8 -29 16 -21 60 6 29 10 33 22 24 8 -7 14 -27 14 -45z m-483 -70
c-2 -63 -6 -118 -9 -121 -13 -13 -19 138 -8 186 7 27 14 50 17 50 2 0 2 -52 0
-115z m317 107 c3 -5 -4 -21 -15 -38 -13 -21 -19 -24 -19 -11 0 9 -5 17 -10
17 -6 0 -5 8 2 20 13 21 33 26 42 12z m-387 -129 c-2 -16 -4 -3 -4 27 0 30 2
43 4 28 2 -16 2 -40 0 -55z m293 26 c-7 -11 -14 -18 -17 -15 -3 3 0 12 7 21
18 21 23 19 10 -6z m199 -160 c5 -96 6 -178 2 -182 -5 -4 -28 7 -53 26 -25 19
-55 38 -67 42 -28 9 -27 14 13 73 23 34 32 58 29 75 -5 23 53 155 63 145 2 -3
8 -83 13 -179z m-203 87 c-20 -49 -63 -109 -69 -99 -5 8 70 133 79 133 3 0 -2
-15 -10 -34z m-81 -45 c-8 -17 -19 -31 -24 -31 -20 0 -18 15 7 46 31 39 41 30
17 -15z m-208 -93 c-2 -18 -4 -4 -4 32 0 36 2 50 4 33 2 -18 2 -48 0 -65z
m164 42 c13 -7 19 -21 19 -44 0 -51 -19 -60 -60 -26 l-35 28 24 26 c28 30 26
29 52 16z m-82 -165 c1 -55 -2 -75 -9 -65 -5 8 -9 53 -9 100 0 57 3 78 9 65 5
-11 9 -56 9 -100z m210 78 c9 -5 -42 -63 -56 -63 -12 0 -14 7 -9 32 9 45 25
61 45 46 9 -7 18 -13 20 -15z m-260 -123 c-1 -73 -4 -106 -9 -90 -12 37 -12
239 0 220 5 -8 9 -67 9 -130z m171 110 c-6 -12 -14 -20 -17 -17 -2 3 1 14 8
26 17 26 24 19 9 -9z m-60 -19 c0 -3 -11 -24 -25 -46 l-24 -40 -1 63 0 62 25
-16 c14 -9 25 -19 25 -23z m218 -10 c11 -7 9 -16 -10 -45 -12 -19 -27 -36 -31
-36 -16 0 -18 30 -2 59 17 33 22 36 43 22z m-183 -28 c-4 -10 -10 -37 -12 -60
-6 -45 -21 -54 -44 -27 -11 13 -9 23 11 60 24 42 61 64 45 27z m45 -26 c-1
-16 -28 -52 -35 -45 -9 8 16 68 26 62 5 -3 9 -11 9 -17z m210 8 c11 -13 8 -20
-21 -45 -38 -32 -45 -35 -54 -20 -8 14 33 80 50 80 7 0 18 -7 25 -15z m68
-105 l3 -63 -23 15 c-17 12 -22 24 -20 44 3 28 3 28 -17 10 -29 -26 -26 -11 5
30 15 19 32 33 38 31 6 -2 12 -32 14 -67z m-198 39 c0 -13 -51 -81 -57 -75 -7
7 40 95 49 90 4 -3 8 -10 8 -15z m-90 -18 c-5 -11 -15 -23 -21 -27 -6 -3 -3 5
6 20 20 30 30 35 15 7z m-92 -38 c-10 -12 -13 -12 -20 1 -13 23 0 40 18 25 11
-9 12 -15 2 -26z m235 31 c7 -7 -50 -94 -62 -94 -20 0 -18 16 10 56 29 43 39
50 52 38z m-276 -66 c-3 -7 -5 -2 -5 12 0 14 2 19 5 13 2 -7 2 -19 0 -25z m84
5 c-5 -10 -17 -27 -26 -38 -16 -19 -17 -19 -3 5 26 46 29 50 34 50 3 0 0 -8
-5 -17z m188 -23 c-12 -22 -25 -38 -27 -35 -5 4 37 75 44 75 3 0 -5 -18 -17
-40z m36 -15 c-31 -52 -46 -55 -19 -3 20 40 35 60 41 54 3 -2 -7 -25 -22 -51z
m-211 -24 c-23 -44 -44 -65 -44 -46 0 11 32 70 48 88 27 30 25 10 -4 -42z
m294 39 c12 -12 22 -24 22 -28 0 -4 -15 -25 -33 -46 -31 -35 -35 -37 -55 -25
-26 16 -27 21 -6 62 32 63 40 67 72 37z m-198 -41 c0 -16 -64 -89 -77 -89 -21
0 -15 14 23 63 33 42 54 52 54 26z m-243 -46 c-3 -10 -5 -2 -5 17 0 19 2 27 5
18 2 -10 2 -26 0 -35z m283 21 c0 -17 -54 -94 -66 -94 -22 0 -17 19 17 61 27
35 49 49 49 33z m13 -79 c-10 -25 -24 -45 -30 -45 -19 0 -16 17 14 67 32 55
42 41 16 -22z m187 30 c0 -9 -9 -15 -21 -15 -18 0 -19 2 -9 15 7 8 16 15 21
15 5 0 9 -7 9 -15z m-126 -1 c20 -8 11 -24 -14 -24 -13 0 -17 5 -14 15 7 17 7
17 28 9z m-210 -33 c6 -9 -64 -95 -71 -87 -6 6 49 96 59 96 4 0 9 -4 12 -9z
m206 -15 c0 -3 -4 -8 -10 -11 -5 -3 -10 -1 -10 4 0 6 5 11 10 11 6 0 10 -2 10
-4z m110 -27 c0 -16 -34 -79 -43 -79 -7 0 -46 18 -55 25 -2 2 8 21 23 43 24
37 29 40 51 30 13 -6 24 -15 24 -19z m-265 11 c6 -10 -113 -209 -125 -210 -3
0 -3 25 0 54 4 48 11 62 53 110 49 57 61 64 72 46z m120 -20 c3 -5 1 -10 -4
-10 -6 0 -11 5 -11 10 0 6 2 10 4 10 3 0 8 -4 11 -10z m-71 -88 c-24 -65 -55
-107 -118 -162 -34 -31 -56 -38 -56 -20 0 21 69 147 114 208 41 55 48 61 65
50 19 -12 19 -13 -5 -76z m233 -8 c-2 -3 -11 -2 -20 2 -15 5 -15 9 1 37 l17
32 3 -33 c2 -19 1 -36 -1 -38z m-212 -74 c-63 -120 -86 -149 -55 -70 21 53 99
184 106 177 2 -2 -21 -50 -51 -107z m116 85 c34 -18 32 -24 -29 -109 -20 -27
-53 -76 -74 -108 -34 -52 -40 -57 -58 -48 -11 6 -20 12 -20 13 0 2 29 54 65
117 36 62 67 122 71 132 7 22 7 22 45 3z m-334 -142 c-2 -21 -4 -4 -4 37 0 41
2 58 4 38 2 -21 2 -55 0 -75z m433 6 c4 -76 2 -101 -12 -129 -10 -19 -26 -56
-37 -82 -21 -52 -38 -59 -66 -29 -17 19 -15 23 44 107 56 81 65 104 40 104
-15 0 -97 -79 -120 -117 -37 -59 -32 -29 10 61 42 90 109 187 126 182 6 -1 12
-45 15 -97z m-307 -47 c-11 -15 -26 -27 -34 -27 -8 0 -14 -7 -14 -15 0 -15
-51 -100 -60 -100 -3 0 -5 23 -5 50 0 41 3 50 18 50 9 0 37 18 62 39 50 43 64
45 33 3z m-126 -64 c-3 -7 -5 -2 -5 12 0 14 2 19 5 13 2 -7 2 -19 0 -25z m311
-52 c-13 -19 -24 -33 -26 -31 -5 4 37 65 44 65 2 0 -6 -15 -18 -34z m-148 9
c10 -12 6 -22 -20 -55 -33 -41 -44 -47 -55 -30 -7 12 41 100 54 100 5 0 14 -7
21 -15z m271 -32 c-8 -15 -10 -15 -11 -2 0 17 10 32 18 25 2 -3 -1 -13 -7 -23z
m-351 9 c0 -11 -22 -32 -32 -32 -5 0 -4 9 2 20 11 20 30 28 30 12z m115 -75
c-14 -34 -35 -50 -35 -27 0 15 44 81 48 71 1 -4 -4 -24 -13 -44z m-161 -4 c-9
-32 -9 -87 0 -123 4 -18 0 -32 -14 -50 l-21 -25 6 95 c7 107 12 130 27 130 6
0 7 -10 2 -27z m217 0 c-15 -29 -40 -59 -41 -50 0 10 39 67 46 67 3 0 0 -8 -5
-17z m79 -32 c-1 -3 -14 -21 -30 -40 -25 -29 -32 -32 -45 -21 -20 16 -19 22 6
64 20 34 21 35 45 20 13 -9 24 -19 24 -23z m107 -27 c-7 -8 -37 8 -37 19 0 6
8 19 18 30 17 19 17 19 20 -13 2 -17 1 -34 -1 -36z m-357 47 c0 -12 -20 -25
-27 -18 -7 7 6 27 18 27 5 0 9 -4 9 -9z m-141 -251 c0 -33 -3 -50 -8 -42 -4 7
-8 72 -8 145 0 132 0 132 7 42 5 -49 8 -115 9 -145z m149 195 c-13 -19 -26
-35 -29 -35 -11 0 -21 34 -11 38 5 1 18 9 28 17 31 24 35 17 12 -20z m72 6 c0
-16 -62 -91 -71 -85 -15 9 -10 26 17 65 16 23 31 36 40 32 8 -3 14 -8 14 -12z
m251 -22 c31 -22 36 -46 17 -82 -7 -12 -14 -23 -15 -25 -3 -6 -73 43 -73 51 0
12 31 77 37 77 3 0 18 -9 34 -21z m-246 -49 c-36 -52 -44 -44 -10 10 15 23 29
39 32 36 3 -3 -7 -24 -22 -46z m83 17 c9 -10 3 -26 -24 -66 -35 -52 -49 -58
-67 -30 -7 11 0 28 24 62 34 49 49 56 67 34z m4 -93 c-20 -37 -38 -60 -40 -51
-3 13 63 117 73 117 2 0 -13 -30 -33 -66z m-182 34 c0 -15 -51 -81 -57 -74 -3
2 5 23 18 45 22 40 39 53 39 29z m291 -11 c15 -11 11 -19 -33 -67 -28 -30 -48
-48 -45 -40 24 75 43 120 52 120 5 0 17 -6 26 -13z m-87 -70 c-14 -42 -34 -63
-34 -37 0 15 41 93 46 88 2 -3 -3 -26 -12 -51z m111 -43 c-13 -42 -25 -78 -28
-80 -2 -3 -15 4 -28 15 -21 17 -22 21 -10 44 19 35 71 97 81 97 5 0 -2 -34
-15 -76z m-235 51 c15 -18 10 -25 -59 -97 -48 -51 -61 -58 -61 -32 0 24 84
144 100 144 4 0 13 -7 20 -15z m299 -112 c1 -46 -2 -83 -6 -83 -5 0 -20 10
-35 23 l-28 22 20 65 c31 98 31 98 40 75 5 -11 9 -57 9 -102z m-421 57 c-15
-26 -24 -34 -26 -24 -3 13 33 64 45 64 2 0 -7 -18 -19 -40z m172 9 c0 -7 -63
-108 -86 -137 -5 -7 -44 9 -44 18 0 12 110 130 121 130 5 0 9 -5 9 -11z m40
-45 c0 -26 -60 -134 -74 -134 -36 0 -33 26 11 93 41 62 63 77 63 41z m-301
-76 c-1 -68 -6 -61 -11 15 -2 26 0 47 4 47 5 0 7 -28 7 -62z m396 12 c4 -6 -2
-18 -13 -28 -11 -9 -33 -36 -49 -59 -21 -30 -33 -39 -44 -33 -11 7 -10 17 10
57 40 83 49 95 71 83 10 -6 22 -15 25 -20z m102 -72 c6 -7 13 -55 16 -106 5
-107 9 -106 -85 -40 -66 47 -66 45 -23 142 l25 57 29 -20 c15 -11 32 -26 38
-33z m-362 28 c18 -13 18 -15 -12 -62 -17 -27 -38 -62 -46 -79 -16 -30 -16
-29 -17 51 0 74 2 82 23 92 29 14 30 14 52 -2z m73 -54 c2 -7 -26 -43 -62 -80
-63 -64 -66 -65 -51 -30 30 73 69 129 89 126 11 -2 21 -9 24 -16z m-199 -139
c-1 -71 -4 -153 -9 -183 -5 -39 -8 -2 -9 128 0 115 3 182 9 182 6 0 10 -49 9
-127z m264 58 c-46 -70 -51 -75 -67 -62 -13 11 -10 19 21 62 28 40 38 47 49
38 12 -10 12 -16 -3 -38z m-141 -90 l-57 -89 -3 41 c-2 28 1 43 10 46 7 2 31
23 53 46 22 23 43 43 47 44 4 0 -19 -39 -50 -88z m-95 37 c-3 -7 -5 -2 -5 12
0 14 2 19 5 13 2 -7 2 -19 0 -25z m373 0 c27 -18 50 -37 50 -43 -1 -16 -79
-95 -95 -95 -26 0 -26 19 0 69 29 58 30 61 11 61 -8 0 -28 -17 -45 -37 l-31
-38 16 40 c20 50 33 75 39 75 3 0 28 -15 55 -32z m-142 -13 c-6 -14 -15 -25
-20 -25 -5 0 -1 11 8 25 9 14 18 25 20 25 2 0 -2 -11 -8 -25z m23 -32 c-12
-20 -14 -14 -5 12 4 9 9 14 11 11 3 -2 0 -13 -6 -23z m-96 7 c6 -9 -98 -150
-111 -150 -6 0 33 76 64 122 25 39 36 45 47 28z m10 -83 c-14 -23 -48 -73 -76
-111 -49 -70 -49 -70 -49 -35 1 27 15 51 73 121 74 88 100 101 52 25z m259 8
c-9 -14 -18 -25 -21 -25 -5 0 5 18 20 38 17 22 18 13 1 -13z m65 -30 c1 -14
-11 -25 -41 -37 -23 -10 -43 -16 -46 -13 -2 2 13 27 34 56 32 45 39 49 45 33
4 -10 8 -28 8 -39z m-309 -40 c-41 -70 -60 -91 -60 -63 0 16 91 151 97 144 3
-3 -14 -39 -37 -81z m126 22 c5 -14 -84 -157 -98 -157 -14 0 -7 17 37 97 40
73 51 84 61 60z m-87 -58 c-30 -56 -52 -79 -65 -67 -4 5 86 128 94 128 2 0
-11 -27 -29 -61z m81 -58 c-18 -39 -39 -71 -46 -71 -8 0 -14 5 -14 11 0 14 82
140 88 134 2 -2 -11 -36 -28 -74z m190 52 c0 -20 -3 -24 -11 -16 -7 7 -9 19
-6 27 10 24 17 19 17 -11z m-100 4 c0 -2 -12 -14 -27 -28 -24 -22 -24 -13 0
19 8 11 27 17 27 9z m23 -29 c-37 -61 -98 -139 -101 -130 -5 15 15 49 57 100
32 39 63 59 44 30z m58 -18 c17 -9 19 -22 19 -106 l0 -95 -106 -50 c-61 -28
-118 -63 -136 -82 -28 -30 -27 -27 16 58 64 127 54 119 120 90 66 -29 66 -29
66 -12 0 7 -17 19 -37 26 -72 26 -76 32 -46 77 39 59 73 104 79 104 3 0 14 -5
25 -10z m-361 -12 c-1 -7 -17 -31 -36 -53 l-35 -40 26 53 c24 49 45 68 45 40z
m-93 -70 c-3 -8 -6 -5 -6 6 -1 11 2 17 5 13 3 -3 4 -12 1 -19z m173 -1 c0 -7
-23 -38 -50 -68 l-51 -54 43 67 c42 66 58 81 58 55z m-159 -84 c-8 -15 -10
-15 -11 -2 0 17 10 32 18 25 2 -3 -1 -13 -7 -23z m-23 -268 c0 -57 -3 -71 -8
-50 -4 17 -8 77 -7 135 0 90 1 97 7 50 5 -30 8 -91 8 -135z"/>
<path d="M2020 7643 c-54 -10 -183 -42 -188 -48 -17 -17 19 -16 103 3 52 12
122 25 155 29 33 3 60 10 60 14 0 9 -84 10 -130 2z"/>
<path d="M1740 7515 c-28 -36 -58 -65 -66 -65 -8 0 -14 -4 -14 -10 0 -27 43
-5 82 43 67 79 70 85 59 91 -5 3 -33 -23 -61 -59z"/>
<path d="M4260 7540 c0 -36 206 -200 251 -200 30 0 17 13 -55 55 -63 36 -166
127 -166 146 0 5 -7 9 -15 9 -8 0 -15 -5 -15 -10z"/>
<path d="M1810 7369 c-120 -10 -298 -41 -415 -71 -44 -12 -119 -24 -168 -27
-50 -4 -86 -10 -85 -16 6 -20 143 -9 273 23 216 52 431 82 596 82 46 0 79 4
79 10 0 12 -127 11 -280 -1z"/>
<path d="M4806 7201 c-16 -24 305 -250 392 -276 47 -14 19 16 -45 49 -76 38
-265 169 -302 210 -26 28 -36 32 -45 17z"/>
<path d="M13244 7030 c-79 -20 -302 -109 -419 -166 -146 -71 -202 -147 -176
-235 8 -26 10 -61 5 -97 -6 -46 -9 -52 -15 -32 -4 14 -7 44 -8 68 -1 23 -5 42
-9 42 -5 0 -7 -117 -5 -260 3 -143 1 -260 -4 -260 -13 0 -8 -797 6 -847 13
-47 37 -61 27 -15 -14 59 -19 232 -7 232 6 0 11 -12 11 -27 0 -16 9 -77 19
-136 17 -101 21 -111 57 -148 21 -21 34 -39 28 -39 -5 0 -48 22 -94 49 -47 27
-89 46 -93 44 -18 -10 30 -44 139 -98 83 -42 118 -54 127 -47 9 8 34 4 87 -14
88 -29 286 -74 324 -74 43 0 21 17 -31 25 -83 12 -272 64 -346 95 -108 45
-165 103 -157 159 1 8 -3 17 -9 21 -12 7 -31 103 -31 153 0 25 2 27 20 17 15
-8 20 -21 20 -53 0 -53 26 -177 40 -191 7 -7 10 -4 10 7 0 9 7 17 15 17 22 0
35 41 35 107 0 48 2 55 18 49 9 -3 82 -28 161 -56 205 -71 303 -90 506 -97 99
-3 173 -10 177 -16 4 -7 18 -5 40 5 18 9 53 19 77 23 24 4 75 18 113 31 37 12
68 22 68 21 0 -1 -41 -44 -90 -94 -59 -61 -90 -101 -90 -115 0 -19 -23 -35
-126 -92 -122 -67 -129 -69 -221 -78 -100 -9 -128 -4 -240 41 -65 25 -82 9
-21 -20 l43 -20 -55 7 c-30 3 -86 6 -125 6 -134 -2 -310 52 -322 99 -6 23 -21
25 -30 4 -20 -53 140 -121 327 -140 36 -3 114 -13 174 -22 132 -19 439 -13
578 12 97 17 184 48 180 64 -1 6 7 11 17 11 24 0 38 19 21 30 -13 8 9 20 38
20 9 0 40 11 69 24 43 20 56 33 77 73 13 27 32 55 40 62 9 8 16 19 16 25 0 6
-5 4 -10 -4 -8 -13 -10 -13 -10 2 0 9 4 18 9 20 9 3 1 537 -15 990 -6 171 -4
201 9 222 14 21 14 25 2 30 -18 7 -22 162 -4 168 14 5 -27 133 -55 171 -47 63
-186 133 -352 177 -43 11 -87 25 -96 30 -31 17 -64 15 -573 -45 l-40 -4 40 14
c22 7 57 14 78 14 36 1 54 20 20 22 -32 1 39 27 95 34 28 4 52 11 52 16 0 14
-59 9 -136 -11z m448 -71 c120 -19 218 -48 306 -90 98 -47 167 -111 156 -143
-4 -12 -9 -51 -11 -89 l-5 -67 -46 -27 c-185 -109 -568 -203 -824 -203 -118 0
-163 12 -85 24 87 13 447 100 447 108 0 5 -10 6 -22 3 -154 -36 -406 -87 -456
-92 -56 -5 -65 -4 -83 16 -11 12 -25 44 -32 71 -15 65 -32 65 -24 0 3 -27 5
-50 3 -50 -8 0 -147 50 -167 60 -13 7 -45 26 -71 43 -43 29 -48 36 -48 70 0
26 -4 37 -15 37 -8 0 -15 -6 -16 -12 0 -8 -3 -7 -6 2 -4 8 -13 20 -21 26 -23
17 1 86 44 124 20 17 38 30 40 28 2 -2 -3 -22 -11 -43 -16 -46 -19 -95 -6 -95
12 0 21 26 21 61 0 46 65 109 157 151 79 37 143 46 593 91 73 8 112 7 182 -4z
m-862 -493 c25 -13 84 -36 133 -51 109 -33 115 -50 13 -41 -98 9 -163 29 -214
66 -34 24 -42 36 -42 61 l0 31 33 -21 c17 -12 52 -32 77 -45z m1290 32 c0 -30
-7 -37 -63 -70 -34 -20 -116 -80 -182 -133 -66 -53 -150 -115 -187 -138 -65
-40 -81 -57 -56 -57 14 0 95 50 168 105 81 60 88 63 58 23 -16 -20 -28 -41
-28 -47 0 -19 17 -12 33 12 42 65 222 237 248 237 5 0 9 -17 9 -38 0 -35 -6
-44 -52 -83 -29 -24 -83 -72 -120 -107 l-67 -64 -138 -29 c-81 -17 -170 -29
-215 -29 -80 0 -123 -19 -46 -21 33 0 38 -2 23 -9 -28 -12 -262 -12 -326 0
-30 6 -106 20 -169 31 -151 26 -199 42 -249 85 l-41 36 0 115 c0 63 3 113 8
111 121 -62 181 -78 289 -78 38 0 76 -6 93 -15 16 -8 55 -18 87 -21 128 -13
482 45 668 110 55 19 109 38 120 41 11 4 -10 -13 -47 -39 -37 -25 -72 -46 -78
-46 -15 0 -253 -119 -269 -135 -19 -19 -5 -33 17 -17 52 37 108 59 123 49 12
-8 35 3 103 49 49 32 127 84 175 115 47 30 87 63 89 72 6 30 22 18 22 -15z
m-1433 -230 c-2 -13 -4 -3 -4 22 0 25 2 35 4 23 2 -13 2 -33 0 -45z m1444 -26
c-3 -10 -6 -11 -11 -2 -9 15 -80 -8 -80 -25 0 -13 -70 -49 -78 -40 -7 7 4 18
93 94 l70 59 5 -36 c3 -20 4 -43 1 -50z m1 -54 c-6 -6 -15 -8 -19 -4 -4 4 -1
11 7 16 19 12 27 3 12 -12z m-1453 -90 c22 -169 24 -227 12 -242 -8 -10 -9
-16 -1 -21 10 -6 15 -65 4 -65 -3 0 -14 5 -25 10 -18 10 -19 23 -19 215 0 113
4 205 8 205 5 0 14 -46 21 -102z m1351 59 c0 -3 -146 -132 -277 -246 -78 -66
-101 -105 -31 -49 24 18 106 88 183 156 116 102 145 122 172 122 17 0 35 5 38
10 16 25 25 5 25 -54 0 -56 -3 -66 -20 -71 -11 -3 -24 -3 -30 0 -13 8 -115
-71 -225 -176 l-91 -86 -109 -11 c-61 -7 -168 -17 -239 -22 -70 -6 -131 -12
-135 -14 -8 -5 -312 55 -420 83 -137 36 -127 26 -134 132 -8 110 -9 219 -2
219 3 0 23 -13 46 -29 26 -19 67 -36 112 -45 221 -47 303 -59 433 -63 135 -5
147 -4 250 25 120 33 233 56 241 49 3 -4 -104 -95 -146 -124 -2 -2 -1 -6 2
-10 8 -7 78 40 156 106 57 50 201 119 201 98z m147 -44 c-3 -10 -5 -4 -5 12 0
17 2 24 5 18 2 -7 2 -21 0 -30z m-99 -135 c9 -9 15 -9 24 0 7 7 18 12 25 12
32 0 6 -35 -87 -113 -80 -69 -108 -86 -142 -92 -24 -3 -52 -9 -63 -12 -15 -4
-12 3 15 32 38 41 202 184 211 185 3 0 10 -5 17 -12z m62 -117 l0 -59 -67 -53
c-38 -29 -126 -109 -198 -179 -218 -211 -216 -210 -280 -210 -30 0 -141 9
-247 19 -106 11 -263 25 -348 32 -190 14 -200 17 -200 63 0 20 -9 81 -20 137
-11 57 -18 104 -17 105 2 2 43 -3 91 -11 118 -19 368 -34 601 -36 126 -1 180
-5 160 -11 -69 -19 -253 -48 -312 -48 -35 0 -63 -4 -63 -10 0 -17 130 -11 255
10 80 14 122 17 130 10 8 -7 17 -4 29 9 19 21 86 41 136 41 l32 0 -46 -54
c-43 -49 -57 -77 -38 -75 4 0 33 31 65 69 53 63 61 69 107 75 28 4 50 11 50
17 0 6 -15 8 -37 4 -27 -4 -5 10 78 50 l116 56 1 39 c2 42 -11 51 -28 19 -6
-11 -25 -27 -43 -35 -27 -13 -23 -7 23 34 30 28 58 51 63 51 4 0 7 -27 7 -59z
m-1263 -92 c45 -11 130 -28 189 -39 59 -11 110 -23 113 -26 16 -17 -375 28
-411 47 -10 5 -18 19 -18 31 0 16 4 19 23 14 12 -4 59 -16 104 -27z m1206
-159 c-145 -137 -212 -188 -265 -204 -119 -34 -120 -38 39 117 82 80 178 169
214 198 l64 51 3 -53 3 -54 -58 -55z m-192 136 c-12 -14 -136 -56 -163 -56
-31 1 50 46 101 56 76 16 75 16 62 0z m-1197 -4 c2 -4 8 -67 12 -140 6 -110 4
-132 -7 -132 -35 1 -39 17 -46 148 -6 129 -6 132 15 132 11 0 23 -4 26 -8z
m1005 -38 c-33 -25 -36 -25 -154 -18 -127 7 -161 13 -79 15 27 0 90 7 139 14
134 19 134 19 94 -11z m-934 -120 c20 -112 19 -134 -5 -134 -19 0 -20 7 -20
112 0 61 3 109 6 106 3 -3 12 -41 19 -84z m1370 -92 c-3 -4 -9 -1 -14 6 -5 9
-27 4 -85 -18 -43 -17 -80 -29 -83 -27 -2 2 38 42 89 88 l93 83 3 -63 c2 -35
0 -66 -3 -69z m45 -226 c-12 -12 -13 73 -2 230 l7 109 3 -164 c1 -103 -1 -168
-8 -175z m-40 175 c0 -22 -107 -121 -131 -121 -9 0 -36 -7 -60 -16 -50 -18
-192 -54 -196 -51 -1 2 26 31 60 65 58 58 70 65 177 101 134 46 150 48 150 22z
m-1352 -45 c6 -29 -9 -146 -18 -146 -13 0 -20 26 -27 102 -6 69 -6 70 18 66
14 -2 25 -11 27 -22z m510 -34 c96 -10 161 -21 160 -27 -2 -6 -68 -11 -170
-11 -91 -1 -171 -4 -176 -8 -5 -3 -45 8 -88 24 -87 32 -88 38 -4 15 65 -17 80
-18 80 -5 0 5 -15 14 -32 19 -31 9 -31 9 17 9 28 0 123 -7 213 -16z m842 -46
l0 -65 -56 -20 c-31 -12 -99 -48 -151 -81 -53 -33 -98 -58 -101 -56 -9 9 68
93 144 157 43 35 93 79 113 96 20 18 39 33 44 33 4 0 7 -29 7 -64z m-376 -16
c-28 -27 -64 -52 -80 -56 -59 -15 -490 29 -513 52 -3 3 32 2 79 -1 111 -9 329
9 455 38 55 13 102 21 105 19 3 -2 -18 -25 -46 -52z m260 -190 c-91 -90 -91
-90 -143 -90 -28 0 -51 -4 -51 -10 0 -5 12 -10 27 -10 45 0 13 -18 -67 -38
-159 -40 -176 -37 -81 16 62 33 76 38 66 23 -3 -5 -1 -12 4 -15 5 -4 18 9 30
27 13 21 60 58 133 104 62 39 120 73 128 76 46 17 36 -2 -46 -83z m-94 -165
c0 -7 -41 -23 -78 -31 l-27 -6 30 20 c28 19 75 29 75 17z m-209 -36 c-14 -5
-52 -12 -85 -14 l-61 -4 60 13 c33 8 71 14 85 14 l25 1 -24 -10z"/>
<path d="M5750 6663 c0 -31 124 -135 218 -182 43 -22 75 -19 38 3 -95 57 -167
109 -198 144 -35 38 -58 53 -58 35z"/>
<path d="M3087 6513 c-42 -197 -60 -376 -61 -600 l-1 -203 -412 0 c-301 0
-447 -4 -545 -15 -189 -22 -278 -36 -278 -46 0 -14 42 -11 254 16 181 23 229
25 595 25 384 0 581 6 581 19 0 3 -41 5 -91 3 l-92 -3 6 213 c6 221 31 448 67
609 12 53 17 96 12 101 -5 5 -20 -46 -35 -119z"/>
<path d="M2465 6609 c-60 -4 -148 -15 -195 -24 -87 -16 -509 -54 -612 -55 -49
0 -79 -12 -66 -25 5 -5 274 12 333 21 26 4 37 3 30 -4 -15 -14 -153 -45 -202
-45 -29 0 -43 -5 -43 -14 0 -24 86 -14 267 33 172 44 185 46 383 54 396 17
685 31 695 36 10 4 -357 -2 -575 -11 -136 -5 -120 9 23 20 42 4 77 11 77 16 0
5 -1 8 -2 8 -2 -1 -52 -6 -113 -10z"/>
<path d="M2300 6471 c-51 -16 -114 -54 -161 -98 -27 -25 -49 -40 -49 -34 0 7
-6 11 -12 8 -7 -2 -12 -15 -10 -28 2 -17 -4 -27 -20 -34 -36 -16 -65 -89 -78
-194 -6 -52 -8 -107 -5 -122 8 -36 61 -81 190 -162 74 -46 123 -60 181 -51 64
9 54 24 -16 24 -63 0 -68 4 -46 32 11 15 18 16 52 6 88 -24 194 6 275 79 106
96 131 274 62 445 -15 38 -33 51 -33 23 0 -9 -15 1 -36 24 -54 60 -124 91
-203 90 -37 0 -77 -4 -91 -8z m204 -46 c48 -23 94 -75 116 -131 l18 -50 -91 3
c-50 1 -104 8 -120 14 -65 27 -213 -30 -233 -90 -12 -37 -16 -34 -59 46 l-28
52 28 33 c58 70 124 110 220 131 45 10 119 6 149 -8z m-99 -195 c-3 -5 -15
-10 -25 -10 -10 0 -22 5 -25 10 -4 6 7 10 25 10 18 0 29 -4 25 -10z m-259 -92
c53 -107 61 -118 82 -118 9 0 26 -10 38 -21 13 -12 36 -24 53 -28 l30 -6 -35
-48 c-19 -26 -42 -51 -50 -54 -27 -10 -124 18 -124 36 0 9 -5 23 -10 31 -9 13
-11 13 -19 1 -7 -11 -14 -7 -30 20 -37 60 -45 106 -32 189 10 66 21 89 43 90
4 0 28 -42 54 -92z m-117 50 c-5 -18 -9 -55 -9 -83 -1 -41 -3 -47 -11 -31 -12
20 -6 95 11 126 16 30 20 24 9 -12z m588 21 c24 -8 33 -19 43 -54 21 -73 -1
-118 -82 -168 -39 -24 -35 -40 7 -35 41 5 43 -1 13 -29 -71 -64 -159 -96 -223
-82 -23 5 -25 7 -8 8 33 2 129 40 143 56 17 20 8 19 -78 -11 -40 -14 -80 -24
-88 -22 -18 4 51 92 93 118 39 24 57 74 51 151 -4 56 -3 59 16 53 35 -12 90
-24 109 -24 35 0 16 18 -35 32 -46 14 -49 16 -22 17 17 0 45 -4 61 -10z m-156
-61 c9 -49 2 -91 -15 -85 -6 2 -12 22 -12 45 -1 23 -5 53 -8 66 -3 13 -3 26 1
30 12 11 25 -11 34 -56z m-227 10 c-10 -18 -19 -28 -21 -21 -5 15 15 53 28 53
5 0 2 -15 -7 -32z m166 13 c5 -11 10 -28 10 -38 0 -14 -5 -12 -25 12 -13 17
-24 33 -25 38 0 15 30 6 40 -12z m-54 -19 c18 -11 34 -49 34 -77 0 -22 -4 -26
-22 -23 -13 2 -22 9 -20 16 1 7 -14 20 -33 29 -32 15 -45 40 -28 56 9 9 55 9
69 -1z m-349 -164 c-2 -13 -4 -5 -4 17 -1 22 1 32 4 23 2 -10 2 -28 0 -40z
m383 22 c0 -5 -17 -9 -37 -9 l-38 2 35 7 c19 4 36 8 38 9 1 0 2 -3 2 -9z
m-306 -110 c-9 -8 -44 44 -44 65 0 14 7 9 24 -20 14 -22 22 -42 20 -45z m176
-69 c0 -5 -3 -16 -6 -25 -5 -14 -9 -14 -35 0 -16 8 -27 19 -24 24 8 13 65 13
65 1z"/>
<path d="M2992 6308 c-15 -214 -16 -528 -2 -528 6 0 10 54 10 143 0 78 4 201
9 272 16 213 17 278 5 282 -7 2 -14 -55 -22 -169z"/>
<path d="M1659 6423 c-7 -17 -13 -169 -16 -385 -6 -328 -5 -358 11 -358 9 0
16 -7 16 -15 0 -8 5 -15 10 -15 6 0 10 64 10 173 0 94 5 246 11 335 10 151 8
185 -7 170 -3 -3 -9 -53 -14 -109 -8 -103 -8 -102 -6 46 2 83 6 158 10 168 5
10 4 17 -3 17 -6 0 -16 -12 -22 -27z m8 -445 c-2 -13 -4 -3 -4 22 0 25 2 35 4
23 2 -13 2 -33 0 -45z"/>
<path d="M10839 5856 c-2 -2 -320 -10 -706 -17 -438 -8 -703 -17 -703 -23 0
-11 748 -2 1275 15 187 6 473 9 635 6 282 -5 392 -14 740 -57 223 -27 320 -34
320 -22 0 5 -39 13 -87 16 -49 4 -181 18 -295 32 -374 44 -529 54 -859 54
-174 0 -318 -2 -320 -4z"/>
<path d="M9706 5710 c-264 -8 -324 -15 -304 -35 8 -8 14 -8 233 6 108 6 493
12 895 13 639 1 735 -1 1023 -21 175 -13 364 -22 420 -22 l102 2 -130 9 c-71
4 -258 18 -415 30 -242 18 -380 22 -910 24 -344 1 -755 -2 -914 -6z"/>
<path d="M2130 5644 c-63 -8 -205 -27 -315 -44 -110 -16 -249 -34 -309 -40
-61 -5 -114 -14 -120 -20 -14 -14 30 -13 173 6 67 8 126 14 132 12 15 -5 -134
-155 -261 -261 -293 -246 -443 -386 -371 -347 21 11 22 10 15 -27 -12 -57 -10
-86 4 -90 8 -3 12 6 12 29 0 31 15 106 22 113 1 2 89 15 193 29 217 29 355 35
753 36 186 0 281 3 277 10 -4 6 -75 10 -181 10 -96 0 -174 3 -174 6 0 10 108
160 125 174 8 7 15 24 15 37 0 25 -1 25 -57 19 -78 -9 -246 -46 -257 -57 -21
-19 6 -19 90 1 49 11 116 24 148 27 59 6 59 6 39 -14 -14 -14 -105 -138 -118
-160 -3 -5 -194 -24 -340 -33 -82 -5 -226 -19 -318 -31 -93 -11 -170 -19 -172
-17 -2 2 63 61 145 131 82 69 152 122 155 117 4 -6 17 -4 35 5 33 17 41 18 39
8 -4 -23 4 -22 32 1 31 27 89 36 89 14 0 -6 8 -4 19 6 17 15 54 19 268 26 136
5 257 9 267 10 18 0 18 -1 3 -18 -35 -39 -7 -45 33 -7 25 24 29 25 240 31
l215 6 -112 -109 c-98 -94 -129 -133 -107 -133 3 0 64 54 134 121 l128 120 61
-3 62 -3 -63 -47 c-238 -177 -348 -271 -348 -295 0 -21 16 -15 34 12 9 14 51
51 94 82 42 31 115 88 162 127 47 39 122 98 168 130 72 52 96 76 76 76 -3 0
-25 -14 -50 -32 -38 -27 -52 -31 -109 -32 -36 -1 -65 3 -65 7 0 5 51 58 113
117 l112 109 3 -50 c3 -55 22 -68 22 -15 0 19 4 46 10 60 6 18 6 27 -2 32 -7
4 -14 2 -16 -4 -2 -7 -11 -12 -20 -12 -9 0 -34 -18 -57 -39 l-40 -39 -200 6
c-110 2 -191 8 -180 12 11 4 71 13 133 20 61 7 112 17 112 21 0 11 -2 11 -127
-4 -57 -7 -103 -10 -103 -5 0 4 18 22 40 39 22 18 40 36 40 41 0 20 -28 4 -77
-44 l-53 -52 -97 -3 -98 -4 55 50 c50 46 60 50 110 54 30 2 3 4 -60 4 -63 0
-167 -5 -230 -13z m135 -49 c-48 -43 -52 -45 -115 -44 -56 0 -63 1 -47 13 37
28 16 38 -27 12 -32 -19 -59 -26 -96 -26 -32 0 -49 4 -45 10 3 6 -3 10 -14 10
-11 0 -23 -4 -26 -10 -3 -5 -42 -10 -85 -10 -43 0 -82 5 -85 10 -3 6 2 10 12
10 10 1 119 16 243 35 124 18 250 34 280 34 l55 0 -50 -44z m-433 -88 c-13
-13 -44 -28 -70 -34 -36 -8 -43 -8 -29 1 42 25 52 35 45 42 -14 13 -79 -30
-169 -111 -48 -44 -103 -89 -121 -99 -30 -17 -30 -16 7 15 22 18 81 73 130
121 l90 88 69 0 69 0 -21 -23z m148 14 c-14 -4 -45 -11 -69 -15 -39 -6 -43 -5
-31 9 9 10 29 15 69 14 41 0 49 -3 31 -8z m860 -15 c0 -2 -32 -35 -71 -73
l-72 -70 -205 -7 c-112 -4 -206 -5 -208 -3 -2 2 25 29 59 59 l63 56 130 -14
c156 -16 184 -17 165 -5 -8 5 -75 15 -149 22 -106 10 -129 15 -104 21 17 5 33
12 36 16 4 7 356 5 356 -2z m-675 -5 c-12 -11 -193 -26 -182 -15 10 10 79 21
142 23 28 0 45 -3 40 -8z m145 -2 c-65 -11 -112 -11 -105 1 3 6 39 9 78 9 69
-1 70 -2 27 -10z m-374 -18 c-3 -4 -32 -14 -65 -20 -32 -6 -64 -18 -71 -25
-19 -24 7 -30 46 -11 20 9 38 15 40 12 2 -2 -20 -25 -50 -51 -46 -39 -61 -46
-96 -46 -23 0 -40 4 -38 9 2 4 29 32 61 61 44 40 71 56 110 66 65 16 69 16 63
5z m364 -71 l-65 -60 -99 0 c-57 0 -96 4 -90 9 102 93 141 109 264 110 l55 0
-65 -59z m-605 23 c-9 -17 -11 -31 -5 -38 16 -20 -39 -62 -90 -69 l-45 -6 75
70 c41 39 76 70 77 70 1 0 -4 -12 -12 -27z m50 -7 c-16 -13 -32 -22 -35 -19
-7 6 39 43 54 43 6 0 -2 -11 -19 -24z m315 -23 c-68 -58 -81 -63 -160 -63
l-75 0 40 40 c39 38 43 39 130 48 50 4 92 7 94 5 2 -1 -11 -15 -29 -30z"/>
<path d="M4508 5554 c-58 -18 -65 -39 -10 -30 96 18 227 18 305 1 70 -15 100
-15 85 0 -3 3 -42 15 -87 25 -97 24 -225 25 -293 4z"/>
<path d="M5288 5563 c-78 -4 -101 -17 -52 -29 14 -4 95 -1 179 6 147 12 206 8
269 -16 13 -5 17 -3 14 6 -11 35 -131 45 -410 33z"/>
<path d="M3675 5530 c-4 -6 -5 -14 -2 -17 19 -18 397 -33 397 -15 0 4 -81 13
-180 20 -98 7 -186 15 -194 18 -8 3 -17 0 -21 -6z"/>
<path d="M5973 5517 c-11 -17 11 -21 103 -20 87 1 115 6 103 17 -8 8 -201 11
-206 3z"/>
<path d="M1733 5186 c-17 -18 -36 -42 -44 -53 -8 -11 -24 -25 -36 -32 -28 -14
-30 -31 -4 -31 11 0 37 22 62 53 24 28 49 59 57 69 27 32 -6 28 -35 -6z"/>
<path d="M1770 5013 c-80 -6 -293 -44 -395 -70 -55 -14 -137 -27 -182 -30 -46
-3 -83 -10 -83 -14 0 -19 137 -8 259 21 195 46 347 69 524 80 88 6 163 13 166
15 5 5 -216 4 -289 -2z"/>
<path d="M6261 4522 c-59 -34 -87 -62 -63 -62 11 0 140 74 156 90 24 24 -33 7
-93 -28z"/>
<path d="M6530 4435 c0 -3 10 -19 21 -35 19 -25 21 -37 16 -107 -17 -202 -20
-313 -9 -313 16 0 20 38 28 232 6 156 4 181 -10 203 -14 22 -46 35 -46 20z"/>
<path d="M5730 4209 c-41 -27 -94 -57 -117 -66 -43 -18 -51 -27 -34 -37 19
-12 230 113 239 142 6 20 -9 13 -88 -39z"/>
<path d="M2335 4125 c-49 -7 -137 -19 -195 -28 -58 -8 -195 -20 -305 -27 -110
-6 -217 -14 -238 -18 -44 -8 -53 -28 -11 -25 224 18 336 24 340 20 8 -7 -123
-37 -193 -44 -65 -6 -80 -16 -39 -27 30 -7 100 6 290 54 145 37 162 39 411 50
143 6 341 14 440 17 101 3 184 10 190 15 7 7 -42 9 -150 4 -317 -12 -551 -15
-500 -6 28 4 78 9 113 9 34 1 62 5 62 11 0 13 -103 11 -215 -5z"/>
<path d="M2966 3923 c-4 -49 -9 -113 -12 -143 -4 -41 -3 -52 6 -44 23 23 42
274 21 274 -5 0 -12 -39 -15 -87z"/>
<path d="M1628 3958 c-16 -29 -26 -764 -10 -754 5 3 12 -4 15 -16 14 -51 20 3
22 194 1 112 6 265 10 341 6 101 5 137 -3 137 -8 0 -12 -25 -13 -72 -1 -40 -5
-104 -9 -143 -4 -40 -5 5 -2 105 3 96 9 185 13 198 11 29 11 32 -1 32 -5 0
-15 -10 -22 -22z"/>
<path d="M4775 3849 c-135 -62 -177 -89 -139 -89 11 0 24 4 30 8 5 5 64 33
132 62 67 30 122 60 122 67 0 18 1 18 -145 -48z"/>
<path d="M1890 3867 c0 -2 14 -32 31 -65 26 -53 34 -62 58 -62 28 0 68 -34 90
-77 18 -36 14 -53 -14 -53 -44 0 -156 -52 -197 -91 -31 -29 -39 -43 -36 -66 2
-17 10 -29 20 -31 42 -8 347 159 348 190 0 16 -133 158 -191 203 -45 35 -109
65 -109 52z m260 -247 c0 -6 -9 -10 -20 -10 -13 0 -20 7 -20 20 0 18 3 19 20
10 11 -6 20 -15 20 -20z m-90 -44 c0 -9 -74 -46 -120 -60 -67 -20 -54 -1 24
35 55 25 96 36 96 25z"/>
<path d="M6610 3842 c0 -14 -3 -14 185 -12 83 0 251 -4 375 -10 228 -12 1228
-4 1215 9 -4 3 -268 6 -588 6 -320 0 -718 4 -884 9 -228 7 -303 6 -303 -2z"/>
<path d="M4185 3601 c-91 -41 -312 -166 -427 -242 -68 -45 -143 -90 -167 -101
-31 -13 -41 -22 -34 -29 16 -16 88 19 198 95 106 74 232 148 383 226 56 29
102 57 102 61 0 12 -8 11 -55 -10z"/>
<path d="M2941 3368 c-1 -31 4 -60 9 -63 12 -7 12 58 0 95 -6 19 -8 12 -9 -32z"/>
<path d="M2990 3241 c0 -6 -163 -9 -417 -8 -389 2 -432 0 -615 -22 -155 -19
-198 -28 -198 -39 0 -16 -8 -17 250 19 132 18 218 22 573 26 346 4 417 8 417
19 0 8 -2 14 -5 14 -3 0 -5 -4 -5 -9z"/>
<path d="M2195 3178 c-54 -4 -225 -26 -380 -48 -154 -22 -317 -43 -362 -46
-79 -7 -114 -16 -101 -29 5 -5 197 15 281 30 15 2 27 0 27 -5 0 -16 -110 -129
-194 -197 -44 -37 -120 -101 -167 -143 -47 -41 -131 -115 -187 -163 -95 -82
-125 -118 -86 -103 14 5 15 -1 9 -54 -4 -38 -3 -60 3 -60 11 0 17 21 27 93 8
55 -9 48 205 78 154 21 251 25 755 33 143 3 267 6 275 7 8 2 -70 6 -173 9
l-188 5 61 87 c33 48 67 91 75 95 9 6 12 17 8 32 -6 23 -9 23 -72 18 -65 -6
-228 -41 -239 -52 -17 -17 19 -16 105 3 54 12 121 24 148 28 l50 6 -31 -33
c-18 -19 -51 -61 -74 -94 l-41 -60 -112 -12 c-62 -7 -184 -17 -272 -22 -146
-9 -365 -33 -423 -47 -13 -2 -22 -1 -20 5 8 22 289 250 302 245 8 -3 28 2 45
10 27 14 30 14 25 1 -8 -21 6 -19 31 5 25 23 85 38 85 21 0 -15 27 -14 32 2 5
14 169 25 403 26 106 0 145 -3 133 -10 -18 -10 -25 -39 -10 -39 5 0 21 14 37
30 l29 30 210 0 211 -1 -107 -103 c-60 -56 -108 -110 -108 -119 0 -9 1 -17 3
-17 1 0 58 54 127 120 l125 120 65 -1 c64 0 65 0 40 -17 -14 -9 -59 -44 -100
-78 -41 -33 -109 -85 -151 -116 -87 -65 -149 -130 -129 -136 7 -3 22 7 32 21
11 14 51 50 91 78 40 29 108 82 152 119 44 37 122 98 174 135 52 38 89 71 83
73 -7 2 -31 -10 -54 -27 -37 -28 -49 -31 -112 -31 l-71 0 115 115 c63 63 117
115 121 115 3 0 5 -19 5 -41 -2 -69 21 -58 26 13 6 68 2 83 -13 55 -6 -9 -14
-15 -18 -12 -5 2 -30 -14 -55 -36 l-47 -41 -185 7 c-102 4 -184 9 -182 10 2 2
54 10 116 18 63 9 116 18 119 21 10 9 -58 7 -142 -5 -42 -6 -80 -7 -83 -4 -4
4 10 20 31 37 20 16 37 34 37 39 0 21 -27 6 -75 -40 l-50 -49 -92 -7 c-51 -4
-93 -3 -93 1 0 5 22 28 49 52 44 37 55 42 100 42 28 0 51 5 51 10 0 12 -91 11
-235 -2z m36 -58 c-52 -48 -57 -50 -113 -50 -61 0 -69 5 -41 26 32 23 4 28
-35 6 -44 -24 -129 -32 -141 -13 -6 10 -14 10 -28 3 -10 -6 -43 -11 -73 -12
-181 -6 -131 12 145 49 372 52 353 52 286 -9z m-554 -107 c-31 -21 -80 -61
-109 -88 -57 -55 -121 -105 -132 -105 -4 0 19 22 51 49 32 27 87 79 123 115
50 51 71 66 93 66 27 0 26 -2 -26 -37z m119 19 c-16 -18 -94 -48 -102 -39 -2
2 7 10 21 17 14 7 25 19 25 27 0 8 13 13 37 13 34 0 35 -1 19 -18z m129 8
c-45 -11 -87 -11 -80 0 3 6 30 9 58 9 45 -1 48 -2 22 -9z m370 -10 c-29 -12
-128 -12 -120 0 3 6 36 10 73 9 47 0 61 -3 47 -9z m456 1 l56 -6 -78 -73 -77
-72 -201 2 -202 3 61 54 61 53 127 -11 c70 -7 137 -15 150 -18 12 -3 22 -1 22
5 0 5 -46 15 -102 21 -111 13 -188 28 -151 30 12 1 25 6 28 11 7 11 214 12
306 1z m-646 -11 c-16 -5 -59 -10 -94 -12 -54 -4 -61 -3 -45 9 11 8 45 13 93
12 59 -1 69 -3 46 -9z m-209 -17 c-11 -11 -116 -31 -116 -22 0 4 19 12 43 17
53 12 82 14 73 5z m424 -18 c0 -7 -61 -61 -102 -91 -24 -18 -44 -22 -119 -23
-51 -1 -89 2 -87 7 6 18 100 92 121 97 12 2 31 6 42 8 30 7 145 8 145 2z
m-664 -50 c-2 -46 -30 -73 -86 -80 l-45 -6 65 60 c36 33 65 60 66 61 0 0 0
-16 0 -35z m54 15 c-13 -11 -25 -18 -28 -15 -8 8 19 35 36 35 11 0 9 -5 -8
-20z m76 -20 c3 0 12 7 20 15 9 8 22 15 31 15 13 0 13 -3 3 -15 -35 -43 -91
-75 -137 -81 l-48 -7 49 51 c42 44 51 49 63 36 8 -8 17 -14 19 -14z m264 23
c-1 -5 -23 -25 -49 -45 -47 -36 -52 -38 -127 -38 l-78 0 39 40 c36 37 42 39
104 43 36 2 76 4 89 5 12 1 22 -1 22 -5z"/>
<path d="M8141 2934 c-43 -49 -47 -59 -32 -69 5 -3 18 8 27 25 10 16 22 30 26
30 9 0 5 -11 -67 -175 -71 -163 -145 -377 -145 -421 0 -38 29 -64 70 -64 51 0
148 66 207 141 l33 42 0 -36 c0 -66 55 -88 107 -43 15 13 25 28 21 32 -5 4
-16 0 -26 -9 -10 -10 -31 -17 -47 -17 l-28 0 6 80 c3 44 2 80 -2 80 -4 0 -26
-29 -49 -64 -91 -139 -251 -227 -260 -144 -4 36 52 201 145 421 74 178 88 226
67 234 -6 2 -30 -17 -53 -43z"/>
<path d="M12620 2959 c-30 -12 -77 -27 -105 -35 -58 -16 -80 -35 -71 -60 6
-15 8 -15 24 -1 30 27 174 79 250 90 121 18 212 -18 232 -93 19 -71 -10 -137
-97 -222 -62 -61 -193 -168 -205 -168 -20 0 10 306 38 385 17 48 17 55 3 55
-29 0 -71 -211 -73 -371 l-1 -98 -54 -30 c-60 -35 -184 -91 -200 -91 -17 0
-13 15 9 35 11 10 17 22 14 27 -10 15 -54 -33 -54 -59 0 -39 52 -30 180 33
101 50 115 54 125 40 18 -24 27 -19 21 12 -6 24 1 32 61 80 63 49 68 51 75 32
5 -14 16 -20 39 -20 21 0 40 -9 56 -26 22 -24 30 -26 74 -21 60 7 105 28 157
73 36 30 43 33 65 23 18 -8 28 -24 36 -55 14 -56 35 -59 26 -4 l-7 40 36 0
c32 0 36 -3 36 -25 0 -33 34 -46 114 -45 34 1 82 -2 109 -5 56 -8 65 9 10 20
-52 10 -55 12 -39 43 19 38 30 97 22 127 -9 35 -43 33 -64 -5 -9 -16 -22 -30
-28 -30 -6 0 -33 -11 -60 -25 -29 -15 -66 -25 -91 -25 -43 0 -43 0 -43 35 0
52 29 183 52 237 20 48 48 82 48 59 0 -6 5 -11 10 -11 6 0 10 11 10 25 0 18
-5 25 -18 25 -36 0 -79 -73 -105 -179 -20 -77 -39 -108 -69 -113 -16 -2 -24
-11 -26 -30 -3 -26 -71 -98 -92 -98 -13 0 -1 29 28 67 30 40 24 67 -11 54 -15
-6 -39 -5 -66 2 -34 9 -50 8 -85 -4 l-43 -16 43 56 c92 120 82 236 -27 291
-53 28 -192 27 -269 -1z m871 -412 c-13 -33 -36 -37 -26 -4 3 12 9 33 12 47 9
48 17 56 21 19 1 -19 -2 -47 -7 -62z m-285 25 c-4 -3 -11 -1 -18 6 -8 8 -8 15
3 28 13 16 14 16 17 -5 2 -13 1 -25 -2 -29z m-206 33 c0 -5 -84 -55 -93 -55
-4 0 -7 5 -7 10 0 6 9 10 21 10 16 0 19 4 14 20 -6 17 -2 20 29 20 20 0 36 -2
36 -5z m30 -31 c0 -4 -12 -26 -27 -50 -25 -40 -31 -44 -63 -41 -55 3 -48 27
17 64 59 33 73 38 73 27z m-157 -23 c-5 -19 -37 -34 -48 -23 -6 6 34 41 47 42
3 0 4 -9 1 -19z m561 -27 c12 -30 6 -35 -41 -32 -35 2 -49 7 -51 20 -2 12 5
18 30 21 18 2 38 5 44 5 7 1 15 -5 18 -14z"/>
<path d="M13765 2913 c-19 -156 -39 -278 -61 -361 -35 -141 -22 -147 50 -22
46 79 85 118 106 105 17 -11 11 -39 -18 -86 -32 -48 -72 -89 -72 -71 0 6 5 14
10 17 15 9 12 35 -2 29 -17 -6 -58 -70 -58 -89 0 -33 44 -14 100 44 65 66 86
113 71 155 -20 50 -81 30 -134 -44 -14 -21 -17 -21 -12 -5 7 30 55 337 55 358
0 9 -6 17 -14 17 -10 0 -17 -16 -21 -47z"/>
<path d="M8622 2883 c-9 -17 -34 -160 -48 -270 -3 -29 -9 -53 -13 -53 -4 0
-18 11 -31 25 -24 25 -50 33 -50 15 0 -12 30 -43 65 -66 24 -16 26 -21 20 -65
-8 -57 2 -132 17 -127 6 2 11 39 12 83 l1 80 35 -2 c19 -2 50 -5 68 -8 32 -6
32 -7 32 -60 0 -106 70 -128 161 -50 29 25 56 45 59 45 4 0 12 -30 18 -66 12
-75 21 -88 73 -115 57 -29 192 -26 288 7 9 3 11 8 5 13 -5 5 -37 3 -74 -5
-100 -22 -221 -4 -246 38 -5 7 -13 44 -18 83 -10 64 -13 70 -36 73 -18 2 -40
-10 -75 -41 -27 -24 -60 -47 -71 -51 -34 -11 -54 17 -54 75 0 48 1 49 31 49
35 0 36 23 1 28 -27 4 -27 14 -3 85 29 84 87 166 143 200 47 29 60 47 36 47
-21 0 -72 -35 -112 -76 -43 -45 -101 -156 -111 -215 l-7 -41 -53 6 c-89 10
-88 9 -80 90 6 68 30 217 42 264 6 26 -12 30 -25 5z"/>
<path d="M6693 2663 c-86 -180 -133 -313 -133 -373 0 -37 4 -50 15 -50 11 0
13 7 9 28 -6 28 34 159 80 266 l22 50 -4 -72 c-5 -79 9 -126 40 -143 44 -23
80 17 123 138 l25 68 -6 -55 c-7 -66 7 -106 41 -122 37 -17 44 -1 10 26 l-28
23 12 121 c14 133 16 190 7 199 -10 11 -14 0 -55 -140 -56 -196 -85 -249 -122
-226 -11 6 -14 32 -13 106 1 93 13 147 59 266 5 11 2 17 -7 17 -9 0 -39 -51
-75 -127z"/>
<path d="M1673 2680 c-25 -33 -52 -60 -60 -60 -7 0 -13 -4 -13 -10 0 -5 9 -10
20 -10 17 0 120 113 120 132 0 21 -25 2 -67 -52z"/>
<path d="M14029 2652 c-38 -47 -79 -132 -79 -163 0 -60 61 -65 99 -7 21 32 25
35 38 22 17 -16 69 -19 78 -4 4 6 -7 13 -24 16 -17 4 -33 14 -36 25 -4 11 -11
19 -16 19 -5 0 -9 20 -9 45 0 33 -5 47 -19 54 -14 8 -22 6 -32 -7z m31 -56 c0
-22 -11 -46 -21 -46 -10 0 -12 43 -2 53 11 12 23 8 23 -7z m-32 -102 c-14 -29
-48 -32 -48 -5 0 40 10 51 35 39 20 -9 22 -14 13 -34z"/>
<path d="M14260 2637 c0 -14 16 -39 41 -62 46 -45 65 -83 49 -99 -7 -7 -10 -3
-10 13 0 14 -5 21 -12 19 -19 -7 -16 -49 4 -61 22 -14 48 7 48 39 0 28 7 29
34 9 11 -8 30 -15 43 -15 13 0 23 -4 23 -10 0 -18 59 -40 109 -40 71 0 72 17
1 22 -89 6 -95 19 -32 74 43 38 52 51 52 79 0 36 -22 57 -50 47 -32 -10 -71
-58 -82 -99 -11 -47 -28 -54 -66 -27 -12 8 -25 13 -30 11 -4 -2 -27 18 -51 45
l-44 48 57 1 c77 2 79 2 84 17 3 9 -18 12 -82 12 -83 0 -86 -1 -86 -23z m325
-17 c10 -17 -24 -69 -56 -86 l-32 -16 7 29 c7 27 52 83 67 83 4 0 11 -4 14
-10z"/>
<path d="M8376 2634 c-8 -22 0 -30 17 -16 7 6 23 9 35 5 25 -6 30 12 6 21 -28
11 -52 6 -58 -10z"/>
<path d="M7095 2549 c-46 -41 -62 -97 -41 -141 9 -17 16 -44 16 -60 0 -47 16
-68 53 -68 59 0 117 82 125 176 4 60 3 64 -26 93 -41 41 -80 41 -127 0z m107
-16 c23 -21 25 -104 2 -127 -15 -16 -59 -21 -87 -10 -21 8 -3 60 24 67 25 7
25 27 0 27 -11 0 -29 -12 -40 -27 -26 -32 -35 -26 -21 13 26 67 82 93 122 57z
m-12 -170 c0 -17 -46 -53 -67 -53 -19 0 -23 5 -23 30 0 29 2 30 45 30 25 0 45
-3 45 -7z"/>
<path d="M7737 2548 c-28 -22 -49 -85 -36 -109 25 -48 -84 -100 -116 -55 -7 9
-16 35 -19 58 -8 51 -21 68 -51 68 -36 0 -72 -36 -121 -121 -42 -73 -72 -104
-60 -61 27 97 31 172 7 158 -9 -6 -16 -44 -27 -148 -5 -48 -4 -59 10 -64 23
-9 42 10 83 83 67 120 115 156 129 96 14 -64 27 -94 44 -103 24 -13 76 -13
101 0 16 9 21 7 28 -13 41 -107 136 -20 136 126 0 56 -3 71 -19 83 -24 17 -67
18 -89 2z m77 -34 c21 -54 -14 -189 -48 -189 -29 0 -41 47 -22 82 8 15 20 38
27 51 17 30 5 38 -26 18 -29 -19 -31 -16 -10 24 12 23 23 30 44 30 17 0 31 -6
35 -16z"/>
<path d="M1750 2539 c-120 -10 -298 -40 -415 -71 -44 -11 -120 -23 -170 -27
-52 -3 -89 -10 -87 -16 5 -18 154 -8 257 18 215 55 444 87 618 87 44 0 77 4
77 10 0 12 -127 11 -280 -1z"/>
</g>
</svg>
