<svg version="1.0" xmlns="http://www.w3.org/2000/svg" width="1536.000000pt" height="1250.000000pt" viewBox="0 0 1536.000000 1250.000000" preserveAspectRatio="xMidYMid meet">
<metadata>Created by potrace 1.16, written by Peter Selinger 2001-2019</metadata>
<g transform="translate(0.000000,1250.000000) scale(0.100000,-0.100000)" fill="#333" stroke="none">
<path d="M7235 11274 c-171 -17 -363 -82 -445 -150 -28 -24 -32 -32 -27 -66 3
-21 2 -36 -3 -33 -4 3 -13 -2 -19 -9 -16 -19 -12 -321 6 -481 13 -123 38 -263
48 -273 13 -13 16 11 7 60 -6 29 -13 72 -16 95 l-6 41 39 -21 c38 -21 38 -21
45 -99 4 -43 9 -91 12 -108 5 -22 3 -30 -8 -30 -8 0 -23 -6 -33 -14 -25 -18
-9 -39 44 -54 38 -12 86 -62 59 -62 -37 0 -94 25 -129 57 -44 40 -60 39 -33
-1 28 -44 70 -67 141 -77 38 -6 84 -18 103 -27 45 -22 162 -20 250 2 36 10 82
22 102 27 21 5 67 30 103 54 36 25 72 45 80 45 9 0 20 11 25 24 5 13 19 31 31
40 l22 15 -23 68 c-21 59 -24 92 -28 252 -3 146 -1 185 10 192 11 8 11 10 -1
18 -21 14 -6 123 24 167 49 72 56 154 20 224 -21 40 -87 87 -149 105 -53 16
-183 26 -251 19z m240 -45 c45 -14 80 -33 107 -57 36 -34 40 -43 45 -100 5
-58 4 -63 -20 -82 -14 -11 -28 -33 -32 -49 -3 -15 -18 -39 -33 -53 -35 -32
-105 -79 -110 -73 -2 2 12 23 32 46 83 98 86 188 8 271 -56 60 -123 96 -200
107 -55 8 -53 9 39 10 73 1 114 -4 164 -20z m-168 -24 c65 -19 141 -70 170
-114 23 -34 32 -101 14 -101 -6 0 -51 -22 -101 -50 -158 -85 -204 -100 -317
-100 -128 0 -193 20 -193 58 0 15 -3 38 -7 52 l-6 25 29 -26 c27 -25 66 -49
78 -49 17 0 1 20 -37 47 -48 33 -82 93 -73 127 9 35 43 73 89 101 71 41 262
57 354 30z m-451 -87 c-10 -16 -15 -51 -15 -112 0 -48 -2 -90 -4 -93 -3 -2
-15 12 -27 31 -12 20 -26 36 -31 36 -18 0 -8 -29 25 -73 31 -41 34 -50 41
-150 l7 -107 -41 0 c-32 0 -39 3 -35 15 4 8 1 15 -5 15 -8 0 -11 48 -11 155 0
136 2 155 16 155 10 0 14 6 11 15 -4 8 -2 17 3 20 6 4 5 14 -3 26 -11 18 -8
24 27 55 45 39 63 44 42 12z m638 -163 c-4 -8 -11 -12 -16 -9 -6 4 -5 10 3 15
19 12 19 11 13 -6z m-54 -40 c-32 -84 -81 -132 -149 -145 -31 -7 -64 -16 -73
-21 -10 -5 -34 -9 -53 -9 -19 0 -35 -4 -35 -10 0 -15 122 -12 169 5 43 15 50
10 29 -17 -23 -29 -232 -68 -366 -68 l-79 0 -7 53 c-3 28 -6 73 -6 98 l0 46
58 -20 c46 -15 78 -18 164 -15 l108 3 117 62 c65 33 121 61 125 62 4 1 3 -10
-2 -24z m102 -116 l-4 -47 -86 -20 c-48 -11 -88 -19 -90 -17 -12 12 28 49 79
74 33 17 69 37 81 45 12 9 22 15 23 13 1 -1 0 -23 -3 -48z m-17 -89 c-55 -12
-102 -44 -229 -155 -38 -33 -64 -51 -58 -40 6 11 31 52 55 90 l43 70 100 26
c54 14 103 24 109 21 5 -4 -4 -9 -20 -12z m11 -235 c-5 -148 -4 -215 4 -215 6
0 10 23 10 55 0 62 14 73 24 19 4 -19 9 -41 12 -49 3 -7 -14 -26 -40 -46 -25
-17 -51 -44 -58 -60 -11 -24 -20 -28 -87 -39 -42 -6 -87 -13 -101 -16 l-25 -4
25 18 c93 65 140 103 140 112 0 18 -16 10 -81 -40 -35 -27 -68 -50 -72 -50
-11 0 66 109 155 220 37 47 68 90 68 97 0 30 -28 21 -103 -30 -45 -31 -83 -55
-84 -53 -2 2 3 19 12 38 13 27 29 39 76 58 33 13 62 27 65 32 12 19 -6 19 -50
-1 -38 -17 -45 -17 -38 -4 12 20 144 173 150 173 3 0 2 -97 -2 -215z m-242
183 c-4 -7 -27 -45 -50 -84 -41 -66 -56 -114 -35 -114 5 0 30 17 54 38 116 96
199 162 203 162 2 0 -19 -28 -48 -63 -29 -35 -62 -76 -73 -91 -32 -44 -139
-77 -265 -83 -58 -2 -125 0 -150 4 l-45 9 -3 92 -3 92 83 1 c62 1 311 36 336
48 2 0 0 -5 -4 -11z m-442 -121 c2 -45 3 -84 1 -86 -1 -2 -14 4 -28 13 -19 12
-24 23 -20 34 4 9 9 26 12 37 4 19 3 19 -15 -2 -17 -19 -21 -20 -26 -7 -3 9
-6 35 -6 58 l0 42 39 -4 39 -4 4 -81z m612 -89 c-5 -7 -38 -50 -75 -94 -36
-45 -88 -116 -115 -159 l-49 -77 -100 6 c-166 11 -184 15 -199 45 -7 14 -11
32 -8 40 2 7 -1 17 -8 21 -7 4 -14 42 -17 93 l-6 85 54 -10 c73 -14 210 -4
289 21 75 24 89 26 72 9 -7 -7 -12 -22 -12 -35 0 -38 46 -29 114 22 63 48 72
52 60 33z m-584 -274 c0 -8 -5 -12 -10 -9 -6 4 -8 11 -5 16 9 14 15 11 15 -7z
m480 -84 c-42 -23 -96 -26 -103 -5 -5 11 7 15 56 18 34 2 67 4 72 5 6 0 -6 -7
-25 -18z m-221 -1 c-16 -6 -40 -6 -65 0 -37 9 -36 9 26 9 52 0 60 -1 39 -9z
m91 -4 c0 -10 -10 -15 -27 -15 l-28 1 25 14 c31 18 30 18 30 0z m-85 -45 c-7
-12 -52 -12 -80 0 -15 6 -6 9 33 9 33 1 51 -3 47 -9z"/>
<path d="M14470 11255 c-144 -40 -300 -146 -300 -204 0 -15 -9 -34 -19 -43
-16 -14 -20 -38 -27 -164 -5 -82 -9 -244 -9 -361 l0 -212 29 -30 c58 -61 181
-79 372 -56 71 9 131 20 134 24 3 4 40 20 83 35 43 15 85 30 93 33 11 4 14
-10 14 -81 0 -90 15 -117 24 -43 3 23 9 119 14 212 8 138 13 179 30 215 22 49
41 141 26 127 -5 -5 -17 -29 -26 -55 l-16 -47 -1 91 c-1 87 0 91 24 102 26 12
34 32 12 32 -7 0 -19 -6 -27 -12 -8 -7 -6 -3 4 10 17 20 17 22 3 22 -21 0 -22
38 -2 64 21 28 18 113 -5 163 -28 63 -102 137 -163 163 -67 29 -190 36 -267
15z m241 -30 c58 -21 106 -59 140 -113 38 -60 37 -82 -7 -111 -50 -35 -268
-70 -431 -71 -127 0 -163 8 -200 42 -18 17 -20 24 -10 45 8 19 8 26 -2 32 -9
6 -2 19 29 49 120 115 346 174 481 127z m-484 -299 c41 -20 53 -49 53 -132 0
-57 -2 -64 -19 -64 -11 0 -28 11 -39 24 -13 18 -27 24 -47 22 l-28 -4 7 82 c3
44 6 95 6 111 l1 30 16 -26 c9 -15 31 -34 50 -43z m633 -6 c0 -33 -4 -42 -28
-54 -15 -8 -36 -24 -47 -36 -23 -26 -74 -50 -107 -50 -19 0 -9 15 64 90 48 50
94 90 103 90 11 0 15 -11 15 -40z m-155 -50 c-53 -53 -87 -80 -102 -80 -13 0
-23 -4 -23 -10 0 -5 5 -10 11 -10 26 0 -14 -28 -57 -40 -39 -11 -208 -10 -218
1 -2 2 -6 41 -9 87 l-5 82 111 1 c73 1 153 9 227 24 63 12 122 23 130 24 8 0
-21 -35 -65 -79z m153 -69 c-8 -21 -102 -92 -115 -87 -8 3 -19 6 -25 6 -22 0
29 44 77 66 54 25 69 29 63 15z m-10 -99 c-7 -3 -40 -32 -74 -66 -33 -33 -89
-86 -125 -116 -56 -49 -68 -55 -97 -50 l-32 5 57 46 c32 26 108 91 168 144
108 95 110 96 113 69 2 -18 -1 -30 -10 -32z m-168 33 c-7 -8 -27 -15 -44 -14
-31 1 -31 1 9 14 22 8 42 14 44 14 2 1 -2 -6 -9 -14z m-410 -78 c0 -35 -19
-159 -25 -165 -2 -2 -13 -1 -24 3 -24 7 -28 30 -6 39 19 7 20 26 2 26 -21 0
-49 -36 -45 -57 1 -10 18 -25 36 -33 33 -14 34 -15 28 -65 -3 -27 -9 -78 -12
-112 -7 -68 -17 -76 -53 -42 -16 15 -21 29 -18 46 3 16 -1 27 -10 30 -13 5
-14 29 -9 167 4 89 9 177 12 197 l5 36 60 -20 c56 -18 59 -21 59 -50z m340 18
c-39 -41 -17 -50 29 -11 28 23 53 36 72 36 16 0 29 -2 29 -4 0 -3 -54 -50
-120 -106 -66 -56 -120 -106 -120 -112 0 -11 -203 -8 -215 3 -3 3 0 49 7 102
l12 97 81 1 c44 1 91 4 105 8 14 4 51 8 84 8 l59 2 -23 -24z m249 -72 c-1 -83
-6 -103 -20 -82 -6 11 -15 7 -37 -14 -24 -23 -42 -29 -99 -35 l-71 -8 111 108
c61 59 112 108 114 108 2 0 3 -35 2 -77z m-50 -160 c-70 -117 -105 -156 -118
-134 -10 15 -58 -6 -94 -42 -20 -20 -33 -22 -147 -24 -143 -2 -193 9 -198 45
-2 13 2 55 8 94 l12 70 37 -6 c20 -3 86 -6 146 -7 61 0 104 -3 98 -6 -14 -5
-18 -33 -5 -33 5 0 17 9 26 19 13 15 34 20 86 23 37 2 66 0 64 -4 -14 -22
-158 -128 -175 -128 -10 0 -19 -4 -19 -10 0 -5 11 -10 24 -10 26 0 80 38 181
125 51 44 73 59 93 64 2 1 -7 -16 -19 -36z m41 -53 l0 -61 -42 -19 c-24 -11
-48 -20 -54 -20 -9 0 84 158 94 160 1 0 2 -27 2 -60z m-186 -121 c-31 -12 -39
-10 -19 5 11 8 24 12 29 8 5 -3 1 -9 -10 -13z m-339 -55 l60 -14 -65 6 c-36 3
-69 10 -74 15 -13 12 6 11 79 -7z"/>
<path d="M12884 10660 c-17 -6 -37 -16 -43 -24 -7 -8 -21 -12 -31 -9 -17 5
-20 0 -20 -33 0 -44 -26 -300 -36 -351 -6 -32 -8 -33 -40 -27 -30 5 -35 3 -44
-21 -5 -14 -10 -40 -10 -56 0 -24 -4 -29 -25 -29 -29 0 -30 8 -10 57 19 46 19
79 0 87 -24 9 -216 38 -221 34 -8 -8 -24 -111 -24 -152 0 -54 11 -69 49 -69
31 0 40 -14 21 -33 -8 -8 -8 -61 -1 -175 6 -90 11 -181 11 -202 l0 -39 -62 4
-63 3 -5 40 c-4 32 -10 41 -27 43 -19 3 -21 8 -16 33 l6 30 -109 -6 c-141 -8
-210 -6 -242 6 -14 5 -29 6 -33 2 -4 -4 -9 -37 -11 -72 -2 -53 -7 -66 -25 -79
-22 -14 -23 -13 -23 17 0 21 5 31 15 31 8 0 15 5 15 10 0 6 -4 10 -9 10 -6 0
-7 24 -4 55 l6 55 -83 0 c-46 0 -110 5 -142 12 l-58 12 6 51 c4 27 10 68 14
91 3 22 6 63 6 92 -1 50 0 51 24 45 14 -3 48 -21 76 -40 50 -34 83 -40 91 -17
2 6 -10 14 -27 18 -25 5 -30 10 -25 25 4 14 -1 20 -24 24 -69 14 -221 243
-284 429 -6 18 -27 0 -252 -212 -60 -58 -140 -130 -175 -161 -81 -70 -180
-189 -180 -217 0 -25 29 -36 70 -27 42 9 37 23 -10 27 l-39 3 88 96 c49 52
107 108 128 124 32 24 27 17 -27 -44 -35 -40 -74 -78 -86 -83 -14 -7 -24 -22
-28 -46 -6 -43 1 -54 19 -29 11 15 21 17 61 11 l47 -7 -7 -246 c-5 -156 -11
-250 -19 -259 -7 -9 -7 -16 0 -20 6 -4 8 -40 5 -94 -4 -83 -5 -87 -31 -93 -41
-10 -71 -34 -71 -55 0 -11 5 -20 10 -20 6 0 10 7 10 15 0 9 12 20 26 25 55 21
54 23 51 -151 l-2 -161 -88 4 c-85 3 -112 -4 -62 -16 14 -4 215 -6 447 -6 306
1 423 -2 428 -11 6 -8 14 -7 31 4 18 11 57 15 152 16 l128 1 -6 -37 c-4 -21
-15 -55 -25 -76 -11 -23 -14 -40 -8 -43 18 -11 37 21 54 89 l17 69 86 -7 c47
-4 124 -14 171 -21 47 -8 94 -14 105 -14 11 -1 87 -9 169 -20 173 -23 159 -22
152 -11 -3 4 -32 11 -65 14 -32 4 -107 14 -166 23 l-108 17 7 86 c3 47 13 154
21 236 8 83 15 198 15 258 l0 107 29 0 c70 0 82 26 16 36 l-45 6 0 84 c0 45 4
85 8 88 4 2 35 -1 67 -7 l60 -12 -2 -90 c-2 -50 -6 -132 -9 -182 -6 -90 -7
-93 -30 -93 -13 0 -24 -4 -24 -10 0 -5 12 -10 26 -10 l26 0 -2 -97 c-3 -150
-1 -183 10 -183 6 0 10 18 10 41 0 38 2 41 23 36 49 -12 179 -28 184 -23 14
14 -15 24 -107 36 l-100 13 0 85 0 84 137 -3 c93 -3 137 -1 140 7 2 7 -41 13
-134 18 -76 4 -139 9 -141 11 -2 2 1 81 7 176 7 122 13 174 23 180 10 6 8 11
-7 23 -11 8 -23 13 -26 10 -3 -2 -35 3 -70 10 l-64 13 -1 120 -2 121 34 7 c38
7 54 1 54 -21 0 -8 5 -14 10 -14 6 0 10 9 10 20 0 16 7 20 35 20 19 0 35 -4
35 -10 0 -5 12 -7 28 -4 15 3 47 0 72 -6 63 -16 182 -36 263 -45 65 -6 68 -8
63 -29 -3 -12 -15 -98 -26 -192 -11 -93 -22 -173 -25 -179 -8 -23 -4 186 5
235 11 57 7 71 -13 51 -9 -9 -14 -92 -18 -299 -6 -251 -10 -304 -33 -424 -29
-153 -30 -162 -17 -153 5 3 15 31 21 63 20 104 27 102 33 -8 6 -113 20 -170
43 -170 17 0 17 -5 -2 72 -27 101 -24 380 4 603 47 368 52 399 61 404 4 3 6
43 3 88 l-4 81 -37 7 c-20 4 -55 17 -78 31 -23 13 -50 24 -61 24 -29 0 -55
-62 -49 -116 4 -43 4 -44 -22 -38 -38 10 -41 15 -29 61 14 57 6 73 -37 73 -40
0 -39 -6 -21 120 11 79 13 86 41 100 19 10 59 15 110 15 100 0 230 -45 240
-82 10 -43 25 -23 25 35 0 31 6 80 14 109 15 57 13 63 -20 63 -12 0 -57 23
-99 52 -67 45 -84 52 -133 55 -32 1 -71 -2 -88 -7z m208 -70 c40 -27 84 -50
97 -50 18 0 22 -4 16 -17 -3 -10 -11 -40 -17 -68 -6 -27 -11 -51 -13 -53 -1
-1 -35 12 -76 30 -65 29 -84 32 -154 31 -44 0 -93 -6 -109 -12 l-28 -11 7 67
c4 38 11 75 16 84 14 27 71 49 131 49 52 0 63 -4 130 -50z m-1655 -122 c8 -18
2 -32 -31 -81 -35 -50 -42 -56 -44 -37 -3 14 7 34 27 54 36 37 41 61 10 53
-20 -5 -20 -5 -3 14 22 24 29 24 41 -3z m52 -132 c-5 -6 -9 -26 -10 -45 0 -20
-4 -44 -8 -54 -6 -17 -8 -17 -20 -3 -11 13 -11 28 -1 79 15 78 20 85 36 56 8
-15 9 -28 3 -33z m-178 26 c-5 -10 -17 -25 -26 -32 -24 -20 -120 -159 -145
-211 -20 -42 -28 -48 -63 -53 -22 -4 -41 -5 -42 -4 -3 3 131 161 224 266 47
52 70 67 52 34z m114 -29 c-11 -64 -14 -68 -29 -48 -12 16 -11 23 8 52 11 18
22 33 24 33 2 0 0 -17 -3 -37z m-85 -29 c0 -8 -17 -41 -39 -72 -21 -31 -48
-76 -59 -98 -16 -32 -28 -43 -53 -48 -18 -3 -34 -4 -37 -1 -6 6 96 161 138
209 32 35 50 39 50 10z m284 -143 c29 -24 17 -30 -31 -14 -77 26 -93 40 -93
82 0 20 3 46 6 58 6 20 12 15 54 -45 26 -37 55 -73 64 -81z m-214 19 c0 -25 5
-51 11 -57 7 -7 -14 -12 -71 -17 -45 -4 -84 -5 -87 -2 -6 6 58 117 85 149 15
16 17 16 39 -5 18 -16 23 -32 23 -68z m1110 65 c25 -3 57 -8 71 -11 l26 -5
-21 -58 c-20 -58 -21 -59 -65 -65 -31 -4 -47 -2 -53 6 -6 9 -10 10 -15 2 -5
-6 -18 -14 -30 -18 -21 -7 -23 -4 -23 32 0 22 3 60 6 86 6 44 8 47 33 42 14
-3 46 -8 71 -11z m-1050 -101 c0 -35 -13 -46 -24 -18 -3 9 -6 29 -6 46 0 26 2
29 15 18 8 -7 15 -28 15 -46z m1258 40 c12 -4 22 -12 22 -20 0 -20 22 -64 32
-64 5 0 6 16 2 35 -6 33 -5 35 20 35 26 0 27 -2 20 -37 -4 -21 -8 -41 -10 -44
-1 -3 -30 -1 -63 5 l-61 10 0 43 c0 45 1 46 38 37z m275 -16 c23 -12 56 -24
72 -28 28 -5 30 -9 33 -54 l3 -49 -82 6 c-50 4 -86 12 -91 19 -17 28 -3 128
18 128 3 0 24 -10 47 -22z m-1451 -37 c43 -18 44 -19 40 -60 -5 -45 -6 -46
-96 -14 -21 7 -52 13 -69 13 -17 0 -28 3 -24 6 11 11 77 22 83 13 3 -5 10 -9
15 -9 9 0 7 17 -8 58 -7 17 8 15 59 -7z m-43 -110 c40 -11 74 -21 77 -24 2 -2
-3 -51 -11 -108 -9 -57 -21 -160 -28 -228 l-12 -125 -155 -28 c-85 -15 -190
-28 -232 -28 -68 0 -78 2 -78 18 0 94 24 440 31 454 7 13 17 16 39 11 18 -3
30 -1 30 5 0 12 -24 22 -50 22 -11 0 -23 8 -29 17 -8 15 -11 15 -27 3 -15 -13
-17 -13 -12 0 7 21 52 27 229 29 124 1 170 -3 228 -18z m235 -248 l98 -6 -6
-35 c-3 -19 -6 -36 -8 -37 -2 -2 -51 -7 -110 -11 l-108 -7 0 58 c0 50 2 56 18
50 9 -4 61 -9 116 -12z m516 -27 c0 -17 -14 -34 -26 -30 -49 15 -50 16 -29 24
22 9 55 13 55 6z m-232 -22 c2 -1 -1 -19 -8 -39 -8 -26 -16 -35 -27 -31 -8 3
-26 6 -39 6 -21 0 -24 4 -24 39 l0 39 48 -6 c26 -2 49 -6 50 -8z m82 -4 c0 -6
-12 -15 -26 -20 -33 -13 -33 -13 -27 10 6 21 53 30 53 10z m103 -32 c16 -6 27
-17 27 -28 0 -25 10 -50 20 -50 5 0 10 14 12 32 5 52 28 47 28 -5 0 -25 6 -52
13 -59 11 -11 11 -44 0 -183 -14 -188 -14 -340 2 -340 6 0 11 35 12 80 3 116
23 417 29 438 4 14 15 17 52 15 l47 -3 3 -75 c2 -41 -2 -129 -7 -195 -6 -66
-16 -186 -23 -267 -9 -124 -14 -148 -27 -148 -9 0 -45 4 -81 9 -36 5 -99 12
-140 16 l-75 6 -1 108 c-2 138 -21 208 -69 250 -26 22 -46 31 -71 31 -163 0
-260 -120 -255 -317 l2 -83 -325 0 c-224 0 -327 3 -332 11 -3 6 -3 80 1 165
l7 154 149 0 c128 0 149 2 149 15 0 14 -20 16 -146 14 -80 0 -148 1 -150 4 -3
3 -2 42 2 86 l7 81 63 0 c34 0 124 11 198 25 74 14 148 25 164 25 l29 0 -5
-243 c-3 -169 -1 -250 6 -263 9 -14 11 23 12 159 l0 177 26 0 c22 0 25 -3 20
-23 -12 -48 -19 -247 -9 -247 6 0 13 42 17 93 4 50 9 108 12 128 l6 36 147 8
c80 4 185 9 234 11 48 2 86 7 85 11 -2 4 -106 6 -232 5 l-229 -4 7 29 c4 15
10 38 13 51 3 12 1 22 -5 22 -11 0 -32 -53 -32 -83 0 -13 -5 -17 -16 -13 -9 3
-20 6 -26 6 -8 0 -9 34 -4 108 8 142 16 182 32 182 8 0 14 -4 14 -10 0 -12 40
-34 47 -26 3 3 1 12 -6 19 -9 12 2 16 70 21 45 4 87 10 95 13 9 3 14 -8 16
-39 l3 -43 43 -1 c36 -1 45 3 52 21 10 26 30 36 59 28 16 -4 21 -13 21 -39 0
-24 5 -34 15 -34 8 0 15 9 15 21 0 20 58 98 73 99 4 0 7 -18 7 -40 0 -38 -2
-40 -30 -40 -19 0 -30 -5 -30 -14 0 -20 116 -32 137 -14 14 11 13 14 -13 18
-26 5 -29 9 -32 49 -4 56 3 75 26 66 9 -4 29 -12 45 -17z m-258 -418 c9 -27
71 -74 89 -67 10 4 17 -4 21 -24 4 -17 4 -33 2 -36 -8 -8 -60 31 -96 72 -34
39 -41 42 -41 20 0 -21 81 -99 119 -115 23 -9 31 -19 31 -37 0 -21 -2 -23 -22
-12 -53 28 -129 92 -125 104 3 7 2 16 -3 21 -5 5 -12 28 -16 52 -6 38 -5 42
14 42 12 0 23 -9 27 -20z m79 -19 c11 -12 16 -24 13 -28 -8 -7 -67 45 -67 59
0 12 32 -6 54 -31z m-164 -16 c0 -19 5 -35 10 -35 22 0 8 -26 -25 -49 -20 -13
-54 -41 -75 -63 -23 -22 -40 -32 -40 -24 0 8 27 39 61 69 33 30 56 58 50 61
-5 3 -22 -4 -38 -17 -67 -54 -65 -53 -53 -21 23 60 68 110 103 113 4 1 7 -15
7 -34z m20 -107 c0 -7 -34 -44 -75 -81 -95 -87 -103 -62 -10 29 64 63 85 76
85 52z m143 -71 c47 -30 48 -32 45 -76 l-3 -46 -82 -3 -83 -3 0 36 c0 42 9 43
58 10 36 -25 62 -32 62 -17 -1 4 -25 25 -55 46 -33 23 -55 47 -55 58 0 15 11
9 56 -27 30 -25 60 -43 65 -39 14 8 -92 104 -108 99 -8 -3 -13 4 -13 16 0 21
0 21 33 -1 17 -12 54 -36 80 -53z m-148 -84 c-5 -37 -10 -43 -30 -43 -13 0
-25 5 -27 11 -3 9 -9 9 -25 0 -12 -6 -32 -11 -45 -11 -19 0 -11 12 52 75 l75
76 3 -33 c2 -18 1 -52 -3 -75z"/>
<path d="M11275 9860 c-11 -5 -55 -9 -97 -9 -62 -1 -78 -4 -78 -16 0 -12 13
-15 60 -15 33 0 60 -1 60 -2 0 -2 -7 -21 -15 -43 -15 -41 -19 -133 -9 -172 7
-25 24 -31 24 -9 0 11 18 15 75 18 l75 3 0 -32 c0 -18 4 -33 10 -33 21 0 34
172 17 238 l-9 33 42 -7 c34 -6 42 -4 38 7 -3 9 -23 15 -55 17 -29 2 -57 9
-63 17 -14 16 -44 18 -75 5z m94 -97 c8 -30 11 -66 7 -87 -7 -36 -8 -36 -56
-36 -30 0 -50 4 -50 11 0 7 -10 9 -26 5 l-27 -7 6 61 c3 33 13 72 22 86 14 22
22 25 63 22 l47 -3 14 -52z"/>
<path d="M12274 9568 c-5 -7 -11 -78 -15 -158 -4 -80 -14 -205 -23 -279 -11
-88 -14 -137 -7 -144 12 -12 14 -4 40 208 20 167 30 369 19 380 -3 4 -10 0
-14 -7z"/>
<path d="M11613 9510 c-43 -18 -23 -25 70 -26 70 0 136 -10 281 -42 169 -38
211 -44 194 -27 -8 8 -215 60 -313 79 -106 20 -205 27 -232 16z"/>
<path d="M11122 9138 c7 -19 49 -25 181 -27 88 -1 117 2 117 12 0 9 -26 12
-102 12 -57 0 -125 4 -152 8 -38 7 -47 6 -44 -5z"/>
<path d="M13780 10212 c-47 -37 -143 -112 -215 -166 -132 -101 -315 -261 -315
-277 0 -23 32 -2 107 70 45 43 146 127 224 187 79 60 177 137 218 172 41 34
79 62 83 62 4 0 8 5 8 10 0 22 -29 7 -110 -58z"/>
<path d="M13805 10055 c-39 -32 -129 -99 -200 -150 -72 -51 -155 -115 -184
-141 -53 -48 -111 -118 -111 -136 0 -16 29 -8 34 10 12 36 126 139 262 236 77
55 168 125 204 155 36 31 67 56 69 58 1 1 1 7 -1 13 -2 7 -34 -13 -73 -45z"/>
<path d="M12750 9971 c0 -5 8 -15 18 -20 26 -14 151 -36 159 -28 11 11 0 16
-73 31 -38 8 -77 18 -86 21 -10 4 -18 3 -18 -4z"/>
<path d="M3002 9823 c-48 -233 -66 -409 -67 -645 l0 -178 -420 0 c-355 0 -444
-3 -575 -20 -228 -28 -250 -32 -250 -41 0 -12 70 -11 145 1 205 33 332 39 765
41 l445 1 6 -32 c10 -49 31 -65 66 -52 15 6 48 13 71 15 41 5 43 4 38 -15 -2
-12 1 -33 9 -48 17 -32 71 -80 90 -80 8 0 17 -16 21 -37 12 -67 19 -73 82 -73
82 0 96 13 87 78 -9 66 -25 67 -25 2 l0 -50 -50 0 c-45 0 -52 3 -60 26 -14 35
-13 44 5 44 8 0 15 5 15 10 0 6 -7 10 -16 10 -11 0 -14 5 -10 16 4 11 -10 30
-44 61 -33 29 -50 53 -50 68 0 23 -1 23 -91 19 -49 -2 -94 -6 -98 -9 -10 -5
-21 41 -13 50 3 3 16 5 29 5 14 0 22 4 18 10 -4 6 -16 10 -27 8 -33 -5 -30 16
4 32 39 19 53 47 17 35 -13 -4 -36 -7 -51 -7 -25 1 -28 -2 -28 -34 l0 -35 -42
3 -43 3 1 185 c1 204 22 410 60 595 26 131 28 145 16 145 -4 0 -18 -48 -30
-107z m284 -964 c19 -22 19 -22 -3 -10 -13 6 -23 16 -23 21 0 15 5 12 26 -11z
m54 -54 c0 -13 -4 -14 -20 -5 -11 6 -20 13 -20 15 0 3 9 5 20 5 11 0 20 -7 20
-15z"/>
<path d="M2300 9899 c-41 -5 -124 -18 -185 -29 -60 -11 -132 -20 -160 -20 -45
0 -228 -12 -402 -26 -42 -4 -63 -10 -63 -19 0 -9 12 -11 43 -9 179 16 290 24
319 23 49 -2 -135 -47 -194 -48 -52 -1 -64 -15 -22 -25 33 -9 63 -3 269 49
168 43 173 43 440 55 149 7 349 14 445 17 98 3 179 10 185 15 10 11 -84 8
-555 -12 -112 -5 -206 -8 -208 -6 -5 6 172 26 226 26 28 0 54 5 57 10 7 12
-86 11 -195 -1z m-383 -75 c-3 -3 -12 -4 -19 -1 -8 3 -5 6 6 6 11 1 17 -2 13
-5z"/>
<path d="M7188 9823 c-6 -145 14 -363 34 -363 7 0 8 17 4 48 -3 26 -9 116 -13
200 -3 83 -10 152 -15 152 -4 0 -9 -17 -10 -37z"/>
<path d="M12777 9840 c-29 -23 -93 -144 -103 -196 -8 -41 2 -84 19 -84 8 0 12
18 12 53 1 36 9 69 28 107 27 55 70 110 86 110 16 0 32 -64 38 -150 l6 -85
-48 -2 c-26 -1 -50 -4 -53 -8 -11 -11 22 -25 59 -25 23 0 39 -6 43 -15 8 -21
26 -19 26 4 0 11 6 22 13 24 8 4 9 8 1 14 -6 4 -14 50 -17 101 -9 147 -48 201
-110 152z"/>
<path d="M2916 9769 c-19 -64 -35 -699 -18 -699 5 0 12 93 15 208 4 114 11
269 18 346 8 97 8 141 0 149 -7 7 -12 6 -15 -4z"/>
<path d="M1564 9733 c-12 -28 -28 -683 -18 -729 8 -35 9 -31 14 51 l6 90 2
-102 c3 -150 22 -132 22 20 0 67 5 220 12 339 10 192 9 242 -6 227 -2 -2 -9
-67 -14 -144 l-11 -140 5 172 c2 94 7 185 10 202 7 34 -9 43 -22 14z"/>
<path d="M2218 9719 c-116 -13 -228 -83 -272 -171 -27 -53 -34 -124 -17 -156
8 -15 3 -17 -40 -14 -28 2 -49 0 -49 -6 0 -11 34 -22 73 -22 24 0 27 -4 27
-32 0 -40 30 -106 59 -132 25 -22 40 -14 24 13 -13 20 -8 31 14 31 9 0 11 -8
7 -25 -9 -37 7 -31 75 30 34 30 81 65 104 76 53 27 54 28 38 38 -10 7 -10 11
2 23 8 7 22 30 32 48 10 19 40 68 67 108 47 69 53 92 24 92 -8 0 -53 -32 -102
-71 -49 -39 -101 -76 -115 -81 -38 -13 -64 -54 -83 -133 -21 -87 -32 -108 -42
-80 -4 11 -18 34 -31 51 -13 17 -23 36 -23 43 0 6 -5 20 -12 30 -16 27 4 91
42 135 34 38 36 46 15 46 -16 0 -75 -75 -75 -96 0 -7 -5 -16 -10 -19 -6 -4 -9
2 -7 12 16 88 97 159 226 197 l53 16 -6 -34 c-4 -20 -2 -37 4 -41 10 -6 14 0
24 48 6 25 10 27 59 27 70 0 162 -51 162 -90 0 -15 7 -26 18 -28 23 -5 30 -38
25 -126 -3 -60 -9 -82 -33 -121 -35 -56 -50 -65 -58 -33 -5 16 -9 20 -17 12
-8 -8 -8 -18 1 -37 9 -21 9 -30 -1 -42 -20 -24 -85 -55 -115 -55 -21 0 -25 5
-25 28 0 15 5 33 12 40 6 6 8 15 4 19 -13 13 -48 -39 -43 -64 2 -13 2 -23 0
-23 -11 0 -71 35 -91 53 -16 15 -25 18 -33 10 -8 -8 3 -20 40 -45 28 -18 51
-36 51 -40 0 -5 -25 -8 -55 -8 -61 0 -139 30 -158 62 -7 10 -17 18 -24 18 -47
0 53 -85 116 -99 56 -12 148 -5 216 16 71 22 209 107 245 151 54 66 90 191 76
266 -11 60 -46 89 -163 139 -125 52 -144 56 -235 46z m25 -26 c-7 -2 -19 -2
-25 0 -7 3 -2 5 12 5 14 0 19 -2 13 -5z m-56 -9 c-3 -3 -12 -4 -19 -1 -8 3 -5
6 6 6 11 1 17 -2 13 -5z m313 -66 c0 -14 -16 -9 -36 13 -19 21 -19 21 9 8 15
-7 27 -16 27 -21z m81 -60 c18 -44 7 -145 -24 -212 -19 -42 -31 -56 -38 -49
-7 7 -6 24 5 57 20 59 20 123 0 181 -12 35 -13 50 -4 60 16 19 45 1 61 -37z
m-269 -56 c-35 -56 -38 -58 -58 -43 -20 14 -19 16 30 57 28 24 54 43 58 43 4
1 -9 -25 -30 -57z m-74 -90 c2 -22 -2 -34 -16 -41 -11 -6 -22 -7 -26 -4 -18
18 6 87 27 80 7 -2 13 -18 15 -35z m-73 -51 c3 -11 16 -21 27 -23 17 -2 11 -9
-29 -30 -28 -16 -53 -28 -57 -28 -6 0 0 21 21 68 16 36 29 41 38 13z m-163
-108 c-6 -33 -21 -16 -29 33 l-6 39 20 -24 c12 -15 18 -33 15 -48z"/>
<path d="M2080 9549 c0 -17 5 -29 11 -27 6 2 10 7 10 11 -1 4 -1 16 -1 27 0
11 -4 20 -10 20 -5 0 -10 -14 -10 -31z"/>
<path d="M3442 9487 c-6 -7 -20 -33 -31 -59 l-19 -46 -122 2 c-67 0 -123 0
-125 -2 -2 -2 7 -41 19 -86 21 -80 21 -83 4 -112 -21 -34 -21 -105 1 -112 11
-4 12 2 7 23 -7 28 9 95 24 95 4 0 10 -14 14 -31 8 -39 26 -28 26 17 0 22 5
34 14 34 18 0 63 37 54 45 -3 4 -17 1 -30 -6 -21 -11 -22 -11 -10 4 8 9 22 19
33 22 10 4 19 11 19 16 0 17 -33 9 -68 -17 -38 -30 -52 -22 -52 28 0 33 1 34
78 42 l63 7 -7 -25 c-7 -28 3 -66 17 -66 5 0 9 15 9 33 0 32 24 67 46 67 5 0
18 24 29 53 l20 52 65 0 65 0 3 -32 c2 -24 -1 -33 -17 -38 -21 -6 -30 -45 -11
-45 6 0 10 5 10 10 0 17 46 11 71 -9 14 -11 24 -30 24 -47 1 -22 7 -30 23 -32
12 -2 22 2 22 9 0 16 30 38 53 39 9 0 17 -7 17 -16 0 -19 -28 -43 -50 -44 -8
0 -22 -4 -30 -10 -12 -7 -12 -12 4 -29 23 -26 32 -26 38 -3 3 9 19 25 35 34
28 16 30 16 58 -6 40 -32 28 -52 -45 -73 -33 -10 -58 -22 -56 -28 5 -15 56 -7
106 18 59 29 66 64 21 98 -21 16 -28 26 -21 34 12 15 3 25 -17 18 -9 -4 -16 2
-20 16 -6 23 -27 27 -66 12 -20 -8 -29 -6 -43 11 -11 11 -31 26 -46 34 -22 11
-27 22 -30 56 -2 35 -7 43 -28 49 -44 12 -137 10 -148 -4z"/>
<path d="M2420 9450 c0 -5 16 -10 35 -10 19 0 35 5 35 10 0 6 -16 10 -35 10
-19 0 -35 -4 -35 -10z"/>
<path d="M10740 9294 c-76 -20 -159 -60 -166 -79 -10 -26 5 -30 29 -7 12 12
66 36 120 53 53 18 97 36 97 41 0 11 -15 9 -80 -8z"/>
<path d="M12876 9238 c-26 -118 -35 -192 -25 -202 11 -12 12 -7 38 134 24 129
25 140 12 140 -5 0 -17 -33 -25 -72z"/>
<path d="M3454 9238 c-96 -37 -133 -98 -134 -216 0 -64 26 -120 68 -145 41
-23 49 -6 11 22 -33 24 -59 75 -59 113 0 19 4 16 23 -16 59 -105 241 -118 321
-24 33 38 48 48 43 27 -1 -7 13 -16 31 -21 32 -8 32 -9 32 -68 0 -32 -5 -62
-11 -66 -6 -3 -34 -9 -63 -13 -58 -7 -68 -24 -17 -29 45 -5 77 4 101 28 16 16
20 34 20 84 0 68 -7 80 -52 91 -27 7 -27 8 -13 36 17 32 20 69 6 69 -5 0 -15
-17 -22 -37 l-13 -38 -8 54 c-10 67 -49 136 -88 156 -40 21 -115 18 -176 -7z
m159 -47 c17 -17 25 -82 15 -119 -6 -20 -27 -54 -48 -74 -31 -32 -45 -38 -79
-38 -30 0 -39 4 -35 13 3 9 -6 17 -27 23 -26 7 -34 17 -46 55 -14 42 -14 50 2
84 10 20 29 44 43 53 46 30 146 32 175 3z m55 -198 c-27 -29 -70 -53 -95 -53
-11 0 -4 9 21 24 40 24 85 86 88 121 1 11 3 0 5 -24 4 -35 0 -48 -19 -68z
m-125 -60 c-7 -2 -19 -2 -25 0 -7 3 -2 5 12 5 14 0 19 -2 13 -5z"/>
<path d="M7191 9229 c-13 -38 -15 -249 -2 -249 5 0 11 51 14 113 3 61 9 124
13 140 9 38 -11 35 -25 -4z"/>
<path d="M3790 9096 c0 -27 15 -42 25 -26 8 13 -3 50 -16 50 -5 0 -9 -11 -9
-24z"/>
<path d="M10195 9045 c-78 -40 -121 -72 -111 -83 4 -4 24 4 44 16 20 13 67 37
104 55 38 18 68 35 68 40 0 15 -38 5 -105 -28z"/>
<path d="M12530 9031 c0 -5 33 -14 73 -21 74 -12 169 -33 200 -45 10 -4 17 -3
17 4 0 16 -61 38 -152 56 -91 17 -138 19 -138 6z"/>
<path d="M2105 8943 c-22 -2 -164 -22 -315 -43 -151 -22 -324 -44 -385 -50
-60 -6 -114 -15 -120 -21 -13 -13 40 -11 183 7 68 9 126 13 130 9 9 -9 -168
-178 -353 -335 -139 -118 -247 -213 -294 -256 -19 -18 -6 -31 14 -14 14 12 15
8 8 -31 -10 -61 -10 -83 1 -89 6 -3 15 25 21 62 6 38 15 72 20 77 14 13 403
62 484 62 36 -1 221 3 411 7 284 7 312 8 158 10 -104 1 -188 5 -188 8 0 10 89
135 118 166 24 27 36 64 22 73 -17 11 -301 -42 -318 -60 -16 -15 37 -13 106 5
45 11 109 23 142 27 l61 6 -28 -30 c-15 -17 -48 -60 -73 -96 l-45 -67 -50 0
c-27 0 -99 -7 -160 -15 -60 -8 -146 -15 -190 -15 -44 0 -161 -11 -260 -24 -99
-13 -181 -23 -182 -22 -1 1 31 28 70 61 40 33 105 89 146 124 48 42 84 65 104
67 17 2 41 11 53 19 20 13 21 13 17 -5 -7 -26 9 -26 24 0 16 24 82 38 93 19 7
-11 12 -10 27 4 16 13 48 18 179 22 87 3 208 8 268 10 109 6 109 5 92 -14 -31
-34 -13 -43 24 -12 l36 29 214 7 215 6 -112 -108 c-62 -60 -113 -117 -113
-126 0 -9 1 -17 3 -17 1 0 61 56 132 125 l130 124 65 0 65 0 -30 -22 c-16 -12
-64 -49 -105 -83 -41 -33 -109 -85 -151 -116 -85 -63 -143 -124 -133 -140 5
-7 21 4 43 29 20 23 63 60 96 84 33 23 98 74 145 113 47 39 125 100 173 135
76 56 101 81 81 81 -3 0 -26 -16 -51 -35 -42 -32 -51 -35 -117 -35 l-71 0 125
125 c123 123 150 162 60 86 l-46 -39 -204 6 c-217 6 -224 11 -42 32 61 8 112
17 112 22 0 4 -3 8 -8 8 -11 0 -172 -19 -207 -25 -29 -4 -29 -4 18 38 26 24
47 46 47 50 0 20 -32 1 -80 -45 l-54 -52 -100 -4 -101 -5 60 51 c54 46 65 51
115 55 30 2 1 3 -65 3 -66 1 -138 -1 -160 -3z m70 -58 c-49 -43 -51 -44 -120
-44 -58 0 -66 2 -47 11 12 6 22 15 22 19 0 19 -19 16 -53 -6 -40 -28 -132 -36
-139 -13 -4 10 -10 10 -32 0 -32 -14 -176 -16 -176 -2 0 6 4 10 9 10 5 0 101
13 213 29 271 40 256 38 318 40 l54 1 -49 -45z m-515 -73 c0 -5 -17 -18 -37
-30 -21 -11 -78 -58 -128 -102 -49 -45 -103 -88 -120 -96 -28 -14 -28 -14 -10
1 85 67 132 109 187 167 41 45 71 68 86 68 12 0 22 -4 22 -8z m85 -12 c-9 -10
-41 -26 -69 -34 -55 -16 -86 -41 -86 -69 0 -25 15 -21 28 7 5 13 21 26 33 29
17 5 8 -9 -35 -51 -48 -47 -66 -59 -110 -67 l-52 -11 69 66 c38 36 89 78 114
93 29 18 43 33 39 43 -4 11 5 14 41 14 45 0 46 0 28 -20z m140 11 c-11 -5 -42
-11 -70 -15 -46 -6 -48 -5 -31 9 12 9 39 15 70 14 36 0 45 -3 31 -8z m190 -20
c-14 -12 -193 -25 -180 -12 10 10 56 16 140 19 28 1 45 -2 40 -7z m150 -1
c-73 -12 -127 -12 -120 0 3 6 43 9 88 9 78 -2 79 -2 32 -9z m454 -70 l-84 -79
-202 -1 c-112 0 -203 2 -203 4 0 2 28 28 63 58 l62 55 125 -13 c69 -7 139 -13
155 -13 64 1 -11 17 -138 30 -119 12 -126 13 -95 25 21 7 102 12 217 13 l184
1 -84 -80z m-833 53 c-4 -5 -37 -15 -72 -24 -39 -9 -60 -11 -54 -5 6 6 34 16
63 22 67 15 72 15 63 7z m364 -73 l-65 -60 -75 -1 c-41 -1 -88 -3 -105 -5 -29
-3 -27 0 29 49 64 56 115 74 226 75 l55 1 -65 -59z m-467 -20 c-47 -46 -55
-50 -100 -50 l-48 0 49 47 c29 28 51 42 54 35 4 -14 42 -17 42 -3 0 5 10 12
23 14 12 2 24 5 27 5 3 1 -18 -21 -47 -48z m207 0 l-55 -49 -85 0 -85 -1 44
38 c41 34 53 38 135 48 50 6 93 12 96 12 3 1 -20 -21 -50 -48z m-112 -337
c-10 -2 -28 -2 -40 0 -13 2 -5 4 17 4 22 1 32 -1 23 -4z"/>
<path d="M4112 8928 c3 -7 13 -15 24 -17 10 -1 82 -27 159 -56 170 -65 159
-62 165 -51 5 10 -75 46 -228 102 -100 36 -126 41 -120 22z"/>
<path d="M2886 8888 c-9 -34 -7 -108 3 -108 4 0 11 21 14 48 3 26 9 55 12 65
5 11 2 17 -8 17 -8 0 -17 -10 -21 -22z"/>
<path d="M3649 8908 c0 -2 -2 -14 -3 -27 -2 -13 -20 -40 -40 -59 -25 -22 -35
-37 -28 -44 15 -15 92 63 92 95 0 14 -4 29 -10 32 -5 3 -10 5 -11 3z"/>
<path d="M10796 8813 c-91 -98 -108 -120 -98 -127 13 -8 187 184 176 194 -5 4
-40 -25 -78 -67z"/>
<path d="M9736 8816 c-96 -55 -136 -86 -110 -86 19 0 234 126 234 138 0 18 -5
16 -124 -52z"/>
<path d="M12620 8813 c0 -19 73 -25 292 -21 184 3 232 8 217 22 -2 3 -118 6
-257 8 -190 2 -252 0 -252 -9z"/>
<path d="M3636 8781 c-3 -5 1 -12 10 -15 27 -10 44 -7 44 9 0 16 -45 21 -54 6z"/>
<path d="M4700 8703 c1 -20 31 -43 100 -78 102 -51 219 -101 259 -110 50 -11
35 14 -19 32 -71 23 -310 141 -310 152 0 6 -7 11 -15 11 -8 0 -15 -3 -15 -7z"/>
<path d="M9215 8529 c-82 -44 -159 -89 -169 -99 -31 -31 -10 -36 31 -8 35 23
157 91 258 143 36 18 59 45 38 45 -4 0 -75 -36 -158 -81z"/>
<path d="M7055 8579 c-22 -6 -48 -10 -58 -10 -10 0 -23 -9 -29 -19 -11 -17
-14 -18 -39 -3 -35 21 -56 12 -64 -29 -3 -18 -16 -62 -28 -98 -12 -36 -22 -72
-22 -80 0 -10 -8 -14 -27 -12 -30 4 -59 -9 -101 -44 l-27 -23 -73 21 c-39 11
-93 22 -119 24 -44 3 -49 1 -85 -40 -39 -45 -115 -170 -136 -225 -10 -26 -9
-37 7 -66 11 -19 25 -35 32 -35 7 0 16 -9 19 -20 4 -11 22 -41 41 -66 50 -65
42 -96 -39 -158 -73 -56 -132 -125 -118 -139 5 -5 7 -24 4 -42 -7 -43 49 -225
80 -261 23 -26 26 -26 127 -25 108 2 125 6 100 21 -11 7 -11 10 -2 10 7 0 15
-8 19 -17 3 -10 19 -32 35 -49 27 -29 28 -33 19 -75 -13 -55 -14 -149 -2 -149
5 0 11 6 14 13 3 8 11 6 27 -10 14 -13 17 -21 9 -20 -28 4 -22 -19 11 -41 40
-27 135 -55 239 -71 68 -11 76 -10 85 6 6 10 11 24 12 31 4 22 14 27 14 8 0
-33 34 -12 43 27 7 27 14 37 28 37 10 0 19 5 19 10 0 19 19 10 65 -30 49 -43
50 -43 135 -45 30 0 63 -4 73 -9 14 -7 19 -4 23 12 4 13 28 29 70 47 35 15 84
45 109 67 35 31 49 37 59 29 18 -15 27 -2 15 21 -7 13 -7 23 0 32 8 9 8 22 0
44 -12 36 -5 55 53 124 l39 46 53 -5 c66 -7 89 5 104 55 9 29 20 43 42 52 33
14 36 21 18 50 -10 15 -9 40 4 119 17 104 12 161 -14 187 -7 7 -35 21 -63 32
-49 19 -50 20 -53 66 -2 25 -7 46 -13 46 -22 0 -5 38 36 80 l46 47 -16 49
c-21 61 -88 186 -127 236 -33 43 -59 54 -88 38 -16 -9 -20 -8 -20 5 0 17 -16
20 -25 5 -3 -5 -25 -21 -49 -35 -48 -28 -103 -27 -102 3 1 10 -13 58 -29 109
-38 118 -40 119 -207 105 -68 -6 -125 -8 -128 -6 -14 15 40 24 148 24 94 0
123 3 120 13 -6 15 -233 20 -293 6z m-15 -43 c0 -2 -7 -7 -16 -10 -8 -3 -12
-2 -9 4 6 10 25 14 25 6z m263 -73 c3 -32 2 -59 -3 -61 -5 -2 -6 -10 -3 -19 5
-13 2 -15 -15 -11 -15 4 -22 2 -22 -8 0 -8 10 -14 25 -14 16 0 25 -6 25 -15 0
-10 10 -15 28 -15 16 0 37 -9 46 -19 9 -10 25 -17 35 -14 11 3 29 -8 49 -31
17 -20 34 -31 37 -26 4 6 12 10 18 8 7 -1 29 15 50 35 29 28 45 36 67 34 33
-4 48 -21 108 -124 24 -40 46 -73 50 -73 4 0 15 -13 25 -29 19 -33 24 -62 6
-44 -18 18 -59 2 -83 -33 -20 -30 -25 -32 -36 -19 -13 16 -40 20 -40 6 0 -5 7
-14 15 -21 23 -19 19 -49 -4 -43 -22 5 -21 14 -3 -146 9 -83 32 -96 32 -17 0
76 16 79 29 5 12 -73 16 -77 42 -61 17 11 27 8 69 -19 59 -38 61 -50 25 -158
-14 -41 -22 -86 -20 -100 3 -14 2 -20 -1 -13 -4 9 -12 8 -35 -5 -16 -10 -29
-22 -29 -29 0 -11 -94 -13 -106 -2 -3 3 4 24 15 45 13 26 16 44 10 54 -8 12
-10 12 -19 -1 -5 -8 -10 -20 -10 -26 0 -6 -9 -19 -20 -29 -11 -10 -17 -21 -15
-25 3 -5 -7 -22 -21 -40 -15 -17 -24 -33 -21 -37 11 -10 -13 -43 -31 -43 -16
0 -72 -57 -72 -73 0 -5 9 -5 21 -2 19 6 20 5 9 -15 -9 -17 -9 -25 4 -39 27
-30 20 -63 -21 -91 -21 -14 -64 -46 -97 -72 -67 -54 -110 -63 -122 -25 -4 12
-16 28 -26 36 -11 7 -17 20 -14 28 8 21 -22 49 -37 34 -13 -13 -37 -15 -37 -3
0 5 18 14 40 21 22 6 40 16 40 21 0 13 -16 12 -64 -1 -21 -6 -48 -12 -60 -15
-106 -20 -166 -45 -166 -70 0 -8 -6 -14 -12 -14 -8 0 -6 -5 4 -10 15 -9 14
-15 -10 -70 -17 -39 -33 -60 -44 -60 -30 0 -159 72 -181 101 -23 32 -47 38
-47 12 0 -15 -2 -15 -14 -3 -19 21 -32 154 -14 148 40 -16 57 -18 63 -9 3 6
-9 17 -27 24 -21 9 -37 25 -45 46 -6 17 -10 31 -8 31 1 0 18 -6 36 -14 113
-46 104 -21 -15 42 -49 26 -94 56 -100 67 -19 35 -56 49 -56 21 0 -19 -22 -26
-81 -26 -38 0 -49 -3 -49 -16 0 -14 8 -15 48 -10 33 5 43 4 32 -3 -8 -6 -43
-11 -77 -11 l-61 0 -10 48 c-6 26 -11 54 -11 62 0 8 -11 53 -25 100 -31 104
-31 100 -3 100 12 0 46 11 74 25 30 13 55 20 58 14 4 -5 11 -9 17 -9 7 0 8 17
4 49 -4 30 -2 52 4 56 5 3 10 16 10 28 0 12 7 35 15 51 8 15 12 32 10 37 -3 4
2 34 11 64 9 31 13 60 9 63 -4 4 -10 1 -12 -5 -8 -21 -22 -15 -73 33 l-49 46
20 42 c12 22 46 74 77 114 l56 74 40 -7 c27 -4 48 -15 62 -32 16 -20 27 -25
48 -21 25 5 25 4 11 -12 -17 -19 -20 -50 -5 -50 5 0 21 19 36 41 14 23 34 43
44 46 9 3 27 17 38 32 29 39 110 77 134 62 15 -9 18 -8 18 9 0 11 5 20 10 20
6 0 10 6 10 13 0 7 24 44 52 81 l53 69 87 -7 c54 -4 88 -3 88 3 0 10 22 18 56
20 19 1 22 -6 27 -56z m67 38 c0 -11 13 -56 30 -101 16 -45 26 -79 21 -75 -5
3 -15 22 -22 43 -6 20 -23 60 -38 87 -14 28 -27 53 -29 58 -2 4 6 7 17 7 14 0
21 -6 21 -19z m-391 -41 c-24 -32 -49 -46 -49 -27 0 23 31 57 51 57 19 0 19
-1 -2 -30z m-276 -224 c-10 -13 -19 -23 -21 -21 -5 5 22 45 31 45 4 0 0 -11
-10 -24z m-308 -43 c-29 -50 -45 -72 -45 -60 0 10 61 107 67 107 3 0 -7 -21
-22 -47z m255 43 c0 -3 -4 -8 -10 -11 -5 -3 -10 -1 -10 4 0 6 5 11 10 11 6 0
10 -2 10 -4z m-364 -206 c-1 -17 -7 -30 -13 -30 -16 0 -16 3 -1 35 14 32 15
31 14 -5z m49 -49 c-4 -14 6 -28 36 -55 24 -20 38 -36 33 -36 -5 1 -29 18 -53
39 -30 27 -42 44 -38 55 9 23 30 20 22 -3z m1442 -153 c-3 -8 -6 -5 -6 6 -1
11 2 17 5 13 3 -3 4 -12 1 -19z m113 -114 c0 -2 -7 -4 -15 -4 -8 0 -15 4 -15
10 0 5 7 7 15 4 8 -4 15 -8 15 -10z m-1510 -60 c0 -15 -55 -38 -69 -30 -6 4
-23 -1 -38 -10 -25 -16 -26 -16 -13 -1 8 9 35 29 60 45 43 28 59 27 60 -4z
m-133 -256 c-3 -8 -6 -5 -6 6 -1 11 2 17 5 13 3 -3 4 -12 1 -19z m1593 -38 c0
-13 -11 -13 -30 0 -12 8 -11 10 8 10 12 0 22 -4 22 -10z m-206 -115 c-20 -25
-39 -43 -42 -40 -3 3 2 13 11 23 9 9 25 27 37 40 36 40 32 23 -6 -23z m-1016
-33 c2 -6 -1 -12 -6 -12 -14 0 -62 40 -62 52 0 13 62 -23 68 -40z m631 -300
c-4 -2 -27 19 -52 45 -37 39 -43 49 -29 54 12 4 27 -8 52 -45 20 -28 33 -52
29 -54z m261 103 c0 -2 -10 -9 -22 -15 -22 -11 -22 -10 -4 4 21 17 26 19 26
11z m-354 -57 l29 -33 -35 30 c-19 17 -37 31 -39 33 -2 1 0 2 5 2 6 0 23 -15
40 -32z m-400 -66 c-9 -8 -46 20 -46 35 0 13 5 12 25 -7 14 -13 23 -25 21 -28z"/>
<path d="M6990 8124 c-25 -7 -84 -42 -131 -77 -74 -56 -89 -72 -116 -128 -36
-73 -55 -141 -61 -215 -4 -58 22 -214 43 -255 20 -37 192 -155 263 -180 78
-28 154 -20 247 25 39 19 81 37 95 40 14 3 58 37 98 75 67 64 74 74 92 140 25
90 25 101 -6 251 -32 155 -66 224 -138 278 -28 21 -61 44 -73 50 -31 17 -256
14 -313 -4z m7 -40 c-16 -8 -34 -13 -40 -11 -7 3 -1 9 13 15 38 16 59 13 27
-4z m246 -3 c-6 -23 16 -39 27 -20 7 10 12 10 26 -2 15 -13 12 -15 -35 -20
-52 -7 -96 -33 -85 -51 3 -5 11 -4 19 2 34 28 78 30 131 6 113 -52 192 -227
164 -364 -16 -75 -56 -148 -100 -180 -19 -15 -57 -44 -84 -66 -70 -57 -260
-112 -303 -87 -18 11 -16 12 26 15 31 2 19 23 -20 36 -48 16 -98 65 -137 132
-15 27 -33 48 -39 48 -17 0 -16 -6 4 -38 16 -25 16 -26 1 -14 -37 29 -61 102
-62 183 -1 70 10 113 21 82 12 -33 21 -7 16 45 -5 54 -3 60 32 106 44 58 37
76 -10 24 -43 -46 -85 -175 -85 -258 0 -35 8 -81 20 -111 21 -56 65 -110 84
-103 6 2 19 -9 29 -26 24 -40 15 -38 -38 11 -25 23 -45 38 -45 34 0 -24 -32
25 -45 68 -8 28 -20 54 -27 58 -16 10 -14 150 3 181 7 13 12 27 11 32 -3 10
17 64 30 81 42 57 80 91 133 120 67 38 105 47 70 17 -37 -32 -75 -83 -75 -103
0 -30 18 -22 34 14 24 57 128 137 177 137 19 0 29 5 29 15 0 11 13 15 54 15
48 0 54 -2 49 -19z m125 -36 c23 -21 52 -56 62 -79 11 -22 15 -32 8 -22 -7 11
-43 50 -80 88 -69 71 -65 77 10 13z m52 -609 c0 -2 -8 -10 -17 -17 -16 -13
-17 -12 -4 4 13 16 21 21 21 13z m-449 -104 c-7 -2 -18 1 -23 6 -8 8 -4 9 13
5 13 -4 18 -8 10 -11z"/>
<path d="M6450 7691 c-14 -28 -13 -76 4 -116 17 -39 44 -50 30 -12 -4 12 -8
50 -8 85 0 64 -8 76 -26 43z"/>
<path d="M10490 8463 c-19 -31 -52 -83 -72 -116 -21 -33 -38 -67 -38 -74 0
-22 20 -14 30 12 5 14 37 66 70 115 69 103 78 120 59 120 -8 0 -30 -26 -49
-57z"/>
<path d="M1612 8445 c-29 -36 -60 -65 -68 -65 -8 0 -14 -4 -14 -10 0 -5 10
-10 23 -10 17 0 38 19 75 65 49 61 62 85 45 85 -5 0 -32 -29 -61 -65z"/>
<path d="M5260 8422 c0 -13 41 -47 90 -75 48 -27 182 -77 206 -77 30 0 12 20
-28 31 -59 15 -185 74 -224 104 -35 27 -44 30 -44 17z"/>
<path d="M1671 8299 c-112 -10 -296 -42 -406 -71 -44 -11 -120 -23 -170 -27
-52 -3 -89 -10 -87 -16 5 -18 154 -8 257 18 218 56 442 87 616 87 53 0 89 4
89 10 0 12 -160 11 -299 -1z"/>
<path d="M8747 8251 c-79 -38 -105 -56 -95 -66 7 -7 198 85 198 96 0 16 -23 9
-103 -30z"/>
<path d="M5809 8152 c5 -9 18 -25 29 -35 24 -22 170 -87 195 -87 30 0 18 18
-20 31 -59 19 -146 65 -167 88 -24 26 -51 29 -37 3z"/>
<path d="M14395 8114 c-11 -2 -45 -9 -75 -15 -67 -14 -144 -54 -166 -86 -13
-21 -14 -30 -4 -54 15 -36 31 -28 24 11 -5 25 -1 32 32 54 62 40 122 57 226
63 210 12 378 -61 378 -166 0 -42 -51 -121 -77 -121 -21 0 -10 55 18 93 24 33
20 44 -10 28 -13 -7 -27 -34 -39 -73 -17 -60 -19 -63 -57 -71 -22 -5 -107 -7
-190 -4 -133 3 -158 7 -218 30 -37 14 -78 34 -92 44 -26 19 -33 49 -12 56 6 2
8 8 4 13 -12 12 -41 -10 -45 -33 -7 -47 109 -110 244 -134 65 -11 265 -8 324
6 15 3 8 -3 -17 -17 -44 -23 -58 -44 -23 -35 11 3 20 1 20 -4 0 -5 -3 -9 -8
-9 -4 0 -37 -29 -74 -64 l-66 -63 -91 -12 c-91 -11 -217 -6 -227 10 -3 5 4 9
15 9 12 0 21 5 21 10 0 16 -56 12 -70 -6 -11 -12 -11 -18 1 -29 17 -17 290
-85 341 -85 21 0 38 -3 38 -7 0 -3 -22 -30 -50 -59 -27 -29 -50 -58 -50 -65 0
-8 -16 -10 -57 -5 -111 12 -212 61 -185 87 16 17 15 29 -3 29 -9 0 -21 -12
-27 -26 -11 -24 -9 -29 14 -49 15 -13 53 -33 85 -45 74 -28 231 -32 307 -7
l50 16 -82 -75 c-45 -42 -82 -82 -82 -90 0 -22 18 -16 36 12 29 44 217 195
229 183 11 -12 5 -17 -158 -151 -114 -95 -116 -96 -212 -76 -41 8 -59 16 -63
30 -2 10 -8 18 -12 18 -14 0 -32 -30 -27 -44 7 -17 120 -44 223 -53 66 -5 73
-8 61 -21 -51 -51 -347 -2 -424 70 -29 27 -29 32 4 63 26 23 26 25 7 25 -51 0
-71 -70 -31 -108 59 -56 182 -90 353 -98 118 -6 136 -5 197 15 64 22 86 36 73
48 -3 3 -23 -2 -46 -11 -50 -20 -64 -20 -28 0 16 8 48 18 73 23 l45 8 5 -36
c4 -20 7 -42 8 -50 1 -8 8 -16 15 -19 11 -3 12 7 7 51 l-7 56 38 10 c22 5 54
12 71 16 32 6 50 21 40 31 -3 3 -22 1 -43 -4 -22 -6 -54 -13 -73 -16 l-34 -6
5 117 4 116 34 28 c38 32 34 51 -5 25 -23 -15 -25 -15 -25 0 0 9 14 29 31 45
34 32 34 48 0 29 -20 -10 -21 -9 -21 62 0 62 3 75 20 86 11 7 20 17 20 23 0 6
-9 8 -20 4 -19 -6 -20 -2 -20 55 0 45 4 62 15 66 8 4 15 11 15 18 0 6 25 25
56 41 50 27 97 65 81 65 -4 0 -35 -16 -70 -35 -35 -19 -66 -35 -69 -35 -3 0 2
20 10 44 15 42 15 45 -9 92 -29 58 -92 97 -203 126 -63 16 -169 22 -221 12z
m351 -431 c-4 -32 -13 -65 -21 -73 -13 -12 -15 -7 -15 46 0 56 11 84 33 84 6
0 7 -24 3 -57z m-66 -37 c0 -51 -7 -55 -90 -66 l-54 -7 64 59 c36 32 68 58 72
58 5 0 8 -20 8 -44z m60 -146 c0 -56 -3 -70 -15 -70 -12 0 -15 14 -15 70 0 56
3 70 15 70 12 0 15 -14 15 -70z m-106 38 c-44 -33 -53 -36 -19 -6 16 15 34 28
39 28 5 0 -4 -10 -20 -22z m-71 -23 c-31 -39 -34 -40 -119 -24 -66 12 -95 29
-48 29 16 0 39 3 52 6 16 5 22 2 22 -10 0 -22 13 -20 27 3 11 18 32 26 76 30
15 1 13 -5 -10 -34z m96 -145 c-19 -16 -41 -27 -50 -24 -9 2 -43 -2 -75 -11
-69 -18 -84 -19 -84 -4 0 17 112 119 138 125 12 4 22 12 22 19 0 8 15 25 33
39 l32 26 9 -71 8 -71 -33 -28z m81 8 c0 -18 -2 -20 -9 -8 -6 8 -7 18 -5 22 9
14 14 9 14 -14z m-2 -178 c-3 -72 -4 -75 -28 -76 -14 -1 -43 -4 -65 -8 l-40
-7 28 18 c15 10 27 21 27 25 0 15 -27 8 -60 -17 -24 -18 -47 -25 -78 -25 l-45
0 19 21 c10 12 64 57 119 101 92 73 100 78 113 61 8 -12 12 -43 10 -93z m-151
-126 c-3 -3 -12 -4 -19 -1 -8 3 -5 6 6 6 11 1 17 -2 13 -5z"/>
<path d="M10234 8067 c-16 -27 -57 -91 -91 -143 -61 -93 -72 -114 -55 -114 9
0 138 192 166 248 28 54 11 61 -20 9z"/>
<path d="M8280 8024 c-165 -86 -262 -154 -221 -154 5 0 49 25 97 56 49 30 126
73 172 95 45 21 82 43 82 49 0 18 -24 10 -130 -46z"/>
<path d="M11970 7895 c0 -73 -36 -136 -159 -280 -66 -77 -145 -160 -177 -185
-32 -25 -97 -79 -145 -121 -121 -105 -325 -239 -482 -314 -73 -35 -143 -66
-156 -70 l-24 -7 7 78 c3 44 12 103 18 132 13 60 26 65 82 31 l35 -20 66 20
c37 12 89 21 116 21 37 0 49 4 49 15 0 22 -83 19 -163 -5 l-66 -20 -38 20
c-40 20 -95 20 -134 0 -27 -15 -24 -33 4 -26 l22 5 -14 -129 c-14 -120 -17
-129 -38 -133 -12 -2 -27 1 -32 6 -7 7 -15 6 -25 -2 -9 -8 -27 -10 -46 -6 -23
5 -30 3 -30 -9 0 -12 10 -16 35 -16 l36 0 -7 -52 c-3 -29 -15 -116 -25 -193
-27 -196 -36 -369 -19 -363 9 3 14 31 16 88 5 114 10 130 37 130 12 0 50 16
85 34 l63 34 -37 -41 c-21 -23 -49 -53 -62 -67 -36 -36 -61 -80 -55 -96 7 -19
47 -18 86 2 l31 17 -42 -51 c-40 -47 -52 -72 -34 -72 4 0 27 25 52 55 l45 55
3 -76 c2 -42 0 -79 -3 -82 -3 -3 -38 0 -78 6 -107 18 -106 18 -107 7 -2 -13
81 -33 142 -34 33 -1 50 -6 57 -18 8 -14 12 -15 19 -5 7 10 89 17 327 28 175
8 320 12 322 10 2 -2 -21 -19 -51 -37 -53 -32 -68 -49 -46 -49 15 0 67 28 117
61 49 34 136 42 147 14 5 -13 9 -14 28 -3 13 6 41 12 63 13 100 2 651 -38
1237 -90 92 -8 234 -16 315 -19 l148 -5 -120 10 c-66 6 -296 26 -512 45 -216
19 -410 34 -432 34 -22 0 -42 4 -45 9 -8 12 24 52 103 134 l66 68 5 -82 c3
-51 10 -84 17 -86 8 -3 13 29 16 114 9 209 14 287 22 336 4 30 4 47 -3 47 -15
0 -21 -24 -34 -131 l-11 -98 -86 -51 -86 -52 73 69 c39 37 72 74 72 81 0 20
-47 14 -100 -13 -28 -14 -50 -23 -50 -21 0 3 26 23 58 45 91 63 128 98 117
110 -7 7 -43 -9 -117 -53 l-107 -64 70 78 c39 43 80 92 92 109 18 25 29 31 60
31 20 0 37 -5 37 -11 0 -7 14 -9 43 -4 67 11 457 15 457 5 0 -5 -7 -15 -16
-22 -23 -19 -51 -48 -80 -83 -14 -18 -21 -22 -17 -11 4 13 2 17 -8 14 -22 -7
-48 -109 -59 -231 -6 -62 -15 -141 -20 -177 -6 -41 -5 -69 0 -74 7 -7 33 -5
72 3 55 11 63 11 74 -3 12 -17 34 -22 34 -8 0 17 -37 42 -61 42 -13 0 -39 -4
-57 -9 -48 -14 -42 10 20 75 l52 56 9 -26 c13 -39 27 -31 27 15 0 30 8 50 31
79 35 44 34 70 -4 63 l-24 -5 13 94 c7 51 19 120 26 153 13 57 15 60 46 63 37
4 44 22 8 22 -13 0 -26 6 -29 13 -3 8 -8 9 -16 1 -6 -6 -25 -9 -41 -6 -35 5
-37 15 -15 117 20 92 20 235 1 235 -17 0 -26 -43 -26 -121 0 -56 -18 -210 -25
-218 -9 -9 -151 44 -255 95 -190 93 -371 228 -451 336 -42 56 -48 70 -40 87
14 26 14 31 -4 31 -8 0 -15 -6 -15 -12 -1 -20 -45 38 -94 122 -53 90 -117 266
-121 335 -6 77 -25 145 -41 145 -9 0 -14 -11 -14 -35z m-25 -222 c-64 -160
-85 -222 -85 -249 0 -13 -12 -36 -27 -52 -16 -15 -25 -23 -20 -18 10 13 9 26
-2 26 -5 0 -28 -26 -52 -57 -70 -94 -390 -409 -455 -449 l-59 -36 -128 6
c-181 9 -187 14 -87 59 87 39 382 226 490 310 36 28 67 52 69 54 2 2 1 6 -2
10 -4 3 -39 -19 -79 -50 -183 -139 -570 -358 -631 -356 -12 0 -31 4 -42 8 -16
6 -9 11 35 26 151 49 486 249 621 371 36 32 99 87 141 121 93 75 290 299 326
368 43 86 36 31 -13 -92z m104 -83 c0 -3 -7 8 -15 24 -11 20 -19 25 -26 18 -8
-8 -8 -15 0 -25 6 -7 27 -103 47 -213 59 -330 108 -476 192 -574 20 -23 29
-40 21 -40 -7 0 -125 10 -261 22 l-248 22 5 26 c3 14 14 77 26 140 73 404 79
422 79 242 1 -130 22 -262 42 -262 13 0 11 18 -6 74 -17 54 -20 251 -6 324 5
24 23 61 40 82 38 47 41 73 5 39 -24 -22 -26 -22 -21 -4 3 11 11 39 17 62 15
59 48 162 56 175 6 9 53 -109 53 -132z m82 -170 c18 -30 46 -72 61 -93 l27
-39 -19 -48 c-11 -27 -15 -52 -10 -55 9 -6 -28 -105 -40 -105 -9 0 -101 459
-100 496 1 5 11 -16 24 -46 12 -30 38 -80 57 -110z m-307 -128 c-4 -21 -12
-32 -24 -32 -9 0 -30 -10 -46 -22 -19 -15 -12 -3 20 34 27 32 51 56 53 54 2
-1 0 -17 -3 -34z m486 -124 c22 -26 40 -51 40 -55 0 -5 -22 -31 -50 -58 -55
-55 -62 -46 -25 32 30 65 17 78 -33 31 -71 -66 -74 -64 -33 23 24 51 35 88 30
94 -5 5 -9 14 -9 20 1 5 10 -1 21 -15 11 -14 38 -46 59 -72z m-516 -13 c-10
-49 -21 -75 -37 -88 -56 -44 -349 -228 -358 -225 -6 2 21 31 61 63 40 33 78
65 84 71 6 6 51 39 99 73 82 58 103 81 75 81 -7 0 10 22 37 50 27 27 50 48 51
47 1 -1 -4 -34 -12 -72z m440 -100 c-7 -19 -14 -41 -14 -49 0 -18 35 -27 51
-12 7 6 1 -4 -14 -22 -52 -64 -19 -87 41 -29 l34 32 -16 -32 c-21 -42 -21 -73
0 -73 10 0 37 16 60 36 24 19 44 32 44 29 0 -4 -18 -32 -40 -62 -43 -60 -53
-97 -22 -86 9 3 48 31 86 61 38 31 65 49 61 41 -5 -8 -19 -29 -32 -48 -13 -19
-23 -40 -23 -47 0 -26 51 -14 111 26 62 43 68 41 45 -15 l-15 -35 -132 0 -132
0 -44 45 c-39 42 -113 169 -113 196 0 9 66 76 77 79 1 0 -5 -16 -13 -35z m158
28 c2 -5 -23 -35 -56 -68 l-58 -60 48 68 c47 64 59 76 66 60z m373 -232 c72
-33 155 -67 185 -75 l55 -15 -142 0 c-94 -1 -143 3 -145 10 -3 8 -16 8 -47 -1
-24 -6 -45 -9 -48 -6 -3 3 3 25 12 50 30 78 4 85 -87 26 -34 -22 -63 -38 -66
-36 -2 2 13 28 32 56 67 97 42 105 -65 23 -81 -63 -81 -66 6 50 27 36 33 67
13 67 -7 0 -39 -20 -70 -45 -32 -25 -60 -45 -63 -45 -4 0 13 35 36 78 l42 79
111 -78 c67 -47 163 -102 241 -138z m-1205 186 c0 -1 -24 -25 -52 -52 l-53
-50 50 53 c46 48 55 57 55 49z m204 -44 c-5 -19 -100 -80 -110 -71 -2 3 22 25
53 51 32 25 58 45 60 44 1 -2 0 -12 -3 -24z m-22 -118 l-8 -40 -69 -3 c-39 -2
-99 0 -135 3 l-64 7 29 22 c16 11 45 31 66 44 36 21 37 21 32 2 -9 -33 22 -34
89 -3 69 32 73 30 60 -32z m-332 28 c0 -5 -13 -17 -28 -27 l-27 -19 24 26 c26
28 31 32 31 20z m-655 -53 c5 -8 11 -7 21 1 26 22 16 -15 -17 -59 -17 -24 -32
-42 -33 -40 -1 2 0 27 2 56 4 50 13 64 27 42z m124 -17 c7 -13 12 -14 23 -6 9
8 36 9 88 3 41 -5 114 -9 163 -10 87 0 98 -4 75 -29 -11 -11 -8 -13 14 -9 34
6 40 -14 16 -62 -19 -39 -54 -263 -66 -415 l-7 -100 -159 -3 -159 -3 6 168 c5
123 11 173 22 190 12 18 13 27 3 42 -9 15 -9 34 4 93 9 40 19 81 23 91 5 12 2
17 -8 17 -15 0 -33 -63 -52 -181 -5 -32 -12 -39 -80 -74 -41 -21 -78 -35 -81
-32 -9 9 18 47 87 124 33 36 64 74 69 84 18 32 -10 32 -55 0 -46 -33 -65 -39
-65 -18 0 17 38 77 47 75 17 -3 43 15 43 31 0 17 18 41 32 41 4 0 11 -8 17
-17z m829 -27 c1 -2 -2 -16 -8 -31 -13 -35 -40 -269 -40 -352 0 -93 16 -76 24
25 12 161 30 299 36 268 9 -53 27 -41 27 19 0 30 3 59 7 62 11 12 548 -36 564
-50 12 -9 16 -9 19 1 5 13 33 17 33 4 0 -11 -60 -67 -87 -81 -13 -6 -22 -17
-20 -23 1 -6 -3 -12 -10 -15 -8 -3 -13 12 -15 44 -2 26 -7 47 -13 45 -6 -1
-10 -68 -10 -175 0 -164 -1 -174 -22 -196 -24 -25 -22 -44 2 -34 12 4 15 -5
15 -42 0 -47 -14 -58 -32 -22 -4 9 -12 25 -18 35 -84 147 -130 286 -130 389 0
77 -16 81 -37 10 -14 -48 -27 -64 -21 -25 2 11 -2 23 -8 25 -7 2 -21 -24 -34
-64 -48 -150 -126 -247 -286 -356 l-71 -49 -182 -5 c-177 -6 -181 -6 -181 14
0 12 7 23 15 27 12 4 15 26 15 103 0 124 23 299 46 349 9 22 18 43 18 48 1 4
28 21 61 37 60 28 61 29 200 23 77 -3 141 -7 143 -8z m752 -60 c0 -2 -16 -14
-35 -26 -43 -26 -70 -16 -28 11 25 17 63 26 63 15z m-19 -53 c-6 -10 -53 -63
-105 -118 l-95 -100 -1 51 c0 47 2 53 29 63 15 7 61 37 102 66 41 30 75 55 77
55 1 0 -2 -8 -7 -17z m-1691 -63 c-24 -28 -45 -49 -47 -46 -2 2 -1 20 2 40 6
28 12 36 29 36 11 0 28 5 36 10 26 17 23 12 -20 -40z m2320 43 c-1 -5 -9 -62
-18 -128 -17 -117 -18 -120 -51 -142 -50 -34 -56 -28 -21 23 22 31 30 52 26
68 -4 16 1 29 14 41 33 30 25 51 -17 46 -7 -1 2 21 20 48 29 45 48 63 47 44z
m-1056 -108 c5 -22 4 -26 -4 -15 -5 8 -10 24 -10 34 0 26 6 18 14 -19z m977
-31 c-13 -17 -19 -35 -15 -49 4 -15 -3 -31 -21 -51 l-26 -29 6 40 c12 82 17
96 38 105 36 14 39 11 18 -16z m-673 -63 c-53 -51 -74 -65 -77 -53 -2 9 4 21
14 27 9 5 42 29 73 52 32 23 59 43 60 43 2 0 -29 -31 -70 -69z m122 -8 c-108
-95 -162 -151 -156 -162 9 -14 32 -4 101 44 84 59 155 99 162 91 7 -6 -7 -23
-113 -136 -33 -36 -69 -77 -78 -92 -13 -20 -27 -28 -47 -28 -16 0 -29 4 -29 9
0 5 -11 12 -24 15 -20 5 -24 11 -21 34 2 15 4 45 4 67 1 36 7 45 66 95 55 47
173 120 193 120 4 0 -22 -26 -58 -57z m-1588 -11 c-3 -45 -5 -48 -45 -64 -70
-29 -77 -31 -77 -21 0 11 109 133 118 133 4 0 6 -21 4 -48z m1139 21 c-5 -10
-17 -27 -26 -38 -16 -19 -17 -19 -3 5 26 46 29 50 34 50 3 0 0 -8 -5 -17z
m130 -208 c19 -21 47 -47 64 -58 l30 -19 -85 6 c-47 3 -134 8 -193 12 -96 6
-107 9 -94 22 21 20 66 23 92 6 20 -13 25 -12 47 6 23 17 27 18 38 5 17 -21
43 -19 71 5 l24 19 -32 1 c-30 0 -31 1 -26 39 6 47 -9 59 -38 30 l-21 -21 7
31 c4 19 2 37 -4 45 -9 10 -8 21 1 41 12 28 13 27 49 -52 20 -43 52 -97 70
-118z m-200 168 c-12 -23 -115 -133 -105 -113 15 30 95 130 105 130 6 0 6 -6
0 -17z m1159 -28 c-7 -9 -15 -13 -19 -10 -3 3 1 10 9 15 21 14 24 12 10 -5z
m-104 -111 l-56 -54 1 48 c0 47 1 47 52 73 50 24 52 24 55 6 3 -13 -15 -37
-52 -73z m-1136 -39 c-39 -40 -56 -46 -39 -12 20 39 52 68 63 57 7 -7 -1 -21
-24 -45z m-156 -6 c-3 -6 0 -15 7 -20 9 -6 1 -9 -26 -9 l-40 0 30 20 c35 23
39 24 29 9z"/>
<path d="M11466 6731 c-20 -26 -68 -79 -107 -116 -91 -85 -80 -104 20 -35 40
28 92 65 114 84 75 59 71 51 -41 -98 -62 -81 -112 -156 -112 -166 0 -15 7 -20
29 -20 25 0 77 31 170 104 21 16 7 -6 -50 -79 -54 -70 -73 -104 -64 -113 7 -7
16 3 83 94 23 33 56 75 73 94 l31 35 -7 -49 c-5 -38 -4 -47 7 -44 8 3 17 37
24 95 6 49 17 113 24 142 12 52 7 79 -10 51 -11 -18 -30 -102 -30 -135 0 -19
-9 -28 -36 -40 -20 -8 -66 -37 -103 -64 -76 -55 -111 -76 -111 -63 0 5 54 80
120 167 66 86 120 164 120 171 0 24 -26 15 -86 -29 -89 -65 -92 -66 -46 -8 23
30 42 58 42 62 0 21 -21 6 -54 -40z"/>
<path d="M14076 7828 c-3 -13 -7 -32 -8 -43 -2 -11 -13 -24 -26 -30 -25 -11
-24 -32 3 -27 16 3 17 -10 10 -226 -7 -206 -3 -283 12 -268 3 2 6 42 8 88 9
303 19 478 27 478 14 0 5 43 -9 47 -7 3 -15 -6 -17 -19z"/>
<path d="M9868 7568 c-51 -62 -158 -228 -158 -244 0 -29 17 -11 77 84 34 54
80 119 103 144 43 50 47 58 26 58 -7 0 -29 -19 -48 -42z"/>
<path d="M2967 7423 c-40 -201 -60 -403 -61 -610 l-1 -183 -420 2 c-349 2
-442 -1 -550 -15 -215 -28 -275 -39 -275 -50 0 -12 60 -7 285 23 141 19 218
21 650 24 421 2 496 5 530 18 22 9 59 19 83 22 42 6 42 6 40 -22 -3 -38 34
-87 83 -112 32 -17 39 -26 39 -50 0 -59 70 -89 144 -60 22 8 26 16 26 49 0 79
-27 99 -32 24 l-3 -48 -44 -3 c-49 -4 -56 1 -65 41 -5 20 -3 27 9 27 20 0 19
16 -1 24 -8 3 -12 11 -9 16 4 6 -16 32 -44 58 -31 29 -51 57 -51 69 0 21 -3
22 -92 18 -70 -3 -92 -7 -90 -17 2 -9 0 -10 -6 -3 -5 6 -13 31 -16 58 -6 35
-4 47 6 47 19 1 64 37 55 46 -4 4 -17 2 -30 -4 -12 -6 -31 -11 -42 -9 -18 2
-20 -3 -16 -58 2 -32 7 -69 11 -81 8 -19 5 -22 -28 -28 -69 -11 -119 -7 -126
10 -25 66 20 610 69 815 17 72 19 99 7 99 -4 0 -20 -62 -35 -137z m338 -823
c16 -17 16 -20 3 -15 -9 4 -19 13 -22 21 -7 19 -2 18 19 -6z m55 -50 c0 -13
-11 -13 -30 0 -12 8 -11 10 8 10 12 0 22 -4 22 -10z"/>
<path d="M2290 7533 c-19 -2 -89 -13 -155 -24 -116 -19 -271 -33 -537 -48
-121 -7 -150 -13 -135 -28 6 -5 316 12 392 23 41 6 -55 -23 -138 -41 -38 -8
-84 -15 -103 -15 -40 0 -46 -15 -9 -23 34 -6 131 12 295 56 147 40 83 35 848
66 106 5 196 12 200 16 4 4 -76 5 -178 2 -415 -14 -545 -16 -500 -7 25 5 77 9
117 9 39 1 75 6 78 11 6 10 -96 12 -175 3z"/>
<path d="M8248 7453 c-53 -9 -28 -23 41 -23 41 0 95 -8 132 -20 35 -10 65 -17
67 -15 28 27 -157 73 -240 58z"/>
<path d="M2160 7391 c-91 -24 -231 -116 -270 -178 -17 -26 -30 -56 -30 -67 0
-11 -8 -28 -17 -38 -19 -21 -22 -79 -9 -173 7 -56 11 -63 66 -115 33 -30 99
-77 147 -103 74 -41 96 -49 138 -48 76 1 279 76 272 100 -1 5 14 29 34 53 44
53 57 76 74 136 28 96 20 208 -22 314 -18 44 -38 52 -29 11 7 -26 6 -26 -17 7
-14 20 -42 48 -63 62 -88 61 -155 71 -274 39z m202 -31 c44 -13 120 -84 135
-127 l11 -31 -151 -4 c-140 -5 -156 -7 -204 -32 -29 -14 -61 -38 -72 -52 l-20
-25 -19 38 c-39 76 -37 94 10 140 80 78 216 119 310 93z m-348 -285 c56 -114
87 -146 160 -169 l55 -18 -37 -49 c-39 -52 -51 -56 -135 -42 -32 5 -39 11 -44
34 -6 32 -20 38 -25 12 -2 -12 -16 7 -37 50 -32 63 -34 72 -28 142 3 44 13 86
23 105 10 16 19 30 20 30 1 0 22 -43 48 -95z m475 61 c44 -16 66 -69 49 -119
-15 -45 -54 -94 -89 -112 -28 -15 -33 -39 -6 -30 7 3 19 1 27 -5 12 -7 11 -13
-10 -36 -38 -41 -117 -74 -175 -73 l-50 0 51 18 c67 25 114 49 114 61 0 13 -1
13 -51 -10 -24 -11 -49 -20 -56 -20 -6 0 9 39 34 86 44 84 45 87 41 159 l-5
73 36 -12 c63 -22 111 -27 111 -10 0 8 -10 14 -22 15 -13 0 -41 6 -63 14 l-40
13 35 0 c19 0 50 -5 69 -12z m-588 -55 c-5 -30 -6 -62 -4 -72 3 -11 0 -19 -6
-19 -14 0 -14 62 1 111 15 53 19 44 9 -20z m231 36 c-7 -7 -18 -29 -26 -48
-15 -33 -15 -33 -16 -7 0 16 9 36 22 48 25 23 36 27 20 7z m202 -3 c3 -9 6
-40 6 -69 0 -45 -3 -54 -17 -52 -15 1 -18 12 -18 69 -1 46 3 68 11 68 7 0 15
-7 18 -16z m-54 -23 c5 -11 10 -32 10 -48 0 -26 -2 -25 -19 13 -11 23 -25 44
-32 47 -8 3 -5 6 8 6 12 1 27 -8 33 -18z m-36 -33 c34 -48 12 -104 -31 -79
-10 6 -12 11 -5 11 25 0 11 19 -23 30 -33 11 -46 36 -28 53 16 16 72 6 87 -15z
m16 -129 c0 -11 -60 -12 -77 -1 -7 4 7 8 32 9 25 1 45 -3 45 -8z m-314 -97
c-7 -6 -46 60 -46 78 0 8 12 -5 25 -29 14 -24 23 -46 21 -49z m318 8 c-15 -22
-29 -40 -31 -40 -5 0 3 15 29 53 30 43 31 32 2 -13z m-134 -87 c-1 -25 -17
-34 -43 -22 -37 17 -34 29 8 29 19 0 35 -3 35 -7z m136 -23 c8 0 14 -4 14 -9
0 -9 -71 -24 -78 -16 -10 9 22 36 35 30 8 -3 21 -5 29 -5z"/>
<path d="M2886 7398 c-2 -7 -9 -98 -15 -203 -14 -238 -15 -495 -1 -495 6 0 10
43 10 108 0 97 7 226 26 505 5 71 3 97 -5 97 -6 0 -13 -6 -15 -12z"/>
<path d="M1534 7363 c-12 -27 -17 -771 -4 -753 8 12 10 9 10 -13 0 -16 5 -27
10 -25 7 2 12 75 14 198 2 107 7 261 11 343 6 100 5 147 -2 147 -7 0 -14 -60
-20 -152 -8 -130 -10 -139 -11 -63 -1 107 12 293 23 318 5 12 3 17 -8 17 -8 0
-19 -8 -23 -17z"/>
<path d="M8728 7334 c-10 -3 -18 -11 -18 -17 0 -8 20 -12 58 -12 46 0 72 -7
134 -37 84 -42 88 -43 88 -28 0 6 -37 29 -82 50 -81 38 -145 54 -180 44z"/>
<path d="M3455 7217 c-8 -13 -19 -37 -25 -54 -13 -37 -33 -42 -167 -39 -108 3
-105 7 -74 -104 17 -63 17 -65 -1 -97 -22 -36 -21 -104 1 -111 11 -4 12 2 7
23 -7 28 9 95 24 95 4 0 11 -11 14 -25 9 -37 26 -30 26 10 0 23 5 35 14 35 19
0 63 37 54 46 -4 4 -14 1 -23 -6 -9 -7 -18 -10 -22 -7 -3 4 8 14 26 24 17 10
31 21 31 26 0 15 -34 6 -66 -18 -33 -25 -33 -25 -44 -5 -6 12 -10 31 -8 43 3
18 13 23 74 32 l72 11 -10 -25 c-10 -28 -3 -71 12 -71 6 0 10 15 10 33 0 33
24 67 48 67 6 0 15 12 18 28 4 15 13 39 21 55 13 25 18 27 77 27 l64 0 4 -34
c3 -30 0 -36 -19 -41 -14 -3 -23 -13 -23 -25 0 -21 15 -27 25 -10 21 34 109
-28 98 -69 -4 -16 -1 -21 16 -21 11 0 21 5 21 11 0 30 63 51 73 25 7 -16 -24
-39 -65 -50 -34 -8 -35 -20 -6 -40 21 -15 23 -15 29 1 9 24 66 57 74 43 3 -5
2 -10 -4 -10 -6 0 -26 -14 -45 -30 -26 -23 -34 -38 -33 -58 2 -24 6 -27 32
-24 17 2 50 13 75 25 41 20 45 25 44 58 -1 32 3 37 32 48 38 14 47 37 12 27
-13 -3 -41 -9 -63 -12 -33 -5 -38 -4 -27 7 18 20 15 31 -9 24 -15 -5 -22 -2
-26 14 -6 23 -45 29 -73 12 -10 -7 -18 -4 -27 8 -7 10 -28 26 -48 35 -31 15
-35 21 -35 57 0 48 -21 59 -110 59 -51 0 -62 -3 -75 -23z m425 -263 c0 -14
-32 -31 -89 -49 -32 -10 -20 8 31 45 41 30 58 31 58 4z"/>
<path d="M5829 7210 c-19 -5 -61 -19 -93 -31 -74 -27 -61 -46 15 -21 30 11 78
25 107 32 28 6 55 16 58 21 6 11 -38 10 -87 -1z"/>
<path d="M9272 7149 c2 -6 26 -13 53 -15 27 -2 78 -13 112 -24 70 -22 83 -24
83 -11 0 5 -35 21 -78 35 -79 27 -177 35 -170 15z"/>
<path d="M13200 7153 c-8 -3 -27 -14 -42 -25 -15 -10 -35 -18 -44 -16 -9 2
-19 -3 -21 -9 -4 -12 15 -18 47 -13 8 1 27 11 41 21 37 26 59 24 59 -5 0 -13
9 -35 21 -50 26 -34 62 -34 163 -1 44 14 100 25 131 25 30 0 55 5 55 10 0 19
-145 11 -201 -11 -58 -22 -118 -22 -129 1 -4 8 -12 29 -17 45 -8 30 -31 40
-63 28z"/>
<path d="M5415 7124 c-116 -43 -244 -84 -260 -84 -8 0 -15 -5 -15 -11 0 -22
92 -1 225 49 71 28 131 55 133 61 5 16 -4 14 -83 -15z"/>
<path d="M8210 7084 c0 -19 193 -259 214 -267 27 -11 18 14 -21 57 -21 23 -68
81 -106 129 -58 76 -87 102 -87 81z"/>
<path d="M13789 7046 c-186 -112 -467 -318 -518 -380 -11 -13 -11 -16 0 -16 8
0 55 34 104 76 50 42 178 134 285 206 107 71 197 134 198 139 6 16 -12 10 -69
-25z"/>
<path d="M9468 6981 c-96 -92 -141 -151 -116 -151 8 0 31 22 52 50 21 27 69
77 107 111 65 58 81 79 59 79 -5 0 -51 -40 -102 -89z"/>
<path d="M9788 7035 c-16 -16 6 -25 60 -25 32 0 85 -7 117 -16 93 -25 112 -28
100 -15 -31 32 -256 78 -277 56z"/>
<path d="M4890 7005 c-25 -7 -57 -16 -72 -19 -31 -7 -38 -26 -10 -26 28 0 162
42 162 51 0 12 -26 10 -80 -6z"/>
<path d="M3473 6980 c-64 -26 -123 -88 -123 -130 0 -21 -8 -34 -27 -47 -16 -9
-30 -18 -32 -19 -1 -2 0 -7 4 -13 4 -8 12 -8 26 -1 17 10 19 7 19 -20 0 -17 6
-45 14 -63 15 -37 73 -90 87 -81 16 9 10 20 -17 32 -27 13 -68 91 -62 120 3
12 10 4 23 -23 52 -106 245 -114 329 -14 24 28 29 30 37 17 5 -9 20 -19 34
-22 23 -6 25 -11 25 -66 0 -56 -2 -61 -26 -70 -14 -6 -41 -10 -60 -10 -25 0
-34 -4 -34 -16 0 -14 8 -16 56 -11 83 9 95 24 92 116 l-3 75 -37 9 c-37 9 -37
9 -24 35 24 47 29 72 14 72 -7 0 -20 -17 -30 -38 l-16 -37 -1 35 c-2 59 -21
110 -55 148 -31 33 -39 36 -97 39 -47 2 -78 -3 -116 -17z m153 -45 c32 -21 42
-91 20 -138 -27 -55 -66 -86 -119 -93 -40 -6 -47 -4 -42 9 5 11 -2 17 -24 22
-24 5 -33 14 -39 38 -5 18 -8 33 -7 35 1 1 40 18 86 37 46 19 85 39 87 45 6
16 -13 12 -103 -24 -47 -19 -85 -32 -85 -30 0 18 44 86 63 95 56 31 121 32
163 4z m89 -141 c-9 -52 -24 -72 -71 -94 -57 -28 -77 -25 -28 5 41 24 84 81
84 111 0 8 5 14 11 14 7 0 9 -12 4 -36z m-168 -120 c-3 -3 -12 -4 -19 -1 -8 3
-5 6 6 6 11 1 17 -2 13 -5z"/>
<path d="M4292 6839 c-101 -26 -186 -50 -189 -53 -25 -25 63 -9 290 51 62 17
97 31 97 39 0 8 -3 13 -7 13 -5 -1 -90 -23 -191 -50z"/>
<path d="M3814 6846 c-6 -17 2 -36 17 -36 12 0 12 37 -1 45 -6 3 -13 -1 -16
-9z"/>
<path d="M13546 6779 c-67 -43 -144 -105 -198 -158 -75 -74 -88 -91 -88 -120
0 -37 22 -39 25 -2 2 25 123 153 200 210 28 21 83 57 123 80 68 41 88 61 60
61 -7 0 -62 -32 -122 -71z"/>
<path d="M10330 6826 c0 -12 9 -16 38 -16 20 0 75 -14 122 -30 92 -33 100 -34
100 -21 0 14 -156 71 -211 78 -41 5 -49 3 -49 -11z"/>
<path d="M3670 6630 c0 -11 -19 -41 -41 -65 -31 -33 -37 -45 -24 -45 26 0 85
64 85 93 0 14 -4 29 -10 32 -5 3 -10 -3 -10 -15z"/>
<path d="M7134 6629 c-4 -7 -9 -94 -12 -193 -6 -236 12 -226 25 14 9 164 6
209 -13 179z"/>
<path d="M8590 6632 c0 -5 12 -19 26 -33 14 -13 47 -51 72 -84 59 -79 123
-145 139 -145 20 0 16 10 -21 46 -19 18 -56 62 -82 96 -62 83 -105 128 -121
128 -7 0 -13 -4 -13 -8z"/>
<path d="M2155 6579 c-66 -4 -167 -15 -225 -23 -322 -44 -562 -76 -612 -81
-32 -4 -58 -11 -58 -16 0 -13 35 -11 187 9 117 16 130 16 123 2 -14 -25 -169
-174 -247 -237 -185 -150 -418 -361 -409 -370 3 -3 12 0 20 7 14 10 15 4 9
-54 -7 -80 11 -92 21 -13 13 96 12 94 74 102 31 3 120 15 197 26 77 11 172 20
210 20 498 5 775 12 775 20 0 5 -78 9 -186 9 l-186 0 48 68 c26 37 60 81 75
97 16 17 27 39 25 50 -3 18 -10 20 -62 17 -33 -1 -99 -12 -149 -23 -119 -27
-120 -28 -108 -40 7 -7 38 -3 99 11 103 25 219 38 192 21 -9 -6 -41 -47 -72
-91 -47 -66 -61 -80 -88 -84 -54 -8 -255 -25 -373 -32 -60 -4 -185 -16 -277
-28 -92 -12 -166 -21 -165 -20 1 1 69 59 152 130 117 100 156 127 176 126 14
-1 39 8 54 20 27 21 27 21 14 0 -20 -31 -5 -37 25 -9 29 27 97 42 89 20 -3 -7
0 -13 6 -13 7 0 14 6 17 14 6 16 76 22 373 31 l185 6 -19 -21 c-28 -31 -10
-35 28 -5 35 26 38 26 246 32 124 4 211 2 210 -3 0 -5 -46 -49 -101 -99 -91
-81 -129 -127 -117 -140 3 -2 63 52 134 120 l130 124 64 1 c35 0 62 -2 60 -4
-8 -7 -204 -160 -288 -224 -89 -68 -120 -99 -121 -119 0 -20 18 -15 30 7 6 11
63 60 128 110 64 50 165 127 223 173 58 45 119 92 135 104 16 12 26 24 23 28
-4 3 -27 -8 -51 -25 -40 -28 -50 -31 -112 -28 l-69 3 119 117 c66 65 113 118
106 118 -7 0 -33 -19 -57 -41 -42 -38 -48 -41 -87 -35 -24 3 -107 6 -185 8
-79 1 -143 5 -143 8 0 4 53 13 118 20 64 7 121 17 127 21 13 12 -32 11 -150
-5 l-99 -13 47 43 c26 23 47 45 47 48 0 17 -31 0 -80 -43 -58 -53 -83 -61
-185 -61 l-60 1 53 49 c50 47 56 50 108 50 30 0 54 5 54 10 0 11 -18 11 -195
-1z m-5 -59 c-54 -49 -56 -49 -124 -50 l-68 0 23 19 c38 31 15 35 -34 7 -51
-31 -137 -37 -137 -11 0 14 -3 14 -30 0 -31 -16 -180 -22 -180 -6 0 10 374 69
535 84 22 2 47 4 55 5 8 1 -10 -21 -40 -48z m-445 -94 c-16 -14 -44 -27 -61
-31 -46 -8 -86 -42 -82 -70 4 -33 -31 -75 -64 -75 -15 0 -39 -5 -54 -11 -32
-12 78 94 155 149 25 18 48 37 49 42 12 35 -88 -31 -186 -122 -43 -40 -94 -82
-113 -92 -41 -23 -37 -19 68 68 45 37 100 90 123 117 l41 49 77 0 77 0 -30
-24z m145 15 c-14 -4 -45 -11 -69 -15 -39 -6 -43 -5 -31 9 9 10 29 15 69 14
41 0 49 -3 31 -8z m386 -12 c-50 -14 -172 -23 -161 -11 11 11 47 16 135 18 45
2 50 0 26 -7z m437 1 l59 0 -78 -73 -78 -74 -210 -6 c-115 -4 -211 -6 -212 -4
-1 1 28 28 66 59 l68 57 143 -15 c135 -14 194 -14 139 0 -14 3 -77 12 -140 20
-77 9 -108 16 -92 21 12 4 22 12 22 18 0 7 42 8 128 4 70 -4 153 -7 185 -7z
m-628 -9 c-13 -11 -191 -23 -179 -11 11 11 52 17 129 19 34 0 55 -3 50 -8z
m-229 -18 c-4 -5 -37 -15 -72 -24 -47 -11 -62 -12 -52 -3 18 17 141 44 124 27z
m364 -73 l-65 -59 -100 0 -100 0 55 49 c60 53 102 67 215 68 l60 1 -65 -59z
m-561 14 c-15 -16 -25 -21 -28 -13 -2 7 4 18 15 26 30 22 39 15 13 -13z m94
-34 c-47 -46 -55 -50 -100 -50 l-48 0 47 46 c42 40 49 44 68 32 15 -10 23 -10
28 -2 6 10 23 17 52 23 3 0 -18 -22 -47 -49z m257 46 c0 -3 -24 -25 -54 -49
-54 -44 -55 -44 -138 -46 l-83 -1 49 43 c48 42 51 43 125 46 41 1 77 4 80 7 6
5 21 5 21 0z"/>
<path d="M9135 6513 c-69 -80 -112 -150 -100 -161 4 -4 12 1 19 12 21 35 81
115 124 164 23 28 38 53 33 56 -6 4 -40 -28 -76 -71z"/>
<path d="M2856 6518 c-9 -35 -7 -108 3 -108 5 0 12 21 15 48 4 26 9 55 12 65
3 10 0 17 -9 17 -8 0 -17 -10 -21 -22z"/>
<path d="M3656 6521 c-7 -11 41 -24 55 -16 5 4 7 11 4 16 -8 12 -52 12 -59 0z"/>
<path d="M10583 6213 c-32 -25 -80 -65 -108 -88 -27 -23 -100 -76 -161 -118
-111 -76 -142 -103 -131 -113 8 -8 260 169 346 244 40 35 86 73 102 85 29 21
37 37 19 37 -5 0 -35 -21 -67 -47z"/>
<path d="M1604 6103 c-15 -21 -43 -53 -62 -71 -35 -34 -37 -52 -3 -36 22 10
111 117 111 133 0 21 -18 11 -46 -26z"/>
<path d="M8761 6055 c-77 -81 -106 -124 -98 -149 2 -6 12 3 22 19 10 17 54 69
97 117 43 47 78 89 78 92 0 18 -25 -3 -99 -79z"/>
<path d="M9070 6094 c0 -21 223 -244 244 -244 26 0 18 11 -64 82 -42 36 -95
91 -119 122 -44 57 -61 68 -61 40z"/>
<path d="M7124 5978 c-4 -6 -9 -69 -12 -140 -6 -155 12 -177 21 -25 4 56 9
119 13 140 7 37 -6 51 -22 25z"/>
<path d="M1625 5929 c-112 -11 -253 -36 -370 -66 -55 -14 -139 -28 -187 -30
-69 -5 -88 -9 -88 -21 0 -12 13 -13 78 -8 42 4 113 16 157 27 218 55 449 89
610 89 49 0 97 5 105 10 18 12 -187 11 -305 -1z"/>
<path d="M9887 5772 c-131 -72 -227 -166 -198 -195 7 -7 13 -2 20 14 16 44
156 154 240 189 31 12 42 30 19 30 -7 0 -44 -17 -81 -38z"/>
<path d="M8433 5626 c-63 -76 -98 -134 -88 -144 4 -4 14 3 24 16 9 13 42 57
74 97 54 71 67 95 50 95 -5 0 -31 -29 -60 -64z"/>
<path d="M9480 5651 c0 -5 4 -11 9 -13 6 -1 49 -40 96 -86 75 -72 109 -95 106
-69 -1 3 -42 45 -91 92 -82 77 -120 101 -120 76z"/>
<path d="M7096 5368 c-9 -77 -7 -248 2 -248 8 0 22 168 22 263 0 55 -16 45
-24 -15z"/>
<path d="M9195 5309 c-77 -56 -135 -108 -135 -121 0 -13 30 -9 36 5 3 8 47 45
99 83 52 38 94 72 95 77 1 17 -30 3 -95 -44z"/>
<path d="M8189 5263 c-24 -37 -84 -119 -133 -181 -88 -114 -116 -156 -116
-179 0 -23 16 -13 32 20 9 17 41 64 72 102 61 74 192 263 202 289 15 39 -18
10 -57 -51z"/>
<path d="M9850 5302 c0 -13 196 -202 209 -202 24 0 7 22 -90 114 -94 90 -119
108 -119 88z"/>
<path d="M8802 5019 c-56 -39 -100 -75 -97 -80 8 -12 33 2 132 75 75 54 97 76
76 76 -5 0 -54 -32 -111 -71z"/>
<path d="M2960 5074 c0 -5 -11 -63 -25 -129 -37 -182 -56 -358 -62 -592 l-6
-212 -421 2 c-351 2 -443 -1 -556 -16 -170 -22 -251 -35 -258 -42 -17 -17 27
-16 173 3 250 34 408 42 787 39 l348 -2 0 -23 c0 -37 18 -62 45 -62 13 0 27 5
30 10 3 6 29 10 56 10 46 0 50 -2 44 -20 -9 -29 23 -78 70 -106 31 -18 43 -34
55 -71 l15 -48 66 -3 c82 -4 93 6 83 77 -8 65 -24 66 -24 1 l0 -50 -55 0 c-37
0 -55 4 -55 13 0 6 -3 22 -6 34 -4 15 -1 22 13 26 15 3 15 5 -7 15 -14 6 -19
11 -12 11 19 1 14 19 -10 39 -47 37 -78 75 -78 96 0 20 -3 21 -92 17 -51 -2
-96 -8 -99 -13 -4 -6 -8 4 -11 21 l-5 31 54 0 c29 0 53 5 53 10 0 6 -25 10
-55 10 -63 0 -73 16 -23 40 35 16 56 50 22 35 -11 -5 -32 -9 -49 -10 -27 -2
-30 -6 -33 -39 -3 -29 -7 -36 -20 -34 -15 3 -17 24 -16 208 1 220 26 455 65
623 15 65 18 92 10 100 -6 6 -11 7 -11 1z m211 -1066 c11 -21 11 -22 -4 -9
-10 7 -17 17 -17 22 0 15 9 10 21 -13z m59 -58 c0 -5 -7 -7 -15 -4 -8 4 -15 8
-15 10 0 2 7 4 15 4 8 0 15 -4 15 -10z"/>
<path d="M2240 5043 c-19 -2 -87 -12 -150 -23 -63 -11 -187 -24 -275 -30 -335
-23 -375 -27 -382 -33 -3 -4 -4 -10 -1 -13 5 -5 231 8 363 21 42 4 36 1 -40
-20 -49 -14 -116 -26 -147 -28 -39 -1 -58 -6 -58 -14 0 -25 96 -13 276 32 173
44 186 46 399 55 517 22 690 31 695 37 3 3 -92 3 -210 -1 -118 -3 -285 -8
-370 -10 -131 -4 -144 -3 -80 5 41 5 98 13 125 18 47 8 46 8 -30 8 -44 0 -96
-2 -115 -4z"/>
<path d="M7170 5024 c-85 -8 -170 -27 -181 -40 -15 -18 -28 -18 -49 1 -29 26
-47 8 -68 -73 -39 -144 -43 -152 -79 -152 -22 0 -44 -10 -66 -30 -41 -36 -61
-37 -149 -7 -44 15 -71 20 -77 14 -7 -7 -15 -6 -25 2 -11 9 -20 10 -35 2 -42
-23 -181 -246 -181 -290 0 -28 30 -81 46 -81 6 0 17 -14 24 -30 7 -17 25 -44
40 -60 37 -39 32 -95 -10 -125 -82 -59 -110 -84 -136 -119 -18 -25 -24 -41
-16 -44 7 -2 9 -18 6 -45 -7 -54 47 -229 81 -263 22 -22 32 -24 130 -24 58 0
105 4 105 9 0 5 -8 12 -17 14 -17 4 -17 5 -1 6 10 0 24 -12 33 -29 9 -16 19
-30 24 -30 17 0 32 -46 23 -70 -5 -14 -13 -53 -17 -87 -6 -53 -5 -63 8 -63 9
0 17 5 19 11 2 5 14 -1 27 -15 23 -24 23 -25 2 -19 -29 7 -26 -11 5 -36 47
-37 307 -100 330 -80 7 5 15 24 19 42 7 28 9 29 12 10 7 -36 31 -27 43 16 9
33 15 40 45 45 29 6 41 1 80 -29 26 -19 50 -33 55 -30 5 3 10 1 12 -4 2 -7 18
-7 45 -1 31 7 48 6 69 -5 30 -15 44 -12 44 10 0 7 38 32 84 54 46 22 95 54
109 71 14 17 29 26 32 20 13 -21 27 -10 21 17 -5 16 -3 29 4 33 9 6 9 13 1 28
-18 33 -13 63 14 84 14 11 35 38 46 60 l20 40 55 -7 c66 -8 99 9 109 56 5 21
18 37 41 51 36 21 41 32 23 44 -8 5 -9 29 -3 83 5 42 8 107 8 145 -1 78 -14
96 -84 117 -36 11 -37 13 -50 80 -13 77 -5 102 45 135 20 13 23 21 18 47 -9
49 -40 105 -96 171 -50 61 -100 100 -111 88 -4 -3 -18 7 -32 23 -21 25 -28 27
-42 17 -9 -6 -34 -21 -55 -32 -38 -21 -38 -21 -82 -1 -29 13 -45 26 -45 38 0
15 -14 47 -68 156 -2 4 3 7 12 7 9 0 16 7 16 17 0 14 -13 15 -122 10 -68 -4
-133 -10 -146 -13 -17 -5 -21 -3 -17 8 5 12 33 17 114 22 60 4 121 4 136 0 21
-5 27 -4 23 7 -8 24 -85 33 -198 23z m152 -126 c2 -29 1 -58 -4 -64 -4 -6 -5
-14 -1 -17 3 -4 -3 -7 -15 -7 -13 0 -22 -6 -22 -15 0 -9 9 -15 24 -15 13 0 26
-7 30 -15 3 -8 16 -15 29 -15 14 0 30 -7 37 -15 7 -8 22 -15 34 -15 12 0 35
-13 50 -29 31 -32 75 -36 85 -8 4 9 22 27 41 40 l34 24 39 -28 c24 -17 57 -59
83 -104 25 -41 48 -75 52 -75 12 0 46 -69 38 -77 -4 -4 -10 -3 -14 3 -4 6 -18
10 -31 9 -22 -1 -39 -17 -61 -55 -7 -13 -11 -12 -28 3 -26 24 -41 3 -17 -23
19 -21 12 -42 -10 -34 -12 5 -14 -3 -10 -47 12 -122 21 -174 30 -174 6 0 11
26 13 58 2 31 7 57 11 57 5 0 13 -26 17 -57 l9 -58 36 0 c20 0 45 -7 55 -16
11 -9 29 -22 42 -28 28 -15 28 -32 -4 -131 -14 -47 -22 -90 -18 -102 4 -14 3
-18 -5 -13 -15 8 -61 -21 -61 -38 0 -12 -46 -14 -114 -5 -13 2 -31 -12 -54
-42 -19 -25 -43 -48 -53 -52 -24 -9 -68 -58 -69 -77 0 -8 6 -11 16 -7 12 4 14
1 9 -14 -4 -12 0 -26 9 -36 34 -33 20 -64 -49 -108 -16 -11 -54 -39 -83 -63
-58 -47 -87 -52 -106 -18 -6 11 -19 26 -29 33 -10 8 -16 21 -13 29 6 15 -15
43 -32 43 -6 0 -12 -5 -14 -12 -3 -8 -9 -8 -22 -1 -14 8 -11 11 23 22 40 11
64 31 39 31 -22 0 -161 -30 -193 -42 -69 -25 -82 -32 -92 -54 -7 -16 -8 -24 0
-27 13 -4 -32 -117 -50 -124 -7 -3 -25 2 -40 10 -15 8 -44 21 -63 28 -19 7
-54 33 -77 58 -41 43 -43 43 -51 22 -14 -38 -29 -5 -38 78 -7 72 -6 73 14 62
11 -6 28 -11 36 -11 26 0 18 17 -13 28 -18 7 -32 21 -39 41 -12 35 -8 37 41
16 39 -16 67 -19 67 -7 0 4 -41 27 -91 51 -54 26 -98 55 -111 72 -23 31 -48
38 -48 14 0 -8 -10 -16 -22 -16 -30 -2 -67 -5 -95 -7 -46 -4 -22 -22 30 -23
72 -1 32 -17 -44 -18 -65 -1 -64 -2 -79 93 -5 34 -18 93 -29 131 -24 84 -24
85 -8 85 6 0 39 11 71 25 44 18 63 21 73 14 16 -14 22 2 21 56 0 42 23 160 42
209 10 28 8 32 -56 91 l-66 62 25 49 c14 27 50 79 80 115 l55 67 44 -10 c29
-7 48 -18 54 -32 6 -14 18 -21 36 -21 18 1 24 -3 18 -9 -10 -10 -14 -46 -6
-46 15 0 36 14 36 24 0 15 38 50 63 59 9 4 17 13 17 21 0 18 41 47 97 69 39
15 42 15 45 -1 3 -12 10 -5 23 23 10 22 30 54 44 72 14 18 37 47 50 64 l25 32
88 -5 c73 -5 88 -3 84 8 -4 11 5 14 38 14 l44 0 4 -52z m-312 23 c0 -16 -48
-67 -55 -59 -18 17 14 57 53 67 1 1 2 -3 2 -8z m550 -205 c0 -3 -4 -8 -10 -11
-5 -3 -10 -1 -10 4 0 6 5 11 10 11 6 0 10 -2 10 -4z m-840 -51 c-7 -9 -15 -13
-17 -11 -6 6 20 36 26 30 2 -2 -2 -10 -9 -19z m-304 -32 c-8 -16 -22 -37 -31
-48 -15 -19 -16 -19 -4 5 16 32 40 70 45 70 3 0 -2 -12 -10 -27z m-110 -168
c-1 -21 -6 -35 -13 -35 -7 0 -13 2 -13 4 0 6 22 66 24 66 1 0 2 -16 2 -35z
m49 -54 c-4 -14 4 -28 35 -52 22 -18 38 -34 36 -37 -3 -2 -25 13 -50 34 -46
38 -60 74 -30 74 11 0 13 -6 9 -19z m1447 -136 c3 -14 1 -25 -3 -25 -5 0 -9
11 -9 25 0 14 2 25 4 25 2 0 6 -11 8 -25z m103 -125 c8 -13 -5 -13 -25 0 -13
8 -13 10 2 10 9 0 20 -4 23 -10z m-1512 -50 c4 -15 -2 -24 -23 -35 -16 -8 -36
-12 -45 -9 -9 4 -24 -1 -35 -11 -11 -10 -22 -16 -25 -13 -7 7 18 27 74 60 25
15 47 27 47 27 1 1 4 -8 7 -19z m1467 -300 c0 -5 -8 -10 -17 -10 -15 0 -16 2
-3 10 19 12 20 12 20 0z m-181 -92 c-17 -34 -40 -58 -55 -58 -7 0 4 18 23 40
41 46 49 50 32 18z m-1066 -37 c15 -8 27 -20 27 -28 0 -17 -5 -16 -35 3 -21
14 -46 51 -28 42 5 -2 20 -10 36 -17z m633 -287 c15 -19 24 -38 20 -42 -4 -4
-12 1 -17 11 -6 9 -28 34 -50 55 -40 36 -40 37 -17 43 17 4 25 0 30 -13 4 -11
20 -35 34 -54z m294 71 c0 -2 -10 -9 -22 -15 -22 -11 -22 -10 -4 4 21 17 26
19 26 11z m-403 -21 c-3 -3 -12 -4 -19 -1 -8 3 -5 6 6 6 11 1 17 -2 13 -5z
m-53 -13 c3 -5 -1 -11 -9 -15 -9 -3 -15 0 -15 9 0 16 16 20 24 6z m101 -41
c10 -11 16 -20 13 -20 -3 0 -13 9 -23 20 -10 11 -16 20 -13 20 3 0 13 -9 23
-20z m-406 -58 c-14 -6 -49 18 -49 34 0 12 6 10 28 -8 16 -13 25 -24 21 -26z"/>
<path d="M7095 4579 c-98 -24 -123 -33 -179 -72 -125 -85 -164 -136 -197 -262
-29 -110 -16 -282 27 -366 21 -41 202 -162 269 -180 69 -19 175 -6 236 28 30
17 69 34 88 38 21 4 59 31 106 76 68 65 73 73 95 148 24 87 24 99 -9 256 -32
148 -65 211 -142 271 -52 40 -73 49 -118 55 -31 3 -74 9 -96 12 -22 3 -58 1
-80 -4z m-80 -59 c-3 -5 -14 -10 -23 -10 -15 0 -15 2 -2 10 20 13 33 13 25 0z
m245 -11 c0 -17 4 -20 24 -15 19 5 33 -4 74 -48 116 -122 159 -225 150 -356
-9 -114 -56 -179 -217 -298 -48 -35 -284 -81 -266 -52 3 6 15 10 26 10 62 0
-29 45 -121 59 -28 5 -64 17 -78 28 -29 20 -64 83 -84 148 -7 22 -17 43 -23
47 -5 4 -10 38 -10 75 0 75 11 116 24 95 5 -8 10 8 14 41 3 34 15 70 31 96 26
41 128 117 134 100 5 -12 35 -12 48 0 16 16 218 90 247 91 21 0 27 -5 27 -21z
m185 -102 c16 -29 26 -50 23 -47 -3 3 -36 41 -74 85 l-69 80 46 -34 c29 -20
57 -53 74 -84z m-385 93 c-8 -5 -19 -10 -25 -10 -5 0 -3 5 5 10 8 5 20 10 25
10 6 0 3 -5 -5 -10z m-63 -736 c-3 -3 -12 -4 -19 -1 -8 3 -5 6 6 6 11 1 17 -2
13 -5z"/>
<path d="M6543 4473 c-19 -32 -27 -62 -28 -93 0 -55 18 -66 21 -12 1 21 14 62
28 90 29 57 30 62 16 62 -5 0 -22 -21 -37 -47z"/>
<path d="M7658 3905 c-20 -26 -23 -45 -9 -45 9 0 51 52 51 64 0 15 -27 3 -42
-19z"/>
<path d="M6500 3910 c0 -16 43 -100 52 -100 12 0 10 14 -12 64 -19 42 -40 61
-40 36z"/>
<path d="M7424 4938 c-19 -30 8 -148 34 -148 8 0 12 6 9 14 -17 45 -28 102
-23 122 7 25 -7 33 -20 12z"/>
<path d="M10216 4922 c-3 -5 29 -42 70 -83 42 -41 107 -111 146 -156 67 -80
93 -100 86 -68 -3 16 -186 215 -255 278 -23 21 -44 34 -47 29z"/>
<path d="M2842 4748 c-15 -215 -16 -542 -2 -533 6 4 10 70 10 163 1 86 7 240
14 342 8 102 12 188 9 193 -14 24 -21 -11 -31 -165z"/>
<path d="M14283 4889 c-40 -5 -105 -20 -145 -33 -53 -18 -75 -21 -81 -13 -13
20 -37 -23 -37 -64 0 -21 -5 -50 -12 -66 -11 -27 -12 -27 -15 -5 -3 12 -8 22
-12 22 -4 0 -6 -110 -3 -245 3 -178 2 -245 -6 -245 -9 0 -10 45 -5 165 4 114
3 165 -5 165 -6 0 -13 -32 -16 -72 -11 -122 -12 -513 -2 -513 5 0 9 32 8 72 0
40 2 81 5 93 10 39 23 8 23 -56 0 -41 4 -63 10 -59 6 3 10 29 10 56 l0 50 53
-8 c67 -10 215 -10 292 0 l60 8 -49 -44 c-30 -26 -45 -46 -39 -50 6 -4 28 9
49 28 59 53 105 82 142 90 32 7 32 7 32 -34 0 -35 -6 -46 -46 -83 -91 -84
-100 -88 -189 -88 -119 0 -237 42 -254 91 -12 36 -31 38 -31 4 0 -62 111 -113
270 -125 86 -6 108 -5 122 7 9 8 22 13 29 11 7 -2 -9 -21 -34 -42 -45 -37 -58
-56 -38 -56 6 0 47 32 93 72 69 59 84 68 86 52 7 -35 25 -42 20 -7 -4 28 -1
34 23 42 27 9 29 8 35 -26 6 -34 4 -39 -37 -74 -66 -56 -142 -99 -185 -105
-35 -4 -33 -2 24 22 35 14 61 32 59 38 -3 6 -8 10 -13 9 -28 -8 -143 -48 -163
-57 -30 -14 -162 -12 -221 3 -114 29 -140 54 -126 121 3 17 2 30 -2 30 -16 0
-32 -25 -32 -50 l-1 -25 -20 25 c-21 24 -22 62 -4 118 9 28 -10 30 -25 1 -18
-32 -14 -104 6 -134 30 -46 131 -113 188 -125 98 -20 567 7 593 34 5 5 -27 6
-76 3 l-84 -7 59 44 c32 24 63 42 70 39 6 -2 15 6 19 19 7 21 8 21 12 -9 6
-44 21 -42 28 5 3 20 12 50 20 65 17 33 19 57 5 57 -23 0 -8 40 20 55 45 23
42 46 -3 24 -20 -9 -20 -9 -4 4 21 18 22 27 1 27 -10 0 -14 6 -10 18 6 23 18
184 20 285 2 74 5 87 35 134 19 29 42 55 52 58 11 4 19 11 19 16 0 12 -7 11
-31 -1 -17 -10 -19 -7 -19 31 0 130 -121 206 -340 214 -58 2 -138 -1 -177 -6z
m77 -35 c-36 -8 -90 -19 -120 -23 -77 -12 -136 -38 -165 -73 -26 -30 -33 -72
-15 -83 10 -6 14 1 24 47 5 24 59 69 82 68 5 -1 -3 -8 -18 -16 -25 -13 -38
-34 -22 -34 3 0 36 14 73 32 93 45 170 49 245 15 75 -34 78 -9 4 27 l-53 25
78 1 c50 0 88 -5 107 -15 74 -38 94 -127 42 -181 -39 -42 -222 -85 -384 -92
-106 -4 -121 -2 -163 18 l-46 22 7 87 c4 47 7 91 7 98 0 7 4 10 8 8 3 -3 12 2
19 10 25 30 198 72 300 73 l55 0 -65 -14z m333 -37 c49 -27 77 -74 84 -140 5
-50 4 -53 -21 -65 -35 -16 -35 -16 -29 8 3 11 1 20 -4 20 -15 0 -33 -23 -33
-42 0 -10 -2 -18 -4 -18 -2 0 -20 -7 -39 -15 -34 -14 -36 -14 -30 2 3 10 14
29 23 43 10 14 23 44 30 67 11 36 11 49 -4 88 -10 24 -30 54 -44 66 l-27 21
30 -8 c17 -3 47 -16 68 -27z m-124 -253 c-13 -14 -32 -30 -42 -36 -28 -15
-175 -27 -247 -19 l-65 6 90 13 c50 6 128 23 175 36 112 32 119 32 89 0z m185
11 c-4 -8 -12 -15 -20 -15 -17 0 -18 17 -1 23 22 9 27 7 21 -8z m-617 -64 c34
-12 76 -21 92 -21 16 0 36 -6 43 -13 55 -55 175 -49 253 13 45 36 55 37 55 9
0 -24 -78 -101 -125 -123 -52 -25 -233 -40 -322 -27 -75 11 -123 31 -123 51 0
6 11 10 25 10 14 0 25 5 25 10 0 9 -14 14 -32 11 -9 -1 -11 90 -2 113 5 13 9
13 27 1 12 -7 50 -23 84 -34z m541 28 c-2 -5 -18 -19 -36 -30 l-32 -21 0 21
c0 13 9 25 23 31 30 12 49 12 45 -1z m-218 -59 c-8 -5 -46 -9 -85 -8 l-70 1
60 7 c100 11 112 11 95 0z m174 -15 c-4 -9 0 -15 10 -15 11 0 16 -9 16 -30 0
-28 -3 -30 -36 -30 -35 0 -35 1 -28 32 3 18 14 38 23 45 21 16 21 16 15 -2z
m63 -17 c-3 -8 -6 -5 -6 6 -1 11 2 17 5 13 3 -3 4 -12 1 -19z m-132 -47 c-4
-14 -15 -21 -33 -21 l-27 0 30 24 c34 27 40 27 30 -3z m45 -35 c0 -3 -4 -8
-10 -11 -5 -3 -10 -1 -10 4 0 6 5 11 10 11 6 0 10 -2 10 -4z m-50 -23 c-1 -19
-158 -163 -193 -176 -64 -24 -333 -15 -360 12 -5 5 -5 45 -2 88 l7 80 47 -15
c51 -16 240 -22 305 -8 l39 7 -26 -31 c-15 -17 -27 -36 -27 -41 0 -16 19 -10
29 9 16 30 82 75 120 83 56 11 61 10 61 -8z m90 5 c0 -7 -16 -23 -35 -36 -45
-29 -47 -6 -2 25 39 26 37 26 37 11z m-16 -129 c-6 -70 -8 -75 -41 -96 l-34
-23 6 73 c6 64 10 75 38 99 17 15 32 26 34 24 2 -2 1 -37 -3 -77z m-130 6
c-27 -24 -53 -44 -59 -44 -5 0 15 22 45 48 30 27 57 47 59 45 3 -3 -17 -24
-45 -49z m176 -35 c5 -3 2 -11 -8 -16 -15 -10 -17 -6 -12 40 4 44 5 46 8 16 2
-19 8 -37 12 -40z m17 28 c-3 -7 -5 -2 -5 12 0 14 2 19 5 13 2 -7 2 -19 0 -25z
m-157 -13 c0 -8 -7 -15 -16 -15 -14 0 -14 3 -4 15 7 8 14 15 16 15 2 0 4 -7 4
-15z m133 -100 c-16 -12 -18 -11 -21 6 -2 12 5 27 15 34 16 12 18 11 21 -6 2
-12 -5 -27 -15 -34z m-70 -41 c-34 -28 -43 -30 -43 -6 0 9 15 27 33 38 27 18
33 19 35 6 2 -8 -9 -25 -25 -38z m-74 -48 c-8 -7 -27 -18 -44 -24 -29 -12 -29
-12 9 25 26 24 41 32 44 24 2 -7 -2 -18 -9 -25z m146 -3 c-10 -56 -25 -65 -25
-16 0 36 7 47 29 52 2 1 0 -16 -4 -36z"/>
<path d="M14500 4330 c0 -5 5 -10 10 -10 6 0 10 5 10 10 0 6 -4 10 -10 10 -5
0 -10 -4 -10 -10z"/>
<path d="M1504 4878 c-19 -31 -33 -751 -15 -763 5 -3 12 3 14 12 3 10 5 3 6
-14 0 -18 5 -33 10 -33 5 0 12 118 15 273 3 149 8 305 12 345 3 45 2 72 -4 72
-6 0 -13 -44 -17 -97 -10 -157 -14 -150 -10 17 2 85 7 165 10 178 8 24 -8 31
-21 10z"/>
<path d="M7654 4827 c-8 -21 24 -67 53 -78 51 -19 58 -4 13 26 -16 11 -30 25
-30 31 0 6 -7 17 -15 24 -12 10 -16 9 -21 -3z"/>
<path d="M8408 4717 c-139 -93 -189 -136 -213 -180 -20 -37 -12 -68 9 -32 23
42 115 123 219 193 94 64 125 93 100 92 -5 -1 -56 -33 -115 -73z"/>
<path d="M1722 4768 c-7 -7 -12 -20 -12 -30 0 -19 90 -98 177 -156 29 -19 53
-38 53 -41 0 -13 -182 -106 -202 -103 -19 3 -20 0 -15 -32 4 -27 2 -36 -9 -36
-8 0 -14 5 -14 10 0 12 -10 13 -29 1 -12 -8 -12 -12 -2 -25 23 -27 66 -19 118
22 70 56 213 152 224 152 6 0 9 10 7 21 -2 15 -42 48 -127 105 -67 46 -129 84
-136 84 -8 0 -11 8 -8 20 6 22 -7 26 -25 8z"/>
<path d="M7790 4712 c0 -25 58 -114 69 -107 10 6 -47 125 -61 125 -4 0 -8 -8
-8 -18z"/>
<path d="M3348 4644 c-16 -5 -58 -78 -58 -101 0 -14 -163 -23 -207 -11 -20 5
-39 6 -43 1 -4 -4 1 -44 11 -88 20 -79 20 -80 -1 -127 -22 -51 -19 -98 6 -98
10 0 13 7 8 24 -6 27 12 96 26 96 5 0 10 -12 12 -27 2 -14 9 -28 16 -31 10 -3
12 6 10 34 -2 32 0 39 17 42 25 5 56 32 49 43 -3 5 -17 2 -32 -7 l-27 -16 24
21 c13 12 31 26 40 31 9 5 13 11 9 15 -10 11 -43 -3 -72 -30 -25 -23 -26 -23
-36 -5 -5 10 -10 30 -10 44 0 26 3 27 98 41 42 7 43 7 36 -19 -8 -32 3 -79 16
-71 6 3 10 21 10 39 0 30 29 72 49 71 3 -1 15 22 26 50 18 45 23 50 54 53 19
2 49 1 67 -2 27 -6 32 -11 36 -41 4 -31 1 -35 -19 -35 -19 0 -23 -5 -23 -27 1
-25 2 -26 14 -10 19 25 49 21 80 -10 20 -19 26 -33 21 -50 -8 -32 26 -31 60 3
27 27 48 28 53 1 3 -16 -44 -47 -73 -47 -20 0 -19 -13 3 -33 22 -20 36 -22 29
-4 -3 7 11 21 33 33 l37 21 29 -24 c38 -30 25 -52 -44 -73 -28 -9 -54 -19 -58
-23 -13 -13 -21 -7 -49 38 -37 58 -81 79 -150 72 -59 -6 -139 -43 -173 -80
-46 -49 -60 -181 -26 -249 15 -30 60 -68 80 -68 24 0 15 19 -15 35 -19 9 -35
30 -46 59 -21 54 -14 86 7 36 12 -27 29 -42 73 -64 56 -28 61 -29 123 -18 67
11 123 42 143 79 13 24 31 31 27 11 -2 -7 12 -17 30 -22 31 -10 32 -11 32 -68
0 -64 -13 -78 -69 -78 -35 0 -61 -9 -61 -21 0 -13 94 -11 124 2 29 14 36 34
36 112 0 60 -1 61 -63 81 -16 5 -17 8 -2 35 16 33 20 71 6 71 -4 0 -15 -17
-24 -37 l-15 -38 -1 35 c-1 39 24 61 86 75 40 8 83 41 83 64 0 9 -14 30 -30
46 -20 19 -26 31 -19 36 17 10 2 28 -20 22 -12 -3 -20 2 -24 16 -6 23 -27 27
-59 10 -16 -9 -25 -6 -47 14 -14 14 -36 28 -48 32 -13 3 -23 14 -24 23 -2 42
-6 63 -15 72 -11 11 -120 21 -146 14z m149 -306 c44 -41 32 -48 -68 -41 -76 5
-91 4 -87 -8 3 -10 32 -17 91 -23 l87 -8 0 -31 c0 -22 -11 -41 -44 -73 -39
-40 -48 -44 -92 -44 -34 0 -45 3 -34 10 12 7 11 10 -5 15 -40 13 -49 22 -63
65 -14 40 -13 46 7 87 25 52 63 72 135 73 38 0 55 -5 73 -22z m79 -174 c-8
-31 -70 -71 -121 -78 -30 -5 -34 -4 -14 3 61 20 126 93 131 147 0 10 3 4 5
-15 3 -19 2 -44 -1 -57z"/>
<path d="M10670 4378 c1 -7 26 -33 56 -57 30 -24 82 -77 117 -119 34 -41 72
-86 84 -101 12 -14 24 -23 28 -19 13 12 -93 145 -182 228 -85 80 -103 91 -103
68z"/>
<path d="M4480 4270 c0 -13 -2 -12 155 -12 82 1 131 5 133 11 3 8 -44 11 -142
11 -91 0 -146 -4 -146 -10z"/>
<path d="M4952 4269 c4 -11 41 -15 169 -17 133 -2 161 0 151 10 -19 19 -326
26 -320 7z"/>
<path d="M4031 4256 c-6 -7 -8 -21 -5 -30 6 -15 8 -15 26 3 16 18 31 21 108
21 53 0 90 4 90 10 0 16 -205 13 -219 -4z"/>
<path d="M3680 4235 c0 -25 14 -34 24 -16 8 12 -3 41 -15 41 -5 0 -9 -11 -9
-25z"/>
<path d="M5930 4223 c0 -10 239 -28 248 -18 14 13 -18 19 -128 23 -74 3 -120
1 -120 -5z"/>
<path d="M5580 4210 c0 -6 27 -10 60 -10 33 0 60 4 60 10 0 6 -27 10 -60 10
-33 0 -60 -4 -60 -10z"/>
<path d="M2095 4089 c-60 -4 -236 -26 -390 -48 -154 -22 -324 -45 -379 -50
-54 -6 -101 -12 -104 -15 -16 -17 22 -17 163 1 85 10 155 17 155 14 -1 -15
-146 -158 -241 -237 -179 -150 -383 -328 -401 -349 -25 -29 -22 -42 3 -19 22
19 22 19 15 -9 -3 -15 -9 -47 -13 -72 -4 -36 -3 -45 9 -45 11 0 17 17 21 67 4
37 10 70 14 74 13 13 380 59 499 63 60 2 253 4 429 5 207 1 316 4 309 11 -5 5
-89 11 -187 12 l-178 3 61 87 c33 48 68 91 77 96 11 7 12 11 4 17 -17 10 -52
-25 -108 -107 -26 -37 -54 -68 -62 -69 -9 0 -52 -4 -96 -9 -44 -5 -152 -14
-240 -20 -88 -6 -231 -20 -319 -31 -87 -11 -160 -18 -162 -16 -3 2 35 37 83
78 48 40 122 102 163 138 41 37 69 58 61 49 -12 -16 -11 -18 6 -18 10 0 29 7
41 16 21 14 22 14 22 -7 l0 -22 23 21 c31 29 88 46 98 30 6 -9 11 -9 23 1 15
12 283 30 480 31 l79 0 -23 -25 c-32 -35 -4 -33 32 2 l28 27 198 4 c108 2 205
3 216 1 14 -3 -3 -23 -74 -88 -109 -98 -144 -137 -135 -151 4 -6 26 10 53 38
26 26 85 83 132 125 l85 77 63 0 63 0 -78 -60 c-43 -33 -128 -98 -190 -145
-106 -80 -163 -139 -149 -152 4 -4 28 14 54 39 26 25 65 58 87 74 22 15 76 58
120 94 44 37 124 99 177 138 53 40 100 77 103 82 12 19 -12 10 -51 -20 -35
-27 -46 -29 -114 -29 l-75 0 120 115 120 114 3 -50 c3 -56 22 -60 22 -5 0 19
4 45 10 59 11 30 -4 45 -19 19 -5 -10 -13 -15 -17 -11 -4 4 -29 -13 -57 -38
-29 -26 -56 -43 -66 -40 -9 3 -97 8 -196 12 l-180 8 127 16 c70 9 130 19 134
23 10 10 -41 9 -135 -4 -45 -6 -85 -8 -89 -5 -3 4 11 20 31 37 36 29 47 49 28
49 -5 0 -34 -23 -64 -50 l-55 -50 -99 -6 -98 -6 55 51 c51 47 59 50 108 51 28
0 52 5 52 10 0 11 -52 11 -215 -1z m16 -59 l-55 -50 -70 0 c-69 1 -70 1 -43
16 28 15 36 34 14 34 -7 0 -29 -11 -49 -25 -44 -29 -128 -36 -128 -10 0 19
-10 19 -38 -1 -16 -11 -43 -15 -97 -13 -73 2 -98 13 -52 24 12 2 121 18 242
35 192 26 242 32 315 38 8 1 -9 -21 -39 -48z m-436 -90 c-11 -11 -43 -26 -70
-34 -45 -14 -48 -13 -30 0 11 9 27 19 35 24 8 5 11 12 7 16 -13 14 -75 -27
-169 -111 -50 -44 -104 -88 -122 -98 -25 -16 -24 -13 9 14 22 18 81 73 130
121 l90 88 70 0 c69 0 69 0 50 -20z m120 9 c-22 -5 -51 -11 -64 -15 -21 -5
-23 -3 -12 10 9 11 29 16 65 15 l51 -1 -40 -9z m375 -15 c-120 -18 -136 -18
-120 1 10 12 34 15 109 14 l96 -2 -85 -13z m433 7 l88 -6 -73 -72 -73 -71
-212 -4 -212 -3 62 57 c34 31 69 57 77 57 8 1 74 -6 145 -14 154 -17 158 -18
151 -6 -3 5 -59 14 -123 21 -109 12 -183 29 -125 30 12 0 22 5 22 10 0 11 132
12 273 1z m-598 -10 c-6 -5 -50 -11 -98 -14 -80 -4 -105 3 -52 16 37 9 159 7
150 -2z m-229 -20 c-4 -5 -28 -12 -55 -16 -60 -8 -92 -28 -74 -46 9 -8 16 -9
25 -2 7 6 24 14 38 18 19 5 12 -5 -30 -44 -51 -46 -59 -51 -105 -51 l-49 0 68
63 c44 40 84 66 110 74 51 14 79 16 72 4z m413 -34 c-15 -12 -46 -39 -71 -59
l-45 -38 -99 0 -99 0 40 35 c80 71 112 82 235 84 l65 0 -26 -22z m-649 -2 c-7
-8 -10 -26 -8 -40 6 -31 -40 -75 -77 -75 -13 0 -32 -3 -42 -6 -10 -3 15 26 56
65 71 67 99 89 71 56z m40 -20 c-13 -14 -26 -22 -29 -19 -3 3 5 14 18 25 33
27 39 24 11 -6z m355 7 c-83 -73 -98 -79 -186 -84 l-86 -6 47 44 c45 42 48 43
121 47 40 1 83 4 94 5 11 1 15 -2 10 -6z"/>
<path d="M11795 4065 c-145 -32 -256 -82 -433 -198 l-123 -80 -23 22 c-12 11
-26 21 -30 21 -5 0 -26 16 -47 35 -39 34 -59 44 -59 26 0 -5 30 -36 67 -69
l67 -60 -46 -49 c-75 -81 -169 -214 -204 -288 -45 -97 -79 -226 -69 -262 4
-15 8 -79 9 -142 1 -81 5 -115 13 -118 10 -4 11 11 7 62 -3 37 -3 78 1 92 5
23 7 24 23 9 24 -21 83 -41 167 -55 96 -17 468 -41 478 -31 12 11 -38 17 -223
30 -176 13 -262 24 -337 45 -60 17 -92 43 -71 56 10 6 9 11 -7 23 -18 13 -18
18 -7 48 6 19 12 40 12 46 0 22 -18 12 -28 -15 -23 -62 -12 17 13 94 35 110
34 109 86 90 73 -27 210 -65 274 -77 72 -13 116 -17 354 -30 102 -6 187 -13
190 -15 2 -3 -7 -5 -22 -5 -52 0 -134 -109 -161 -214 -9 -33 -19 -62 -23 -65
-5 -3 -9 -22 -9 -41 -1 -19 -5 -87 -9 -151 l-8 -115 -161 18 c-89 10 -204 28
-256 40 -87 19 -99 25 -137 64 -24 24 -45 39 -48 33 -4 -5 -1 -17 6 -25 19
-23 2 -29 -36 -11 -43 21 -45 21 -45 3 0 -23 207 -85 435 -130 72 -15 191 -43
265 -62 192 -52 290 -73 328 -74 51 0 29 17 -32 24 -67 9 -381 95 -346 95 14
0 97 -6 185 -14 88 -8 183 -15 212 -15 31 0 53 -5 56 -12 4 -9 8 -10 14 -2 4
6 53 14 108 17 55 4 168 20 251 37 83 16 214 37 290 45 77 8 149 18 162 21 33
9 27 28 -6 21 -16 -3 -65 -9 -108 -12 l-79 -6 78 34 c43 20 92 46 110 59 18
14 40 28 50 31 15 6 17 13 12 39 -9 42 -8 41 -38 27 -31 -14 -67 -5 -49 13 8
8 15 8 25 0 8 -7 16 -10 18 -7 6 5 -6 150 -16 194 -7 31 -6 32 13 22 12 -6 25
-11 31 -11 22 0 10 17 -22 32 -30 14 -34 23 -50 89 -20 87 -21 97 -5 81 16
-16 28 -15 28 2 0 8 -7 16 -15 20 -8 3 -15 13 -15 22 0 9 -6 14 -13 11 -10 -4
-19 19 -34 78 l-20 84 49 6 c65 9 62 25 -4 18 l-53 -5 -27 61 c-14 34 -22 63
-17 67 12 7 0 26 -14 21 -6 -2 -28 18 -49 45 -57 71 -123 119 -270 194 -170
86 -272 114 -418 113 -58 0 -132 -7 -165 -14z m359 -34 c27 -9 35 -15 26 -21
-7 -4 -24 -3 -37 3 -25 11 -46 1 -25 -12 9 -5 -3 -15 -36 -28 -45 -19 -61 -20
-178 -13 -129 8 -164 14 -164 31 0 5 -5 9 -11 9 -6 0 -9 -10 -7 -22 4 -31 60
-46 173 -48 88 -1 89 -1 61 -16 -37 -21 -147 -15 -195 9 -23 11 -38 14 -45 7
-6 -6 7 -17 40 -32 42 -19 66 -22 174 -23 69 0 157 3 195 7 l70 7 -50 -20
c-59 -24 -75 -36 -75 -56 0 -12 6 -11 33 5 17 11 60 32 95 46 l63 25 56 -34
57 -34 -69 -33 c-39 -18 -73 -34 -76 -36 -4 -1 -4 18 -2 43 6 47 -10 64 -21
23 -10 -38 -7 -158 4 -158 6 0 10 13 10 30 0 26 7 33 58 59 118 60 125 61 162
38 l32 -20 -54 -22 c-132 -55 -151 -66 -141 -76 7 -7 24 -3 54 11 l45 22 47
-29 c25 -15 47 -31 47 -34 0 -3 -21 -15 -48 -27 -53 -24 -46 -24 -382 18 -85
11 -199 23 -252 26 l-98 7 6 26 c13 61 37 137 45 147 9 11 2 24 -12 24 -11 0
-45 -97 -53 -152 l-7 -46 -142 5 c-78 3 -155 8 -171 12 -16 4 -44 25 -64 49
l-34 41 118 77 c137 90 245 143 364 178 78 24 98 26 230 22 80 -1 163 -9 184
-15z m229 -99 l129 -67 17 -53 c10 -29 15 -51 12 -50 -127 62 -260 142 -241
146 9 1 47 -11 84 -28 42 -19 72 -28 78 -22 5 5 -42 32 -121 67 -81 37 -131
65 -134 76 -6 24 18 14 176 -69z m-208 42 c24 -9 -1 -24 -40 -23 l-30 0 25 14
c30 17 25 16 45 9z m85 -40 c0 -2 -7 -4 -15 -4 -8 0 -15 4 -15 10 0 5 7 7 15
4 8 -4 15 -8 15 -10z m-66 -14 c-5 -5 -52 -12 -104 -16 -88 -5 -93 -4 -70 10
29 18 191 23 174 6z m445 -213 c-13 -4 -28 -9 -32 -10 -8 -2 -39 70 -53 118
-3 12 18 -4 52 -39 55 -58 56 -60 33 -69z m-1363 12 c27 -29 27 -31 7 -25 -17
5 -23 3 -23 -7 0 -16 21 -27 50 -27 10 0 39 -21 64 -47 25 -27 46 -43 46 -37
0 6 -11 21 -25 34 -33 31 -32 40 9 40 62 0 67 -6 46 -53 -10 -23 -29 -91 -41
-152 -12 -60 -23 -111 -23 -112 -6 -11 -367 84 -384 101 -14 14 216 316 241
316 2 0 16 -14 33 -31z m1257 20 c45 -24 49 -53 8 -73 -27 -14 -32 -13 -80 12
-28 15 -51 30 -51 33 0 7 68 37 88 38 7 1 23 -4 35 -10z m160 -84 c9 -20 17
-40 17 -45 0 -11 -78 -36 -86 -27 -4 3 -10 24 -14 46 -7 37 -5 41 19 50 41 15
46 13 64 -24z m-109 -21 c11 -30 6 -34 -20 -18 -19 13 -22 19 -12 25 19 12 25
11 32 -7z m-919 -4 c5 -8 11 -7 21 1 11 9 46 9 152 0 137 -12 508 -58 485 -60
-7 -1 -13 -6 -13 -12 0 -7 11 -9 33 -5 83 17 96 17 130 1 32 -15 35 -19 25
-40 -10 -22 -99 -65 -134 -65 -8 0 -14 -4 -14 -10 0 -15 46 -12 87 5 20 8 37
14 38 13 1 -2 -3 -28 -9 -58 -11 -53 -12 -55 -51 -65 -22 -5 -44 -15 -50 -21
-13 -16 -112 -34 -182 -34 -29 0 -53 -4 -53 -10 0 -16 136 -12 225 6 77 16 83
16 145 -3 l65 -20 -77 -38 c-73 -35 -96 -55 -64 -55 8 0 50 19 94 42 l80 41
62 -13 61 -13 -58 -32 c-35 -20 -62 -29 -68 -24 -16 15 -28 10 -22 -11 4 -16
-10 -27 -83 -65 -49 -25 -95 -45 -104 -45 -9 0 -16 -7 -16 -15 0 -8 2 -15 4
-15 18 0 104 38 159 71 l69 41 51 -20 52 -19 -102 -32 c-56 -17 -110 -31 -121
-31 -12 0 -23 -4 -26 -9 -3 -5 -47 -16 -98 -26 -90 -16 -150 -14 -176 7 -9 8
-16 8 -24 0 -17 -17 44 -42 107 -42 31 0 99 10 150 22 70 16 100 19 117 11 22
-10 22 -11 -17 -30 -22 -12 -59 -26 -82 -33 -24 -7 -43 -17 -43 -22 0 -19 52
-6 126 31 81 41 109 43 100 7 -3 -11 -8 -40 -12 -63 -5 -34 -14 -47 -45 -68
-22 -14 -39 -30 -39 -35 0 -15 26 -12 40 5 14 16 30 20 30 6 0 -11 -109 -59
-151 -67 -19 -3 -52 -13 -74 -21 -24 -9 -92 -17 -171 -20 l-131 -6 4 59 c13
205 28 248 24 68 -2 -83 0 -105 11 -102 21 7 40 88 34 148 -3 30 -7 114 -9
185 -4 140 -25 217 -63 229 -78 23 -239 47 -381 55 -92 6 -191 13 -219 16 -49
6 -51 7 -47 33 11 69 36 172 56 225 l22 57 82 0 c46 0 85 -5 88 -10z m880 -30
l30 -20 -47 0 c-25 0 -54 3 -63 7 -15 5 -14 8 6 19 32 18 39 17 74 -6z m38
-52 c-17 -8 -29 -8 -45 0 -20 9 -18 11 22 11 40 0 42 -2 23 -11z m150 5 c2 -5
7 -20 11 -35 6 -24 2 -29 -26 -42 -30 -12 -36 -11 -73 10 -22 13 -41 28 -43
33 -5 16 31 18 66 4 31 -13 33 -12 30 4 -2 10 -8 18 -15 18 -6 0 -15 3 -19 8
-4 4 9 7 29 7 20 0 38 -3 40 -7z m-122 -75 c22 -12 39 -25 39 -29 0 -9 -40
-24 -56 -21 -7 1 -14 -4 -17 -12 -3 -8 -24 -24 -47 -35 l-40 -19 0 28 c0 58
32 110 68 110 8 0 32 -10 53 -22z m158 -56 c1 -9 -6 -8 -25 5 -25 16 -25 17
-8 30 16 12 20 11 26 -4 3 -10 7 -24 7 -31z m-49 -7 c41 -21 38 -35 -7 -35
-47 1 -86 26 -63 40 21 14 37 12 70 -5z m-84 -44 c-3 -5 -23 -11 -43 -15 -21
-3 -49 -9 -63 -12 -15 -3 -5 6 25 24 36 20 55 26 68 20 10 -5 15 -13 13 -17z
m152 -24 c5 -24 -15 -21 -21 4 -3 13 -1 19 6 16 7 -2 13 -11 15 -20z m-84 -5
c3 -5 -23 -22 -57 -39 -61 -30 -63 -30 -112 -15 -27 8 -45 16 -40 18 42 14
164 43 182 43 12 1 24 -3 27 -7z m78 -39 c13 -4 43 -81 35 -89 -1 -2 -44 10
-94 25 l-93 27 53 26 c28 15 59 24 67 21 8 -3 22 -7 32 -10z m-738 -73 c41
-21 54 -67 55 -189 1 -118 -16 -131 -21 -16 -3 69 -17 90 -29 43 -5 -20 -7
-18 -18 17 -17 52 -59 119 -85 135 -11 7 -46 17 -76 21 -45 6 -37 7 45 5 63
-1 111 -7 129 -16z m-179 -28 c-6 -4 -23 -19 -40 -34 -16 -14 -45 -29 -63 -33
-32 -7 -32 -6 -20 20 6 14 23 33 37 40 27 15 102 21 86 7z m969 -60 c4 -20 9
-49 12 -65 5 -26 5 -27 -20 -16 -28 13 -33 25 -13 32 6 2 9 8 5 12 -4 4 -20 3
-37 -3 -23 -8 -41 -6 -85 10 -31 12 -56 24 -56 27 0 4 24 21 53 37 50 29 54
30 93 17 37 -13 43 -19 48 -51z m-862 1 c28 -32 31 -61 8 -73 -28 -15 -43 -4
-30 20 9 17 5 22 -27 35 -21 9 -46 14 -56 11 -15 -4 -16 -2 -6 10 17 20 92 18
111 -3z m-198 -48 c-18 -28 -34 -33 -34 -10 0 12 23 29 48 34 1 1 -5 -10 -14
-24z m111 6 c18 -7 14 -14 -38 -68 -31 -33 -57 -64 -57 -69 0 -6 -7 -19 -15
-30 -14 -18 -14 -17 -5 10 6 16 9 44 8 64 -2 30 4 40 37 68 41 37 40 36 70 25z
m-189 -88 c-8 -26 -15 -40 -15 -29 -1 25 22 102 27 88 2 -6 -4 -32 -12 -59z
m1110 31 c65 -30 70 -53 19 -83 l-35 -21 -80 22 c-44 12 -80 24 -80 27 0 5
106 77 118 80 2 1 28 -11 58 -25z m-1077 -53 c-16 -54 -24 -46 -9 9 6 23 14
40 16 37 3 -3 0 -24 -7 -46z m211 46 c0 -2 -33 -30 -72 -63 -40 -32 -66 -49
-57 -37 9 13 34 36 56 52 23 16 44 34 48 40 5 10 25 16 25 8z m685 -17 c-16
-11 -41 -20 -54 -20 -32 0 -19 12 27 26 55 17 60 16 27 -6z m-615 -13 c0 -2
-17 -19 -37 -38 l-38 -34 34 38 c33 34 41 42 41 34z m-70 -11 c0 -2 -8 -10
-17 -17 -16 -13 -17 -12 -4 4 13 16 21 21 21 13z m104 -22 c7 -19 6 -156 -3
-244 l-6 -65 -56 0 -57 0 35 39 c40 44 65 98 61 130 -1 11 1 27 5 34 13 20 -2
35 -21 20 -10 -7 -7 -1 6 13 25 29 29 49 7 49 -18 0 -19 12 -3 28 16 16 25 15
32 -4z m661 -36 c25 -7 45 -15 45 -18 0 -4 -29 -22 -63 -41 l-64 -36 8 41 c5
23 8 47 9 54 0 15 8 15 65 0z m-835 -1 c0 -2 -10 -12 -22 -23 l-23 -19 19 23
c18 21 26 27 26 19z m-179 -81 c13 -14 11 -73 -3 -82 -8 -5 -9 2 -5 25 5 23 3
33 -8 37 -10 4 -15 20 -15 43 0 48 14 63 18 19 2 -18 8 -37 13 -42z m1128 47
c-1 -11 -193 -103 -199 -96 -3 3 0 7 5 10 6 2 44 23 85 48 70 41 111 55 109
38z m26 -50 c-49 -39 -247 -121 -231 -95 11 18 94 62 118 63 13 0 46 11 73 24
60 28 66 29 40 8z m-875 3 c0 -2 -8 -10 -17 -17 -16 -13 -17 -12 -4 4 13 16
21 21 21 13z m-40 -29 c0 -2 -10 -12 -22 -23 l-23 -19 19 23 c18 21 26 27 26
19z m25 -54 c-56 -49 -66 -40 -15 12 27 27 46 41 49 33 2 -6 -13 -27 -34 -45z
m-160 5 c-54 -61 -59 -66 -47 -42 10 20 71 84 80 84 2 0 -13 -19 -33 -42z
m-44 -88 c18 0 51 11 75 25 39 23 42 23 47 6 8 -31 -16 -51 -64 -51 -81 0
-116 10 -128 37 -17 37 -13 41 14 11 17 -20 34 -28 56 -28z m199 37 c0 -2 -10
-12 -22 -23 l-23 -19 19 23 c18 21 26 27 26 19z m-285 -37 c3 -5 1 -10 -4 -10
-6 0 -11 5 -11 10 0 6 2 10 4 10 3 0 8 -4 11 -10z m-112 -27 c-7 -2 -19 -2
-25 0 -7 3 -2 5 12 5 14 0 19 -2 13 -5z"/>
<path d="M11477 3858 c-48 -82 -71 -178 -43 -178 8 0 16 17 20 48 3 26 20 71
36 101 37 67 24 94 -13 29z"/>
<path d="M11861 3514 c-17 -68 -26 -174 -14 -174 5 0 15 33 21 73 6 39 15 89
18 110 10 54 -11 47 -25 -9z"/>
<path d="M12326 3174 c-5 -56 -4 -90 3 -97 14 -14 18 2 25 101 5 66 4 82 -7
82 -11 0 -16 -23 -21 -86z"/>
<path d="M3534 4035 c3 -10 -10 -33 -36 -61 -42 -45 -46 -64 -10 -45 54 29 97
121 56 121 -10 0 -14 -5 -10 -15z"/>
<path d="M13495 3952 c-78 -41 -226 -140 -387 -261 -27 -19 -48 -41 -48 -48 0
-18 7 -16 43 12 160 123 338 244 419 283 54 26 98 50 98 55 0 17 -40 4 -125
-41z"/>
<path d="M3527 3934 c-3 -4 -4 -11 -1 -15 7 -12 54 -11 54 1 0 6 -4 10 -9 10
-5 0 -16 2 -23 5 -8 3 -17 3 -21 -1z"/>
<path d="M8315 3930 c-6 -10 21 -24 68 -35 12 -3 106 -18 210 -33 132 -20 187
-24 187 -16 0 13 -3 13 -244 50 -93 14 -177 29 -187 35 -22 11 -26 11 -34 -1z"/>
<path d="M13510 3828 c-19 -11 -64 -39 -99 -61 -35 -23 -124 -73 -199 -111
-74 -39 -140 -79 -146 -88 -16 -27 2 -34 27 -11 12 12 69 44 126 73 56 28 140
75 185 104 44 29 100 63 124 76 41 23 54 40 30 40 -7 0 -29 -10 -48 -22z"/>
<path d="M9020 3772 c0 -5 8 -16 18 -25 42 -38 348 -99 311 -62 -3 2 -61 16
-128 29 -68 14 -139 35 -158 46 -38 22 -43 24 -43 12z"/>
<path d="M1765 3703 c-66 -13 -122 -26 -124 -28 -1 -2 0 -8 3 -13 3 -6 30 -4
68 4 59 13 140 28 216 40 17 3 32 9 32 14 0 16 -68 10 -195 -17z"/>
<path d="M9622 3708 c2 -7 35 -24 74 -37 57 -20 95 -25 217 -29 105 -3 147 -1
147 7 0 7 -29 11 -84 11 -107 0 -220 16 -293 41 -66 23 -66 22 -61 7z"/>
<path d="M1561 3603 c-23 -27 -41 -51 -41 -56 0 -4 -11 -12 -25 -17 -30 -11
-33 -30 -5 -30 18 0 130 122 130 142 0 19 -21 5 -59 -39z"/>
<path d="M10260 3643 c0 -17 134 -53 218 -58 45 -3 118 -7 162 -10 62 -3 80
-1 80 9 0 10 -35 14 -142 19 -79 4 -168 13 -198 22 -83 23 -120 29 -120 18z"/>
<path d="M1570 3439 c-96 -11 -255 -41 -395 -73 -60 -14 -138 -26 -172 -26
-35 0 -63 -4 -63 -10 0 -18 151 -11 235 11 155 39 314 68 436 79 68 6 165 14
214 19 l90 8 -135 0 c-74 0 -169 -3 -210 -8z"/>
<path d="M11119 3233 c-18 -47 -28 -117 -19 -127 10 -10 10 -10 30 69 7 28 14
58 17 68 9 28 -17 19 -28 -10z"/>
<path d="M11612 3221 c-15 -47 -16 -131 -2 -131 6 0 10 15 10 33 0 33 12 88
25 120 5 11 3 17 -7 17 -9 0 -20 -17 -26 -39z"/>
<path d="M11330 2911 c0 -38 -3 -76 -6 -85 -4 -11 -1 -16 10 -16 13 0 16 14
16 85 0 50 -4 85 -10 85 -6 0 -10 -30 -10 -69z"/>
<path d="M10877 2834 c-11 -12 16 -64 49 -94 45 -39 90 -61 199 -98 84 -28
335 -83 450 -98 80 -10 40 12 -45 25 -199 31 -405 88 -511 142 -58 29 -131
100 -110 107 6 2 9 8 5 13 -6 10 -28 12 -37 3z"/>
<path d="M2701 2377 c-38 -46 -70 -194 -71 -325 0 -80 -1 -82 -20 -72 -11 6
-18 15 -15 21 11 17 -5 30 -25 19 -27 -14 -15 -44 26 -63 19 -9 34 -20 34 -25
0 -4 -14 -24 -31 -45 -23 -28 -38 -37 -61 -37 l-31 0 7 74 c4 50 3 77 -4 81
-23 15 -66 -9 -134 -73 -39 -37 -82 -76 -95 -87 l-24 -20 21 30 c28 40 36 95
18 119 -20 24 -81 24 -114 -1 -15 -11 -37 -39 -50 -64 -23 -45 -65 -79 -79
-66 -4 5 1 31 11 58 28 79 1 83 -29 4 -22 -55 -14 -95 18 -95 13 0 28 5 35 12
9 9 12 4 12 -24 0 -38 12 -48 58 -48 43 0 120 51 225 149 54 50 101 91 103 91
3 0 2 -31 -2 -70 -8 -81 2 -100 50 -100 35 0 68 22 95 64 l19 28 7 -23 c11
-37 35 -70 45 -64 6 4 5 17 -4 33 -7 15 -16 39 -19 53 -7 26 -6 26 71 33 156
13 274 -56 232 -135 -12 -22 8 -27 28 -7 37 37 -15 125 -91 151 -36 12 -39 16
-22 22 71 26 125 56 125 69 0 51 -207 2 -225 -54 -4 -13 -16 -20 -33 -21 -15
-1 -38 -3 -52 -4 -46 -5 -50 2 -50 89 1 100 21 218 49 281 12 26 21 49 21 51
0 9 -18 3 -29 -9z m279 -341 c0 -8 -131 -48 -137 -42 -3 3 7 11 23 17 16 6 38
15 49 19 21 9 65 13 65 6z m-702 -102 c3 -32 -29 -84 -53 -84 -7 0 -16 11 -19
25 -8 31 -26 33 -26 3 0 -31 11 -45 40 -56 l25 -9 -32 -17 c-18 -9 -43 -16
-58 -16 -21 0 -25 5 -25 28 0 38 43 126 71 146 13 9 35 15 49 14 20 -2 26 -9
28 -34z"/>
<path d="M1903 2369 c-12 -4 -28 -18 -37 -31 -21 -33 -79 -205 -112 -337 l-29
-113 -86 -43 c-122 -62 -186 -78 -281 -73 -87 5 -128 26 -138 69 -9 38 8 126
41 206 80 192 211 279 387 256 56 -7 72 -7 72 3 0 17 -77 28 -158 22 -120 -9
-224 -79 -288 -195 -98 -173 -111 -322 -34 -363 40 -22 120 -30 198 -20 62 8
98 20 185 63 99 49 107 51 107 31 0 -32 34 -56 89 -62 41 -4 58 1 110 28 34
18 61 39 61 46 0 19 -3 18 -57 -16 -36 -23 -58 -30 -98 -30 -62 0 -75 11 -75
65 0 75 103 419 138 458 8 9 26 17 39 17 12 0 23 4 23 9 0 13 -33 19 -57 10z"/>
<path d="M6590 2173 c-38 -7 -45 -20 -19 -34 17 -9 24 -9 27 0 2 7 36 11 99
11 71 0 94 3 91 13 -5 12 -146 20 -198 10z"/>
<path d="M2052 2138 c-16 -16 -15 -43 3 -58 20 -17 32 -5 15 15 -13 16 -8 20
33 27 10 2 19 8 20 13 3 15 -56 18 -71 3z"/>
<path d="M7239 2104 c-13 -26 -40 -65 -59 -87 -34 -38 -38 -40 -68 -29 -33 11
-48 9 -90 -11 -32 -15 -57 -64 -42 -82 8 -9 4 -25 -15 -60 -39 -75 -32 -115
20 -115 70 0 162 108 168 197 1 25 11 47 26 62 20 20 23 21 17 5 -20 -50 -56
-189 -56 -213 0 -24 15 -51 30 -51 3 0 5 26 6 58 1 58 57 248 95 324 23 44 23
48 6 48 -8 0 -25 -21 -38 -46z m-135 -143 c9 -13 -60 -53 -84 -49 -20 3 -19 4
5 31 25 26 68 36 79 18z m1 -106 c-28 -59 -78 -105 -113 -105 -54 0 -1 100 78
146 30 18 57 28 58 23 2 -6 -8 -34 -23 -64z"/>
<path d="M7828 2036 c-45 -16 -129 -78 -157 -116 -11 -15 -24 -43 -28 -61 -8
-28 -22 -40 -90 -80 -79 -45 -81 -46 -91 -25 -7 16 -4 30 9 56 38 70 18 119
-48 120 -26 0 -34 -5 -39 -25 -3 -13 -28 -46 -55 -73 -57 -57 -63 -87 -22
-103 34 -13 86 -4 104 17 10 12 14 12 20 2 15 -23 10 -35 -29 -61 -69 -48 -90
-118 -55 -178 34 -57 113 -63 140 -9 15 29 16 99 3 155 -11 49 -10 49 93 108
73 41 82 44 115 35 38 -11 123 -5 145 9 7 5 -23 10 -67 13 l-79 5 111 85 c109
82 131 105 115 121 -16 16 -59 18 -95 5z m67 -25 c-23 -20 -188 -142 -206
-151 -25 -14 -24 -1 4 37 46 62 135 123 182 123 17 0 25 -4 20 -9z m-431 -126
c7 -18 -10 -65 -23 -65 -8 0 -31 52 -31 71 0 15 48 10 54 -6z m-61 -68 l16
-37 -29 -15 c-36 -18 -80 -20 -80 -2 0 10 72 98 76 93 1 0 9 -18 17 -39z m61
-168 c10 -52 7 -134 -6 -147 -34 -34 -98 12 -98 71 0 21 11 40 39 68 21 22 43
39 49 39 5 0 12 -14 16 -31z"/>
<path d="M6521 1960 c-40 -102 -40 -142 -2 -181 27 -26 36 -29 98 -29 74 0
128 12 158 34 32 23 9 30 -37 11 -50 -20 -163 -24 -196 -6 -30 16 -29 79 3
165 27 73 30 86 16 86 -5 0 -23 -36 -40 -80z"/>
<path d="M6582 2013 c4 -23 85 -62 136 -65 52 -4 55 14 5 25 -48 9 -113 37
-113 49 0 4 -7 8 -16 8 -9 0 -14 -7 -12 -17z"/>
<path d="M12977 1833 c-3 -5 -13 -36 -22 -71 -11 -39 -25 -67 -37 -73 -13 -7
-18 -17 -15 -30 3 -12 -17 -67 -49 -135 -56 -120 -61 -134 -44 -134 5 0 35 51
66 113 31 61 57 113 58 114 5 7 101 -25 149 -49 44 -23 57 -26 57 -14 0 8 -9
18 -20 21 -11 3 -20 12 -20 20 0 8 -9 17 -21 20 -29 10 -61 86 -67 162 -3 43
-9 63 -18 63 -7 0 -15 -3 -17 -7z m41 -190 c11 -21 11 -21 -18 -13 -55 16 -56
18 -28 90 10 24 10 24 22 -15 7 -22 18 -50 24 -62z"/>
<path d="M13300 1823 c-23 -8 -60 -45 -75 -73 -13 -25 -33 -238 -27 -295 1
-16 7 -34 13 -40 20 -20 29 22 28 148 -1 176 17 221 94 238 31 7 67 -17 67
-45 0 -25 -50 -75 -83 -84 -17 -4 -33 -14 -35 -21 -9 -27 71 -2 107 34 28 27
34 41 33 71 -2 49 -26 74 -71 73 -20 0 -43 -3 -51 -6z"/>
<path d="M11524 1809 c-35 -10 -94 -70 -94 -96 0 -9 -10 -37 -22 -62 -28 -57
-33 -195 -8 -211 26 -16 35 -5 44 53 5 32 14 57 21 57 24 0 92 59 123 106 36
54 44 121 16 148 -17 18 -34 19 -80 5z m70 -35 c19 -49 -81 -194 -134 -194
-14 0 -13 99 1 139 19 55 117 96 133 55z m-177 -281 c-2 -21 -4 -4 -4 37 0 41
2 58 4 38 2 -21 2 -55 0 -75z"/>
<path d="M12180 1768 c-16 -29 -37 -78 -46 -108 -27 -91 -26 -87 -32 -70 -8
24 -25 31 -62 24 -54 -9 -103 -39 -158 -95 -29 -29 -55 -49 -59 -45 -6 6 6 65
22 109 5 11 2 17 -8 17 -19 0 -38 -54 -39 -109 -1 -80 22 -80 98 -1 31 33 76
69 100 80 l43 21 34 -25 c27 -21 33 -32 29 -51 -7 -37 8 -117 21 -112 6 2 10
27 8 66 -2 59 -1 62 18 56 34 -10 120 -22 126 -17 12 13 2 20 -38 25 -24 3
-56 11 -71 17 -26 9 -28 13 -21 47 13 69 48 148 82 182 18 18 33 35 33 37 0 2
-11 4 -25 4 -19 0 -31 -11 -55 -52z"/>
<path d="M10383 1773 c-18 -7 -16 -43 2 -43 8 0 15 5 15 10 0 16 37 12 55 -7
13 -13 16 -27 11 -61 -4 -32 -2 -48 9 -59 26 -25 18 -72 -18 -108 -45 -45
-100 -59 -144 -38 -41 19 -57 8 -24 -18 55 -45 158 -15 208 60 27 40 29 71 7
112 -8 16 -12 39 -9 50 20 62 -51 127 -112 102z"/>
<path d="M13533 1723 c-13 -36 -18 -75 -18 -157 0 -136 19 -157 22 -23 1 81
15 155 38 210 5 12 3 17 -8 17 -9 0 -23 -20 -34 -47z"/>
<path d="M11005 1693 c-20 -38 -52 -86 -71 -109 -32 -40 -34 -41 -83 -36 -82
8 -112 -40 -48 -78 49 -30 97 -22 97 16 0 7 23 44 51 81 29 37 49 59 46 48
-12 -42 -18 -114 -11 -139 10 -40 24 -31 24 17 0 23 9 80 20 127 11 47 23 97
26 113 11 48 -13 29 -51 -40z m-150 -169 c13 -5 14 -8 3 -15 -19 -12 -25 -11
-32 6 -6 16 3 19 29 9z"/>
<path d="M11666 1599 c-32 -25 -60 -75 -52 -95 3 -7 1 -16 -4 -19 -6 -4 -10
-19 -10 -36 0 -24 4 -29 25 -29 64 0 135 74 135 140 0 61 -43 79 -94 39z m74
-33 c0 -13 -6 -28 -12 -33 -20 -15 -58 -22 -58 -11 0 6 -7 8 -15 4 -13 -5 -13
-2 1 20 32 48 84 61 84 20z m-50 -91 c-26 -27 -60 -33 -60 -11 0 11 21 21 79
35 3 1 -6 -10 -19 -24z"/>
<path d="M10574 1575 c-20 -31 -35 -94 -28 -117 9 -29 50 -21 83 15 17 17 31
35 31 39 0 3 16 16 36 28 23 15 32 26 26 32 -15 15 -51 -8 -105 -66 l-48 -51
6 40 c4 22 13 50 21 62 8 12 14 27 14 33 0 18 -19 11 -36 -15z"/>
<path d="M13765 1558 c-34 -19 -75 -61 -75 -78 0 -9 16 -24 35 -33 41 -20 45
-43 10 -59 -32 -14 -32 -28 0 -28 28 0 59 39 53 67 -2 9 -18 27 -36 39 l-32
22 32 27 c24 20 39 25 59 21 34 -7 47 9 20 23 -25 14 -41 13 -66 -1z"/>
<path d="M12303 1505 c-9 -24 3 -30 72 -35 l64 -5 -50 -79 c-69 -108 -119
-203 -119 -228 0 -30 21 -17 34 22 7 19 40 79 74 134 108 169 121 206 66 186
-14 -6 -40 -9 -57 -9 -24 1 -26 3 -9 6 39 8 24 23 -23 23 -32 0 -47 -5 -52
-15z"/>
<path d="M6136 1454 c-17 -44 18 -179 86 -326 44 -97 81 -105 94 -20 9 63 12
67 36 37 46 -59 104 -24 264 162 123 144 147 195 36 77 -37 -39 -101 -108
-144 -153 -56 -60 -83 -81 -102 -81 -33 0 -39 12 -47 93 -11 119 -28 104 -55
-50 -9 -57 -21 -106 -25 -108 -8 -6 -70 138 -99 231 -22 72 -26 114 -10 114
16 0 11 27 -6 34 -21 8 -21 8 -28 -10z"/>
<path d="M7246 1423 c-7 -16 -25 -76 -39 -134 -15 -58 -35 -127 -47 -153 -23
-55 -25 -66 -7 -65 6 0 26 21 42 46 38 57 55 65 55 25 0 -44 52 -67 134 -57
33 3 86 8 116 10 124 8 171 34 57 32 -76 -2 -97 11 -97 60 0 26 8 42 30 63 33
30 98 47 125 32 14 -7 11 -13 -20 -40 -35 -32 -45 -36 -76 -33 -19 2 -33 -25
-18 -34 29 -19 131 43 149 89 12 33 -7 46 -67 46 -94 0 -153 -48 -153 -126 0
-23 5 -46 12 -50 32 -20 -106 -33 -143 -14 -27 15 -24 48 6 62 14 6 25 17 25
25 0 17 -42 17 -86 -2 -34 -14 -36 -14 -29 3 3 9 15 55 26 102 11 47 27 95 34
107 19 28 19 33 0 33 -8 0 -21 -12 -29 -27z"/>
<path d="M8010 1280 c-8 -5 -33 -10 -55 -10 -49 0 -85 -9 -85 -21 0 -5 25 -20
55 -33 40 -18 56 -31 61 -50 9 -39 -13 -91 -57 -130 -44 -40 -47 -46 -21 -46
33 0 85 61 102 119 11 41 -5 98 -32 112 -21 11 -19 13 22 28 24 9 45 22 48 29
4 14 -17 16 -38 2z"/>
<path d="M7780 1259 c-14 -6 -38 -22 -53 -37 -16 -15 -28 -22 -27 -17 5 24 -1
27 -20 10 -26 -23 -26 -51 0 -58 14 -4 33 7 62 35 23 22 52 44 65 49 13 5 21
13 18 19 -7 12 -12 12 -45 -1z"/>
<path d="M6678 1228 c-31 -25 -68 -91 -68 -123 0 -46 30 -71 71 -59 42 12 89
72 96 121 4 34 2 43 -18 57 -28 19 -59 21 -81 4z m70 -53 c4 -40 -50 -108 -82
-103 -25 4 -34 45 -16 78 9 17 14 18 31 9 14 -7 24 -8 31 -1 7 7 3 14 -11 22
-28 14 -17 32 17 28 22 -2 28 -9 30 -33z"/>
<path d="M6836 1168 c-28 -98 -29 -118 -4 -118 11 0 130 107 136 122 9 22 -30
4 -72 -33 l-47 -42 6 35 c7 34 -10 66 -19 36z"/>
</g>
</svg>
