<?xml version="1.0" encoding="UTF-8" standalone="no"?>
<!DOCTYPE svg PUBLIC "-//W3C//DTD SVG 1.1//EN" "http://www.w3.org/Graphics/SVG/1.1/DTD/svg11.dtd">
<svg width="100%" height="100%" viewBox="0 0 1024 1024" version="1.1" xmlns="http://www.w3.org/2000/svg" xmlns:xlink="http://www.w3.org/1999/xlink" xml:space="preserve" xmlns:serif="http://www.serif.com/" style="fill-rule:evenodd;clip-rule:evenodd;stroke-linejoin:round;stroke-miterlimit:2;">
    <g transform="matrix(0.46278,0,0,-0.46278,-56.5313,1080.91)">
        <path d="M1080,2320C1080,2316 1061,2310 1038,2306C923,2291 918,2290 923,2262C926,2247 919,2213 908,2185C896,2158 888,2123 889,2108C890,2085 883,2077 850,2060C812,2040 807,2040 751,2055C605,2093 523,2046 664,2005C747,1980 746,1981 725,1911C715,1877 705,1850 702,1850C699,1850 680,1855 659,1862C615,1875 609,1895 635,1944C644,1960 648,1975 646,1977C636,1987 623,1969 610,1931C603,1908 595,1890 593,1890C591,1890 576,1897 560,1905C534,1918 532,1923 540,1950C548,1978 547,1980 529,1975C519,1971 510,1971 510,1974C510,1977 533,2007 561,2040C589,2074 610,2104 607,2107C604,2110 579,2088 551,2058C506,2010 499,2006 481,2018C451,2035 444,2033 464,2012C479,1994 479,1992 459,1974C447,1964 418,1927 393,1893C368,1858 342,1826 334,1822C321,1815 321,1804 335,1741C343,1701 357,1656 366,1641C381,1616 380,1611 356,1557C327,1491 292,1470 205,1464C161,1462 155,1459 157,1441C159,1429 155,1420 149,1420C142,1420 139,1391 141,1338C144,1264 142,1255 127,1258C103,1262 106,1243 130,1237C146,1233 150,1223 150,1187C150,1154 146,1140 133,1136C118,1130 120,1125 146,1101C162,1086 212,1052 256,1027C336,981 337,979 353,923C368,868 368,865 348,837C336,821 322,811 314,814C297,821 296,808 311,793C320,784 319,775 306,756C297,741 285,730 279,730C273,730 270,724 273,718C275,711 269,688 259,668C237,626 236,620 249,620C254,620 262,630 266,643C272,663 275,661 292,621C302,597 331,549 355,514C414,432 475,395 520,413C597,445 676,470 687,466C712,456 699,443 648,427C582,406 527,373 535,359C540,352 548,354 558,363C568,371 609,391 651,408L727,438L819,402C869,382 912,359 914,350C928,303 931,248 921,254C915,258 910,270 910,280C910,301 863,357 854,347C844,337 946,176 971,162C995,149 1086,151 1157,166C1186,172 1189,170 1193,144C1197,115 1197,116 1199,147L1200,180L1262,173C1307,169 1321,170 1316,178C1312,185 1297,190 1282,191L1255,191L1280,202C1317,217 1287,224 1243,209C1214,200 1205,200 1202,209C1199,217 1194,216 1186,205C1174,188 1050,164 1024,174C985,189 927,330 960,330C965,330 967,337 964,345C960,353 963,360 970,360C999,360 966,378 915,389C885,396 860,406 860,411C860,425 891,470 900,470C905,470 943,452 984,429L1060,388L1030,347C1014,325 1000,295 1000,281C1001,258 1003,259 1021,295C1032,317 1048,345 1058,357L1075,378L1150,334C1222,291 1256,278 1233,301C1224,310 1229,328 1251,371C1267,404 1283,430 1286,430C1298,430 1360,388 1360,380C1360,376 1340,369 1315,366C1290,362 1270,354 1270,349C1270,339 1302,342 1352,356C1368,361 1367,356 1349,301C1327,238 1327,189 1348,182C1355,180 1358,184 1354,194C1350,204 1354,212 1364,216C1373,219 1380,230 1380,239C1380,248 1391,279 1403,309C1425,363 1426,363 1489,381C1553,398 1554,398 1583,377C1599,365 1628,340 1647,323C1682,289 1704,282 1715,300C1719,307 1727,307 1740,300C1761,289 1807,286 1797,297C1786,307 1842,340 1870,340C1887,340 1912,358 1952,401C1984,434 2010,467 2010,473C2010,480 1985,459 1956,428C1926,396 1899,370 1895,370C1891,370 1927,413 1975,465C2042,538 2067,559 2081,555C2105,547 2105,564 2081,587C2056,611 2018,688 2014,724C2011,741 2018,763 2031,781C2048,805 2055,808 2071,799C2082,793 2096,791 2103,793C2110,795 2103,803 2087,810C2061,823 2060,824 2076,848C2097,880 2086,889 2060,859C2046,843 2048,849 2065,877C2082,903 2097,917 2106,913C2124,906 2204,956 2250,1004L2287,1042L2282,1116C2278,1188 2278,1190 2300,1190C2313,1190 2320,1193 2316,1197C2312,1202 2303,1205 2297,1205C2290,1205 2284,1225 2282,1253C2279,1298 2280,1301 2299,1295C2311,1292 2320,1291 2320,1293C2320,1306 2264,1360 2250,1360C2242,1360 2208,1378 2175,1400C2142,1422 2107,1440 2098,1440C2078,1440 2075,1445 2065,1489C2059,1518 2060,1522 2074,1517C2083,1513 2090,1515 2090,1520C2090,1525 2082,1531 2071,1535C2061,1538 2043,1563 2031,1592C2008,1647 1990,1653 2009,1599C2015,1581 2020,1563 2020,1559C2020,1551 1901,1587 1888,1599C1885,1602 1899,1634 1921,1670C1942,1706 1963,1741 1968,1749C1974,1760 1984,1759 2020,1740C2079,1711 2077,1714 2050,1685C2037,1671 2030,1657 2034,1653C2038,1648 2051,1657 2062,1673C2073,1688 2091,1700 2103,1700C2119,1700 2121,1703 2113,1711C2095,1729 2126,1786 2144,1770C2155,1762 2151,1745 2125,1682C2083,1585 2076,1560 2089,1560C2094,1560 2104,1577 2111,1597C2134,1669 2172,1740 2186,1740C2209,1740 2202,1753 2160,1789C2138,1808 2120,1827 2120,1832C2120,1840 2042,1951 1978,2033C1937,2086 1932,2100 1955,2100C1967,2100 1968,2103 1958,2119C1947,2138 1944,2137 1887,2109C1855,2092 1821,2081 1813,2084C1805,2088 1782,2077 1762,2062C1691,2006 1691,2006 1609,2057C1568,2082 1509,2112 1478,2122C1422,2141 1419,2144 1385,2211C1366,2249 1350,2287 1350,2294C1350,2313 1327,2327 1322,2312C1320,2305 1310,2304 1288,2312C1272,2318 1232,2320 1200,2317C1169,2313 1129,2315 1111,2320C1094,2325 1080,2325 1080,2320ZM1309,2264C1320,2250 1334,2222 1340,2202C1346,2182 1356,2155 1362,2142C1383,2100 1357,2102 1263,2147L1171,2192L1186,2221C1194,2237 1205,2250 1210,2250C1216,2250 1220,2255 1220,2260C1220,2284 1188,2267 1173,2235C1164,2215 1151,2201 1146,2204C1052,2242 1030,2248 1025,2240C1017,2227 1076,2192 1116,2184L1148,2178L1125,2122C1112,2091 1097,2064 1091,2062C1085,2060 1064,2074 1044,2094C1024,2114 1004,2127 999,2124C994,2121 992,2134 994,2151C996,2169 1002,2186 1009,2188C1015,2190 1017,2196 1014,2201C1010,2207 1003,2207 995,2200C975,2184 971,2200 984,2240C993,2269 1000,2276 1028,2278C1046,2280 1068,2276 1076,2269C1085,2262 1090,2261 1090,2268C1090,2281 1124,2287 1217,2289C1283,2290 1290,2288 1309,2264ZM964,2255C960,2247 954,2243 949,2246C935,2254 939,2270 955,2270C964,2270 967,2264 964,2255ZM1232,2145C1266,2131 1304,2113 1316,2105L1338,2091L1315,2045C1302,2020 1290,1995 1288,1989C1285,1980 1146,2031 1127,2049C1120,2056 1157,2170 1167,2170C1169,2170 1198,2159 1232,2145ZM932,2115C930,2101 924,2092 920,2095C910,2101 919,2140 930,2140C934,2140 935,2129 932,2115ZM1463,2094C1481,2085 1516,2063 1541,2045C1586,2013 1643,1980 1655,1980C1671,1980 1656,1998 1625,2014C1606,2025 1584,2040 1578,2048C1571,2056 1589,2048 1618,2030C1646,2013 1670,1994 1670,1989C1670,1984 1677,1980 1685,1980C1703,1980 1704,1960 1688,1937C1676,1921 1669,1924 1602,1962C1545,1995 1531,2008 1536,2022C1542,2042 1530,2046 1513,2029C1504,2020 1490,2024 1456,2044C1407,2073 1396,2085 1405,2100C1414,2114 1426,2113 1463,2094ZM1021,2084C1028,2076 1046,2062 1062,2054L1090,2040L1069,1987C1057,1959 1046,1929 1043,1923C1040,1916 1042,1910 1047,1910C1051,1910 1066,1937 1079,1970C1092,2003 1106,2030 1111,2030C1115,2030 1140,2021 1167,2009C1193,1998 1229,1982 1247,1975L1279,1962L1261,1914C1249,1884 1234,1863 1220,1858C1198,1850 1088,1878 972,1923C911,1946 912,1946 955,2043C980,2101 998,2112 1021,2084ZM1920,2078C1920,2071 1936,2045 1955,2021C1990,1978 1999,1950 1980,1950C1975,1950 1970,1945 1970,1939C1970,1931 1976,1932 1986,1941C2000,1952 2005,1951 2021,1931C2039,1909 2039,1906 2024,1889C2008,1872 2006,1872 1960,1895C1933,1909 1909,1923 1907,1927C1904,1932 1910,1953 1921,1974C1943,2020 1943,2020 1930,2020C1924,2020 1913,2002 1904,1980C1895,1958 1886,1940 1884,1940C1870,1940 1802,1981 1787,1998C1769,2018 1770,2019 1832,2054C1899,2092 1920,2098 1920,2078ZM920,2005L898,1951L861,1966C841,1974 814,1979 801,1978C788,1976 775,1981 773,1987C770,1995 801,2016 852,2040C900,2064 936,2076 938,2070C940,2064 932,2035 920,2005ZM1390,2060C1401,2049 1414,2040 1420,2040C1439,2040 1500,2006 1500,1996C1500,1990 1491,1966 1480,1943L1461,1901L1383,1936C1340,1956 1304,1973 1303,1974C1297,1980 1351,2080 1360,2080C1365,2080 1379,2071 1390,2060ZM761,2033C767,2027 765,2019 756,2011C744,2001 731,2001 688,2015C606,2042 605,2053 683,2047C721,2044 756,2038 761,2033ZM1775,1980C1785,1969 1801,1958 1811,1955C1822,1951 1830,1942 1830,1934C1830,1923 1836,1921 1850,1925C1861,1929 1870,1927 1870,1921C1870,1904 1837,1840 1828,1840C1823,1840 1790,1853 1754,1870L1689,1899L1705,1930C1713,1946 1725,1960 1731,1960C1737,1960 1738,1965 1735,1970C1728,1981 1737,2000 1749,2000C1753,2000 1765,1991 1775,1980ZM1590,1954C1624,1934 1654,1912 1657,1904C1663,1888 1642,1830 1629,1830C1619,1830 1497,1881 1487,1890C1480,1896 1514,1990 1524,1990C1527,1990 1556,1974 1590,1954ZM848,1950C871,1943 890,1936 890,1935C890,1931 838,1815 835,1811C827,1803 730,1843 730,1854C730,1861 737,1889 745,1917C762,1974 766,1975 848,1950ZM515,1950C518,1945 516,1940 511,1940C505,1940 500,1945 500,1950C500,1956 502,1960 504,1960C507,1960 512,1956 515,1950ZM1382,1919C1419,1901 1450,1884 1450,1881C1450,1878 1407,1875 1355,1874L1261,1873L1275,1908C1283,1927 1290,1944 1290,1946C1290,1956 1319,1947 1382,1919ZM453,1918L448,1895L467,1918C483,1938 488,1939 498,1928C507,1917 504,1898 488,1847C476,1810 463,1780 459,1780C455,1780 438,1791 422,1805C388,1834 378,1836 386,1815C389,1807 407,1791 426,1780C459,1759 459,1758 444,1734C435,1721 424,1710 420,1710C416,1710 402,1737 390,1770L368,1830L409,1885C432,1915 452,1940 454,1940C456,1940 456,1930 453,1918ZM1088,1865C1122,1855 1147,1843 1143,1839C1138,1834 1106,1823 1070,1814C987,1793 918,1758 857,1708C830,1686 806,1670 803,1674C792,1685 861,1738 935,1775C1015,1814 1030,1834 959,1806C913,1787 860,1793 860,1816C860,1824 871,1853 885,1880L910,1929L967,1906C999,1894 1053,1876 1088,1865ZM1952,1881L1998,1857L1982,1823C1973,1805 1963,1790 1959,1790C1940,1790 1860,1831 1860,1840C1860,1857 1890,1912 1898,1908C1902,1906 1926,1894 1952,1881ZM561,1884C581,1874 589,1863 586,1852C553,1735 560,1744 513,1761L482,1771L503,1836C515,1871 526,1900 528,1900C529,1900 544,1893 561,1884ZM2081,1847C2091,1830 2090,1830 2061,1845C2028,1861 2022,1875 2043,1883C2055,1887 2062,1881 2081,1847ZM1602,1823C1611,1820 1620,1806 1622,1791C1625,1768 1628,1772 1652,1823C1667,1855 1683,1880 1687,1878C1692,1877 1723,1864 1758,1850C1818,1826 1820,1824 1815,1795L1809,1765L1828,1789L1848,1814L1894,1796C1919,1786 1942,1774 1945,1769C1951,1760 1904,1664 1875,1627C1863,1610 1857,1609 1826,1620C1806,1626 1786,1639 1781,1648C1776,1657 1768,1662 1764,1658C1753,1647 1781,1619 1818,1603L1851,1589L1832,1557C1821,1539 1811,1519 1808,1511C1805,1502 1789,1520 1767,1557C1730,1617 1656,1688 1590,1726C1529,1762 1458,1781 1360,1790C1248,1800 1180,1818 1201,1830C1208,1835 1245,1844 1283,1850C1347,1861 1377,1860 1460,1844C1489,1839 1493,1840 1483,1851C1457,1878 1472,1879 1528,1854C1559,1839 1593,1826 1602,1823ZM692,1834C698,1830 662,1710 654,1710C648,1710 570,1742 570,1745C570,1747 591,1810 605,1847C608,1856 619,1856 647,1848C668,1843 688,1836 692,1834ZM2118,1795C2120,1793 2114,1779 2104,1763C2094,1748 2085,1734 2085,1732C2082,1728 2006,1761 1993,1772C1984,1779 1985,1789 1997,1815L2013,1849L2064,1823C2092,1809 2116,1796 2118,1795ZM780,1806C805,1799 825,1791 824,1789C816,1753 795,1709 781,1696C764,1681 757,1680 721,1691C698,1698 680,1707 680,1713C680,1735 716,1820 725,1820C730,1820 755,1814 780,1806ZM370,1766C370,1761 363,1765 355,1776C347,1786 341,1800 341,1805C341,1811 347,1806 355,1796C363,1785 370,1772 370,1766ZM1228,1795C1225,1792 1185,1780 1139,1769C1025,1742 990,1730 990,1718C990,1712 998,1711 1008,1715C1017,1719 1067,1733 1119,1746C1248,1779 1397,1781 1493,1751C1562,1729 1584,1713 1530,1724C1473,1735 1500,1714 1571,1691C1621,1675 1656,1656 1686,1628C1737,1581 1790,1494 1790,1456C1790,1441 1796,1430 1804,1430C1827,1430 1845,1342 1844,1230C1843,1143 1838,1114 1817,1060C1784,975 1747,899 1753,928C1763,972 1742,949 1721,891C1696,823 1665,779 1646,786C1638,789 1630,782 1627,768C1623,754 1603,734 1578,720L1535,696L1603,770C1640,810 1668,845 1665,848C1663,851 1629,821 1591,782C1553,743 1510,708 1496,704C1482,701 1470,695 1470,691C1470,675 1353,628 1325,633L1295,637L1327,639C1344,639 1362,645 1365,650C1369,656 1331,660 1258,660C1141,660 1079,672 997,708C937,735 937,742 997,724C1050,708 1080,706 1080,719C1080,723 1061,730 1037,732C976,739 890,784 838,838C796,881 701,1027 672,1093C657,1127 656,1186 670,1195C683,1203 683,1220 670,1220C664,1220 654,1209 648,1195C628,1150 620,1169 620,1264C620,1370 633,1422 657,1413C670,1408 672,1413 667,1441C659,1480 674,1517 686,1487C691,1473 698,1477 730,1512C764,1551 769,1553 785,1540C801,1526 802,1527 796,1546C788,1571 806,1609 846,1648C885,1687 1014,1770 1037,1770C1047,1770 1064,1777 1074,1785C1093,1799 1241,1808 1228,1795ZM890,1774C890,1772 877,1764 860,1755C836,1743 830,1742 830,1753C830,1774 850,1788 871,1783C881,1780 890,1776 890,1774ZM517,1739L548,1729L532,1679C516,1630 514,1629 486,1634C440,1643 436,1653 455,1704C475,1755 474,1754 517,1739ZM380,1693C380,1666 362,1681 358,1712C353,1740 354,1741 367,1725C374,1714 380,1700 380,1693ZM612,1708C647,1698 651,1694 646,1671C640,1645 640,1645 655,1666C669,1685 675,1686 709,1677L748,1666L708,1609L667,1552L611,1577C580,1591 549,1604 543,1607C536,1610 530,1615 530,1619C530,1634 562,1720 567,1720C570,1720 590,1715 612,1708ZM744,1589C723,1568 702,1550 697,1550C688,1550 721,1601 754,1638C772,1659 775,1659 778,1645C780,1635 765,1611 744,1589ZM475,1618C505,1604 505,1604 480,1546C460,1499 445,1491 409,1510C385,1523 385,1549 408,1594C427,1633 436,1636 475,1618ZM657,1536C658,1535 648,1500 634,1459C620,1419 606,1359 603,1328C596,1258 586,1255 492,1300L429,1329L443,1362C451,1380 465,1412 475,1432L493,1469L557,1463C601,1459 620,1461 620,1469C620,1476 601,1480 570,1480C541,1480 520,1485 520,1491C520,1497 511,1499 500,1495C475,1487 475,1496 500,1553L520,1599L588,1568C625,1552 656,1537 657,1536ZM1942,1558L2009,1535L1974,1478C1954,1446 1935,1420 1932,1420C1928,1420 1910,1429 1892,1440C1855,1463 1850,1464 1850,1450C1850,1445 1868,1431 1890,1420L1930,1399L1908,1360L1885,1321L1848,1401L1811,1482L1835,1531C1849,1558 1864,1580 1868,1580C1873,1580 1906,1570 1942,1558ZM416,1490C443,1481 450,1474 445,1461C441,1452 434,1423 429,1396C424,1369 418,1345 417,1343C415,1342 396,1349 375,1360C319,1388 293,1386 271,1349C254,1321 251,1320 236,1336C227,1345 216,1349 212,1345C208,1341 215,1330 228,1320C247,1304 249,1297 240,1280C234,1268 231,1254 233,1247C235,1240 243,1247 250,1263C266,1296 269,1296 329,1265L378,1241L364,1194C356,1168 349,1146 347,1144C346,1143 309,1156 265,1174C196,1201 185,1209 187,1228C189,1240 184,1250 177,1250C169,1250 169,1253 175,1258C181,1262 186,1293 185,1327C185,1362 188,1390 193,1390C197,1390 209,1399 220,1410C230,1420 258,1439 280,1450L322,1471L314,1448C308,1428 309,1427 324,1439C333,1446 340,1459 340,1466C340,1474 345,1480 350,1480C356,1480 360,1492 360,1508C361,1530 362,1532 370,1518C376,1509 396,1496 416,1490ZM2050,1477C2056,1454 2063,1428 2065,1420C2067,1412 2060,1394 2050,1382L2030,1358L1995,1380C1976,1392 1960,1406 1960,1412C1960,1429 2024,1529 2032,1524C2036,1521 2044,1500 2050,1477ZM210,1430C190,1417 177,1417 185,1430C188,1436 199,1440 208,1440C223,1440 223,1438 210,1430ZM2020,1344C2020,1342 2010,1320 1999,1298L1978,1256L1943,1293C1909,1330 1909,1331 1926,1360L1943,1389L1982,1369C2003,1358 2020,1347 2020,1344ZM2135,1373C2173,1355 2176,1349 2160,1319C2150,1301 2148,1301 2099,1325C2072,1339 2052,1355 2056,1361C2059,1367 2068,1369 2076,1366C2084,1363 2090,1367 2090,1375C2090,1394 2092,1394 2135,1373ZM384,1335C406,1320 408,1316 397,1292C391,1277 385,1264 384,1262C383,1260 358,1271 327,1286C275,1312 272,1315 283,1338C292,1358 299,1361 326,1357C344,1354 370,1344 384,1335ZM2231,1335L2261,1319L2251,1055L2213,1033C2192,1020 2165,1010 2152,1010C2130,1010 2048,1059 2035,1080C2028,1091 2077,1172 2088,1167C2092,1165 2123,1146 2157,1126C2191,1105 2225,1090 2232,1092C2240,1095 2236,1101 2220,1110C2177,1132 2100,1183 2100,1189C2100,1192 2121,1226 2145,1264C2170,1302 2190,1337 2190,1342C2190,1353 2197,1352 2231,1335ZM2097,1307L2140,1285L2113,1245C2099,1223 2085,1203 2083,1201C2080,1196 2045,1214 2016,1235C1997,1249 1997,1251 2015,1290C2025,1312 2038,1330 2044,1330C2050,1329 2074,1319 2097,1307ZM498,1277L568,1245L554,1218C540,1192 539,1191 501,1205C480,1212 448,1225 432,1234C403,1249 402,1252 411,1280C417,1296 423,1310 425,1310C426,1310 459,1295 498,1277ZM1953,1206C1939,1175 1933,1171 1911,1177C1886,1183 1886,1182 1903,1163C1912,1152 1920,1138 1920,1132C1920,1126 1926,1123 1933,1126C1940,1128 1958,1118 1973,1102L2001,1073L1978,1027C1965,1002 1951,981 1947,980C1943,980 1929,968 1916,954L1894,927L1851,954C1816,976 1809,986 1814,1003C1817,1015 1831,1066 1844,1115C1858,1165 1870,1221 1871,1240L1872,1275L1882,1233C1887,1209 1896,1190 1901,1190C1907,1190 1909,1198 1907,1208C1882,1300 1889,1317 1936,1274L1970,1241L1953,1206ZM470,1199C500,1186 527,1175 528,1174C530,1173 523,1151 511,1126L491,1080L438,1101C409,1112 381,1125 376,1130C364,1142 390,1232 404,1226C410,1224 440,1211 470,1199ZM2030,1205L2069,1180L2045,1144C2031,1124 2020,1103 2020,1098C2020,1085 1971,1120 1960,1141C1953,1154 1955,1169 1967,1194C1976,1214 1985,1230 1987,1230C1989,1230 2008,1219 2030,1205ZM576,1183C566,1173 557,1188 566,1201C572,1212 574,1212 578,1201C580,1194 579,1186 576,1183ZM438,1083C462,1075 479,1063 477,1056C445,977 436,960 427,960C414,960 370,1000 370,1012C370,1016 361,1029 350,1040C339,1051 330,1067 330,1075C330,1084 321,1090 305,1090C253,1090 180,1142 180,1179C180,1184 228,1169 288,1144C347,1119 414,1092 438,1083ZM584,1129C587,1113 593,1087 596,1070C599,1054 600,1040 597,1040C592,1040 516,1071 512,1075C511,1076 518,1098 529,1123C552,1176 575,1178 584,1129ZM640,1124C640,1112 633,1097 625,1090C613,1080 610,1080 610,1091C610,1099 607,1115 604,1127C599,1145 602,1149 619,1147C633,1146 640,1139 640,1124ZM255,1086C322,1058 345,1032 282,1054C214,1078 160,1110 188,1110C192,1110 222,1099 255,1086ZM668,1061C691,1009 790,857 836,803C861,774 907,736 940,717L998,684L980,660L961,635L913,659C881,676 871,685 882,687C891,690 909,686 920,680C932,674 944,671 948,674C955,682 955,682 877,714C810,742 809,743 815,774L821,805L802,782C784,759 783,759 747,776C706,795 704,809 739,826C752,833 757,840 752,844C747,847 730,840 716,829L689,808L627,840C534,889 537,884 571,952C588,985 605,1009 609,1004C613,999 624,974 634,948C652,899 685,850 700,850C705,850 699,865 686,884C674,903 653,946 640,980C620,1033 619,1044 630,1066C647,1097 652,1096 668,1061ZM579,1025C584,1019 529,900 521,900C512,900 450,939 450,945C450,947 461,974 475,1005L499,1061L537,1045C557,1036 576,1027 579,1025ZM2063,1034C2095,1013 2099,1006 2087,997C2079,990 2068,976 2062,965C2051,945 2051,946 2050,967C2050,979 2046,992 2040,995C2034,999 2030,987 2030,965C2030,946 2023,913 2015,894L2000,858L1970,880C1954,892 1940,906 1940,911C1940,927 2010,1060 2018,1060C2022,1060 2042,1048 2063,1034ZM403,955C430,931 431,929 416,900C402,872 402,871 421,880C431,886 440,897 440,905C440,913 442,920 445,920C456,920 510,889 510,883C510,880 498,857 484,833C470,809 460,784 463,777C465,771 480,789 496,818C512,847 527,870 530,870C533,870 567,853 606,833L678,795L633,732L588,670L559,694C528,720 492,735 483,726C480,723 501,706 529,689C557,671 580,655 580,653C580,642 534,570 527,570C516,570 443,618 393,658C369,676 350,687 350,683C350,668 400,625 463,586L520,549L495,499C480,471 465,452 459,456C453,459 435,483 419,508C397,542 393,557 401,567C410,577 409,580 397,580C389,580 367,604 348,633C330,661 312,690 308,697C303,703 315,726 335,750C354,773 370,802 370,814C370,827 373,840 377,844C381,847 389,866 396,886C407,918 407,920 389,915C377,911 370,913 370,922C370,929 367,945 364,958C356,986 368,986 403,955ZM2155,959C2143,940 2106,932 2093,946C2073,966 2077,970 2121,970C2147,970 2159,966 2155,959ZM1843,938C1861,926 1876,915 1878,914C1880,913 1868,893 1852,871L1822,830L1799,854C1786,868 1772,876 1767,873C1762,870 1770,855 1785,840L1812,812L1786,761C1771,733 1756,710 1752,710C1748,710 1729,723 1710,738L1676,767L1700,806C1713,827 1730,849 1737,853C1744,857 1759,883 1771,910C1783,938 1797,960 1802,960C1808,960 1826,950 1843,938ZM2050,890C2044,879 2037,870 2034,870C2032,870 2034,879 2040,890C2046,901 2053,910 2056,910C2058,910 2056,901 2050,890ZM1910,895C1910,881 1869,810 1860,810C1840,810 1842,828 1867,863C1890,896 1910,910 1910,895ZM1966,861C1982,849 1986,836 1983,817C1975,774 1955,764 1914,783L1880,800L1900,840C1923,884 1935,888 1966,861ZM2020,799C2013,788 2006,781 2003,784C2000,787 2003,796 2010,805C2028,826 2033,824 2020,799ZM1874,784C1895,773 1906,762 1903,754C1899,744 1907,740 1930,740C1952,740 1961,736 1957,728C1926,649 1916,630 1909,630C1898,630 1801,678 1783,692C1775,699 1779,714 1798,751C1813,778 1828,800 1832,800C1836,800 1855,793 1874,784ZM743,764C761,755 776,746 778,745C781,742 722,620 714,611C709,605 610,652 610,659C610,676 689,780 701,780C706,780 725,773 743,764ZM1725,706C1745,691 1745,691 1720,645C1689,587 1687,586 1653,604C1598,634 1598,633 1615,680C1624,704 1638,732 1647,742C1662,759 1664,759 1684,740C1695,729 1714,714 1725,706ZM825,724C837,719 838,715 830,710C810,698 827,682 891,650L950,620L920,560C903,527 887,500 883,500C873,500 740,581 734,592C728,602 791,730 802,730C805,730 816,727 825,724ZM1595,679C1581,653 1577,650 1562,661C1553,669 1543,675 1542,676C1537,679 1593,709 1603,710C1607,710 1603,696 1595,679ZM1996,676C1999,657 1999,637 1996,632C1993,626 1996,605 2004,583C2015,552 2015,541 2005,527C1998,518 1988,510 1982,510C1976,510 1955,496 1936,479C1905,452 1898,450 1878,461C1859,471 1715,565 1701,576C1699,578 1712,602 1730,629L1762,679L1831,645C1869,625 1900,607 1900,604C1900,602 1891,581 1880,560C1869,538 1864,520 1870,520C1875,520 1889,538 1900,560C1918,595 1923,599 1940,590C1971,574 1986,579 1960,597C1946,606 1934,614 1932,615C1926,619 1972,710 1980,710C1985,710 1992,695 1996,676ZM1536,659C1555,648 1570,633 1570,627C1570,612 1522,520 1506,503C1497,493 1475,503 1406,547L1317,603L1356,615C1378,621 1418,638 1445,653C1473,667 1497,679 1499,680C1501,680 1518,671 1536,659ZM338,613C355,584 365,558 361,555C350,549 313,610 304,648C295,682 301,677 338,613ZM1097,655C1128,647 1176,640 1202,640C1235,640 1257,634 1272,620C1285,610 1303,595 1313,587C1331,575 1331,572 1305,517C1290,486 1275,460 1272,460C1268,460 1171,517 1162,525C1160,527 1168,546 1179,568C1191,591 1196,611 1191,614C1187,617 1175,602 1165,580C1155,558 1145,540 1143,540C1139,540 989,620 981,627C974,632 1014,669 1027,669C1034,670 1065,663 1097,655ZM2050,575C2050,546 2031,561 2021,598C2005,653 2008,659 2030,622C2041,604 2050,583 2050,575ZM707,583C761,552 821,517 842,505L878,484L856,448L834,411L773,439C711,469 686,490 714,490C723,490 730,495 730,500C730,512 727,512 697,501C679,494 665,496 641,511C623,522 605,528 600,525C596,522 582,528 569,538L547,557L570,598C583,621 597,640 601,640C606,640 653,614 707,583ZM1660,575C1665,569 1657,545 1639,517C1608,467 1605,460 1618,460C1622,460 1633,475 1643,493C1684,567 1678,566 1776,505C1825,475 1871,447 1878,443C1888,437 1876,419 1832,377C1772,320 1735,306 1724,335C1720,343 1712,350 1705,350C1689,350 1630,398 1630,411C1630,417 1638,417 1649,410C1676,396 1685,397 1671,414C1662,425 1662,429 1672,433C1700,442 1673,448 1633,441C1597,434 1585,436 1555,457L1520,481L1555,551L1591,621L1621,603C1638,593 1655,580 1660,575ZM1051,568C1095,545 1130,521 1130,516C1130,510 1121,490 1109,471C1098,453 1092,435 1096,431C1100,428 1104,430 1106,435C1108,441 1119,460 1130,478L1151,512L1198,484C1265,446 1265,446 1246,397C1214,314 1211,312 1146,351C1115,370 1092,390 1094,396C1101,413 1089,421 1075,410C1066,403 1041,412 989,441C948,464 913,484 911,486C906,491 961,610 968,610C971,610 1008,591 1051,568ZM1402,527C1431,508 1479,481 1508,465C1536,450 1560,434 1560,430C1560,420 1494,399 1464,400C1448,401 1423,398 1408,395C1388,390 1371,395 1336,419L1291,451L1317,505C1332,535 1345,560 1347,560C1348,560 1373,545 1402,527ZM399,503L421,465L395,493C381,508 370,525 370,531C370,548 378,540 399,503ZM618,485C629,475 623,469 584,456C558,447 523,440 508,440L479,440L507,489L534,539L570,518C589,506 611,491 618,485ZM1394,345C1390,337 1386,330 1384,330C1382,330 1380,337 1380,345C1380,353 1384,360 1390,360C1395,360 1397,353 1394,345ZM1696,325C1706,317 1710,310 1704,310C1699,310 1685,317 1674,325C1664,333 1660,340 1666,340C1671,340 1685,333 1696,325Z" style="fill:rgb(238,238,238);fill-rule:nonzero;"/>
        <path d="M1213,1498C1078,1483 981,1393 964,1266C958,1222 988,1057 1000,1065C1003,1067 1019,1060 1036,1049C1078,1022 1088,1025 1106,1070C1115,1092 1126,1110 1131,1110C1137,1110 1159,1101 1181,1090L1220,1069L1193,1022C1179,996 1166,974 1166,973C1162,966 1052,1014 1033,1032C1020,1044 1010,1048 1010,1042C1010,1022 1052,991 1102,974C1128,966 1150,955 1150,950C1150,946 1143,926 1134,905C1126,885 1121,863 1123,857C1125,850 1137,869 1150,898L1172,950L1242,950C1322,950 1349,962 1405,1019C1426,1042 1449,1060 1456,1060C1462,1060 1480,1070 1495,1082L1522,1103L1507,1074C1487,1036 1463,1014 1415,994C1388,982 1381,975 1392,973C1417,967 1486,1006 1510,1040C1525,1061 1535,1097 1542,1148C1560,1290 1534,1400 1469,1454C1451,1470 1442,1484 1446,1494C1449,1503 1448,1510 1442,1510C1436,1510 1430,1505 1428,1499C1425,1490 1404,1490 1350,1496C1309,1501 1247,1502 1213,1498ZM1205,1433C1167,1367 1166,1367 1139,1389C1120,1405 1117,1411 1128,1421C1150,1445 1140,1452 1113,1432C1097,1421 1074,1394 1060,1371C1046,1349 1029,1330 1021,1330C1013,1330 1010,1324 1014,1314C1017,1306 1015,1290 1010,1279C997,1256 1015,1252 1028,1276C1036,1291 1040,1291 1069,1276C1102,1258 1102,1252 1066,1207C1054,1192 1048,1191 1031,1200C1019,1206 1010,1218 1010,1227C1010,1240 1007,1241 998,1232C989,1223 992,1214 1012,1193C1037,1165 1037,1165 1019,1136L1001,1107L993,1136C977,1194 984,1302 1007,1346C1044,1415 1138,1479 1203,1480L1232,1480L1205,1433ZM1394,1443C1427,1409 1469,1316 1457,1304C1454,1301 1442,1303 1431,1310C1416,1318 1410,1330 1410,1356C1410,1377 1406,1389 1400,1385C1395,1382 1390,1370 1390,1359C1390,1334 1382,1335 1337,1366C1297,1393 1297,1403 1339,1438C1349,1446 1351,1453 1344,1460C1337,1467 1316,1447 1281,1400C1235,1340 1225,1332 1209,1341C1183,1354 1185,1366 1222,1427L1254,1480L1306,1480C1353,1480 1361,1476 1394,1443ZM1460,1434C1488,1409 1504,1382 1515,1347C1534,1284 1534,1270 1515,1270C1507,1270 1500,1277 1500,1285C1500,1293 1496,1300 1491,1300C1487,1300 1477,1320 1470,1345C1463,1370 1444,1409 1429,1430C1393,1480 1407,1481 1460,1434ZM1130,1370L1155,1351L1136,1316C1115,1276 1112,1275 1075,1292C1045,1306 1044,1313 1071,1356C1095,1395 1097,1396 1130,1370ZM1361,1328C1375,1323 1356,1280 1339,1280C1324,1280 1250,1319 1250,1327C1250,1331 1260,1344 1271,1357L1293,1379L1321,1356C1337,1343 1355,1330 1361,1328ZM1202,1327C1217,1315 1217,1312 1198,1282C1176,1246 1171,1245 1147,1263C1132,1274 1132,1277 1151,1308C1174,1344 1178,1345 1202,1327ZM1425,1293C1464,1274 1465,1272 1446,1247C1433,1230 1430,1230 1401,1245C1369,1261 1366,1267 1376,1294C1384,1314 1382,1314 1425,1293ZM1294,1278L1339,1256L1322,1228C1303,1195 1299,1195 1243,1218C1196,1237 1192,1245 1216,1278C1235,1305 1239,1305 1294,1278ZM1150,1240C1169,1230 1169,1229 1148,1192C1136,1172 1125,1154 1124,1152C1122,1149 1081,1168 1071,1176C1065,1181 1114,1250 1123,1250C1128,1250 1140,1245 1150,1240ZM1418,1215C1423,1211 1391,1150 1384,1150C1374,1150 1320,1181 1320,1186C1320,1189 1328,1205 1337,1220C1353,1248 1354,1248 1384,1233C1401,1224 1416,1216 1418,1215ZM1480,1230C1480,1217 1475,1212 1466,1216C1458,1219 1454,1228 1457,1236C1465,1257 1480,1253 1480,1230ZM1524,1203C1520,1175 1509,1147 1497,1135L1477,1115L1485,1135C1490,1146 1495,1176 1498,1203C1501,1234 1507,1250 1516,1250C1526,1250 1528,1239 1524,1203ZM1244,1198L1289,1176L1268,1141C1237,1088 1236,1087 1199,1104C1137,1131 1136,1133 1159,1179C1171,1201 1185,1220 1190,1220C1195,1220 1220,1210 1244,1198ZM1480,1183C1480,1167 1452,1110 1445,1110C1442,1110 1431,1115 1421,1122C1402,1134 1402,1134 1421,1171C1435,1200 1444,1207 1460,1203C1471,1200 1480,1191 1480,1183ZM1344,1149C1364,1137 1380,1126 1380,1124C1380,1122 1353,1061 1344,1042C1343,1041 1322,1048 1296,1059L1250,1079L1277,1125C1293,1150 1306,1170 1307,1170C1308,1170 1325,1161 1344,1149ZM1089,1142C1110,1126 1110,1123 1095,1087C1078,1045 1071,1043 1039,1069C1016,1088 1016,1089 1033,1124C1052,1165 1059,1167 1089,1142ZM1427,1102C1436,1096 1432,1085 1412,1062C1397,1044 1381,1030 1377,1030C1366,1030 1369,1056 1382,1085C1394,1111 1406,1115 1427,1102ZM1299,1039C1357,1014 1360,1001 1309,983C1274,971 1190,966 1190,976C1190,986 1235,1060 1241,1060C1245,1060 1271,1050 1299,1039Z" style="fill:rgb(238,238,238);fill-rule:nonzero;"/>
        <path d="M707,906C697,892 694,880 699,880C712,880 732,908 728,921C726,927 716,921 707,906Z" style="fill:rgb(238,238,238);fill-rule:nonzero;"/>
    </g>
</svg>
