<svg version="1.0" xmlns="http://www.w3.org/2000/svg" width="246.000000pt" height="246.000000pt" viewBox="0 0 246.000000 246.000000" preserveAspectRatio="xMidYMid meet">
<metadata>Created by potrace 1.16, written by Peter Selinger 2001-2019</metadata>
<g transform="translate(0.000000,246.000000) scale(0.100000,-0.100000)" stroke="none" fill="#fff">
<path d="M1080 2320 c0 -4 -19 -10 -42 -14 -115 -15 -120 -16 -115 -44 3 -15
-4 -49 -15 -77 -12 -27 -20 -62 -19 -77 1 -23 -6 -31 -39 -48 -38 -20 -43 -20
-99 -5 -146 38 -228 -9 -87 -50 83 -25 82 -24 61 -94 -10 -34 -20 -61 -23 -61
-3 0 -22 5 -43 12 -44 13 -50 33 -24 82 9 16 13 31 11 33 -10 10 -23 -8 -36
-46 -7 -23 -15 -41 -17 -41 -2 0 -17 7 -33 15 -26 13 -28 18 -20 45 8 28 7 30
-11 25 -10 -4 -19 -4 -19 -1 0 3 23 33 51 66 28 34 49 64 46 67 -3 3 -28 -19
-56 -49 -45 -48 -52 -52 -70 -40 -30 17 -37 15 -17 -6 15 -18 15 -20 -5 -38
-12 -10 -41 -47 -66 -81 -25 -35 -51 -67 -59 -71 -13 -7 -13 -18 1 -81 8 -40
22 -85 31 -100 15 -25 14 -30 -10 -84 -29 -66 -64 -87 -151 -93 -44 -2 -50 -5
-48 -23 2 -12 -2 -21 -8 -21 -7 0 -10 -29 -8 -82 3 -74 1 -83 -14 -80 -24 4
-21 -15 3 -21 16 -4 20 -14 20 -50 0 -33 -4 -47 -17 -51 -15 -6 -13 -11 13
-35 16 -15 66 -49 110 -74 80 -46 81 -48 97 -104 15 -55 15 -58 -5 -86 -12
-16 -26 -26 -34 -23 -17 7 -18 -6 -3 -21 9 -9 8 -18 -5 -37 -9 -15 -21 -26
-27 -26 -6 0 -9 -6 -6 -12 2 -7 -4 -30 -14 -50 -22 -42 -23 -48 -10 -48 5 0
13 10 17 23 6 20 9 18 26 -22 10 -24 39 -72 63 -107 59 -82 120 -119 165 -101
77 32 156 57 167 53 25 -10 12 -23 -39 -39 -66 -21 -121 -54 -113 -68 5 -7 13
-5 23 4 10 8 51 28 93 45 l76 30 92 -36 c50 -20 93 -43 95 -52 14 -47 17 -102
7 -96 -6 4 -11 16 -11 26 0 21 -47 77 -56 67 -10 -10 92 -171 117 -185 24 -13
115 -11 186 4 29 6 32 4 36 -22 4 -29 4 -28 6 3 l1 33 62 -7 c45 -4 59 -3 54
5 -4 7 -19 12 -34 13 l-27 0 25 11 c37 15 7 22 -37 7 -29 -9 -38 -9 -41 0 -3
8 -8 7 -16 -4 -12 -17 -136 -41 -162 -31 -39 15 -97 156 -64 156 5 0 7 7 4 15
-4 8 -1 15 6 15 29 0 -4 18 -55 29 -30 7 -55 17 -55 22 0 14 31 59 40 59 5 0
43 -18 84 -41 l76 -41 -30 -41 c-16 -22 -30 -52 -30 -66 1 -23 3 -22 21 14 11
22 27 50 37 62 l17 21 75 -44 c72 -43 106 -56 83 -33 -9 9 -4 27 18 70 16 33
32 59 35 59 12 0 74 -42 74 -50 0 -4 -20 -11 -45 -14 -25 -4 -45 -12 -45 -17
0 -10 32 -7 82 7 16 5 15 0 -3 -55 -22 -63 -22 -112 -1 -119 7 -2 10 2 6 12
-4 10 0 18 10 22 9 3 16 14 16 23 0 9 11 40 23 70 22 54 23 54 86 72 64 17 65
17 94 -4 16 -12 45 -37 64 -54 35 -34 57 -41 68 -23 4 7 12 7 25 0 21 -11 67
-14 57 -3 -11 10 45 43 73 43 17 0 42 18 82 61 32 33 58 66 58 72 0 7 -25 -14
-54 -45 -30 -32 -57 -58 -61 -58 -4 0 32 43 80 95 67 73 92 94 106 90 24 -8
24 9 0 32 -25 24 -63 101 -67 137 -3 17 4 39 17 57 17 24 24 27 40 18 11 -6
25 -8 32 -6 7 2 0 10 -16 17 -26 13 -27 14 -11 38 21 32 10 41 -16 11 -14 -16
-12 -10 5 18 17 26 32 40 41 36 18 -7 98 43 144 91 l37 38 -5 74 c-4 72 -4 74
18 74 13 0 20 3 16 7 -4 5 -13 8 -19 8 -7 0 -13 20 -15 48 -3 45 -2 48 17 42
12 -3 21 -4 21 -2 0 13 -56 67 -70 67 -8 0 -42 18 -75 40 -33 22 -68 40 -77
40 -20 0 -23 5 -33 49 -6 29 -5 33 9 28 9 -4 16 -2 16 3 0 5 -8 11 -19 15 -10
3 -28 28 -40 57 -23 55 -41 61 -22 7 6 -18 11 -36 11 -40 0 -8 -119 28 -132
40 -3 3 11 35 33 71 21 36 42 71 47 79 6 11 16 10 52 -9 59 -29 57 -26 30 -55
-13 -14 -20 -28 -16 -32 4 -5 17 4 28 20 11 15 29 27 41 27 16 0 18 3 10 11
-18 18 13 75 31 59 11 -8 7 -25 -19 -88 -42 -97 -49 -122 -36 -122 5 0 15 17
22 37 23 72 61 143 75 143 23 0 16 13 -26 49 -22 19 -40 38 -40 43 0 8 -78
119 -142 201 -41 53 -46 67 -23 67 12 0 13 3 3 19 -11 19 -14 18 -71 -10 -32
-17 -66 -28 -74 -25 -8 4 -31 -7 -51 -22 -71 -56 -71 -56 -153 -5 -41 25 -100
55 -131 65 -56 19 -59 22 -93 89 -19 38 -35 76 -35 83 0 19 -23 33 -28 18 -2
-7 -12 -8 -34 0 -16 6 -56 8 -88 5 -31 -4 -71 -2 -89 3 -17 5 -31 5 -31 0z
m229 -56 c11 -14 25 -42 31 -62 6 -20 16 -47 22 -60 21 -42 -5 -40 -99 5 l-92
45 15 29 c8 16 19 29 24 29 6 0 10 5 10 10 0 24 -32 7 -47 -25 -9 -20 -22 -34
-27 -31 -94 38 -116 44 -121 36 -8 -13 51 -48 91 -56 l32 -6 -23 -56 c-13 -31
-28 -58 -34 -60 -6 -2 -27 12 -47 32 -20 20 -40 33 -45 30 -5 -3 -7 10 -5 27
2 18 8 35 15 37 6 2 8 8 5 13 -4 6 -11 6 -19 -1 -20 -16 -24 0 -11 40 9 29 16
36 44 38 18 2 40 -2 48 -9 9 -7 14 -8 14 -1 0 13 34 19 127 21 66 1 73 -1 92
-25z m-345 -9 c-4 -8 -10 -12 -15 -9 -14 8 -10 24 6 24 9 0 12 -6 9 -15z m268
-110 c34 -14 72 -32 84 -40 l22 -14 -23 -46 c-13 -25 -25 -50 -27 -56 -3 -9
-142 42 -161 60 -7 7 30 121 40 121 2 0 31 -11 65 -25z m-300 -30 c-2 -14 -8
-23 -12 -20 -10 6 -1 45 10 45 4 0 5 -11 2 -25z m531 -21 c18 -9 53 -31 78
-49 45 -32 102 -65 114 -65 16 0 1 18 -30 34 -19 11 -41 26 -47 34 -7 8 11 0
40 -18 28 -17 52 -36 52 -41 0 -5 7 -9 15 -9 18 0 19 -20 3 -43 -12 -16 -19
-13 -86 25 -57 33 -71 46 -66 60 6 20 -6 24 -23 7 -9 -9 -23 -5 -57 15 -49 29
-60 41 -51 56 9 14 21 13 58 -6z m-442 -10 c7 -8 25 -22 41 -30 l28 -14 -21
-53 c-12 -28 -23 -58 -26 -64 -3 -7 -1 -13 4 -13 4 0 19 27 32 60 13 33 27 60
32 60 4 0 29 -9 56 -21 26 -11 62 -27 80 -34 l32 -13 -18 -48 c-12 -30 -27
-51 -41 -56 -22 -8 -132 20 -248 65 -61 23 -60 23 -17 120 25 58 43 69 66 41z
m899 -6 c0 -7 16 -33 35 -57 35 -43 44 -71 25 -71 -5 0 -10 -5 -10 -11 0 -8 6
-7 16 2 14 11 19 10 35 -10 18 -22 18 -25 3 -42 -16 -17 -18 -17 -64 6 -27 14
-51 28 -53 32 -3 5 3 26 14 47 22 46 22 46 9 46 -6 0 -17 -18 -26 -40 -9 -22
-18 -40 -20 -40 -14 0 -82 41 -97 58 -18 20 -17 21 45 56 67 38 88 44 88 24z
m-1000 -73 l-22 -54 -37 15 c-20 8 -47 13 -60 12 -13 -2 -26 3 -28 9 -3 8 28
29 79 53 48 24 84 36 86 30 2 -6 -6 -35 -18 -65z m470 55 c11 -11 24 -20 30
-20 19 0 80 -34 80 -44 0 -6 -9 -30 -20 -53 l-19 -42 -78 35 c-43 20 -79 37
-80 38 -6 6 48 106 57 106 5 0 19 -9 30 -20z m-629 -27 c6 -6 4 -14 -5 -22
-12 -10 -25 -10 -68 4 -82 27 -83 38 -5 32 38 -3 73 -9 78 -14z m1014 -53 c10
-11 26 -22 36 -25 11 -4 19 -13 19 -21 0 -11 6 -13 20 -9 11 4 20 2 20 -4 0
-17 -33 -81 -42 -81 -5 0 -38 13 -74 30 l-65 29 16 31 c8 16 20 30 26 30 6 0
7 5 4 10 -7 11 2 30 14 30 4 0 16 -9 26 -20z m-185 -26 c34 -20 64 -42 67 -50
6 -16 -15 -74 -28 -74 -10 0 -132 51 -142 60 -7 6 27 100 37 100 3 0 32 -16
66 -36z m-742 -4 c23 -7 42 -14 42 -15 0 -4 -52 -120 -55 -124 -8 -8 -105 32
-105 43 0 7 7 35 15 63 17 57 21 58 103 33z m-333 0 c3 -5 1 -10 -4 -10 -6 0
-11 5 -11 10 0 6 2 10 4 10 3 0 8 -4 11 -10z m867 -31 c37 -18 68 -35 68 -38
0 -3 -43 -6 -95 -7 l-94 -1 14 35 c8 19 15 36 15 38 0 10 29 1 92 -27z m-929
-1 l-5 -23 19 23 c16 20 21 21 31 10 9 -11 6 -30 -10 -81 -12 -37 -25 -67 -29
-67 -4 0 -21 11 -37 25 -34 29 -44 31 -36 10 3 -8 21 -24 40 -35 33 -21 33
-22 18 -46 -9 -13 -20 -24 -24 -24 -4 0 -18 27 -30 60 l-22 60 41 55 c23 30
43 55 45 55 2 0 2 -10 -1 -22z m635 -53 c34 -10 59 -22 55 -26 -5 -5 -37 -16
-73 -25 -83 -21 -152 -56 -213 -106 -27 -22 -51 -38 -54 -34 -11 11 58 64 132
101 80 39 95 59 24 31 -46 -19 -99 -13 -99 10 0 8 11 37 25 64 l25 49 57 -23
c32 -12 86 -30 121 -41z m864 16 l46 -24 -16 -34 c-9 -18 -19 -33 -23 -33 -19
0 -99 41 -99 50 0 17 30 72 38 68 4 -2 28 -14 54 -27z m-1391 3 c20 -10 28
-21 25 -32 -33 -117 -26 -108 -73 -91 l-31 10 21 65 c12 35 23 64 25 64 1 0
16 -7 33 -16z m1520 -37 c10 -17 9 -17 -20 -2 -33 16 -39 30 -18 38 12 4 19
-2 38 -36z m-479 -24 c9 -3 18 -17 20 -32 3 -23 6 -19 30 32 15 32 31 57 35
55 5 -1 36 -14 71 -28 60 -24 62 -26 57 -55 l-6 -30 19 24 20 25 46 -18 c25
-10 48 -22 51 -27 6 -9 -41 -105 -70 -142 -12 -17 -18 -18 -49 -7 -20 6 -40
19 -45 28 -5 9 -13 14 -17 10 -11 -11 17 -39 54 -55 l33 -14 -19 -32 c-11 -18
-21 -38 -24 -46 -3 -9 -19 9 -41 46 -37 60 -111 131 -177 169 -61 36 -132 55
-230 64 -112 10 -180 28 -159 40 7 5 44 14 82 20 64 11 94 10 177 -6 29 -5 33
-4 23 7 -26 27 -11 28 45 3 31 -15 65 -28 74 -31z m-910 11 c6 -4 -30 -124
-38 -124 -6 0 -84 32 -84 35 0 2 21 65 35 102 3 9 14 9 42 1 21 -5 41 -12 45
-14z m1426 -39 c2 -2 -4 -16 -14 -32 -10 -15 -19 -29 -19 -31 -3 -4 -79 29
-92 40 -9 7 -8 17 4 43 l16 34 51 -26 c28 -14 52 -27 54 -28z m-1338 11 c25
-7 45 -15 44 -17 -8 -36 -29 -80 -43 -93 -17 -15 -24 -16 -60 -5 -23 7 -41 16
-41 22 0 22 36 107 45 107 5 0 30 -6 55 -14z m-410 -40 c0 -5 -7 -1 -15 10 -8
10 -14 24 -14 29 0 6 6 1 14 -9 8 -11 15 -24 15 -30z m858 29 c-3 -3 -43 -15
-89 -26 -114 -27 -149 -39 -149 -51 0 -6 8 -7 18 -3 9 4 59 18 111 31 129 33
278 35 374 5 69 -22 91 -38 37 -27 -57 11 -30 -10 41 -33 50 -16 85 -35 115
-63 51 -47 104 -134 104 -172 0 -15 6 -26 14 -26 23 0 41 -88 40 -200 -1 -87
-6 -116 -27 -170 -33 -85 -70 -161 -64 -132 10 44 -11 21 -32 -37 -25 -68 -56
-112 -75 -105 -8 3 -16 -4 -19 -18 -4 -14 -24 -34 -49 -48 l-43 -24 68 74 c37
40 65 75 62 78 -2 3 -36 -27 -74 -66 -38 -39 -81 -74 -95 -78 -14 -3 -26 -9
-26 -13 0 -16 -117 -63 -145 -58 l-30 4 32 2 c17 0 35 6 38 11 4 6 -34 10
-107 10 -117 0 -179 12 -261 48 -60 27 -60 34 0 16 53 -16 83 -18 83 -5 0 4
-19 11 -43 13 -61 7 -147 52 -199 106 -42 43 -137 189 -166 255 -15 34 -16 93
-2 102 13 8 13 25 0 25 -6 0 -16 -11 -22 -25 -20 -45 -28 -26 -28 69 0 106 13
158 37 149 13 -5 15 0 10 28 -8 39 7 76 19 46 5 -14 12 -10 44 25 34 39 39 41
55 28 16 -14 17 -13 11 6 -8 25 10 63 50 102 39 39 168 122 191 122 10 0 27 7
37 15 19 14 167 23 154 10z m-338 -21 c0 -2 -13 -10 -30 -19 -24 -12 -30 -13
-30 -2 0 21 20 35 41 30 10 -3 19 -7 19 -9z m-373 -35 l31 -10 -16 -50 c-16
-49 -18 -50 -46 -45 -46 9 -50 19 -31 70 20 51 19 50 62 35z m-137 -46 c0 -27
-18 -12 -22 19 -5 28 -4 29 9 13 7 -11 13 -25 13 -32z m232 15 c35 -10 39 -14
34 -37 -6 -26 -6 -26 9 -5 14 19 20 20 54 11 l39 -11 -40 -57 -41 -57 -56 25
c-31 14 -62 27 -68 30 -7 3 -13 8 -13 12 0 15 32 101 37 101 3 0 23 -5 45 -12z
m132 -119 c-21 -21 -42 -39 -47 -39 -9 0 24 51 57 88 18 21 21 21 24 7 2 -10
-13 -34 -34 -56z m-269 29 c30 -14 30 -14 5 -72 -20 -47 -35 -55 -71 -36 -24
13 -24 39 -1 84 19 39 28 42 67 24z m182 -82 c1 -1 -9 -36 -23 -77 -14 -40
-28 -100 -31 -131 -7 -70 -17 -73 -111 -28 l-63 29 14 33 c8 18 22 50 32 70
l18 37 64 -6 c44 -4 63 -2 63 6 0 7 -19 11 -50 11 -29 0 -50 5 -50 11 0 6 -9
8 -20 4 -25 -8 -25 1 0 58 l20 46 68 -31 c37 -16 68 -31 69 -32z m1285 22 l67
-23 -35 -57 c-20 -32 -39 -58 -42 -58 -4 0 -22 9 -40 20 -37 23 -42 24 -42 10
0 -5 18 -19 40 -30 l40 -21 -22 -39 -23 -39 -37 80 -37 81 24 49 c14 27 29 49
33 49 5 0 38 -10 74 -22z m-1526 -68 c27 -9 34 -16 29 -29 -4 -9 -11 -38 -16
-65 -5 -27 -11 -51 -12 -53 -2 -1 -21 6 -42 17 -56 28 -82 26 -104 -11 -17
-28 -20 -29 -35 -13 -9 9 -20 13 -24 9 -4 -4 3 -15 16 -25 19 -16 21 -23 12
-40 -6 -12 -9 -26 -7 -33 2 -7 10 0 17 16 16 33 19 33 79 2 l49 -24 -14 -47
c-8 -26 -15 -48 -17 -50 -1 -1 -38 12 -82 30 -69 27 -80 35 -78 54 2 12 -3 22
-10 22 -8 0 -8 3 -2 8 6 4 11 35 10 69 0 35 3 63 8 63 4 0 16 9 27 20 10 10
38 29 60 40 l42 21 -8 -23 c-6 -20 -5 -21 10 -9 9 7 16 20 16 27 0 8 5 14 10
14 6 0 10 12 10 28 1 22 2 24 10 10 6 -9 26 -22 46 -28z m1634 -13 c6 -23 13
-49 15 -57 2 -8 -5 -26 -15 -38 l-20 -24 -35 22 c-19 12 -35 26 -35 32 0 17
64 117 72 112 4 -3 12 -24 18 -47z m-1840 -47 c-20 -13 -33 -13 -25 0 3 6 14
10 23 10 15 0 15 -2 2 -10z m1810 -86 c0 -2 -10 -24 -21 -46 l-21 -42 -35 37
c-34 37 -34 38 -17 67 l17 29 39 -20 c21 -11 38 -22 38 -25z m115 29 c38 -18
41 -24 25 -54 -10 -18 -12 -18 -61 6 -27 14 -47 30 -43 36 3 6 12 8 20 5 8 -3
14 1 14 9 0 19 2 19 45 -2z m-1751 -38 c22 -15 24 -19 13 -43 -6 -15 -12 -28
-13 -30 -1 -2 -26 9 -57 24 -52 26 -55 29 -44 52 9 20 16 23 43 19 18 -3 44
-13 58 -22z m1847 0 l30 -16 -5 -132 -5 -132 -38 -22 c-21 -13 -48 -23 -61
-23 -22 0 -104 49 -117 70 -7 11 42 92 53 87 4 -2 35 -21 69 -41 34 -21 68
-36 75 -34 8 3 4 9 -12 18 -43 22 -120 73 -120 79 0 3 21 37 45 75 25 38 45
73 45 78 0 11 7 10 41 -7z m-134 -28 l43 -22 -27 -40 c-14 -22 -28 -42 -30
-44 -3 -5 -38 13 -67 34 -19 14 -19 16 -1 55 10 22 23 40 29 40 6 -1 30 -11
53 -23z m-1599 -30 l70 -32 -14 -27 c-14 -26 -15 -27 -53 -13 -21 7 -53 20
-69 29 -29 15 -30 18 -21 46 6 16 12 30 14 30 1 0 34 -15 73 -33z m1455 -71
c-14 -31 -20 -35 -42 -29 -25 6 -25 5 -8 -14 9 -11 17 -25 17 -31 0 -6 6 -9
13 -6 7 2 25 -8 40 -24 l28 -29 -23 -46 c-13 -25 -27 -46 -31 -47 -4 0 -18
-12 -31 -26 l-22 -27 -43 27 c-35 22 -42 32 -37 49 3 12 17 63 30 112 14 50
26 106 27 125 l1 35 10 -42 c5 -24 14 -43 19 -43 6 0 8 8 6 18 -25 92 -18 109
29 66 l34 -33 -17 -35z m-1483 -7 c30 -13 57 -24 58 -25 2 -1 -5 -23 -17 -48
l-20 -46 -53 21 c-29 11 -57 24 -62 29 -12 12 14 102 28 96 6 -2 36 -15 66
-27z m1560 6 l39 -25 -24 -36 c-14 -20 -25 -41 -25 -46 0 -13 -49 22 -60 43
-7 13 -5 28 7 53 9 20 18 36 20 36 2 0 21 -11 43 -25z m-1454 -22 c-10 -10
-19 5 -10 18 6 11 8 11 12 0 2 -7 1 -15 -2 -18z m-138 -100 c24 -8 41 -20 39
-27 -32 -79 -41 -96 -50 -96 -13 0 -57 40 -57 52 0 4 -9 17 -20 28 -11 11 -20
27 -20 35 0 9 -9 15 -25 15 -52 0 -125 52 -125 89 0 5 48 -10 108 -35 59 -25
126 -52 150 -61z m146 46 c3 -16 9 -42 12 -59 3 -16 4 -30 1 -30 -5 0 -81 31
-85 35 -1 1 6 23 17 48 23 53 46 55 55 6z m56 -5 c0 -12 -7 -27 -15 -34 -12
-10 -15 -10 -15 1 0 8 -3 24 -6 36 -5 18 -2 22 15 20 14 -1 21 -8 21 -23z
m-385 -38 c67 -28 90 -54 27 -32 -68 24 -122 56 -94 56 4 0 34 -11 67 -24z
m413 -25 c23 -52 122 -204 168 -258 25 -29 71 -67 104 -86 l58 -33 -18 -24
-19 -25 -48 24 c-32 17 -42 26 -31 28 9 3 27 -1 38 -7 12 -6 24 -9 28 -6 7 8
7 8 -71 40 -67 28 -68 29 -62 60 l6 31 -19 -23 c-18 -23 -19 -23 -55 -6 -41
19 -43 33 -8 50 13 7 18 14 13 18 -5 3 -22 -4 -36 -15 l-27 -21 -62 32 c-93
49 -90 44 -56 112 17 33 34 57 38 52 4 -5 15 -30 25 -56 18 -49 51 -98 66 -98
5 0 -1 15 -14 34 -12 19 -33 62 -46 96 -20 53 -21 64 -10 86 17 31 22 30 38
-5z m-89 -36 c5 -6 -50 -125 -58 -125 -9 0 -71 39 -71 45 0 2 11 29 25 60 l24
56 38 -16 c20 -9 39 -18 42 -20z m1484 9 c32 -21 36 -28 24 -37 -8 -7 -19 -21
-25 -32 -11 -20 -11 -19 -12 2 0 12 -4 25 -10 28 -6 4 -10 -8 -10 -30 0 -19
-7 -52 -15 -71 l-15 -36 -30 22 c-16 12 -30 26 -30 31 0 16 70 149 78 149 4 0
24 -12 45 -26z m-1660 -79 c27 -24 28 -26 13 -55 -14 -28 -14 -29 5 -20 10 6
19 17 19 25 0 8 2 15 5 15 11 0 65 -31 65 -37 0 -3 -12 -26 -26 -50 -14 -24
-24 -49 -21 -56 2 -6 17 12 33 41 16 29 31 52 34 52 3 0 37 -17 76 -37 l72
-38 -45 -63 -45 -62 -29 24 c-31 26 -67 41 -76 32 -3 -3 18 -20 46 -37 28 -18
51 -34 51 -36 0 -11 -46 -83 -53 -83 -11 0 -84 48 -134 88 -24 18 -43 29 -43
25 0 -15 50 -58 113 -97 l57 -37 -25 -50 c-15 -28 -30 -47 -36 -43 -6 3 -24
27 -40 52 -22 34 -26 49 -18 59 9 10 8 13 -4 13 -8 0 -30 24 -49 53 -18 28
-36 57 -40 64 -5 6 7 29 27 53 19 23 35 52 35 64 0 13 3 26 7 30 4 3 12 22 19
42 11 32 11 34 -7 29 -12 -4 -19 -2 -19 7 0 7 -3 23 -6 36 -8 28 4 28 39 -3z
m1752 4 c-12 -19 -49 -27 -62 -13 -20 20 -16 24 28 24 26 0 38 -4 34 -11z
m-312 -21 c18 -12 33 -23 35 -24 2 -1 -10 -21 -26 -43 l-30 -41 -23 24 c-13
14 -27 22 -32 19 -5 -3 3 -18 18 -33 l27 -28 -26 -51 c-15 -28 -30 -51 -34
-51 -4 0 -23 13 -42 28 l-34 29 24 39 c13 21 30 43 37 47 7 4 22 30 34 57 12
28 26 50 31 50 6 0 24 -10 41 -22z m207 -48 c-6 -11 -13 -20 -16 -20 -2 0 0 9
6 20 6 11 13 20 16 20 2 0 0 -9 -6 -20z m-140 5 c0 -14 -41 -85 -50 -85 -20 0
-18 18 7 53 23 33 43 47 43 32z m56 -34 c16 -12 20 -25 17 -44 -8 -43 -28 -53
-69 -34 l-34 17 20 40 c23 44 35 48 66 21z m54 -62 c-7 -11 -14 -18 -17 -15
-3 3 0 12 7 21 18 21 23 19 10 -6z m-146 -15 c21 -11 32 -22 29 -30 -4 -10 4
-14 27 -14 22 0 31 -4 27 -12 -31 -79 -41 -98 -48 -98 -11 0 -108 48 -126 62
-8 7 -4 22 15 59 15 27 30 49 34 49 4 0 23 -7 42 -16z m-1131 -20 c18 -9 33
-18 35 -19 3 -3 -56 -125 -64 -134 -5 -6 -104 41 -104 48 0 17 79 121 91 121
5 0 24 -7 42 -16z m982 -58 c20 -15 20 -15 -5 -61 -31 -58 -33 -59 -67 -41
-55 30 -55 29 -38 76 9 24 23 52 32 62 15 17 17 17 37 -2 11 -11 30 -26 41
-34z m-900 18 c12 -5 13 -9 5 -14 -20 -12 -3 -28 61 -60 l59 -30 -30 -60 c-17
-33 -33 -60 -37 -60 -10 0 -143 81 -149 92 -6 10 57 138 68 138 3 0 14 -3 23
-6z m770 -45 c-14 -26 -18 -29 -33 -18 -9 8 -19 14 -20 15 -5 3 51 33 61 34 4
0 0 -14 -8 -31z m401 -3 c3 -19 3 -39 0 -44 -3 -6 0 -27 8 -49 11 -31 11 -42
1 -56 -7 -9 -17 -17 -23 -17 -6 0 -27 -14 -46 -31 -31 -27 -38 -29 -58 -18
-19 10 -163 104 -177 115 -2 2 11 26 29 53 l32 50 69 -34 c38 -20 69 -38 69
-41 0 -2 -9 -23 -20 -44 -11 -22 -16 -40 -10 -40 5 0 19 18 30 40 18 35 23 39
40 30 31 -16 46 -11 20 7 -14 9 -26 17 -28 18 -6 4 40 95 48 95 5 0 12 -15 16
-34z m-460 -17 c19 -11 34 -26 34 -32 0 -15 -48 -107 -64 -124 -9 -10 -31 0
-100 44 l-89 56 39 12 c22 6 62 23 89 38 28 14 52 26 54 27 2 0 19 -9 37 -21z
m-1198 -46 c17 -29 27 -55 23 -58 -11 -6 -48 55 -57 93 -9 34 -3 29 34 -35z
m759 42 c31 -8 79 -15 105 -15 33 0 55 -6 70 -20 13 -10 31 -25 41 -33 18 -12
18 -15 -8 -70 -15 -31 -30 -57 -33 -57 -4 0 -101 57 -110 65 -2 2 6 21 17 43
12 23 17 43 12 46 -4 3 -16 -12 -26 -34 -10 -22 -20 -40 -22 -40 -4 0 -154 80
-162 87 -7 5 33 42 46 42 7 1 38 -6 70 -14z m953 -80 c0 -29 -19 -14 -29 23
-16 55 -13 61 9 24 11 -18 20 -39 20 -47z m-1343 8 c54 -31 114 -66 135 -78
l36 -21 -22 -36 -22 -37 -61 28 c-62 30 -87 51 -59 51 9 0 16 5 16 10 0 12 -3
12 -33 1 -18 -7 -32 -5 -56 10 -18 11 -36 17 -41 14 -4 -3 -18 3 -31 13 l-22
19 23 41 c13 23 27 42 31 42 5 0 52 -26 106 -57z m953 -8 c5 -6 -3 -30 -21
-58 -31 -50 -34 -57 -21 -57 4 0 15 15 25 33 41 74 35 73 133 12 49 -30 95
-58 102 -62 10 -6 -2 -24 -46 -66 -60 -57 -97 -71 -108 -42 -4 8 -12 15 -19
15 -16 0 -75 48 -75 61 0 6 8 6 19 -1 27 -14 36 -13 22 4 -9 11 -9 15 1 19 28
9 1 15 -39 8 -36 -7 -48 -5 -78 16 l-35 24 35 70 36 70 30 -18 c17 -10 34 -23
39 -28z m-609 -7 c44 -23 79 -47 79 -52 0 -6 -9 -26 -21 -45 -11 -18 -17 -36
-13 -40 4 -3 8 -1 10 4 2 6 13 25 24 43 l21 34 47 -28 c67 -38 67 -38 48 -87
-32 -83 -35 -85 -100 -46 -31 19 -54 39 -52 45 7 17 -5 25 -19 14 -9 -7 -34 2
-86 31 -41 23 -76 43 -78 45 -5 5 50 124 57 124 3 0 40 -19 83 -42z m351 -41
c29 -19 77 -46 106 -62 28 -15 52 -31 52 -35 0 -10 -66 -31 -96 -30 -16 1 -41
-2 -56 -5 -20 -5 -37 0 -72 24 l-45 32 26 54 c15 30 28 55 30 55 1 0 26 -15
55 -33z m-1003 -24 l22 -38 -26 28 c-14 15 -25 32 -25 38 0 17 8 9 29 -28z
m219 -18 c11 -10 5 -16 -34 -29 -26 -9 -61 -16 -76 -16 l-29 0 28 49 27 50 36
-21 c19 -12 41 -27 48 -33z m776 -140 c-4 -8 -8 -15 -10 -15 -2 0 -4 7 -4 15
0 8 4 15 10 15 5 0 7 -7 4 -15z m302 -20 c10 -8 14 -15 8 -15 -5 0 -19 7 -30
15 -10 8 -14 15 -8 15 5 0 19 -7 30 -15z"/>
<path d="M1213 1498 c-135 -15 -232 -105 -249 -232 -6 -44 24 -209 36 -201 3
2 19 -5 36 -16 42 -27 52 -24 70 21 9 22 20 40 25 40 6 0 28 -9 50 -20 l39
-21 -27 -47 c-14 -26 -27 -48 -27 -49 -4 -7 -114 41 -133 59 -13 12 -23 16
-23 10 0 -20 42 -51 92 -68 26 -8 48 -19 48 -24 0 -4 -7 -24 -16 -45 -8 -20
-13 -42 -11 -48 2 -7 14 12 27 41 l22 52 70 0 c80 0 107 12 163 69 21 23 44
41 51 41 6 0 24 10 39 22 l27 21 -15 -29 c-20 -38 -44 -60 -92 -80 -27 -12
-34 -19 -23 -21 25 -6 94 33 118 67 15 21 25 57 32 108 18 142 -8 252 -73 306
-18 16 -27 30 -23 40 3 9 2 16 -4 16 -6 0 -12 -5 -14 -11 -3 -9 -24 -9 -78 -3
-41 5 -103 6 -137 2z m-8 -65 c-38 -66 -39 -66 -66 -44 -19 16 -22 22 -11 32
22 24 12 31 -15 11 -16 -11 -39 -38 -53 -61 -14 -22 -31 -41 -39 -41 -8 0 -11
-6 -7 -16 3 -8 1 -24 -4 -35 -13 -23 5 -27 18 -3 8 15 12 15 41 0 33 -18 33
-24 -3 -69 -12 -15 -18 -16 -35 -7 -12 6 -21 18 -21 27 0 13 -3 14 -12 5 -9
-9 -6 -18 14 -39 25 -28 25 -28 7 -57 l-18 -29 -8 29 c-16 58 -9 166 14 210
37 69 131 133 196 134 l29 0 -27 -47z m189 10 c33 -34 75 -127 63 -139 -3 -3
-15 -1 -26 6 -15 8 -21 20 -21 46 0 21 -4 33 -10 29 -5 -3 -10 -15 -10 -26 0
-25 -8 -24 -53 7 -40 27 -40 37 2 72 10 8 12 15 5 22 -7 7 -28 -13 -63 -60
-46 -60 -56 -68 -72 -59 -26 13 -24 25 13 86 l32 53 52 0 c47 0 55 -4 88 -37z
m66 -9 c28 -25 44 -52 55 -87 19 -63 19 -77 0 -77 -8 0 -15 7 -15 15 0 8 -4
15 -9 15 -4 0 -14 20 -21 45 -7 25 -26 64 -41 85 -36 50 -22 51 31 4z m-330
-64 l25 -19 -19 -35 c-21 -40 -24 -41 -61 -24 -30 14 -31 21 -4 64 24 39 26
40 59 14z m231 -42 c14 -5 -5 -48 -22 -48 -15 0 -89 39 -89 47 0 4 10 17 21
30 l22 22 28 -23 c16 -13 34 -26 40 -28z m-159 -1 c15 -12 15 -15 -4 -45 -22
-36 -27 -37 -51 -19 -15 11 -15 14 4 45 23 36 27 37 51 19z m223 -34 c39 -19
40 -21 21 -46 -13 -17 -16 -17 -45 -2 -32 16 -35 22 -25 49 8 20 6 20 49 -1z
m-131 -15 l45 -22 -17 -28 c-19 -33 -23 -33 -79 -10 -47 19 -51 27 -27 60 19
27 23 27 78 0z m-144 -38 c19 -10 19 -11 -2 -48 -12 -20 -23 -38 -24 -40 -2
-3 -43 16 -53 24 -6 5 43 74 52 74 5 0 17 -5 27 -10z m268 -25 c5 -4 -27 -65
-34 -65 -10 0 -64 31 -64 36 0 3 8 19 17 34 16 28 17 28 47 13 17 -9 32 -17
34 -18z m62 15 c0 -13 -5 -18 -14 -14 -8 3 -12 12 -9 20 8 21 23 17 23 -6z
m44 -27 c-4 -28 -15 -56 -27 -68 l-20 -20 8 20 c5 11 10 41 13 68 3 31 9 47
18 47 10 0 12 -11 8 -47z m-280 -5 l45 -22 -21 -35 c-31 -53 -32 -54 -69 -37
-62 27 -63 29 -40 75 12 22 26 41 31 41 5 0 30 -10 54 -22z m236 -15 c0 -16
-28 -73 -35 -73 -3 0 -14 5 -24 12 -19 12 -19 12 0 49 14 29 23 36 39 32 11
-3 20 -12 20 -20z m-136 -34 c20 -12 36 -23 36 -25 0 -2 -27 -63 -36 -82 -1
-1 -22 6 -48 17 l-46 20 27 46 c16 25 29 45 30 45 1 0 18 -9 37 -21z m-255 -7
c21 -16 21 -19 6 -55 -17 -42 -24 -44 -56 -18 -23 19 -23 20 -6 55 19 41 26
43 56 18z m338 -40 c9 -6 5 -17 -15 -40 -15 -18 -31 -32 -35 -32 -11 0 -8 26
5 55 12 26 24 30 45 17z m-128 -63 c58 -25 61 -38 10 -56 -35 -12 -119 -17
-119 -7 0 10 45 84 51 84 4 0 30 -10 58 -21z"/>
<path d="M707 906 c-10 -14 -13 -26 -8 -26 13 0 33 28 29 41 -2 6 -12 0 -21
-15z"/>
</g>
</svg>
