<?xml version="1.0" encoding="UTF-8" standalone="no"?>
<!DOCTYPE svg PUBLIC "-//W3C//DTD SVG 1.1//EN" "http://www.w3.org/Graphics/SVG/1.1/DTD/svg11.dtd">
<svg width="100%" height="100%" viewBox="0 0 702 702" version="1.1" xmlns="http://www.w3.org/2000/svg" xmlns:xlink="http://www.w3.org/1999/xlink" xml:space="preserve" xmlns:serif="http://www.serif.com/" style="fill-rule:evenodd;clip-rule:evenodd;stroke-linejoin:round;stroke-miterlimit:2;">
    <g transform="matrix(1,0,0,1,-447.848,-100.157)">
        <g transform="matrix(3.24506,3.41708e-16,-3.41708e-16,3.24506,399.844,51.0462)">
            <g transform="matrix(1.302,-0.34887,0.34887,1.302,-135.029,-13.8355)">
                <path d="M173.574,68.759C163.61,66.856 153.375,66.856 143.411,68.759C141.713,73.137 140.309,77.607 139.2,82.17C134.543,83.541 130.045,85.404 125.783,87.728C121.772,85.286 117.619,83.117 113.322,81.222C104.93,86.923 97.693,94.159 91.993,102.551C93.888,106.848 96.056,111.001 98.499,115.012C96.175,119.274 94.312,123.772 92.941,128.429C88.378,129.538 83.908,130.942 79.53,132.64C77.627,142.605 77.627,152.839 79.53,162.803C83.908,164.502 88.378,165.906 92.941,167.014C94.312,171.672 96.175,176.169 98.499,180.432C96.056,184.442 93.888,188.596 91.993,192.893C97.693,201.284 104.93,208.521 113.322,214.221C117.619,212.327 121.772,210.158 125.783,207.716C130.045,210.04 134.543,211.903 139.2,213.273C140.309,217.836 141.713,222.307 143.411,226.685C153.375,228.588 163.61,228.588 173.574,226.685C175.273,222.307 176.677,217.836 177.785,213.273C182.443,211.903 186.94,210.04 191.203,207.716C195.213,210.158 199.367,212.327 203.663,214.221C212.055,208.521 219.292,201.284 224.992,192.893C223.098,188.596 220.929,184.442 218.487,180.432C220.81,176.169 222.674,171.672 224.044,167.014C228.607,165.906 233.078,164.502 237.455,162.803C239.359,152.839 239.359,142.605 237.455,132.64C233.078,130.942 228.607,129.538 224.044,128.429C222.674,123.772 220.81,119.274 218.487,115.012C220.929,111.001 223.098,106.848 224.992,102.551C219.292,94.159 212.055,86.923 203.663,81.222C199.367,83.117 195.213,85.286 191.203,87.728C186.94,85.404 182.443,83.541 177.785,82.17C176.677,77.607 175.273,73.137 173.574,68.759ZM158.493,105.88C181.586,105.88 200.335,124.629 200.335,147.722C200.335,170.815 181.586,189.564 158.493,189.564C135.399,189.564 116.651,170.815 116.651,147.722C116.651,124.629 135.399,105.88 158.493,105.88Z" style="fill:url(#_Radial1);"/>
            </g>
            <g transform="matrix(1.0407,0,0,1.0407,-13.0808,-12.9775)">
                <circle cx="130.759" cy="130.857" r="28.908" style="fill:url(#_Radial2);"/>
            </g>
        </g>
    </g>
    <defs>
        <radialGradient id="_Radial1" cx="0" cy="0" r="1" gradientUnits="userSpaceOnUse" gradientTransform="matrix(57.972,-55.9743,55.9743,57.972,158.864,147.619)"><stop offset="0" style="stop-color:rgb(233,188,75);stop-opacity:1"/><stop offset="0.45" style="stop-color:rgb(236,170,62);stop-opacity:1"/><stop offset="1" style="stop-color:rgb(243,128,32);stop-opacity:1"/></radialGradient>
        <radialGradient id="_Radial2" cx="0" cy="0" r="1" gradientUnits="userSpaceOnUse" gradientTransform="matrix(20.1025,-20.1025,20.1025,20.1025,131.059,130.604)"><stop offset="0" style="stop-color:rgb(233,188,75);stop-opacity:1"/><stop offset="0.52" style="stop-color:rgb(235,174,65);stop-opacity:1"/><stop offset="1" style="stop-color:rgb(243,128,32);stop-opacity:1"/></radialGradient>
    </defs>
</svg>
